<?xml version="1.0" encoding="UTF-8" standalone="no"?>
<!-- Created with Inkscape (http://www.inkscape.org/) -->

<svg
   xmlns:dc="http://purl.org/dc/elements/1.1/"
   xmlns:cc="http://creativecommons.org/ns#"
   xmlns:rdf="http://www.w3.org/1999/02/22-rdf-syntax-ns#"
   xmlns:svg="http://www.w3.org/2000/svg"
   xmlns="http://www.w3.org/2000/svg"
   xmlns:sodipodi="http://sodipodi.sourceforge.net/DTD/sodipodi-0.dtd"
   xmlns:inkscape="http://www.inkscape.org/namespaces/inkscape"
   id="svg4047"
   version="1.1"
   inkscape:version="0.48.2 r9819"
   width="356"
   height="189.54079"
   xml:space="preserve"
   sodipodi:docname="friction coefficients.svg"
   inkscape:export-filename="C:\Book Ideas\images\friction_coefficients.png"
   inkscape:export-xdpi="100.18951"
   inkscape:export-ydpi="100.18951"><metadata
     id="metadata4053"><rdf:RDF><cc:Work
         rdf:about=""><dc:format>image/svg+xml</dc:format><dc:type
           rdf:resource="http://purl.org/dc/dcmitype/StillImage" /><dc:title></dc:title></cc:Work></rdf:RDF></metadata><defs
     id="defs4051" /><sodipodi:namedview
     pagecolor="#ffffff"
     bordercolor="#666666"
     borderopacity="1"
     objecttolerance="10"
     gridtolerance="10"
     guidetolerance="10"
     inkscape:pageopacity="0"
     inkscape:pageshadow="2"
     inkscape:window-width="1440"
     inkscape:window-height="850"
     id="namedview4049"
     showgrid="false"
     fit-margin-top="0"
     fit-margin-left="10"
     fit-margin-right="10"
     fit-margin-bottom="5"
     inkscape:zoom="2.1950471"
     inkscape:cx="123.88152"
     inkscape:cy="99.770389"
     inkscape:window-x="-8"
     inkscape:window-y="-8"
     inkscape:window-maximized="1"
     inkscape:current-layer="g4626" /><g
     id="g4055"
     inkscape:groupmode="layer"
     inkscape:label="frictional-characteristics-roadside-grass-types"
     transform="matrix(1.25,0,0,-1.25,-292.37109,816.51794)"><g
   id="g4626"
   transform="translate(20.032166,0)">











































<g
   id="g3088"
   transform="translate(-7.457811,0)"><path
     inkscape:connector-curvature="0"
     d="m 230.34592,637.97435 267.66039,0 0,1.5 -267.66039,0 0,-1.5 z"
     style="fill:#000000;fill-opacity:1;fill-rule:nonzero;stroke:none"
     id="path4117" /><text
     style="font-size:12px"
     y="-642.41467"
     x="235.50266"
     id="text4081"
     transform="scale(1,-1)"><tspan
       style="font-size:10.02000046px;font-variant:normal;font-weight:bold;font-stretch:normal;writing-mode:lr-tb;fill:#000000;fill-opacity:1;fill-rule:nonzero;stroke:none;font-family:Arial;-inkscape-font-specification:Arial-BoldMT"
       x="235.50266 242.19 248.31622 252.21802 255.55869 261.13379 266.6488 272.22394 274.98544 281.16177 286.55655 292.73288 298.30801"
       y="-642.41467"
       sodipodi:role="line"
       id="tspan4083">Surface Type</tspan></text>
<text
     style="font-size:12px"
     y="-641.63507"
     x="370.5022"
     id="text4085"
     transform="scale(1,-1)"><tspan
       style="font-size:10.02000046px;font-variant:normal;font-weight:bold;font-stretch:normal;writing-mode:lr-tb;fill:#000000;fill-opacity:1;fill-rule:nonzero;stroke:none;font-family:Arial;-inkscape-font-specification:Arial-BoldMT"
       x="370.5022 377.73862 383.86285 389.37585 392.71454 396.05319 398.84076 404.41388 407.20145 412.77457 418.83868 422.17734 424.93884 431.00293 434.36166 437.12317 443.24741 447.14719 449.93475 455.50787 458.84653 461.63409 467.7583 473.88254 476.64404"
       y="-641.63507"
       sodipodi:role="line"
       id="tspan4087">Coefficient of Friction (</tspan></text>
<text
     style="font-size:12px"
     y="-641.63507"
     x="480.00076"
     id="text4089"
     transform="scale(1,-1)"><tspan
       style="font-size:10.02000046px;font-variant:normal;font-weight:normal;font-stretch:normal;writing-mode:lr-tb;fill:#000000;fill-opacity:1;fill-rule:nonzero;stroke:#000000;stroke-width:0.2;stroke-linecap:butt;stroke-linejoin:miter;stroke-miterlimit:1;stroke-opacity:1;stroke-dasharray:none;font-family:Symbol;-inkscape-font-specification:SymbolMT"
       x="480.00076"
       y="-641.63507"
       id="tspan4091">μ</tspan></text>
<text
     style="font-size:12px"
     y="-641.63507"
     x="485.70215"
     id="text4093"
     transform="scale(1,-1)"><tspan
       style="font-size:10.02000046px;font-variant:normal;font-weight:bold;font-stretch:normal;writing-mode:lr-tb;fill:#000000;fill-opacity:1;fill-rule:nonzero;stroke:none;font-family:Arial;-inkscape-font-specification:Arial-BoldMT"
       x="485.70215 489.00171"
       y="-641.63507"
       sodipodi:role="line"
       id="tspan4095">)</tspan></text>
<path
     inkscape:connector-curvature="0"
     d="m 230.34592,651.71435 267.66039,0 0,1.5 -267.66039,0 0,-1.5 z"
     style="fill:#000000;fill-opacity:1;fill-rule:nonzero;stroke:none"
     id="path4099" /><path
     inkscape:connector-curvature="0"
     d="m 496.62252,651.71435 1.5,0 0,1.5 -1.5,0 0,-1.5 z"
     style="fill:#000000;fill-opacity:1;fill-rule:nonzero;stroke:none"
     id="path4101" /><path
     inkscape:connector-curvature="0"
     d="m 361.38252,639.47435 1.5,0 0,12.24 -1.5,0 0,-12.24 z"
     style="fill:#000000;fill-opacity:1;fill-rule:nonzero;stroke:none"
     id="path4105" /><path
     inkscape:connector-curvature="0"
     d="m 496.62252,517.74576 1.5,0 0,133.96859 -1.5,0 0,-133.96859 z"
     style="fill:#000000;fill-opacity:1;fill-rule:nonzero;stroke:none"
     id="path4107" /><text
     style="font-size:12px"
     y="-628.73468"
     x="235.50266"
     id="text4109"
     transform="scale(1,-1)"><tspan
       style="font-size:10.02000046px;font-variant:normal;font-weight:normal;font-stretch:normal;writing-mode:lr-tb;fill:#000000;fill-opacity:1;fill-rule:nonzero;stroke:none;font-family:Arial;-inkscape-font-specification:ArialMT"
       x="235.50266 243.30022 246.63887 252.21201 257.224 262.79712 265.02356 267.78506 273.35822 278.87122 284.44434 287.20584 292.77896 294.93527 298.27396 301.06149 303.82303 307.16168 312.7348 318.30795 323.88107"
       y="-628.73468"
       sodipodi:role="line"
       id="tspan4111">Gravel and dirt road</tspan></text>
<text
     style="font-size:12px"
     y="-628.73468"
     x="419.9498"
     id="text4113"
     transform="scale(1,-1)"><tspan
       style="font-size:10.02000046px;font-variant:normal;font-weight:normal;font-stretch:normal;writing-mode:lr-tb;fill:#000000;fill-opacity:1;fill-rule:nonzero;stroke:none;font-family:Arial;-inkscape-font-specification:ArialMT"
       x="419.9498 425.52292 428.31049 433.88361 439.45673"
       y="-628.73468"
       sodipodi:role="line"
       id="tspan4115">0.35</tspan></text>
<path
     inkscape:connector-curvature="0"
     d="m 361.38252,626.45435 1.5,0 0,11.52 -1.5,0 0,-11.52 z"
     style="fill:#000000;fill-opacity:1;fill-rule:nonzero;stroke:none"
     id="path4121" /><text
     style="font-size:12px"
     y="-616.73468"
     x="235.50266"
     id="text4125"
     transform="scale(1,-1)"><tspan
       style="font-size:10.02000046px;font-variant:normal;font-weight:normal;font-stretch:normal;writing-mode:lr-tb;fill:#000000;fill-opacity:1;fill-rule:nonzero;stroke:none;font-family:Arial;-inkscape-font-specification:ArialMT"
       x="235.50266 244.95953 250.52864 253.31219 256.09573 258.85727 264.42636 267.76102 273.28006 278.258 283.26599 288.27399 291.03549 293.81906 296.04147 301.6106 303.83304 309.40216"
       y="-616.73468"
       sodipodi:role="line"
       id="tspan4127">Wet, grassy field</tspan></text>
<text
     style="font-size:12px"
     y="-616.73468"
     x="419.98529"
     id="text4129"
     transform="scale(1,-1)"><tspan
       style="font-size:10.02000046px;font-variant:normal;font-weight:normal;font-stretch:normal;writing-mode:lr-tb;fill:#000000;fill-opacity:1;fill-rule:nonzero;stroke:none;font-family:Arial;-inkscape-font-specification:ArialMT"
       x="419.98529 425.55441 428.33798 433.90707 439.4762"
       y="-616.73468"
       sodipodi:role="line"
       id="tspan4131">0.20</tspan></text>
<path
     inkscape:connector-curvature="0"
     d="m 230.34592,625.97435 267.66039,0 0,0.48 -267.66039,0 0,-0.48 z"
     style="fill:#000000;fill-opacity:1;fill-rule:nonzero;stroke:none"
     id="path4133" /><path
     inkscape:connector-curvature="0"
     d="m 361.38252,614.45435 1.5,0 0,11.52 -1.5,0 0,-11.52 z"
     style="fill:#000000;fill-opacity:1;fill-rule:nonzero;stroke:none"
     id="path4137" /><text
     style="font-size:12px"
     y="-604.73474"
     x="235.50266"
     id="text4141"
     transform="scale(1,-1)"><tspan
       style="font-size:10.02000046px;font-variant:normal;font-weight:normal;font-stretch:normal;writing-mode:lr-tb;fill:#000000;fill-opacity:1;fill-rule:nonzero;stroke:none;font-family:Arial;-inkscape-font-specification:ArialMT"
       x="235.50266 242.73608 246.07175 251.08075 253.84225 259.41235 264.42136 269.99149 275.56158 281.13171 283.35516 334.46219"
       y="-604.73474"
       sodipodi:role="line"
       id="tspan4143">Dry asphalt</tspan></text>
<text
     style="font-size:12px"
     y="-604.73474"
     x="419.96619"
     id="text4145"
     transform="scale(1,-1)"><tspan
       style="font-size:10.02000046px;font-variant:normal;font-weight:normal;font-stretch:normal;writing-mode:lr-tb;fill:#000000;fill-opacity:1;fill-rule:nonzero;stroke:none;font-family:Arial;-inkscape-font-specification:ArialMT"
       x="419.96619 425.53632 428.32086 433.89096 439.46109"
       y="-604.73474"
       sodipodi:role="line"
       id="tspan4147">0.65</tspan></text>
<path
     inkscape:connector-curvature="0"
     d="m 230.34592,613.97435 267.66039,0 0,0.48 -267.66039,0 0,-0.48 z"
     style="fill:#000000;fill-opacity:1;fill-rule:nonzero;stroke:none"
     id="path4149" /><path
     inkscape:connector-curvature="0"
     d="m 361.38252,602.45435 1.5,0 0,11.52 -1.5,0 0,-11.52 z"
     style="fill:#000000;fill-opacity:1;fill-rule:nonzero;stroke:none"
     id="path4153" /><text
     style="font-size:12px"
     y="-592.73474"
     x="235.50266"
     id="text4157"
     transform="scale(1,-1)"><tspan
       style="font-size:10.02000046px;font-variant:normal;font-weight:normal;font-stretch:normal;writing-mode:lr-tb;fill:#000000;fill-opacity:1;fill-rule:nonzero;stroke:none;font-family:Arial;-inkscape-font-specification:ArialMT"
       x="235.50266 244.95853 250.52664 253.30919 256.07071 261.63882 266.64581 272.21393 277.78204 283.35016 285.57159 336.6666"
       y="-592.73474"
       sodipodi:role="line"
       id="tspan4159">Wet asphalt</tspan></text>
<text
     style="font-size:12px"
     y="-592.73474"
     x="419.9465"
     id="text4161"
     transform="scale(1,-1)"><tspan
       style="font-size:10.02000046px;font-variant:normal;font-weight:normal;font-stretch:normal;writing-mode:lr-tb;fill:#000000;fill-opacity:1;fill-rule:nonzero;stroke:none;font-family:Arial;-inkscape-font-specification:ArialMT"
       x="419.9465 425.51462 428.29715 433.86526 439.43338"
       y="-592.73474"
       sodipodi:role="line"
       id="tspan4163">0.50</tspan></text>
<path
     inkscape:connector-curvature="0"
     d="m 230.34592,601.97435 267.66039,0 0,0.48 -267.66039,0 0,-0.48 z"
     style="fill:#000000;fill-opacity:1;fill-rule:nonzero;stroke:none"
     id="path4165" /><path
     inkscape:connector-curvature="0"
     d="m 361.38252,590.45435 1.5,0 0,11.52 -1.5,0 0,-11.52 z"
     style="fill:#000000;fill-opacity:1;fill-rule:nonzero;stroke:none"
     id="path4169" /><text
     style="font-size:12px"
     y="-580.73474"
     x="235.50266"
     id="text4173"
     transform="scale(1,-1)"><tspan
       style="font-size:10.02000046px;font-variant:normal;font-weight:normal;font-stretch:normal;writing-mode:lr-tb;fill:#000000;fill-opacity:1;fill-rule:nonzero;stroke:none;font-family:Arial;-inkscape-font-specification:ArialMT"
       x="235.50266 242.7381 246.07576 251.08676 253.84827 258.85925 264.38129 269.9534 274.96442 278.30206 283.87421 286.66077 292.18277"
       y="-580.73474"
       sodipodi:role="line"
       id="tspan4175">Dry concrete</tspan></text>
<text
     style="font-size:12px"
     y="-580.73474"
     x="419.97678"
     id="text4177"
     transform="scale(1,-1)"><tspan
       style="font-size:10.02000046px;font-variant:normal;font-weight:normal;font-stretch:normal;writing-mode:lr-tb;fill:#000000;fill-opacity:1;fill-rule:nonzero;stroke:none;font-family:Arial;-inkscape-font-specification:ArialMT"
       x="419.97678 425.54892 428.33548 433.90759 439.47971"
       y="-580.73474"
       sodipodi:role="line"
       id="tspan4179">0.75</tspan></text>
<path
     inkscape:connector-curvature="0"
     d="m 230.34592,589.97435 267.66039,0 0,0.48 -267.66039,0 0,-0.48 z"
     style="fill:#000000;fill-opacity:1;fill-rule:nonzero;stroke:none"
     id="path4181" /><path
     inkscape:connector-curvature="0"
     d="m 361.38252,578.45435 1.5,0 0,11.52 -1.5,0 0,-11.52 z"
     style="fill:#000000;fill-opacity:1;fill-rule:nonzero;stroke:none"
     id="path4185" /><text
     style="font-size:12px"
     y="-568.73474"
     x="235.50266"
     id="text4189"
     transform="scale(1,-1)"><tspan
       style="font-size:10.02000046px;font-variant:normal;font-weight:normal;font-stretch:normal;writing-mode:lr-tb;fill:#000000;fill-opacity:1;fill-rule:nonzero;stroke:none;font-family:Arial;-inkscape-font-specification:ArialMT"
       x="235.50266 244.96153 250.53265 253.31821 256.0787 261.08871 266.60974 272.18085 277.19086 280.52753 286.09863 288.88419 294.40521"
       y="-568.73474"
       sodipodi:role="line"
       id="tspan4191">Wet concrete</tspan></text>
<text
     style="font-size:12px"
     y="-568.73474"
     x="419.97989"
     id="text4193"
     transform="scale(1,-1)"><tspan
       style="font-size:10.02000046px;font-variant:normal;font-weight:normal;font-stretch:normal;writing-mode:lr-tb;fill:#000000;fill-opacity:1;fill-rule:nonzero;stroke:none;font-family:Arial;-inkscape-font-specification:ArialMT"
       x="419.97989 425.55099 428.33658 433.90768 439.47882"
       y="-568.73474"
       sodipodi:role="line"
       id="tspan4195">0.60</tspan></text>
<path
     inkscape:connector-curvature="0"
     d="m 230.34592,577.97435 267.66039,0 0,0.48 -267.66039,0 0,-0.48 z"
     style="fill:#000000;fill-opacity:1;fill-rule:nonzero;stroke:none"
     id="path4197" /><path
     inkscape:connector-curvature="0"
     d="m 361.38252,566.51435 1.5,0 0,11.46 -1.5,0 0,-11.46 z"
     style="fill:#000000;fill-opacity:1;fill-rule:nonzero;stroke:none"
     id="path4201" /><text
     style="font-size:12px"
     y="-556.79468"
     x="235.50266"
     id="text4205"
     transform="scale(1,-1)"><tspan
       style="font-size:10.02000046px;font-variant:normal;font-weight:normal;font-stretch:normal;writing-mode:lr-tb;fill:#000000;fill-opacity:1;fill-rule:nonzero;stroke:none;font-family:Arial;-inkscape-font-specification:ArialMT"
       x="235.50266 242.18498 247.75511 253.32523 260.55865"
       y="-556.79468"
       sodipodi:role="line"
       id="tspan4207">Snow</tspan></text>
<text
     style="font-size:12px"
     y="-556.79468"
     x="408.5817"
     id="text4209"
     transform="scale(1,-1)"><tspan
       style="font-size:10.02000046px;font-variant:normal;font-weight:normal;font-stretch:normal;writing-mode:lr-tb;fill:#000000;fill-opacity:1;fill-rule:nonzero;stroke:none;font-family:Arial;-inkscape-font-specification:ArialMT"
       x="408.5817 414.15182 416.93637 422.50647 428.0766 431.41226 436.98239 439.76694 445.28696 450.8671"
       y="-556.79468"
       sodipodi:role="line"
       id="tspan4211">0.20-0.25</tspan></text>
<path
     inkscape:connector-curvature="0"
     d="m 230.34592,566.03435 267.66039,0 0,0.48 -267.66039,0 0,-0.48 z"
     style="fill:#000000;fill-opacity:1;fill-rule:nonzero;stroke:none"
     id="path4213" /><path
     inkscape:connector-curvature="0"
     d="m 361.38252,554.51435 1.5,0 0,11.52 -1.5,0 0,-11.52 z"
     style="fill:#000000;fill-opacity:1;fill-rule:nonzero;stroke:none"
     id="path4217" /><text
     style="font-size:12px"
     y="-544.79468"
     x="235.50266"
     id="text4221"
     transform="scale(1,-1)"><tspan
       style="font-size:10.02000046px;font-variant:normal;font-weight:normal;font-stretch:normal;writing-mode:lr-tb;fill:#000000;fill-opacity:1;fill-rule:nonzero;stroke:none;font-family:Arial;-inkscape-font-specification:ArialMT"
       x="235.50266 238.29021 243.30222 248.87534"
       y="-544.79468"
       sodipodi:role="line"
       id="tspan4223">Ice</tspan></text>
<text
     style="font-size:12px"
     y="-544.79468"
     x="408.59711"
     id="text4225"
     transform="scale(1,-1)"><tspan
       style="font-size:10.02000046px;font-variant:normal;font-weight:normal;font-stretch:normal;writing-mode:lr-tb;fill:#000000;fill-opacity:1;fill-rule:nonzero;stroke:none;font-family:Arial;-inkscape-font-specification:ArialMT"
       x="408.59711 414.17023 416.95776 422.53091 428.10403 431.44269 437.01584 439.80338 445.31641 450.88953"
       y="-544.79468"
       sodipodi:role="line"
       id="tspan4227">0.10-0.15</tspan></text>
<path
     inkscape:connector-curvature="0"
     d="m 230.34592,554.03435 267.66039,0 0,0.48 -267.66039,0 0,-0.48 z"
     style="fill:#000000;fill-opacity:1;fill-rule:nonzero;stroke:none"
     id="path4229" /><path
     inkscape:connector-curvature="0"
     d="m 361.38252,542.51435 1.5,0 0,11.52 -1.5,0 0,-11.52 z"
     style="fill:#000000;fill-opacity:1;fill-rule:nonzero;stroke:none"
     id="path4233" /><text
     style="font-size:12px"
     y="-532.79468"
     x="235.50266"
     id="text4237"
     transform="scale(1,-1)"><tspan
       style="font-size:10.02000046px;font-variant:normal;font-weight:normal;font-stretch:normal;writing-mode:lr-tb;fill:#000000;fill-opacity:1;fill-rule:nonzero;stroke:none;font-family:Arial;-inkscape-font-specification:ArialMT"
       sodipodi:role="line"
       id="tspan4241"
       x="235.50266"
       y="-532.79468">Loose wet dirt that allows </tspan><tspan
       style="font-size:10.02000046px;font-variant:normal;font-weight:normal;font-stretch:normal;writing-mode:lr-tb;fill:#000000;fill-opacity:1;fill-rule:nonzero;stroke:none;font-family:Arial;-inkscape-font-specification:ArialMT"
       sodipodi:role="line"
       x="235.50266"
       y="-520.26965"
       id="tspan4616">tires to sink about 2 in.</tspan></text>
<text
     style="font-size:12px"
     y="-527.03516"
     x="408.60217"
     id="text4243"
     transform="scale(1,-1)"><tspan
       style="font-size:10.02000046px;font-variant:normal;font-weight:normal;font-stretch:normal;writing-mode:lr-tb;fill:#000000;fill-opacity:1;fill-rule:nonzero;stroke:none;font-family:Arial;-inkscape-font-specification:ArialMT"
       x="408.60217 414.17331 416.95886 422.53 428.1011 431.43777 437.00888 439.79443 445.31546 450.89661"
       y="-527.03516"
       sodipodi:role="line"
       id="tspan4245">0.60-0.65</tspan></text>
<path
     inkscape:connector-curvature="0"
     d="m 230.34592,542.03435 267.66039,0 0,0.48 -267.66039,0 0,-0.48 z"
     style="fill:#000000;fill-opacity:1;fill-rule:nonzero;stroke:none"
     id="path4247" /><path
     inkscape:connector-curvature="0"
     d="m 230.34592,517.49435 147.82507,0 0,1.5 -147.82507,0 0,-1.5 z"
     style="fill:#000000;fill-opacity:1;fill-rule:nonzero;stroke:none"
     id="path4251" /><path
     inkscape:connector-curvature="0"
     d="m 361.38252,517.49435 1.5,0 0,24.54 -1.5,0 0,-24.54 z"
     style="fill:#000000;fill-opacity:1;fill-rule:nonzero;stroke:none"
     id="path4253" /><path
     inkscape:connector-curvature="0"
     d="m 353.96156,517.49435 142.64571,0 0,1.5 -142.64571,0 0,-1.5 z"
     style="fill:#000000;fill-opacity:1;fill-rule:nonzero;stroke:none"
     id="path4255" /><path
     inkscape:connector-curvature="0"
     d="m 229.32252,651.71435 1.5,0 0,1.5 -1.5,0 0,-1.5 z"
     style="fill:#000000;fill-opacity:1;fill-rule:nonzero;stroke:none"
     id="path4097" /><path
     inkscape:connector-curvature="0"
     d="m 229.32252,517.74576 1.5,0 0,133.96859 -1.5,0 0,-133.96859 z"
     style="fill:#000000;fill-opacity:1;fill-rule:nonzero;stroke:none"
     id="path4103" /></g></g><text
   xml:space="preserve"
   style="font-size:8px;font-style:normal;font-variant:normal;font-weight:normal;font-stretch:normal;text-align:center;line-height:125%;letter-spacing:0px;word-spacing:0px;text-anchor:middle;fill:#000000;fill-opacity:1;stroke:none;font-family:Arial;-inkscape-font-specification:Arial"
   x="376.24609"
   y="-507.26532"
   id="text4618"
   sodipodi:linespacing="125%"
   transform="scale(1,-1)"><tspan
     sodipodi:role="line"
     x="376.24609"
     y="-507.26532"
     id="tspan4622"
     style="font-size:8px">From <tspan
   style="font-size:8px;font-style:oblique;font-weight:bold;text-align:center;text-anchor:middle;-inkscape-font-specification:Arial Bold Oblique"
   id="tspan4624">Engineering Analysis of Vehicular Accidents</tspan> by Randall K. Noon</tspan></text>


</g></svg>