<?xml version="1.0" encoding="UTF-8" standalone="no"?>
<!-- Created with Inkscape (http://www.inkscape.org/) -->

<svg
   xmlns:dc="http://purl.org/dc/elements/1.1/"
   xmlns:cc="http://creativecommons.org/ns#"
   xmlns:rdf="http://www.w3.org/1999/02/22-rdf-syntax-ns#"
   xmlns:svg="http://www.w3.org/2000/svg"
   xmlns="http://www.w3.org/2000/svg"
   xmlns:sodipodi="http://sodipodi.sourceforge.net/DTD/sodipodi-0.dtd"
   xmlns:inkscape="http://www.inkscape.org/namespaces/inkscape"
   width="720.90802"
   height="219.99611"
   id="svg11680"
   version="1.1"
   inkscape:version="0.48.5 r10040"
   sodipodi:docname="power_function_graphs_quick_check.svg">
  <defs
     id="defs11682">
    <clipPath
       clipPathUnits="userSpaceOnUse"
       id="clipPath4916">
      <rect
         style="fill:none;stroke:#000000;stroke-width:0.8000952;stroke-opacity:1"
         id="rect4918"
         width="131.95364"
         height="129.45897"
         x="6"
         y="34.726562" />
    </clipPath>
    <clipPath
       id="clip6-5">
      <path
         d="m 0,0 0,481 501,0 0,-481 z"
         id="path11799-2"
         inkscape:connector-curvature="0" />
    </clipPath>
    <clipPath
       id="clip13-7">
      <path
         d="m 0,0 0,481 501,0 0,-481 z"
         id="path11936-9"
         inkscape:connector-curvature="0" />
    </clipPath>
    <marker
       inkscape:stockid="Arrow2MstartC"
       orient="auto"
       refY="0"
       refX="0"
       id="Arrow2MstartC"
       style="overflow:visible">
      <path
         inkscape:connector-curvature="0"
         id="path18483"
         style="font-size:12px;fill:#ff0000;fill-rule:evenodd;stroke:#ff0000;stroke-width:0.625;stroke-linejoin:round"
         d="M 8.7185878,4.0337352 -2.2072895,0.01601326 8.7185884,-4.0017078 c -1.7454984,2.3720609 -1.7354408,5.6174519 -6e-7,8.035443 z"
         transform="scale(0.6,0.6)" />
    </marker>
    <marker
       inkscape:stockid="Arrow2Mendz"
       orient="auto"
       refY="0"
       refX="0"
       id="Arrow2Mendz"
       style="overflow:visible">
      <path
         inkscape:connector-curvature="0"
         id="path18486"
         style="font-size:12px;fill:#ff0000;fill-rule:evenodd;stroke:#ff0000;stroke-width:0.625;stroke-linejoin:round"
         d="M 8.7185878,4.0337352 -2.2072895,0.01601326 8.7185884,-4.0017078 c -1.7454984,2.3720609 -1.7354408,5.6174519 -6e-7,8.035443 z"
         transform="scale(-0.6,-0.6)" />
    </marker>
    <marker
       inkscape:stockid="Arrow2MstartC"
       orient="auto"
       refY="0"
       refX="0"
       id="marker11041"
       style="overflow:visible">
      <path
         inkscape:connector-curvature="0"
         id="path11043"
         style="font-size:12px;fill:#ff0000;fill-rule:evenodd;stroke:#ff0000;stroke-width:0.625;stroke-linejoin:round"
         d="M 8.7185878,4.0337352 -2.2072895,0.01601326 8.7185884,-4.0017078 c -1.7454984,2.3720609 -1.7354408,5.6174519 -6e-7,8.035443 z"
         transform="scale(0.6,0.6)" />
    </marker>
    <marker
       inkscape:stockid="Arrow2Mendz"
       orient="auto"
       refY="0"
       refX="0"
       id="marker11045"
       style="overflow:visible">
      <path
         inkscape:connector-curvature="0"
         id="path11047"
         style="font-size:12px;fill:#ff0000;fill-rule:evenodd;stroke:#ff0000;stroke-width:0.625;stroke-linejoin:round"
         d="M 8.7185878,4.0337352 -2.2072895,0.01601326 8.7185884,-4.0017078 c -1.7454984,2.3720609 -1.7354408,5.6174519 -6e-7,8.035443 z"
         transform="scale(-0.6,-0.6)" />
    </marker>
    <clipPath
       id="clipPath9608"
       clipPathUnits="userSpaceOnUse">
      <rect
         y="-16.558516"
         x="218.54231"
         height="302.18405"
         width="308.00714"
         id="rect9610"
         style="fill:none;stroke:#000000;stroke-width:1.86758792;stroke-opacity:1" />
    </clipPath>
    <marker
       inkscape:stockid="Arrow2MstartC"
       orient="auto"
       refY="0"
       refX="0"
       id="marker11051"
       style="overflow:visible">
      <path
         inkscape:connector-curvature="0"
         id="path11053"
         style="font-size:12px;fill:#ff0000;fill-rule:evenodd;stroke:#ff0000;stroke-width:0.625;stroke-linejoin:round"
         d="M 8.7185878,4.0337352 -2.2072895,0.01601326 8.7185884,-4.0017078 c -1.7454984,2.3720609 -1.7354408,5.6174519 -6e-7,8.035443 z"
         transform="scale(0.6,0.6)" />
    </marker>
    <marker
       inkscape:stockid="Arrow2Mendz"
       orient="auto"
       refY="0"
       refX="0"
       id="marker11055"
       style="overflow:visible">
      <path
         inkscape:connector-curvature="0"
         id="path11057"
         style="font-size:12px;fill:#ff0000;fill-rule:evenodd;stroke:#ff0000;stroke-width:0.625;stroke-linejoin:round"
         d="M 8.7185878,4.0337352 -2.2072895,0.01601326 8.7185884,-4.0017078 c -1.7454984,2.3720609 -1.7354408,5.6174519 -6e-7,8.035443 z"
         transform="scale(-0.6,-0.6)" />
    </marker>
    <marker
       inkscape:stockid="Arrow2MstartC"
       orient="auto"
       refY="0"
       refX="0"
       id="marker11059"
       style="overflow:visible">
      <path
         inkscape:connector-curvature="0"
         id="path11061"
         style="font-size:12px;fill:#ff0000;fill-rule:evenodd;stroke:#ff0000;stroke-width:0.625;stroke-linejoin:round"
         d="M 8.7185878,4.0337352 -2.2072895,0.01601326 8.7185884,-4.0017078 c -1.7454984,2.3720609 -1.7354408,5.6174519 -6e-7,8.035443 z"
         transform="scale(0.6,0.6)" />
    </marker>
    <marker
       inkscape:stockid="Arrow2Mendz"
       orient="auto"
       refY="0"
       refX="0"
       id="marker11063"
       style="overflow:visible">
      <path
         inkscape:connector-curvature="0"
         id="path11065"
         style="font-size:12px;fill:#ff0000;fill-rule:evenodd;stroke:#ff0000;stroke-width:0.625;stroke-linejoin:round"
         d="M 8.7185878,4.0337352 -2.2072895,0.01601326 8.7185884,-4.0017078 c -1.7454984,2.3720609 -1.7354408,5.6174519 -6e-7,8.035443 z"
         transform="scale(-0.6,-0.6)" />
    </marker>
    <clipPath
       id="clipPath9604"
       clipPathUnits="userSpaceOnUse">
      <rect
         transform="scale(-1,1)"
         y="441.55661"
         x="-592.42456"
         height="129.45897"
         width="131.95364"
         id="rect9606"
         style="fill:none;stroke:#000000;stroke-width:0.8000952;stroke-opacity:1" />
    </clipPath>
    <marker
       inkscape:stockid="Arrow2MstartC"
       orient="auto"
       refY="0"
       refX="0"
       id="marker11069"
       style="overflow:visible">
      <path
         inkscape:connector-curvature="0"
         id="path11071"
         style="font-size:12px;fill:#ff0000;fill-rule:evenodd;stroke:#ff0000;stroke-width:0.625;stroke-linejoin:round"
         d="M 8.7185878,4.0337352 -2.2072895,0.01601326 8.7185884,-4.0017078 c -1.7454984,2.3720609 -1.7354408,5.6174519 -6e-7,8.035443 z"
         transform="scale(0.6,0.6)" />
    </marker>
    <marker
       inkscape:stockid="Arrow2Mendz"
       orient="auto"
       refY="0"
       refX="0"
       id="marker11073"
       style="overflow:visible">
      <path
         inkscape:connector-curvature="0"
         id="path11075"
         style="font-size:12px;fill:#ff0000;fill-rule:evenodd;stroke:#ff0000;stroke-width:0.625;stroke-linejoin:round"
         d="M 8.7185878,4.0337352 -2.2072895,0.01601326 8.7185884,-4.0017078 c -1.7454984,2.3720609 -1.7354408,5.6174519 -6e-7,8.035443 z"
         transform="scale(-0.6,-0.6)" />
    </marker>
    <marker
       inkscape:stockid="Arrow2MstartC"
       orient="auto"
       refY="0"
       refX="0"
       id="marker11077"
       style="overflow:visible">
      <path
         inkscape:connector-curvature="0"
         id="path11079"
         style="font-size:12px;fill:#ff0000;fill-rule:evenodd;stroke:#ff0000;stroke-width:0.625;stroke-linejoin:round"
         d="M 8.7185878,4.0337352 -2.2072895,0.01601326 8.7185884,-4.0017078 c -1.7454984,2.3720609 -1.7354408,5.6174519 -6e-7,8.035443 z"
         transform="scale(0.6,0.6)" />
    </marker>
    <marker
       inkscape:stockid="Arrow2Mendz"
       orient="auto"
       refY="0"
       refX="0"
       id="marker11081"
       style="overflow:visible">
      <path
         inkscape:connector-curvature="0"
         id="path11083"
         style="font-size:12px;fill:#ff0000;fill-rule:evenodd;stroke:#ff0000;stroke-width:0.625;stroke-linejoin:round"
         d="M 8.7185878,4.0337352 -2.2072895,0.01601326 8.7185884,-4.0017078 c -1.7454984,2.3720609 -1.7354408,5.6174519 -6e-7,8.035443 z"
         transform="scale(-0.6,-0.6)" />
    </marker>
    <clipPath
       id="clipPath11085">
      <path
         d="m 0,0 0,481 501,0 0,-481 z"
         id="path11087"
         inkscape:connector-curvature="0" />
    </clipPath>
    <clipPath
       id="clipPath11089">
      <path
         d="m 0,0 0,481 501,0 0,-481 z"
         id="path11091"
         inkscape:connector-curvature="0" />
    </clipPath>
    <clipPath
       id="clip6-0">
      <path
         d="m 0,0 0,481 501,0 0,-481 z"
         id="path11799-20"
         inkscape:connector-curvature="0" />
    </clipPath>
    <clipPath
       id="clip13-6">
      <path
         d="m 0,0 0,481 501,0 0,-481 z"
         id="path11936-0"
         inkscape:connector-curvature="0" />
    </clipPath>
    <marker
       style="overflow:visible"
       id="DotS27FM"
       refX="0"
       refY="0"
       orient="auto"
       inkscape:stockid="DotS27FM">
      <path
         inkscape:connector-curvature="0"
         transform="matrix(0.2,0,0,0.2,1.48,0.2)"
         style="fill:#ff0000;fill-rule:evenodd;stroke:#ff0000;stroke-width:1pt;marker-start:none;marker-end:none"
         d="m -2.5,-1 c 0,2.76 -2.24,5 -5,5 -2.76,0 -5,-2.24 -5,-5 0,-2.76 2.24,-5 5,-5 2.76,0 5,2.24 5,5 z"
         id="path10023" />
    </marker>
    <marker
       inkscape:stockid="Arrow2MendzpeGX"
       orient="auto"
       refY="0"
       refX="0"
       id="Arrow2MendzpeGX"
       style="overflow:visible">
      <path
         inkscape:connector-curvature="0"
         id="path10026"
         style="font-size:12px;fill:#ff0000;fill-rule:evenodd;stroke:#ff0000;stroke-width:0.625;stroke-linejoin:round"
         d="M 8.7185878,4.0337352 -2.2072895,0.01601326 8.7185884,-4.0017078 c -1.7454984,2.3720609 -1.7354408,5.6174519 -6e-7,8.035443 z"
         transform="scale(-0.6,-0.6)" />
    </marker>
    <marker
       style="overflow:visible"
       id="DotS27F4"
       refX="0"
       refY="0"
       orient="auto"
       inkscape:stockid="DotS27F4">
      <path
         inkscape:connector-curvature="0"
         transform="matrix(0.2,0,0,0.2,1.48,0.2)"
         style="fill:#ff0000;fill-rule:evenodd;stroke:#ff0000;stroke-width:1pt;marker-start:none;marker-end:none"
         d="m -2.5,-1 c 0,2.76 -2.24,5 -5,5 -2.76,0 -5,-2.24 -5,-5 0,-2.76 2.24,-5 5,-5 2.76,0 5,2.24 5,5 z"
         id="path10017" />
    </marker>
    <marker
       inkscape:stockid="Arrow2MendzpeGg"
       orient="auto"
       refY="0"
       refX="0"
       id="Arrow2MendzpeGg"
       style="overflow:visible">
      <path
         inkscape:connector-curvature="0"
         id="path10020"
         style="font-size:12px;fill:#ff0000;fill-rule:evenodd;stroke:#ff0000;stroke-width:0.625;stroke-linejoin:round"
         d="M 8.7185878,4.0337352 -2.2072895,0.01601326 8.7185884,-4.0017078 c -1.7454984,2.3720609 -1.7354408,5.6174519 -6e-7,8.035443 z"
         transform="scale(-0.6,-0.6)" />
    </marker>
  </defs>
  <sodipodi:namedview
     id="base"
     pagecolor="#ffffff"
     bordercolor="#666666"
     borderopacity="1.0"
     inkscape:pageopacity="0.0"
     inkscape:pageshadow="2"
     inkscape:zoom="0.67081391"
     inkscape:cx="261.9248"
     inkscape:cy="147.6197"
     inkscape:document-units="px"
     inkscape:current-layer="layer1"
     showgrid="false"
     inkscape:window-width="1366"
     inkscape:window-height="705"
     inkscape:window-x="-8"
     inkscape:window-y="-8"
     inkscape:window-maximized="1"
     fit-margin-top="0"
     fit-margin-left="0"
     fit-margin-right="0"
     fit-margin-bottom="0" />
  <metadata
     id="metadata11685">
    <rdf:RDF>
      <cc:Work
         rdf:about="">
        <dc:format>image/svg+xml</dc:format>
        <dc:type
           rdf:resource="http://purl.org/dc/dcmitype/StillImage" />
        <dc:title />
      </cc:Work>
    </rdf:RDF>
  </metadata>
  <g
     inkscape:label="Layer 1"
     inkscape:groupmode="layer"
     id="layer1"
     transform="translate(852.31116,69.96924)">
    <g
       transform="translate(-744.73357,-448.70171)"
       id="g10954"
       inkscape:export-filename="C:\Book Ideas\images\power_check_c.png"
       inkscape:export-xdpi="92.334679"
       inkscape:export-ydpi="92.334679">
      <g
         transform="matrix(0.43737575,0,0,0.43737575,143.18143,427.235)"
         clip-path="url(#clip6-0)"
         id="g8055"
         style="stroke-width:1;stroke-linecap:square;stroke-linejoin:miter;stroke-miterlimit:10;stroke-dasharray:none;stroke-dashoffset:0">
        <g
           transform="translate(298,272)"
           id="g8057">
          <text
             font-style="normal"
             font-weight="normal"
             font-size="22"
             x="0"
             y="0"
             id="text8059"
             style="font-size:22px;font-style:normal;font-weight:normal;fill:#666666;fill-opacity:1;stroke:none;font-family:Helvetica">1</text>
        </g>
        <!-- transform -->
      </g>
      <g
         transform="matrix(0.43737575,0,0,0.43737575,143.18143,427.235)"
         id="g8063"
         style="fill:none;stroke:#666666;stroke-width:2;stroke-linecap:butt;stroke-linejoin:miter;stroke-miterlimit:10;stroke-opacity:1;stroke-dasharray:none;stroke-dashoffset:0">
        <path
           d="m 303.4,246.5 0,4"
           id="path8065"
           inkscape:connector-curvature="0" />
      </g>
      <g
         transform="matrix(0.43737575,0,0,0.43737575,143.18143,427.235)"
         id="g8069"
         style="fill:none;stroke:#666666;stroke-width:2;stroke-linecap:butt;stroke-linejoin:miter;stroke-miterlimit:10;stroke-opacity:1;stroke-dasharray:none;stroke-dashoffset:0">
        <path
           d="m 0,246.5 501,0"
           id="path8071"
           inkscape:connector-curvature="0" />
      </g>
      <g
         transform="matrix(0.43737575,0,0,0.43737575,143.18143,427.235)"
         id="g8075"
         style="fill:none;stroke:#666666;stroke-width:2;stroke-linecap:butt;stroke-linejoin:miter;stroke-miterlimit:10;stroke-opacity:1;stroke-dasharray:none;stroke-dashoffset:0">
        <path
           d="m 500,246.5 -8,-8"
           id="path8077"
           inkscape:connector-curvature="0" />
      </g>
      <g
         transform="matrix(0.43737575,0,0,0.43737575,143.18143,427.235)"
         id="g8081"
         style="fill:none;stroke:#666666;stroke-width:2;stroke-linecap:butt;stroke-linejoin:miter;stroke-miterlimit:10;stroke-opacity:1;stroke-dasharray:none;stroke-dashoffset:0">
        <path
           d="m 500,246.5 -8,8"
           id="path8083"
           inkscape:connector-curvature="0" />
      </g>
      <g
         transform="matrix(0.43737575,0,0,0.43737575,143.18143,427.235)"
         clip-path="url(#clip13-6)"
         id="g8091"
         style="stroke-width:1;stroke-linecap:square;stroke-linejoin:miter;stroke-miterlimit:10;stroke-dasharray:none;stroke-dashoffset:0">
        <g
           transform="translate(230,205)"
           id="g8093">
          <text
             font-style="normal"
             font-weight="normal"
             font-size="22"
             x="0"
             y="0"
             id="text8095"
             style="font-size:22px;font-style:normal;font-weight:normal;fill:#666666;fill-opacity:1;stroke:none;font-family:Helvetica">1</text>
        </g>
        <!-- transform -->
      </g>
      <g
         transform="matrix(0.43737575,0,0,0.43737575,143.18143,427.235)"
         id="g8099"
         style="fill:none;stroke:#666666;stroke-width:2;stroke-linecap:butt;stroke-linejoin:miter;stroke-miterlimit:10;stroke-opacity:1;stroke-dasharray:none;stroke-dashoffset:0">
        <path
           d="m 248,195.1 4,0"
           id="path8101"
           inkscape:connector-curvature="0" />
      </g>
      <g
         transform="matrix(0.43737575,0,0,0.2632476,143.18143,427.235)"
         id="g8105"
         style="fill:none;stroke:#666666;stroke-width:2;stroke-linecap:butt;stroke-linejoin:miter;stroke-miterlimit:10;stroke-opacity:1;stroke-dasharray:none;stroke-dashoffset:0">
        <path
           d="m 252,0 0,481"
           id="path8107"
           inkscape:connector-curvature="0" />
      </g>
      <g
         transform="matrix(0.43737575,0,0,0.43737575,143.18143,427.235)"
         id="g8111"
         style="fill:none;stroke:#666666;stroke-width:2;stroke-linecap:butt;stroke-linejoin:miter;stroke-miterlimit:10;stroke-opacity:1;stroke-dasharray:none;stroke-dashoffset:0">
        <path
           d="m 252,0 -8,8"
           id="path8113"
           inkscape:connector-curvature="0" />
      </g>
      <g
         transform="matrix(0.43737575,0,0,0.43737575,143.18143,427.235)"
         id="g8117"
         style="fill:none;stroke:#666666;stroke-width:2;stroke-linecap:butt;stroke-linejoin:miter;stroke-miterlimit:10;stroke-opacity:1;stroke-dasharray:none;stroke-dashoffset:0">
        <path
           d="m 252,0 8,8"
           id="path8119"
           inkscape:connector-curvature="0" />
      </g>
      <path
         inkscape:export-ydpi="89.294258"
         inkscape:export-xdpi="89.294258"
         inkscape:export-filename="C:\Book Ideas\images\power_functions.png"
         style="fill:none;stroke:#ff0000;stroke-width:2.37925124;stroke-linecap:butt;stroke-linejoin:miter;stroke-miterlimit:4;stroke-opacity:1;stroke-dasharray:none;marker-start:url(#DotS27FM);marker-end:url(#Arrow2MendzpeGX)"
         d="m 253.37862,534.95544 c 16.31513,-0.57846 32.61495,-36.5299 49.21009,-108.1698"
         id="path8121"
         inkscape:connector-curvature="0"
         sodipodi:nodetypes="cc" />
      <path
         sodipodi:type="arc"
         style="fill:#000000;fill-opacity:0.94117647;fill-rule:nonzero;stroke:none"
         id="path8129"
         sodipodi:cx="-155.51906"
         sodipodi:cy="48.226265"
         sodipodi:rx="3.0051992"
         sodipodi:ry="3.0051992"
         d="m -152.51386,48.226265 c 0,1.659726 -1.34547,3.005199 -3.0052,3.005199 -1.65972,0 -3.0052,-1.345473 -3.0052,-3.005199 0,-1.659726 1.34548,-3.005199 3.0052,-3.005199 1.65973,0 3.0052,1.345473 3.0052,3.005199 z"
         transform="translate(431.16859,464.87479)"
         inkscape:export-filename="C:\Book Ideas\images\power_functions.png"
         inkscape:export-xdpi="89.294258"
         inkscape:export-ydpi="89.294258" />
      <path
         sodipodi:nodetypes="cc"
         inkscape:connector-curvature="0"
         id="path9233"
         d="m 253.0671,534.95544 c -16.31513,-0.57846 -32.61495,-36.5299 -49.21009,-108.1698"
         style="fill:none;stroke:#ff0000;stroke-width:2.37925124;stroke-linecap:butt;stroke-linejoin:miter;stroke-miterlimit:4;stroke-opacity:1;stroke-dasharray:none;marker-start:url(#DotS27F4);marker-end:url(#Arrow2MendzpeGg)"
         inkscape:export-filename="C:\Book Ideas\images\power_functions.png"
         inkscape:export-xdpi="89.294258"
         inkscape:export-ydpi="89.294258" />
    </g>
    <g
       id="g3124"
       transform="translate(0,-16.14061)">
      <g
         inkscape:export-ydpi="141.3445"
         inkscape:export-xdpi="141.3445"
         inkscape:export-filename="C:\Book Ideas\images\power_check_b.png"
         transform="matrix(0.42841098,0,0,0.42841098,-850.69964,-49.623759)"
         id="g9616"
         clip-path="url(#clip6-5)"
         style="stroke-width:1;stroke-linecap:square;stroke-linejoin:miter;stroke-miterlimit:10;stroke-dasharray:none;stroke-dashoffset:0">
        <g
           id="g9618"
           transform="translate(298,272)">
          <text
             style="font-size:22px;font-style:normal;font-weight:normal;fill:#666666;fill-opacity:1;stroke:none;font-family:Helvetica"
             id="text9620"
             y="0"
             x="0"
             font-size="22"
             font-weight="normal"
             font-style="normal">1</text>
        </g>
        <!-- transform -->
      </g>
      <g
         inkscape:export-ydpi="141.3445"
         inkscape:export-xdpi="141.3445"
         inkscape:export-filename="C:\Book Ideas\images\power_check_b.png"
         transform="matrix(0.42841098,0,0,0.42841098,-850.69964,-49.623759)"
         style="fill:none;stroke:#666666;stroke-width:2;stroke-linecap:butt;stroke-linejoin:miter;stroke-miterlimit:10;stroke-opacity:1;stroke-dasharray:none;stroke-dashoffset:0"
         id="g9622">
        <path
           inkscape:connector-curvature="0"
           id="path9624"
           d="m 303.4,246.5 0,4" />
      </g>
      <g
         inkscape:export-ydpi="141.3445"
         inkscape:export-xdpi="141.3445"
         inkscape:export-filename="C:\Book Ideas\images\power_check_b.png"
         transform="matrix(0.42841098,0,0,0.42841098,-850.69964,-49.623759)"
         style="fill:none;stroke:#666666;stroke-width:2;stroke-linecap:butt;stroke-linejoin:miter;stroke-miterlimit:10;stroke-opacity:1;stroke-dasharray:none;stroke-dashoffset:0"
         id="g9626">
        <path
           inkscape:connector-curvature="0"
           id="path9628"
           d="m 0,246.5 501,0" />
      </g>
      <g
         inkscape:export-ydpi="141.3445"
         inkscape:export-xdpi="141.3445"
         inkscape:export-filename="C:\Book Ideas\images\power_check_b.png"
         transform="matrix(0.42841098,0,0,0.42841098,-850.69964,-49.623759)"
         style="fill:none;stroke:#666666;stroke-width:2;stroke-linecap:butt;stroke-linejoin:miter;stroke-miterlimit:10;stroke-opacity:1;stroke-dasharray:none;stroke-dashoffset:0"
         id="g9630">
        <path
           inkscape:connector-curvature="0"
           id="path9632"
           d="m 500,246.5 -8,-8" />
      </g>
      <g
         inkscape:export-ydpi="141.3445"
         inkscape:export-xdpi="141.3445"
         inkscape:export-filename="C:\Book Ideas\images\power_check_b.png"
         transform="matrix(0.42841098,0,0,0.42841098,-850.69964,-49.623759)"
         style="fill:none;stroke:#666666;stroke-width:2;stroke-linecap:butt;stroke-linejoin:miter;stroke-miterlimit:10;stroke-opacity:1;stroke-dasharray:none;stroke-dashoffset:0"
         id="g9634">
        <path
           inkscape:connector-curvature="0"
           id="path9636"
           d="m 500,246.5 -8,8" />
      </g>
      <g
         inkscape:export-ydpi="141.3445"
         inkscape:export-xdpi="141.3445"
         inkscape:export-filename="C:\Book Ideas\images\power_check_b.png"
         transform="matrix(0.42841098,0,0,0.42841098,-850.69964,-49.623759)"
         id="g9638"
         clip-path="url(#clip13-7)"
         style="stroke-width:1;stroke-linecap:square;stroke-linejoin:miter;stroke-miterlimit:10;stroke-dasharray:none;stroke-dashoffset:0">
        <g
           id="g9640"
           transform="translate(230,205)">
          <text
             style="font-size:22px;font-style:normal;font-weight:normal;fill:#666666;fill-opacity:1;stroke:none;font-family:Helvetica"
             id="text9642"
             y="0"
             x="0"
             font-size="22"
             font-weight="normal"
             font-style="normal">1</text>
        </g>
        <!-- transform -->
      </g>
      <g
         inkscape:export-ydpi="141.3445"
         inkscape:export-xdpi="141.3445"
         inkscape:export-filename="C:\Book Ideas\images\power_check_b.png"
         transform="matrix(0.42841098,0,0,0.42841098,-850.69964,-49.623759)"
         style="fill:none;stroke:#666666;stroke-width:2;stroke-linecap:butt;stroke-linejoin:miter;stroke-miterlimit:10;stroke-opacity:1;stroke-dasharray:none;stroke-dashoffset:0"
         id="g9644">
        <path
           inkscape:connector-curvature="0"
           id="path9646"
           d="m 248,195.1 4,0" />
      </g>
      <g
         inkscape:export-ydpi="141.3445"
         inkscape:export-xdpi="141.3445"
         inkscape:export-filename="C:\Book Ideas\images\power_check_b.png"
         transform="matrix(0.42841098,0,0,0.42841098,-850.69964,-49.623759)"
         style="fill:none;stroke:#666666;stroke-width:2;stroke-linecap:butt;stroke-linejoin:miter;stroke-miterlimit:10;stroke-opacity:1;stroke-dasharray:none;stroke-dashoffset:0"
         id="g9648">
        <path
           inkscape:connector-curvature="0"
           id="path9650"
           d="m 252,0 0,481" />
      </g>
      <g
         inkscape:export-ydpi="141.3445"
         inkscape:export-xdpi="141.3445"
         inkscape:export-filename="C:\Book Ideas\images\power_check_b.png"
         id="g9652"
         transform="matrix(0.42841098,0,0,0.42841098,-850.46654,-49.261009)"
         style="stroke-width:1;stroke-linecap:square;stroke-linejoin:miter;stroke-miterlimit:10;stroke-dasharray:none;stroke-dashoffset:0">
        <g
           style="fill:none;stroke:#ff0000;stroke-width:3.5;stroke-linecap:round;stroke-linejoin:round;stroke-opacity:1"
           id="g9654">
          <path
             inkscape:connector-curvature="0"
             id="path9656"
             d="m 3.9140625,257.14938 3.9140625,0.17069 3.914063,0.1763 3.914062,0.1821 3.914062,0.18823 3.914063,0.1947 3.914062,0.20148 3.914063,0.20862 3.914062,0.21615 3.914063,0.22412 3.914062,0.23249 3.914063,0.24139 3.914062,0.25076 3.914063,0.26075 3.914062,0.27127 3.914063,0.28253 3.914062,0.2944 3.914063,0.30713 3.914062,0.32065 3.914063,0.33511 3.914062,0.35056 3.914063,0.36709 3.914062,0.38486 3.914063,0.4039 3.914062,0.42441 3.914068,0.44653 3.91406,0.4704 3.91406,0.49628 3.91406,0.52432 3.91407,0.55481 3.91406,0.58807 3.91406,0.62439 3.91406,0.66416 3.91406,0.70791 3.91407,0.75608 3.91406,0.80932 3.91406,0.86847 3.91406,0.9343 3.91407,1.00793 3.91406,1.09058 3.91406,1.18387 3.91406,1.28964 3.91407,1.41028 3.91406,1.54864 3.91406,1.70844 3.91406,1.89431 3.91407,2.11225 3.91406,2.37011 3.91406,2.67826 3.91406,3.05066 3.91407,3.50656 3.91406,4.07287 3.91406,4.78852 3.91406,5.71084 3.91407,6.92807 3.91406,8.58094 1.95703,5.10684 1.95703,5.79852 1.95703,6.64093 1.95703,7.68131 1.95704,8.98693 0.97851,5.09174 0.97852,5.56464 0.97851,6.10666 0.97852,6.73196 0.97851,7.4584 0.97852,8.30921 0.97852,9.31439 0.48925,5.0929 0.48926,5.42077 0.48926,5.78137 0.48926,6.1792 0.48925,6.61954 0.48926,7.10864 0.48926,7.65412 0.48926,8.26483 0.48926,8.95166 0.48925,9.72784 m 22.01661,-480.29792682 0.24462,5.48692182 0.24463,5.247675 0.48926,9.837583 0.48926,9.048501 0.48926,8.350692 0.48925,7.73061 0.48926,7.17712 0.48926,6.681023 0.48926,6.234638 0.48926,5.831551 0.48925,5.466324 0.48926,5.134369 0.97852,9.386901 0.97851,8.370298 0.97852,7.51034 0.97851,6.77646 0.97852,6.14511 0.97851,5.59809 1.95704,9.82337 1.95703,8.33874 1.95703,7.16704 1.95703,6.22609 1.95703,5.45901 1.95703,4.82549 3.91406,8.14564 3.91407,6.61115 3.91406,5.47294 3.91406,4.60538 3.91406,3.92896 3.91407,3.39135 3.91406,2.95704 3.91406,2.60112 3.91406,2.30581 3.91407,2.05811 3.91406,1.84828 3.91406,1.66898 3.91406,1.51455 3.91407,1.38063 3.91406,1.26372 3.91406,1.16104 3.91406,1.07039 3.91407,0.98996 3.91406,0.91827 3.91406,0.8541 3.91406,0.79642 3.91407,0.74438 3.91406,0.69731 3.91406,0.65454 3.91406,0.6156 3.91407,0.58005 3.91406,0.54746 3.91406,0.51756 3.91406,0.49005 3.91407,0.46466 3.91406,0.44121 3.91406,0.41949 3.91406,0.39933 3.91407,0.38058 3.91406,0.36313 3.91406,0.34685 3.91406,0.33165 3.91407,0.31741 3.91406,0.30409 3.91406,0.29158 3.91406,0.27982 3.91407,0.26877 3.91406,0.25836 3.91406,0.24852 3.91406,0.23927 3.91407,0.2305 3.91406,0.22222 3.91406,0.21435 3.91406,0.20693 3.91407,0.19985 3.91406,0.19317 3.91406,0.18678 3.91406,0.18071 3.91407,0.17496 3.91406,0.16944"
             sodipodi:nodetypes="cccccccccccccccccccccccccccccccccccccccccccccccccccccccccccccccccccccccccccccccccccccccccccccccccccccccccccccccccccccccccccccccccccccccccccccccccccccccccccccc"
             style="stroke:#ff0000;stroke-width:5.43983316;stroke-miterlimit:10;stroke-opacity:1;stroke-dasharray:none;marker-start:url(#Arrow2MstartC);marker-end:url(#Arrow2Mendz)" />
        </g>
        <!-- drawing style -->
      </g>
      <g
         inkscape:export-ydpi="141.3445"
         inkscape:export-xdpi="141.3445"
         inkscape:export-filename="C:\Book Ideas\images\power_check_b.png"
         transform="matrix(0.42841098,0,0,0.42841098,-850.69964,-49.623759)"
         style="fill:none;stroke:#666666;stroke-width:2;stroke-linecap:butt;stroke-linejoin:miter;stroke-miterlimit:10;stroke-opacity:1;stroke-dasharray:none;stroke-dashoffset:0"
         id="g9658">
        <path
           inkscape:connector-curvature="0"
           id="path9660"
           d="m 252,0 -8,8" />
      </g>
      <g
         inkscape:export-ydpi="141.3445"
         inkscape:export-xdpi="141.3445"
         inkscape:export-filename="C:\Book Ideas\images\power_check_b.png"
         transform="matrix(0.42841098,0,0,0.42841098,-850.69964,-49.623759)"
         style="fill:none;stroke:#666666;stroke-width:2;stroke-linecap:butt;stroke-linejoin:miter;stroke-miterlimit:10;stroke-opacity:1;stroke-dasharray:none;stroke-dashoffset:0"
         id="g9662">
        <path
           inkscape:connector-curvature="0"
           id="path9664"
           d="m 252,0 8,8" />
      </g>
      <path
         inkscape:export-ydpi="141.3445"
         inkscape:export-xdpi="141.3445"
         inkscape:export-filename="C:\Book Ideas\images\power_check_b.png"
         style="fill:none;stroke:#ff0000;stroke-width:2.33048439;stroke-linecap:round;stroke-linejoin:round;stroke-miterlimit:10;stroke-opacity:1;stroke-dasharray:none;stroke-dashoffset:0;marker-start:url(#Arrow2MstartC);marker-end:url(#Arrow2Mendz)"
         sodipodi:nodetypes="ccccccccccccccccccccccccccccccccccccccccccccccccccccccccccccccccccccccccccccccccccccccccccccccccccccccccccccccccccccccccccccccccccccccccccccccccccccccccccccc"
         d="m -747.03979,162.64799 -0.0731,-1.67682 -0.0755,-1.67683 -0.078,-1.67683 -0.0806,-1.67683 -0.0834,-1.67682 -0.0863,-1.67683 -0.0894,-1.67683 -0.0926,-1.67683 -0.096,-1.67682 -0.0996,-1.67683 -0.10341,-1.67683 -0.10743,-1.67683 -0.11171,-1.67682 -0.11621,-1.67683 -0.12104,-1.67683 -0.12612,-1.67683 -0.13158,-1.67682 -0.13737,-1.67683 -0.14357,-1.67683 -0.15018,-1.67682 -0.15727,-1.67683 -0.16487,-1.67683 -0.17304,-1.67683 -0.18182,-1.67682 -0.1913,-1.67683 -0.20152,-1.67683 -0.21262,-1.67683 -0.22462,-1.67682 -0.23769,-1.67683 -0.25193,-1.67683 -0.2675,-1.67683 -0.28453,-1.67682 -0.30328,-1.67683 -0.32391,-1.67683 -0.34672,-1.67683 -0.37207,-1.67682 -0.40026,-1.67683 -0.43181,-1.67683 -0.46721,-1.67683 -0.50719,-1.67682 -0.55249,-1.67683 -0.60418,-1.67683 -0.66346,-1.67683 -0.73192,-1.67682 -0.81155,-1.67683 -0.90491,-1.67683 -1.01538,-1.67682 -1.14739,-1.67683 -1.30694,-1.67683 -1.50225,-1.67683 -1.74486,-1.67682 -2.05146,-1.67683 -2.44658,-1.67683 -2.96806,-1.67683 -3.67617,-1.67682 -2.18783,-0.83842 -2.48415,-0.83841 -2.84505,-0.83841 -3.29075,-0.83842 -3.8501,-0.83841 -2.18136,-0.41921 -2.38395,-0.41921 -2.61616,-0.4192 -2.88405,-0.41921 -3.19526,-0.4192 -3.55976,-0.41921 -3.99038,-0.41921 -2.18186,-0.2096 -2.32232,-0.20961 -2.4768,-0.2096 -2.64724,-0.20961 -2.83588,-0.2096 -3.04542,-0.2096 -3.27911,-0.2096 -3.54074,-0.20961 -3.83499,-0.2096 -4.16751,-0.2096 m 203.41425,-9.53696 -2.24816,-0.1048 -4.21453,-0.20961 -3.87647,-0.2096 -3.57753,-0.2096 -3.31188,-0.2096 -3.07476,-0.20961 -2.86222,-0.2096 -2.671,-0.20961 -2.4983,-0.2096 -2.34183,-0.2096 -2.19962,-0.20961 -4.02145,-0.4192 -3.58593,-0.41921 -3.21751,-0.41921 -2.90311,-0.4192 -2.63264,-0.41921 -2.39828,-0.41921 -4.20844,-0.83841 -3.5724,-0.83842 -3.07044,-0.83841 -2.66733,-0.83841 -2.3387,-0.83842 -2.06729,-0.83841 -3.48968,-1.67682 -2.83229,-1.67684 -2.34467,-1.67682 -1.97299,-1.67683 -1.68321,-1.67682 -1.45289,-1.67683 -1.26683,-1.67683 -1.11435,-1.67683 -0.98784,-1.676819 -0.88171,-1.67683 -0.79183,-1.67683 -0.71501,-1.67683 -0.64885,-1.67682 -0.59147,-1.67683 -0.54139,-1.67683 -0.49741,-1.67683 -0.45856,-1.67682 -0.42411,-1.67683 -0.3934,-1.67683 -0.36591,-1.6768296 -0.34119,-1.67682 -0.3189,-1.67683 -0.29874,-1.67683 -0.28041,-1.67683 -0.26373,-1.67682 -0.2485,-1.67683 -0.23454,-1.67683 -0.22172,-1.67683 -0.20995,-1.67682 -0.19906,-1.67683 -0.18902,-1.6768304 -0.17972,-1.67682 -0.17107,-1.67683 -0.16305,-1.67683 -0.15557,-1.67683 -0.14859,-1.67682 -0.14208,-1.67683 -0.13599,-1.67683 -0.13027,-1.67683 -0.12492,-1.67682 -0.11988,-1.67683 -0.11514,-1.67683 -0.11068,-1.67682 -0.10647,-1.67683 -0.10251,-1.67683 -0.0987,-1.67683 -0.0952,-1.67683 -0.0918,-1.67682 -0.0887,-1.67683 -0.0856,-1.67683 -0.0828,-1.67683 -0.08,-1.67682 -0.0774,-1.67683 -0.075,-1.67683 -0.0726,-1.67683"
         id="path9666"
         inkscape:connector-curvature="0" />
      <path
         inkscape:export-ydpi="141.3445"
         inkscape:export-xdpi="141.3445"
         inkscape:export-filename="C:\Book Ideas\images\power_check_b.png"
         transform="translate(-565.41634,-14.202239)"
         d="m -152.51386,48.226265 c 0,1.659726 -1.34547,3.005199 -3.0052,3.005199 -1.65972,0 -3.0052,-1.345473 -3.0052,-3.005199 0,-1.659726 1.34548,-3.005199 3.0052,-3.005199 1.65973,0 3.0052,1.345473 3.0052,3.005199 z"
         sodipodi:ry="3.0051992"
         sodipodi:rx="3.0051992"
         sodipodi:cy="48.226265"
         sodipodi:cx="-155.51906"
         id="path9674"
         style="fill:#000000;fill-opacity:0.94117647;fill-rule:nonzero;stroke:none"
         sodipodi:type="arc" />
    </g>
    <g
       transform="translate(-819.82769,-467.51942)"
       id="g10981"
       inkscape:export-filename="C:\Book Ideas\images\power_check_a.png"
       inkscape:export-xdpi="92.334679"
       inkscape:export-ydpi="92.334679">
      <g
         transform="matrix(-0.42841099,0,0,0.42841099,686.28359,448.28771)"
         style="fill:none;stroke:#666666;stroke-width:2;stroke-linecap:butt;stroke-linejoin:miter;stroke-miterlimit:10;stroke-opacity:1;stroke-dasharray:none;stroke-dashoffset:0"
         id="g9436">
        <path
           inkscape:connector-curvature="0"
           id="path9438"
           d="m 0,246.5 501,0" />
      </g>
      <g
         id="g9331"
         clip-path="url(#clipPath4916)"
         inkscape:export-filename="C:\Book Ideas\images\power_a_big.png"
         inkscape:export-xdpi="141.3445"
         inkscape:export-ydpi="141.3445"
         transform="translate(557.8951,406.83004)">
        <g
           transform="matrix(0.42841099,0,0,0.42841099,-87.859028,41.457667)"
           id="g9333"
           clip-path="url(#clip6-5)"
           style="stroke-width:1;stroke-linecap:square;stroke-linejoin:miter;stroke-miterlimit:10;stroke-dasharray:none;stroke-dashoffset:0">
          <g
             id="g9335"
             transform="translate(298,272)">
            <text
               style="font-size:22px;font-style:normal;font-weight:normal;fill:#666666;fill-opacity:1;stroke:none;font-family:Helvetica"
               id="text9337"
               y="0"
               x="0"
               font-size="22"
               font-weight="normal"
               font-style="normal">1</text>
          </g>
          <!-- transform -->
        </g>
        <g
           transform="matrix(0.42841099,0,0,0.42841099,-87.859028,41.457667)"
           style="fill:none;stroke:#666666;stroke-width:2;stroke-linecap:butt;stroke-linejoin:miter;stroke-miterlimit:10;stroke-opacity:1;stroke-dasharray:none;stroke-dashoffset:0"
           id="g9339">
          <path
             inkscape:connector-curvature="0"
             id="path9341"
             d="m 303.4,246.5 0,4" />
        </g>
        <g
           transform="matrix(0.42841099,0,0,0.42841099,-87.859028,41.457667)"
           style="fill:none;stroke:#666666;stroke-width:2;stroke-linecap:butt;stroke-linejoin:miter;stroke-miterlimit:10;stroke-opacity:1;stroke-dasharray:none;stroke-dashoffset:0"
           id="g9343">
          <path
             inkscape:connector-curvature="0"
             id="path9345"
             d="m 0,246.5 501,0" />
        </g>
        <g
           transform="matrix(0.42841099,0,0,0.42841099,-87.859028,41.457667)"
           style="fill:none;stroke:#666666;stroke-width:2;stroke-linecap:butt;stroke-linejoin:miter;stroke-miterlimit:10;stroke-opacity:1;stroke-dasharray:none;stroke-dashoffset:0"
           id="g9347">
          <path
             inkscape:connector-curvature="0"
             id="path9349"
             d="m 500,246.5 -8,-8" />
        </g>
        <g
           transform="matrix(0.42841099,0,0,0.42841099,-87.859028,41.457667)"
           style="fill:none;stroke:#666666;stroke-width:2;stroke-linecap:butt;stroke-linejoin:miter;stroke-miterlimit:10;stroke-opacity:1;stroke-dasharray:none;stroke-dashoffset:0"
           id="g9351">
          <path
             inkscape:connector-curvature="0"
             id="path9353"
             d="m 500,246.5 -8,8" />
        </g>
        <g
           transform="matrix(0.42841099,0,0,0.42841099,-87.859028,41.457667)"
           id="g9355"
           clip-path="url(#clip13-7)"
           style="stroke-width:1;stroke-linecap:square;stroke-linejoin:miter;stroke-miterlimit:10;stroke-dasharray:none;stroke-dashoffset:0">
          <g
             id="g9357"
             transform="translate(230,205)">
            <text
               style="font-size:22px;font-style:normal;font-weight:normal;fill:#666666;fill-opacity:1;stroke:none;font-family:Helvetica"
               id="text9359"
               y="0"
               x="0"
               font-size="22"
               font-weight="normal"
               font-style="normal">1</text>
          </g>
          <!-- transform -->
        </g>
        <g
           transform="matrix(0.42841099,0,0,0.42841099,-87.859028,41.457667)"
           style="fill:none;stroke:#666666;stroke-width:2;stroke-linecap:butt;stroke-linejoin:miter;stroke-miterlimit:10;stroke-opacity:1;stroke-dasharray:none;stroke-dashoffset:0"
           id="g9361">
          <path
             inkscape:connector-curvature="0"
             id="path9363"
             d="m 248,195.1 4,0" />
        </g>
        <g
           transform="matrix(0.42841099,0,0,0.42841099,-87.859028,41.457667)"
           style="fill:none;stroke:#666666;stroke-width:2;stroke-linecap:butt;stroke-linejoin:miter;stroke-miterlimit:10;stroke-opacity:1;stroke-dasharray:none;stroke-dashoffset:0"
           id="g9365">
          <path
             inkscape:connector-curvature="0"
             id="path9367"
             d="m 252,0 0,481" />
        </g>
        <g
           id="g9369"
           transform="matrix(0.42841099,0,0,0.42841099,-87.625928,41.820417)"
           style="stroke-width:1;stroke-linecap:square;stroke-linejoin:miter;stroke-miterlimit:10;stroke-dasharray:none;stroke-dashoffset:0">
          <g
             style="fill:none;stroke:#ff0000;stroke-width:3.5;stroke-linecap:round;stroke-linejoin:round;stroke-opacity:1"
             id="g9371">
            <path
               inkscape:connector-curvature="0"
               id="path9373"
               d="m 3.9140625,257.14938 3.9140625,0.17069 3.914063,0.1763 3.914062,0.1821 3.914062,0.18823 3.914063,0.1947 3.914062,0.20148 3.914063,0.20862 3.914062,0.21615 3.914063,0.22412 3.914062,0.23249 3.914063,0.24139 3.914062,0.25076 3.914063,0.26075 3.914062,0.27127 3.914063,0.28253 3.914062,0.2944 3.914063,0.30713 3.914062,0.32065 3.914063,0.33511 3.914062,0.35056 3.914063,0.36709 3.914062,0.38486 3.914063,0.4039 3.914062,0.42441 3.914068,0.44653 3.91406,0.4704 3.91406,0.49628 3.91406,0.52432 3.91407,0.55481 3.91406,0.58807 3.91406,0.62439 3.91406,0.66416 3.91406,0.70791 3.91407,0.75608 3.91406,0.80932 3.91406,0.86847 3.91406,0.9343 3.91407,1.00793 3.91406,1.09058 3.91406,1.18387 3.91406,1.28964 3.91407,1.41028 3.91406,1.54864 3.91406,1.70844 3.91406,1.89431 3.91407,2.11225 3.91406,2.37011 3.91406,2.67826 3.91406,3.05066 3.91407,3.50656 3.91406,4.07287 3.91406,4.78852 3.91406,5.71084 3.91407,6.92807 3.91406,8.58094 1.95703,5.10684 1.95703,5.79852 1.95703,6.64093 1.95703,7.68131 1.95704,8.98693 0.97851,5.09174 0.97852,5.56464 0.97851,6.10666 0.97852,6.73196 0.97851,7.4584 0.97852,8.30921 0.97852,9.31439 0.48925,5.0929 0.48926,5.42077 0.48926,5.78137 0.48926,6.1792 0.48925,6.61954 0.48926,7.10864 0.48926,7.65412 0.48926,8.26483 0.48926,8.95166 0.48925,9.72784 m 22.01661,-480.29792682 0.24462,5.48692182 0.24463,5.247675 0.48926,9.837583 0.48926,9.048501 0.48926,8.350692 0.48925,7.73061 0.48926,7.17712 0.48926,6.681023 0.48926,6.234638 0.48926,5.831551 0.48925,5.466324 0.48926,5.134369 0.97852,9.386901 0.97851,8.370298 0.97852,7.51034 0.97851,6.77646 0.97852,6.14511 0.97851,5.59809 1.95704,9.82337 1.95703,8.33874 1.95703,7.16704 1.95703,6.22609 1.95703,5.45901 1.95703,4.82549 3.91406,8.14564 3.91407,6.61115 3.91406,5.47294 3.91406,4.60538 3.91406,3.92896 3.91407,3.39135 3.91406,2.95704 3.91406,2.60112 3.91406,2.30581 3.91407,2.05811 3.91406,1.84828 3.91406,1.66898 3.91406,1.51455 3.91407,1.38063 3.91406,1.26372 3.91406,1.16104 3.91406,1.07039 3.91407,0.98996 3.91406,0.91827 3.91406,0.8541 3.91406,0.79642 3.91407,0.74438 3.91406,0.69731 3.91406,0.65454 3.91406,0.6156 3.91407,0.58005 3.91406,0.54746 3.91406,0.51756 3.91406,0.49005 3.91407,0.46466 3.91406,0.44121 3.91406,0.41949 3.91406,0.39933 3.91407,0.38058 3.91406,0.36313 3.91406,0.34685 3.91406,0.33165 3.91407,0.31741 3.91406,0.30409 3.91406,0.29158 3.91406,0.27982 3.91407,0.26877 3.91406,0.25836 3.91406,0.24852 3.91406,0.23927 3.91407,0.2305 3.91406,0.22222 3.91406,0.21435 3.91406,0.20693 3.91407,0.19985 3.91406,0.19317 3.91406,0.18678 3.91406,0.18071 3.91407,0.17496 3.91406,0.16944"
               sodipodi:nodetypes="cccccccccccccccccccccccccccccccccccccccccccccccccccccccccccccccccccccccccccccccccccccccccccccccccccccccccccccccccccccccccccccccccccccccccccccccccccccccccccccc"
               style="stroke:#ff0000;stroke-width:5.43983316;stroke-miterlimit:10;stroke-opacity:1;stroke-dasharray:none;marker-start:url(#Arrow2MstartC);marker-end:url(#Arrow2Mendz)" />
          </g>
          <!-- drawing style -->
        </g>
        <g
           transform="matrix(0.42841099,0,0,0.42841099,-87.859028,41.457667)"
           style="fill:none;stroke:#666666;stroke-width:2;stroke-linecap:butt;stroke-linejoin:miter;stroke-miterlimit:10;stroke-opacity:1;stroke-dasharray:none;stroke-dashoffset:0"
           id="g9375">
          <path
             inkscape:connector-curvature="0"
             id="path9377"
             d="m 252,0 -8,8" />
        </g>
        <g
           transform="matrix(0.42841099,0,0,0.42841099,-87.859028,41.457667)"
           style="fill:none;stroke:#666666;stroke-width:2;stroke-linecap:butt;stroke-linejoin:miter;stroke-miterlimit:10;stroke-opacity:1;stroke-dasharray:none;stroke-dashoffset:0"
           id="g9379">
          <path
             inkscape:connector-curvature="0"
             id="path9381"
             d="m 252,0 8,8" />
        </g>
        <path
           style="fill:none;stroke:#ff0000;stroke-width:2.33048439;stroke-linecap:round;stroke-linejoin:round;stroke-miterlimit:10;stroke-opacity:1;stroke-dasharray:none;stroke-dashoffset:0;marker-start:url(#Arrow2MstartC);marker-end:url(#Arrow2Mendz)"
           sodipodi:nodetypes="ccccccccccccccccccccccccccccccccccccccccccccccccccccccccccccccccccccccccccccccccccccccccccccccccccccccccccccccccccccccccccccccccccccccccccccccccccccccccccccc"
           d="m 15.800807,253.72941 -0.0731,-1.67682 -0.0755,-1.67683 -0.078,-1.67683 -0.0806,-1.67683 -0.0834,-1.67682 -0.0863,-1.67683 -0.0894,-1.67683 -0.0926,-1.67683 -0.096,-1.67682 -0.0996,-1.67683 -0.10341,-1.67683 -0.10743,-1.67683 -0.11171,-1.67682 -0.11621,-1.67683 -0.12104,-1.67683 -0.12612,-1.67683 -0.13158,-1.67682 -0.13737,-1.67683 -0.14357,-1.67683 -0.15018,-1.67682 -0.15727,-1.67683 -0.16487,-1.67683 -0.17304,-1.67683 -0.18182,-1.67682 -0.1913,-1.67683 -0.20152,-1.67683 -0.21262,-1.67683 -0.22462,-1.67682 -0.23769,-1.67683 -0.25193,-1.67683 -0.2675,-1.67683 -0.28453,-1.67682 -0.30328,-1.67683 -0.32391,-1.67683 -0.34672,-1.67683 -0.37207,-1.67682 -0.40026,-1.67683 -0.43181,-1.67683 -0.46721,-1.67683 -0.50719,-1.67682 -0.55249,-1.67683 -0.60418,-1.67683 -0.66346,-1.67683 -0.731915,-1.67682 -0.81155,-1.67683 -0.90491,-1.67683 -1.01538,-1.67682 -1.14739,-1.67683 -1.30694,-1.67683 -1.50225,-1.67683 -1.74486,-1.67682 -2.05146,-1.67683 -2.44658,-1.67683 -2.96806,-1.67683 -3.67617,-1.67682 -2.18783,-0.83842 -2.48415,-0.83841 -2.84505,-0.83841 -3.29075,-0.83842 -3.8501,-0.83841 -2.18136,-0.41921 -2.38395,-0.41921 -2.61616,-0.4192 -2.88405,-0.41921 -3.19526,-0.4192 -3.55976,-0.41921 -3.99038,-0.41921 -2.18186,-0.2096 -2.32232,-0.20961 -2.4768,-0.2096 -2.64724,-0.20961 -2.83588,-0.2096 -3.04542,-0.2096 -3.27911,-0.2096 -3.54074,-0.20961 -3.83499,-0.2096 -4.16751,-0.2096 m 203.414248,-9.53696 -2.24816,-0.1048 -4.21453,-0.20961 -3.87647,-0.2096 -3.57753,-0.2096 -3.31188,-0.2096 -3.07476,-0.20961 -2.86222,-0.2096 -2.670993,-0.20961 -2.4983,-0.2096 -2.34183,-0.2096 -2.19962,-0.20961 -4.02145,-0.4192 -3.58593,-0.41921 -3.21751,-0.41921 -2.90311,-0.4192 -2.63264,-0.41921 -2.39828,-0.41921 -4.20844,-0.83841 -3.5724,-0.83842 -3.07044,-0.83841 -2.66733,-0.83841 -2.3387,-0.83842 -2.06729,-0.83841 -3.48968,-1.67682 -2.83229,-1.67684 -2.34467,-1.67682 -1.97299,-1.67683 -1.68321,-1.67682 -1.45289,-1.67683 -1.26683,-1.67683 -1.11435,-1.67683 -0.98784,-1.67682 -0.88171,-1.67683 -0.79183,-1.67683 -0.71501,-1.67683 -0.64885,-1.67682 -0.59147,-1.67683 -0.54139,-1.67683 -0.49741,-1.67683 -0.45856,-1.67682 -0.42411,-1.67683 -0.3934,-1.67683 -0.36591,-1.676833 -0.34119,-1.67682 -0.3189,-1.67683 -0.29874,-1.67683 -0.28041,-1.67683 -0.26373,-1.67682 -0.2485,-1.67683 -0.23454,-1.67683 -0.22172,-1.67683 -0.20995,-1.67682 -0.19906,-1.67683 -0.18902,-1.67683 -0.17972,-1.67682 -0.17107,-1.67683 -0.16305,-1.67683 -0.15557,-1.67683 -0.14859,-1.67682 -0.14208,-1.67683 -0.13599,-1.67683 -0.13027,-1.67683 -0.12492,-1.67682 -0.11988,-1.67683 -0.11514,-1.67683 -0.11068,-1.67682 -0.10647,-1.67683 -0.10251,-1.67683 -0.0987,-1.67683 -0.0952,-1.676825 -0.0918,-1.676826 -0.0887,-1.676827 -0.0856,-1.67683 -0.0828,-1.676826 -0.08,-1.676827 -0.0774,-1.676826 -0.075,-1.676831 -0.0726,-1.676826"
           id="path9383"
           inkscape:connector-curvature="0" />
      </g>
      <g
         id="g9462"
         transform="matrix(-0.42841099,0,0,0.42841099,686.05049,448.65046)"
         style="stroke-width:1;stroke-linecap:square;stroke-linejoin:miter;stroke-miterlimit:10;stroke-dasharray:none;stroke-dashoffset:0"
         clip-path="url(#clipPath9608)">
        <g
           style="fill:none;stroke:#ff0000;stroke-width:3.5;stroke-linecap:round;stroke-linejoin:round;stroke-opacity:1"
           id="g9464">
          <path
             inkscape:connector-curvature="0"
             id="path9466"
             d="m 3.9140625,257.14938 3.9140625,0.17069 3.914063,0.1763 3.914062,0.1821 3.914062,0.18823 3.914063,0.1947 3.914062,0.20148 3.914063,0.20862 3.914062,0.21615 3.914063,0.22412 3.914062,0.23249 3.914063,0.24139 3.914062,0.25076 3.914063,0.26075 3.914062,0.27127 3.914063,0.28253 3.914062,0.2944 3.914063,0.30713 3.914062,0.32065 3.914063,0.33511 3.914062,0.35056 3.914063,0.36709 3.914062,0.38486 3.914063,0.4039 3.914062,0.42441 3.914068,0.44653 3.91406,0.4704 3.91406,0.49628 3.91406,0.52432 3.91407,0.55481 3.91406,0.58807 3.91406,0.62439 3.91406,0.66416 3.91406,0.70791 3.91407,0.75608 3.91406,0.80932 3.91406,0.86847 3.91406,0.9343 3.91407,1.00793 3.91406,1.09058 3.91406,1.18387 3.91406,1.28964 3.91407,1.41028 3.91406,1.54864 3.91406,1.70844 3.91406,1.89431 3.91407,2.11225 3.91406,2.37011 3.91406,2.67826 3.91406,3.05066 3.91407,3.50656 3.91406,4.07287 3.91406,4.78852 3.91406,5.71084 3.91407,6.92807 3.91406,8.58094 1.95703,5.10684 1.95703,5.79852 1.95703,6.64093 1.95703,7.68131 1.95704,8.98693 0.97851,5.09174 0.97852,5.56464 0.97851,6.10666 0.97852,6.73196 0.97851,7.4584 0.97852,8.30921 0.97852,9.31439 0.48925,5.0929 0.48926,5.42077 0.48926,5.78137 0.48926,6.1792 0.48925,6.61954 0.48926,7.10864 0.48926,7.65412 0.48926,8.26483 0.48926,8.95166 0.48925,9.72784 m 22.01661,-480.29792682 0.24462,5.48692182 0.24463,5.247675 0.48926,9.837583 0.48926,9.048501 0.48926,8.350692 0.48925,7.73061 0.48926,7.17712 0.48926,6.681023 0.48926,6.234638 0.48926,5.831551 0.48925,5.466324 0.48926,5.134369 0.97852,9.386901 0.97851,8.370298 0.97852,7.51034 0.97851,6.77646 0.97852,6.14511 0.97851,5.59809 1.95704,9.82337 1.95703,8.33874 1.95703,7.16704 1.95703,6.22609 1.95703,5.45901 1.95703,4.82549 3.91406,8.14564 3.91407,6.61115 3.91406,5.47294 3.91406,4.60538 3.91406,3.92896 3.91407,3.39135 3.91406,2.95704 3.91406,2.60112 3.91406,2.30581 3.91407,2.05811 3.91406,1.84828 3.91406,1.66898 3.91406,1.51455 3.91407,1.38063 3.91406,1.26372 3.91406,1.16104 3.91406,1.07039 3.91407,0.98996 3.91406,0.91827 3.91406,0.8541 3.91406,0.79642 3.91407,0.74438 3.91406,0.69731 3.91406,0.65454 3.91406,0.6156 3.91407,0.58005 3.91406,0.54746 3.91406,0.51756 3.91406,0.49005 3.91407,0.46466 3.91406,0.44121 3.91406,0.41949 3.91406,0.39933 3.91407,0.38058 3.91406,0.36313 3.91406,0.34685 3.91406,0.33165 3.91407,0.31741 3.91406,0.30409 3.91406,0.29158 3.91406,0.27982 3.91407,0.26877 3.91406,0.25836 3.91406,0.24852 3.91406,0.23927 3.91407,0.2305 3.91406,0.22222 3.91406,0.21435 3.91406,0.20693 3.91407,0.19985 3.91406,0.19317 3.91406,0.18678 3.91406,0.18071 3.91407,0.17496 3.91406,0.16944"
             sodipodi:nodetypes="cccccccccccccccccccccccccccccccccccccccccccccccccccccccccccccccccccccccccccccccccccccccccccccccccccccccccccccccccccccccccccccccccccccccccccccccccccccccccccccc"
             style="stroke:#ff0000;stroke-width:5.43983316;stroke-miterlimit:10;stroke-opacity:1;stroke-dasharray:none;marker-start:url(#Arrow2MstartC);marker-end:url(#Arrow2Mendz)" />
        </g>
        <!-- drawing style -->
      </g>
      <g
         transform="matrix(-0.42841099,0,0,0.42841099,686.28359,448.28771)"
         style="fill:none;stroke:#666666;stroke-width:2;stroke-linecap:butt;stroke-linejoin:miter;stroke-miterlimit:10;stroke-opacity:1;stroke-dasharray:none;stroke-dashoffset:0"
         id="g9468">
        <path
           inkscape:connector-curvature="0"
           id="path9470"
           d="m 252,0 -8,8" />
      </g>
      <g
         transform="matrix(-0.42841099,0,0,0.42841099,686.28359,448.28771)"
         style="fill:none;stroke:#666666;stroke-width:2;stroke-linecap:butt;stroke-linejoin:miter;stroke-miterlimit:10;stroke-opacity:1;stroke-dasharray:none;stroke-dashoffset:0"
         id="g9472">
        <path
           inkscape:connector-curvature="0"
           id="path9474"
           d="m 252,0 8,8" />
      </g>
      <path
         style="fill:none;stroke:#ff0000;stroke-width:2.33048439;stroke-linecap:round;stroke-linejoin:round;stroke-miterlimit:10;stroke-opacity:1;stroke-dasharray:none;stroke-dashoffset:0;marker-start:url(#Arrow2MstartC);marker-end:url(#Arrow2Mendz)"
         sodipodi:nodetypes="ccccccccccccccccccccccccccccccccccccccccccccccccccccccccccccccccccccccccccccccccccccccccccccccccccccccccccccccccccccccccccccccccccccccccccccccccccccccccccccc"
         d="m 582.62375,660.55945 0.0731,-1.67682 0.0755,-1.67683 0.078,-1.67683 0.0806,-1.67683 0.0834,-1.67682 0.0863,-1.67683 0.0894,-1.67683 0.0926,-1.67683 0.096,-1.67682 0.0996,-1.67683 0.10341,-1.67683 0.10743,-1.67683 0.11171,-1.67682 0.11621,-1.67683 0.12104,-1.67683 0.12612,-1.67683 0.13158,-1.67682 0.13737,-1.67683 0.14357,-1.67683 0.15018,-1.67682 0.15727,-1.67683 0.16487,-1.67683 0.17304,-1.67683 0.18182,-1.67682 0.1913,-1.67683 0.20152,-1.67683 0.21262,-1.67683 0.22462,-1.67682 0.23769,-1.67683 0.25193,-1.67683 0.2675,-1.67683 0.28453,-1.67682 0.30328,-1.67683 0.32391,-1.67683 0.34672,-1.67683 0.37207,-1.67682 0.40026,-1.67683 0.43181,-1.67683 0.46721,-1.67683 0.50719,-1.67682 0.55249,-1.67683 0.60418,-1.67683 0.66346,-1.67683 0.73192,-1.67682 0.81155,-1.67683 0.90491,-1.67683 1.01538,-1.67682 1.14739,-1.67683 1.30694,-1.67683 1.50225,-1.67683 1.74486,-1.67682 2.05146,-1.67683 2.44658,-1.67683 2.96806,-1.67683 3.67617,-1.67682 2.18783,-0.83842 2.48415,-0.83841 2.84505,-0.83841 3.29075,-0.83842 3.8501,-0.83841 2.18136,-0.41921 2.38395,-0.41921 2.61616,-0.4192 2.88405,-0.41921 3.19526,-0.4192 3.55976,-0.41921 3.99038,-0.41921 2.18186,-0.2096 2.32232,-0.20961 2.4768,-0.2096 2.64724,-0.20961 2.83588,-0.2096 3.04542,-0.2096 3.27911,-0.2096 3.54074,-0.20961 3.83499,-0.2096 4.16751,-0.2096 m -203.41425,-9.53696 2.24816,-0.1048 4.21453,-0.20961 3.87647,-0.2096 3.57753,-0.2096 3.31188,-0.2096 3.07476,-0.20961 2.86222,-0.2096 2.67099,-0.20961 2.4983,-0.2096 2.34183,-0.2096 2.19962,-0.20961 4.02145,-0.4192 3.58593,-0.41921 3.21751,-0.41921 2.90311,-0.4192 2.63264,-0.41921 2.39828,-0.41921 4.20844,-0.83841 3.5724,-0.83842 3.07044,-0.83841 2.66733,-0.83841 2.3387,-0.83842 2.06729,-0.83841 3.48968,-1.67682 2.83229,-1.67684 2.34467,-1.67682 1.97299,-1.67683 1.68321,-1.67682 1.45289,-1.67683 1.26683,-1.67683 1.11435,-1.67683 0.98784,-1.67682 0.88171,-1.67683 0.79183,-1.67683 0.71501,-1.67683 0.64885,-1.67682 0.59147,-1.67683 0.54139,-1.67683 0.49741,-1.67683 0.45856,-1.67682 0.42411,-1.67683 0.3934,-1.67683 0.36591,-1.67683 0.34119,-1.67682 0.3189,-1.67683 0.29874,-1.67683 0.28041,-1.67683 0.26373,-1.67682 0.2485,-1.67683 0.23454,-1.67683 0.22172,-1.67683 0.20995,-1.67682 0.19906,-1.67683 0.18902,-1.67683 0.17972,-1.67682 0.17107,-1.67683 0.16305,-1.67683 0.15557,-1.67683 0.14859,-1.67682 0.14208,-1.67683 0.13599,-1.67683 0.13027,-1.67683 0.12492,-1.67682 0.11988,-1.67683 0.11514,-1.67683 0.11068,-1.67682 0.10647,-1.67683 0.10251,-1.67683 0.0987,-1.67683 0.0952,-1.67683 0.0918,-1.67682 0.0887,-1.67683 0.0856,-1.67683 0.0828,-1.67683 0.08,-1.67682 0.0774,-1.67683 0.075,-1.67683 0.0726,-1.67683"
         id="path9476"
         inkscape:connector-curvature="0"
         clip-path="url(#clipPath9604)" />
      <path
         inkscape:export-ydpi="89.294258"
         inkscape:export-xdpi="89.294258"
         inkscape:export-filename="C:\Book Ideas\images\power_functions.png"
         transform="translate(755.9918,483.92628)"
         d="m -152.51386,48.226265 c 0,1.659726 -1.34547,3.005199 -3.0052,3.005199 -1.65972,0 -3.0052,-1.345473 -3.0052,-3.005199 0,-1.659726 1.34548,-3.005199 3.0052,-3.005199 1.65973,0 3.0052,1.345473 3.0052,3.005199 z"
         sodipodi:ry="3.0051992"
         sodipodi:rx="3.0051992"
         sodipodi:cy="48.226265"
         sodipodi:cx="-155.51906"
         id="path10923"
         style="fill:#000000;fill-opacity:0.94117647;fill-rule:nonzero;stroke:none"
         sodipodi:type="arc" />
    </g>
  </g>
</svg>
