<?xml version="1.0" encoding="UTF-8" standalone="no"?>
<!-- Created with Inkscape (http://www.inkscape.org/) -->

<svg
   xmlns:ns1="http://www.iki.fi/pav/software/textext/"
   xmlns:dc="http://purl.org/dc/elements/1.1/"
   xmlns:cc="http://creativecommons.org/ns#"
   xmlns:rdf="http://www.w3.org/1999/02/22-rdf-syntax-ns#"
   xmlns:svg="http://www.w3.org/2000/svg"
   xmlns="http://www.w3.org/2000/svg"
   xmlns:sodipodi="http://sodipodi.sourceforge.net/DTD/sodipodi-0.dtd"
   xmlns:inkscape="http://www.inkscape.org/namespaces/inkscape"
   width="390.58704"
   height="227.92508"
   viewBox="0 0 103.34282 60.305177"
   version="1.1"
   id="svg8"
   inkscape:version="0.92.4 (5da689c313, 2019-01-14)"
   sodipodi:docname="summation_notation.svg">
  <defs
     id="defs2">
    <marker
       inkscape:stockid="Arrow2Mend"
       orient="auto"
       refY="0"
       refX="0"
       id="marker1260"
       style="overflow:visible"
       inkscape:isstock="true">
      <path
         inkscape:connector-curvature="0"
         id="path1258"
         style="fill:#0072b2;fill-opacity:1;fill-rule:evenodd;stroke:#0072b2;stroke-width:0.625;stroke-linejoin:round;stroke-opacity:1"
         d="M 8.7185878,4.0337352 -2.2072895,0.01601326 8.7185884,-4.0017078 c -1.7454984,2.3720609 -1.7354408,5.6174519 -6e-7,8.035443 z"
         transform="scale(-0.6)" />
    </marker>
    <marker
       inkscape:isstock="true"
       style="overflow:visible"
       id="marker1237"
       refX="0"
       refY="0"
       orient="auto"
       inkscape:stockid="Arrow2Mend"
       inkscape:collect="always">
      <path
         transform="scale(-0.6)"
         d="M 8.7185878,4.0337352 -2.2072895,0.01601326 8.7185884,-4.0017078 c -1.7454984,2.3720609 -1.7354408,5.6174519 -6e-7,8.035443 z"
         style="fill:#cc79a7;fill-opacity:1;fill-rule:evenodd;stroke:#cc79a7;stroke-width:0.625;stroke-linejoin:round;stroke-opacity:1"
         id="path1235"
         inkscape:connector-curvature="0" />
    </marker>
    <marker
       inkscape:isstock="true"
       style="overflow:visible"
       id="marker1225"
       refX="0"
       refY="0"
       orient="auto"
       inkscape:stockid="Arrow2Mend"
       inkscape:collect="always">
      <path
         transform="scale(-0.6)"
         d="M 8.7185878,4.0337352 -2.2072895,0.01601326 8.7185884,-4.0017078 c -1.7454984,2.3720609 -1.7354408,5.6174519 -6e-7,8.035443 z"
         style="fill:#009e73;fill-opacity:1;fill-rule:evenodd;stroke:#009e73;stroke-width:0.625;stroke-linejoin:round;stroke-opacity:1"
         id="path1223"
         inkscape:connector-curvature="0" />
    </marker>
    <marker
       inkscape:stockid="Arrow2Mend"
       orient="auto"
       refY="0"
       refX="0"
       id="Arrow2Mend"
       style="overflow:visible"
       inkscape:isstock="true"
       inkscape:collect="always">
      <path
         id="path984"
         style="fill:#d55e00;fill-opacity:1;fill-rule:evenodd;stroke:#d55e00;stroke-width:0.625;stroke-linejoin:round;stroke-opacity:1"
         d="M 8.7185878,4.0337352 -2.2072895,0.01601326 8.7185884,-4.0017078 c -1.7454984,2.3720609 -1.7354408,5.6174519 -6e-7,8.035443 z"
         transform="scale(-0.6)"
         inkscape:connector-curvature="0" />
    </marker>
  </defs>
  <sodipodi:namedview
     id="base"
     pagecolor="#ffffff"
     bordercolor="#666666"
     borderopacity="1.0"
     inkscape:pageopacity="0.0"
     inkscape:pageshadow="2"
     inkscape:zoom="2.6529871"
     inkscape:cx="241.06302"
     inkscape:cy="87.013811"
     inkscape:document-units="mm"
     inkscape:current-layer="g914"
     showgrid="false"
     inkscape:window-width="1920"
     inkscape:window-height="1017"
     inkscape:window-x="-8"
     inkscape:window-y="-8"
     inkscape:window-maximized="1"
     units="px"
     fit-margin-top="5"
     fit-margin-left="5"
     fit-margin-right="5"
     fit-margin-bottom="5" />
  <metadata
     id="metadata5">
    <rdf:RDF>
      <cc:Work
         rdf:about="">
        <dc:format>image/svg+xml</dc:format>
        <dc:type
           rdf:resource="http://purl.org/dc/dcmitype/StillImage" />
        <dc:title></dc:title>
      </cc:Work>
    </rdf:RDF>
  </metadata>
  <g
     inkscape:label="Layer 1"
     inkscape:groupmode="layer"
     id="layer1"
     transform="translate(-56.460854,-113.83938)">
    <g
       id="g867"
       ns1:jacobian_sqrt="0.352778"
       ns1:alignment="middle center"
       ns1:scale="1.0"
       ns1:preamble="C:\\Users\\Lenovo\\AppData\\Roaming\\inkscape\\extensions\\textext\\default_packages.tex"
       ns1:text="$$\\sum_{k=1}^{18} 3+2(k-1)$$"
       ns1:pdfconverter="pdf2svg"
       ns1:texconverter="pdflatex"
       ns1:version="0.11.0"
       transform="matrix(0.352778,0,0,0.352778,-2.732038,95.164112)">
      <g
         id="g914">
        <path
           id="path820"
           d="m 291.44133,95.615171 c 1.41521,-0.687387 2.30476,-1.536511 2.30476,-2.789979 0,-1.738683 -1.81955,-2.668675 -3.55823,-2.668675 -1.98129,0 -3.59866,1.293903 -3.59866,2.992151 0,0.849124 0.40433,1.455641 0.72782,1.819551 0.32347,0.404345 0.44477,0.485214 1.49606,1.09173 -1.01085,0.44478 -2.78997,1.415208 -2.78997,3.315627 0,1.981284 2.06215,3.113454 4.12432,3.113454 2.30476,0 4.16475,-1.45564 4.16475,-3.396495 0,-1.213034 -0.68739,-2.223896 -1.73869,-2.830413 -0.2426,-0.161738 -0.84912,-0.485214 -1.13216,-0.646951 z m -2.91128,-1.698249 c -0.48521,-0.283041 -0.97043,-0.768254 -0.97043,-1.45564 0,-1.132165 1.2939,-1.779117 2.58781,-1.779117 1.4152,0 2.66867,0.889558 2.66867,2.143027 0,1.617379 -1.90042,2.426068 -1.90042,2.426068 -0.0404,0 -0.0809,0 -0.20217,-0.08087 z m 0.84912,2.506938 2.50694,1.415207 c 0.44478,0.283041 1.33434,0.808689 1.33434,1.859988 0,1.374775 -1.49608,2.223895 -3.03259,2.223895 -1.65781,0 -3.07302,-1.09173 -3.07302,-2.547374 0,-1.334337 0.97042,-2.385633 2.26433,-2.951716 z m 0,0"
           style="fill:#d55e00;fill-opacity:1;stroke:none;stroke-width:0"
           inkscape:connector-curvature="0" />
        <g
           transform="matrix(2.5878063,0,0,2.5878063,-431.18509,-263.4051)"
           style="fill:#000000;fill-opacity:1"
           id="g826">
          <path
             inkscape:connector-curvature="0"
             style="stroke:none;stroke-width:0"
             d="m 12.625,13.953125 1.203125,-3.1875 h -0.25 c -0.390625,1.03125 -1.453125,1.71875 -2.59375,2.015625 -0.203125,0.04688 -1.1875,0.3125 -3.09375,0.3125 H 1.875 L 6.953125,7.140625 C 7.015625,7.0625 7.03125,7.03125 7.03125,6.984375 c 0,-0.03125 0,-0.0625 -0.0625,-0.15625 L 2.328125,0.484375 H 7.78125 c 1.34375,0 2.25,0.140625 2.34375,0.15625 0.53125,0.078125 1.40625,0.25 2.1875,0.75 0.25,0.15625 0.921875,0.609375 1.265625,1.40625 h 0.25 L 12.625,0 H 0.84375 c -0.234375,0 -0.25,0.015625 -0.28125,0.0625 0,0.03125 0,0.234375 0,0.34375 l 5.265625,7.203125 -5.15625,6.0625 C 0.5625,13.78125 0.5625,13.84375 0.5625,13.84375 c 0,0.109375 0.09375,0.109375 0.28125,0.109375 z m 0,0"
             transform="translate(271.325,144.24)"
             id="path824" />
        </g>
        <g
           transform="matrix(2.5878063,0,0,2.5878063,-431.18509,-263.4051)"
           style="fill:#cc79a7;fill-opacity:1"
           id="g830">
          <path
             inkscape:connector-curvature="0"
             style="fill:#cc79a7;fill-opacity:1;stroke:none;stroke-width:0"
             d="m 2.1875,-4.625 c 0,-0.015625 0.015625,-0.109375 0.015625,-0.109375 0,-0.046875 -0.015625,-0.109375 -0.109375,-0.109375 -0.140625,0 -0.71875,0.0625 -0.890625,0.078125 -0.046875,0 -0.15625,0.015625 -0.15625,0.15625 0,0.09375 0.109375,0.09375 0.1875,0.09375 0.328125,0 0.328125,0.0625 0.328125,0.109375 0,0.046875 -0.015625,0.09375 -0.015625,0.15625 L 0.5625,-0.3125 c -0.046875,0.125 -0.046875,0.140625 -0.046875,0.15625 0,0.109375 0.09375,0.21875 0.25,0.21875 0.1875,0 0.265625,-0.125 0.3125,-0.28125 0.015625,-0.03125 0.3125,-1.265625 0.34375,-1.359375 0.5,0.046875 0.890625,0.21875 0.890625,0.578125 0,0.03125 0,0.0625 -0.015625,0.140625 -0.03125,0.09375 -0.03125,0.140625 -0.03125,0.21875 0,0.484375 0.40625,0.703125 0.75,0.703125 0.671875,0 0.875,-1.046875 0.875,-1.0625 0,-0.09375 -0.078125,-0.09375 -0.109375,-0.09375 -0.09375,0 -0.109375,0.046875 -0.140625,0.171875 C 3.5625,-0.625 3.375,-0.125 3.03125,-0.125 c -0.1875,0 -0.25,-0.171875 -0.25,-0.359375 0,-0.125 0,-0.140625 0.046875,-0.3125 0.015625,-0.03125 0.03125,-0.140625 0.03125,-0.21875 0,-0.625 -0.828125,-0.71875 -1.125,-0.734375 C 1.9375,-1.875 2.1875,-2.109375 2.3125,-2.21875 2.671875,-2.546875 3.015625,-2.875 3.40625,-2.875 c 0.078125,0 0.171875,0.015625 0.234375,0.09375 C 3.34375,-2.734375 3.28125,-2.5 3.28125,-2.390625 c 0,0.140625 0.109375,0.25 0.265625,0.25 0.203125,0 0.40625,-0.15625 0.40625,-0.4375 0,-0.234375 -0.171875,-0.5 -0.53125,-0.5 -0.40625,0 -0.765625,0.296875 -1.125,0.625 C 2,-2.1875 1.78125,-1.96875 1.484375,-1.84375 Z m 0,0"
             transform="translate(271.275,165.688)"
             id="path828" />
        </g>
        <path
           id="path832"
           d="m 296.08777,159.29817 c 0.24261,0 0.64696,0 0.64696,-0.44477 0,-0.44479 -0.40435,-0.44479 -0.64696,-0.44479 H 284.1596 c -0.2426,0 -0.68738,0 -0.68738,0.44479 0,0.44477 0.40435,0.44477 0.68738,0.44477 z m 0,3.96258 c 0.24261,0 0.64696,0 0.64696,-0.40435 0,-0.48521 -0.40435,-0.48521 -0.64696,-0.48521 H 284.1596 c -0.28303,0 -0.68738,0 -0.68738,0.48521 0,0.40435 0.44478,0.40435 0.68738,0.40435 z m 0,0"
           style="fill:#000000;fill-opacity:1;stroke:none;stroke-width:0"
           inkscape:connector-curvature="0" />
        <path
           id="path834"
           d="m 304.07056,153.87995 c 0,-0.48521 0,-0.48521 -0.52565,-0.48521 -1.17259,1.13217 -2.78997,1.13217 -3.51779,1.13217 v 0.64695 c 0.40435,0 1.61738,0 2.5878,-0.48521 v 9.17862 c 0,0.60651 0,0.84912 -1.77912,0.84912 h -0.68738 v 0.64695 c 0.32347,0 2.54737,-0.0809 3.19432,-0.0809 0.56608,0 2.83042,0.0809 3.23476,0.0809 v -0.64695 h -0.68739 c -1.81955,0 -1.81955,-0.24261 -1.81955,-0.84912 z m 0,0"
           style="fill:#0072b2;fill-opacity:1;stroke:none;stroke-width:0"
           inkscape:connector-curvature="0" />
        <text
           id="text835"
           y="85.630646"
           x="420.45502"
           style="font-style:normal;font-variant:normal;font-weight:normal;font-stretch:normal;font-size:14.99999046px;line-height:1.10000002;font-family:'Times New Roman';-inkscape-font-specification:'Times New Roman, ';letter-spacing:0px;word-spacing:0px;fill:#009e73;fill-opacity:1;stroke:none;stroke-width:0.75368565"
           xml:space="preserve"><tspan
             style="font-size:14.99999046px;line-height:1.10000002;text-align:center;text-anchor:middle;fill:#009e73;fill-opacity:1;stroke-width:0.75368565"
             y="85.630646"
             x="420.45502"
             id="tspan833"
             sodipodi:role="line">equation for</tspan><tspan
             id="tspan837"
             style="font-size:14.99999046px;line-height:1.10000002;text-align:center;text-anchor:middle;fill:#009e73;fill-opacity:1;stroke-width:0.75368565"
             y="102.13064"
             x="420.45502"
             sodipodi:role="line">the terms</tspan></text>
        <text
           xml:space="preserve"
           style="font-style:normal;font-variant:normal;font-weight:normal;font-stretch:normal;font-size:14.99999046px;line-height:1.10000002;font-family:'Times New Roman';-inkscape-font-specification:'Times New Roman, ';text-align:center;letter-spacing:0px;word-spacing:0px;text-anchor:middle;fill:#cc79a7;fill-opacity:1;stroke:none;stroke-width:0.75368565"
           x="220.36961"
           y="203.42638"
           id="text843"><tspan
             id="tspan847"
             sodipodi:role="line"
             x="220.36961"
             y="203.42638"
             style="font-size:14.99999046px;line-height:1.10000002;text-align:center;text-anchor:middle;fill:#cc79a7;fill-opacity:1;stroke-width:0.75368565">name of the</tspan><tspan
             id="tspan875"
             sodipodi:role="line"
             x="220.36961"
             y="219.92636"
             style="font-size:14.99999046px;line-height:1.10000002;text-align:center;text-anchor:middle;fill:#cc79a7;fill-opacity:1;stroke-width:0.75368565">variable</tspan></text>
        <text
           id="text853"
           y="203.42638"
           x="352.89203"
           style="font-style:normal;font-variant:normal;font-weight:normal;font-stretch:normal;font-size:14.99999046px;line-height:1.10000002;font-family:'Times New Roman';-inkscape-font-specification:'Times New Roman, ';letter-spacing:0px;word-spacing:0px;fill:#0072b2;fill-opacity:1;stroke:none;stroke-width:0.75368565"
           xml:space="preserve"><tspan
             style="font-size:14.99999046px;line-height:1.10000002;text-align:center;text-anchor:middle;fill:#0072b2;fill-opacity:1;stroke-width:0.75368565"
             y="203.42638"
             x="352.89203"
             sodipodi:role="line"
             id="tspan851">starting value</tspan><tspan
             id="tspan871"
             style="font-size:14.99999046px;line-height:1.10000002;text-align:center;text-anchor:middle;fill:#0072b2;fill-opacity:1;stroke-width:0.75368565"
             y="219.92636"
             x="352.89203"
             sodipodi:role="line">for the variable</tspan></text>
        <text
           xml:space="preserve"
           style="font-style:normal;font-variant:normal;font-weight:normal;font-stretch:normal;font-size:14.99999046px;line-height:1.10000002;font-family:'Times New Roman';-inkscape-font-specification:'Times New Roman, ';letter-spacing:0px;word-spacing:0px;fill:#d55e00;fill-opacity:1;stroke:none;stroke-width:0.75368565"
           x="213.4426"
           y="67.102768"
           id="text859"><tspan
             id="tspan857"
             sodipodi:role="line"
             x="213.4426"
             y="67.102768"
             style="font-size:14.99999046px;line-height:1.10000002;text-align:center;text-anchor:middle;fill:#d55e00;fill-opacity:1;stroke-width:0.75368565">final value for</tspan><tspan
             id="tspan863"
             sodipodi:role="line"
             x="213.4426"
             y="83.60276"
             style="font-size:14.99999046px;line-height:1.10000002;text-align:center;text-anchor:middle;fill:#d55e00;fill-opacity:1;stroke-width:0.75368565">the variable</tspan></text>
        <g
           id="g905"
           style="fill:#009e73;fill-opacity:1"
           transform="matrix(2.5684586,0,0,2.5684586,-457.12137,-241.19483)">
          <path
             id="path903"
             transform="translate(300.639,146.72)"
             d="m 2.859375,-6.8125 c 0,0 0,-0.109375 -0.125,-0.109375 -0.234375,0 -0.953125,0.078125 -1.21875,0.109375 -0.078125,0 -0.1875,0.015625 -0.1875,0.1875 0,0.125 0.09375,0.125 0.234375,0.125 0.484375,0 0.5,0.0625 0.5,0.171875 L 2.03125,-6.125 0.59375,-0.390625 c -0.046875,0.140625 -0.046875,0.15625 -0.046875,0.21875 0,0.234375 0.203125,0.28125 0.296875,0.28125 0.125,0 0.265625,-0.09375 0.328125,-0.203125 0.046875,-0.09375 0.5,-1.9375 0.5625,-2.1875 0.34375,0.03125 1.15625,0.1875 1.15625,0.84375 0,0.078125 0,0.109375 -0.03125,0.21875 -0.015625,0.109375 -0.03125,0.234375 -0.03125,0.34375 0,0.578125 0.390625,0.984375 0.90625,0.984375 0.296875,0 0.578125,-0.15625 0.796875,-0.53125 0.25,-0.4375 0.359375,-0.984375 0.359375,-1 0,-0.109375 -0.09375,-0.109375 -0.125,-0.109375 -0.09375,0 -0.109375,0.046875 -0.140625,0.1875 -0.203125,0.71875 -0.421875,1.234375 -0.859375,1.234375 -0.203125,0 -0.328125,-0.109375 -0.328125,-0.46875 0,-0.171875 0.046875,-0.40625 0.078125,-0.5625 C 3.5625,-1.3125 3.5625,-1.34375 3.5625,-1.453125 3.5625,-2.09375 2.9375,-2.375 2.078125,-2.5 2.390625,-2.671875 2.71875,-2.984375 2.9375,-3.234375 3.421875,-3.765625 3.875,-4.1875 4.359375,-4.1875 c 0.0625,0 0.078125,0 0.09375,0.015625 0.125,0.015625 0.125,0.015625 0.21875,0.078125 0.015625,0 0.015625,0.015625 0.03125,0.03125 -0.46875,0.03125 -0.5625,0.421875 -0.5625,0.546875 0,0.15625 0.109375,0.34375 0.375,0.34375 0.265625,0 0.546875,-0.21875 0.546875,-0.609375 0,-0.296875 -0.234375,-0.625 -0.671875,-0.625 -0.28125,0 -0.734375,0.078125 -1.453125,0.875 -0.34375,0.375 -0.734375,0.78125 -1.109375,0.921875 z m 0,0"
             style="fill:#009e73;fill-opacity:1;stroke:none;stroke-width:0"
             inkscape:connector-curvature="0" />
        </g>
        <g
           id="g909"
           style="fill:#009e73;fill-opacity:1"
           transform="matrix(2.5684586,0,0,2.5684586,-457.12137,-241.19483)">
          <path
             id="path907"
             transform="translate(306.139,142.606)"
             d="M 3.515625,-1.265625 H 3.28125 c -0.015625,0.15625 -0.09375,0.5625 -0.1875,0.625 C 3.046875,-0.59375 2.515625,-0.59375 2.40625,-0.59375 H 1.125 c 0.734375,-0.640625 0.984375,-0.84375 1.390625,-1.171875 0.515625,-0.40625 1,-0.84375 1,-1.5 0,-0.84375 -0.734375,-1.359375 -1.625,-1.359375 -0.859375,0 -1.453125,0.609375 -1.453125,1.25 0,0.34375 0.296875,0.390625 0.375,0.390625 0.15625,0 0.359375,-0.125 0.359375,-0.375 0,-0.125 -0.046875,-0.375 -0.40625,-0.375 C 0.984375,-4.21875 1.453125,-4.375 1.78125,-4.375 c 0.703125,0 1.0625,0.546875 1.0625,1.109375 0,0.609375 -0.4375,1.078125 -0.65625,1.328125 L 0.515625,-0.265625 C 0.4375,-0.203125 0.4375,-0.1875 0.4375,0 h 2.875 z m 0,0"
             style="fill:#009e73;fill-opacity:1;stroke:none;stroke-width:0"
             inkscape:connector-curvature="0" />
        </g>
        <path
           style="fill:none;stroke:#d55e00;stroke-width:1.4242878;stroke-linecap:round;stroke-linejoin:miter;stroke-miterlimit:4;stroke-dasharray:none;stroke-opacity:1;marker-end:url(#Arrow2Mend)"
           d="m 254.94883,74.999138 23.86351,13.352203"
           id="path955"
           inkscape:connector-curvature="0"
           sodipodi:nodetypes="cc" />
        <path
           inkscape:connector-curvature="0"
           id="path1221"
           d="m 384.18621,94.68823 -35.51118,18.46581"
           style="fill:none;stroke:#009e73;stroke-width:1.4242878;stroke-linecap:round;stroke-linejoin:miter;stroke-miterlimit:4;stroke-dasharray:none;stroke-opacity:1;marker-end:url(#marker1225)"
           sodipodi:nodetypes="cc" />
        <path
           inkscape:connector-curvature="0"
           id="path1233"
           d="M 240.46764,189.17977 265.46751,167.0208"
           style="fill:none;stroke:#cc79a7;stroke-width:1.4242878;stroke-linecap:round;stroke-linejoin:miter;stroke-miterlimit:4;stroke-dasharray:none;stroke-opacity:1;marker-end:url(#marker1237)"
           sodipodi:nodetypes="cc" />
        <path
           sodipodi:nodetypes="cc"
           style="fill:none;stroke:#0072b2;stroke-width:1.4242878;stroke-linecap:round;stroke-linejoin:miter;stroke-miterlimit:4;stroke-dasharray:none;stroke-opacity:1;marker-end:url(#marker1260)"
           d="M 337.24906,189.17977 312.24919,167.0208"
           id="path1256"
           inkscape:connector-curvature="0" />
      </g>
    </g>
  </g>
</svg>
