<?xml version="1.0" encoding="UTF-8" standalone="no"?>
<!-- Created with Inkscape (http://www.inkscape.org/) -->

<svg
   xmlns:dc="http://purl.org/dc/elements/1.1/"
   xmlns:cc="http://creativecommons.org/ns#"
   xmlns:rdf="http://www.w3.org/1999/02/22-rdf-syntax-ns#"
   xmlns:svg="http://www.w3.org/2000/svg"
   xmlns="http://www.w3.org/2000/svg"
   xmlns:sodipodi="http://sodipodi.sourceforge.net/DTD/sodipodi-0.dtd"
   xmlns:inkscape="http://www.inkscape.org/namespaces/inkscape"
   id="svg8"
   version="1.1"
   viewBox="0 0 23.67313 8.4391499"
   height="8.4391499mm"
   width="23.67313mm"
   inkscape:version="0.92.4 (5da689c313, 2019-01-14)"
   sodipodi:docname="system_to_matrix_geogebra_2.svg">
  <defs
     id="defs2" />
  <sodipodi:namedview
     id="base"
     pagecolor="#ffffff"
     bordercolor="#666666"
     borderopacity="1.0"
     inkscape:pageopacity="0.0"
     inkscape:pageshadow="2"
     inkscape:zoom="9.7235769"
     inkscape:cx="44.736624"
     inkscape:cy="15.948"
     inkscape:document-units="mm"
     inkscape:current-layer="layer1"
     showgrid="false"
     inkscape:window-width="1366"
     inkscape:window-height="705"
     inkscape:window-x="-8"
     inkscape:window-y="-8"
     inkscape:window-maximized="1"
     fit-margin-top="0"
     fit-margin-left="0"
     fit-margin-right="0"
     fit-margin-bottom="0" />
  <metadata
     id="metadata5">
    <rdf:RDF>
      <cc:Work
         rdf:about="">
        <dc:format>image/svg+xml</dc:format>
        <dc:type
           rdf:resource="http://purl.org/dc/dcmitype/StillImage" />
        <dc:title></dc:title>
      </cc:Work>
    </rdf:RDF>
  </metadata>
  <g
     inkscape:label="Layer 1"
     inkscape:groupmode="layer"
     id="layer1"
     transform="translate(-30.805072,-123.41522)">
    <path
       id="path1028"
       d="m 36.437327,125.33257 c 0.02195,-0.0878 0.104279,-0.41163 0.345768,-0.41163 0.01646,0 0.104279,0 0.175628,0.0439 -0.09879,0.022 -0.164651,0.10428 -0.164651,0.19209 0,0.0549 0.03842,0.12075 0.131721,0.12075 0.07684,0 0.186605,-0.0604 0.186605,-0.20307 0,-0.18112 -0.20307,-0.23051 -0.323815,-0.23051 -0.20307,0 -0.323814,0.1866 -0.367721,0.26344 -0.08781,-0.23051 -0.27442,-0.26344 -0.378699,-0.26344 -0.362233,0 -0.565303,0.45004 -0.565303,0.53786 0,0.0384 0.03842,0.0384 0.04391,0.0384 0.02744,0 0.03842,-0.011 0.04391,-0.0384 0.120744,-0.37321 0.351256,-0.46103 0.472001,-0.46103 0.06586,0 0.186605,0.0329 0.186605,0.236 0,0.10977 -0.06037,0.34028 -0.186605,0.83424 -0.05488,0.21404 -0.181117,0.36223 -0.334792,0.36223 -0.02195,0 -0.09879,0 -0.175628,-0.0439 0.08781,-0.022 0.164652,-0.0933 0.164652,-0.19209 0,-0.0933 -0.07684,-0.12074 -0.126233,-0.12074 -0.109768,0 -0.192094,0.0878 -0.192094,0.20307 0,0.15916 0.17014,0.23051 0.323815,0.23051 0.236,0 0.362233,-0.24698 0.367722,-0.26344 0.04391,0.12623 0.170139,0.26344 0.378698,0.26344 0.362233,0 0.559815,-0.45005 0.559815,-0.53786 0,-0.0384 -0.02744,-0.0384 -0.03842,-0.0384 -0.03293,0 -0.03842,0.0165 -0.0494,0.0384 -0.115256,0.3787 -0.351257,0.46102 -0.461024,0.46102 -0.13721,0 -0.192094,-0.10977 -0.192094,-0.23051 0,-0.0768 0.01647,-0.15368 0.05488,-0.30735 z m 0,0"
       style="fill:#000000;fill-opacity:1;stroke:none;stroke-width:0"
       inkscape:connector-curvature="0" />
    <path
       id="path1030"
       d="m 39.478506,125.58504 h 0.976932 c 0.0494,0 0.115256,0 0.115256,-0.0713 0,-0.0659 -0.06586,-0.0659 -0.115256,-0.0659 h -0.976932 v -0.98242 c 0,-0.0494 0,-0.11526 -0.07135,-0.11526 -0.07135,0 -0.07135,0.0659 -0.07135,0.11526 v 0.98242 h -0.976932 c -0.0494,0 -0.115256,0 -0.115256,0.0659 0,0.0713 0.06586,0.0713 0.115256,0.0713 h 0.976932 v 0.98242 c 0,0.0494 0,0.11525 0.07135,0.11525 0.07135,0 0.07135,-0.0659 0.07135,-0.11525 z m 0,0"
       style="fill:#000000;fill-opacity:1;stroke:none;stroke-width:0"
       inkscape:connector-curvature="0" />
    <path
       id="path1034"
       d="m 44.996615,125.05815 c 0.01646,-0.0494 0.01646,-0.0549 0.01646,-0.0823 0,-0.0604 -0.04939,-0.0933 -0.104279,-0.0933 -0.03293,0 -0.08781,0.022 -0.120745,0.0713 -0.0055,0.022 -0.03842,0.12624 -0.0494,0.1921 -0.02744,0.0878 -0.0494,0.1866 -0.07135,0.2799 l -0.159163,0.63117 c -0.01098,0.0494 -0.164652,0.29637 -0.395164,0.29637 -0.175628,0 -0.214047,-0.15367 -0.214047,-0.28539 0,-0.15917 0.06037,-0.3787 0.175628,-0.68605 0.05488,-0.1427 0.07135,-0.18112 0.07135,-0.25247 0,-0.15367 -0.109767,-0.28539 -0.285396,-0.28539 -0.334791,0 -0.461024,0.51042 -0.461024,0.53786 0,0.0384 0.03293,0.0384 0.03842,0.0384 0.03842,0 0.03842,-0.011 0.05488,-0.0659 0.09879,-0.32931 0.236,-0.43359 0.356745,-0.43359 0.02744,0 0.08781,0 0.08781,0.10977 0,0.0878 -0.03842,0.18112 -0.06037,0.24698 -0.142698,0.37321 -0.203071,0.57079 -0.203071,0.73544 0,0.31284 0.219536,0.41712 0.428094,0.41712 0.13721,0 0.252466,-0.0604 0.351257,-0.15916 -0.04391,0.18111 -0.08781,0.35674 -0.225024,0.54335 -0.0933,0.11525 -0.225024,0.21953 -0.384187,0.21953 -0.04939,0 -0.208558,-0.011 -0.26893,-0.14819 0.05488,0 0.104279,0 0.148186,-0.0439 0.03842,-0.0274 0.07135,-0.0768 0.07135,-0.1427 0,-0.10977 -0.0933,-0.12074 -0.126233,-0.12074 -0.08233,0 -0.197582,0.0549 -0.197582,0.22502 0,0.17563 0.153675,0.30735 0.37321,0.30735 0.356745,0 0.718979,-0.31833 0.817769,-0.71349 z m 0,0"
       style="fill:#000000;fill-opacity:1;stroke:none;stroke-width:0"
       inkscape:connector-curvature="0" />
    <path
       id="path1036"
       d="m 48.512341,125.24476 c 0.05488,0 0.120744,0 0.120744,-0.0659 0,-0.0714 -0.06586,-0.0714 -0.115256,-0.0714 h -2.096562 c -0.0494,0 -0.115256,0 -0.115256,0.0714 0,0.0659 0.06586,0.0659 0.115256,0.0659 z m 0.0055,0.68056 c 0.0494,0 0.115256,0 0.115256,-0.0714 0,-0.0659 -0.06586,-0.0659 -0.120744,-0.0659 h -2.091074 c -0.0494,0 -0.115256,0 -0.115256,0.0659 0,0.0714 0.06586,0.0714 0.115256,0.0714 z m 0,0"
       style="fill:#000000;fill-opacity:1;stroke:none;stroke-width:0"
       inkscape:connector-curvature="0" />
    <path
       id="path1042"
       d="m 36.437327,129.52342 c 0.02195,-0.0878 0.104279,-0.41163 0.345768,-0.41163 0.01646,0 0.104279,0 0.175628,0.0439 -0.09879,0.022 -0.164651,0.10428 -0.164651,0.19209 0,0.0549 0.03842,0.12075 0.131721,0.12075 0.07684,0 0.186605,-0.0604 0.186605,-0.20307 0,-0.18112 -0.20307,-0.23051 -0.323815,-0.23051 -0.20307,0 -0.323814,0.1866 -0.367721,0.26344 -0.08781,-0.23051 -0.27442,-0.26344 -0.378699,-0.26344 -0.362233,0 -0.565303,0.45004 -0.565303,0.53786 0,0.0384 0.03842,0.0384 0.04391,0.0384 0.02744,0 0.03842,-0.011 0.04391,-0.0384 0.120744,-0.37321 0.351256,-0.46103 0.472001,-0.46103 0.06586,0 0.186605,0.0329 0.186605,0.236 0,0.10977 -0.06037,0.34028 -0.186605,0.83424 -0.05488,0.21404 -0.181117,0.36223 -0.334792,0.36223 -0.02195,0 -0.09879,0 -0.175628,-0.0439 0.08781,-0.022 0.164652,-0.0933 0.164652,-0.19209 0,-0.0933 -0.07684,-0.12074 -0.126233,-0.12074 -0.109768,0 -0.192094,0.0878 -0.192094,0.20307 0,0.15916 0.17014,0.23051 0.323815,0.23051 0.236,0 0.362233,-0.24698 0.367722,-0.26344 0.04391,0.12623 0.170139,0.26344 0.378698,0.26344 0.362233,0 0.559815,-0.45005 0.559815,-0.53786 0,-0.0384 -0.02744,-0.0384 -0.03842,-0.0384 -0.03293,0 -0.03842,0.0165 -0.0494,0.0384 -0.115256,0.3787 -0.351257,0.46102 -0.461024,0.46102 -0.13721,0 -0.192094,-0.10977 -0.192094,-0.23051 0,-0.0768 0.01647,-0.15368 0.05488,-0.30735 z m 0,0"
       style="fill:#000000;fill-opacity:1;stroke:none;stroke-width:0"
       inkscape:connector-curvature="0" />
    <path
       id="path1048"
       d="m 44.996615,129.249 c 0.01646,-0.0494 0.01646,-0.0549 0.01646,-0.0823 0,-0.0604 -0.04939,-0.0933 -0.104279,-0.0933 -0.03293,0 -0.08781,0.022 -0.120745,0.0713 -0.0055,0.022 -0.03842,0.12624 -0.0494,0.1921 -0.02744,0.0878 -0.0494,0.1866 -0.07135,0.2799 l -0.159163,0.63117 c -0.01098,0.0494 -0.164652,0.29637 -0.395164,0.29637 -0.175628,0 -0.214047,-0.15367 -0.214047,-0.28539 0,-0.15917 0.06037,-0.3787 0.175628,-0.68605 0.05488,-0.1427 0.07135,-0.18112 0.07135,-0.25247 0,-0.15367 -0.109767,-0.28539 -0.285396,-0.28539 -0.334791,0 -0.461024,0.51042 -0.461024,0.53786 0,0.0384 0.03293,0.0384 0.03842,0.0384 0.03842,0 0.03842,-0.011 0.05488,-0.0659 0.09879,-0.32931 0.236,-0.43359 0.356745,-0.43359 0.02744,0 0.08781,0 0.08781,0.10977 0,0.0878 -0.03842,0.18112 -0.06037,0.24698 -0.142698,0.37321 -0.203071,0.57079 -0.203071,0.73544 0,0.31284 0.219536,0.41712 0.428094,0.41712 0.13721,0 0.252466,-0.0604 0.351257,-0.15916 -0.04391,0.18111 -0.08781,0.35674 -0.225024,0.54335 -0.0933,0.11525 -0.225024,0.21953 -0.384187,0.21953 -0.04939,0 -0.208558,-0.011 -0.26893,-0.14819 0.05488,0 0.104279,0 0.148186,-0.0439 0.03842,-0.0274 0.07135,-0.0768 0.07135,-0.1427 0,-0.10977 -0.0933,-0.12074 -0.126233,-0.12074 -0.08233,0 -0.197582,0.0549 -0.197582,0.22502 0,0.17563 0.153675,0.30735 0.37321,0.30735 0.356745,0 0.718979,-0.31833 0.817769,-0.71349 z m 0,0"
       style="fill:#000000;fill-opacity:1;stroke:none;stroke-width:0"
       inkscape:connector-curvature="0" />
    <path
       id="path1050"
       d="m 48.512341,129.43561 c 0.05488,0 0.120744,0 0.120744,-0.0659 0,-0.0713 -0.06586,-0.0713 -0.115256,-0.0713 h -2.096562 c -0.0494,0 -0.115256,0 -0.115256,0.0713 0,0.0659 0.06586,0.0659 0.115256,0.0659 z m 0.0055,0.68056 c 0.0494,0 0.115256,0 0.115256,-0.0713 0,-0.0659 -0.06586,-0.0659 -0.120744,-0.0659 h -2.091074 c -0.0494,0 -0.115256,0 -0.115256,0.0659 0,0.0713 0.06586,0.0713 0.115256,0.0713 z m 0,0"
       style="fill:#000000;fill-opacity:1;stroke:none;stroke-width:0"
       inkscape:connector-curvature="0" />
  </g>
</svg>
