<?xml version="1.0" encoding="UTF-8" standalone="no"?>
<!-- Created with Inkscape (http://www.inkscape.org/) -->

<svg
   xmlns:ns1="http://www.iki.fi/pav/software/textext/"
   xmlns:dc="http://purl.org/dc/elements/1.1/"
   xmlns:cc="http://creativecommons.org/ns#"
   xmlns:rdf="http://www.w3.org/1999/02/22-rdf-syntax-ns#"
   xmlns:svg="http://www.w3.org/2000/svg"
   xmlns="http://www.w3.org/2000/svg"
   xmlns:sodipodi="http://sodipodi.sourceforge.net/DTD/sodipodi-0.dtd"
   xmlns:inkscape="http://www.inkscape.org/namespaces/inkscape"
   id="svg8"
   version="1.1"
   viewBox="0 0 210 297"
   height="297mm"
   width="210mm"
   inkscape:version="0.92.4 (5da689c313, 2019-01-14)"
   sodipodi:docname="system_to_matrix.svg">
  <defs
     id="defs2" />
  <sodipodi:namedview
     id="base"
     pagecolor="#ffffff"
     bordercolor="#666666"
     borderopacity="1.0"
     inkscape:pageopacity="0.0"
     inkscape:pageshadow="2"
     inkscape:zoom="1.1872544"
     inkscape:cx="221.87329"
     inkscape:cy="601.0092"
     inkscape:document-units="mm"
     inkscape:current-layer="layer1"
     showgrid="false"
     inkscape:window-width="917"
     inkscape:window-height="696"
     inkscape:window-x="440"
     inkscape:window-y="0"
     inkscape:window-maximized="0" />
  <metadata
     id="metadata5">
    <rdf:RDF>
      <cc:Work
         rdf:about="">
        <dc:format>image/svg+xml</dc:format>
        <dc:type
           rdf:resource="http://purl.org/dc/dcmitype/StillImage" />
        <dc:title></dc:title>
      </cc:Work>
    </rdf:RDF>
  </metadata>
  <g
     inkscape:label="Layer 1"
     inkscape:groupmode="layer"
     id="layer1">
    <g
       id="g810"
       transform="translate(-0.58072693,-4.0460911)">
      <g
         transform="matrix(0.35278205,0,0,0.35278205,-2.8410874,96.3552)"
         id="g124"
         style="fill:#000000;fill-opacity:1">
        <path
           id="path122"
           transform="translate(275.249,144.129)"
           d="m 1.265625,-0.765625 1.0625,-1.03125 c 1.546875,-1.375 2.140625,-1.90625 2.140625,-2.90625 0,-1.140625 -0.890625,-1.9375 -2.109375,-1.9375 -1.125,0 -1.859375,0.921875 -1.859375,1.8125 0,0.546875 0.5,0.546875 0.53125,0.546875 0.171875,0 0.515625,-0.109375 0.515625,-0.53125 0,-0.25 -0.1875,-0.515625 -0.53125,-0.515625 -0.078125,0 -0.09375,0 -0.125,0.015625 0.21875,-0.65625 0.765625,-1.015625 1.34375,-1.015625 0.90625,0 1.328125,0.8125 1.328125,1.625 C 3.5625,-3.90625 3.078125,-3.125 2.515625,-2.5 l -1.90625,2.125 C 0.5,-0.265625 0.5,-0.234375 0.5,0 H 4.203125 L 4.46875,-1.734375 H 4.234375 C 4.171875,-1.4375 4.109375,-1 4,-0.84375 3.9375,-0.765625 3.28125,-0.765625 3.0625,-0.765625 Z m 0,0"
           style="stroke:none;stroke-width:0"
           inkscape:connector-curvature="0" />
      </g>
      <g
         transform="matrix(0.35278205,0,0,0.35278205,-2.8410874,96.3552)"
         id="g128"
         style="fill:#000000;fill-opacity:1">
        <path
           id="path126"
           transform="translate(280.231,144.129)"
           d="M 3.328125,-3.015625 C 3.390625,-3.265625 3.625,-4.1875 4.3125,-4.1875 c 0.046875,0 0.296875,0 0.5,0.125 C 4.53125,-4 4.34375,-3.765625 4.34375,-3.515625 c 0,0.15625 0.109375,0.34375 0.375,0.34375 0.21875,0 0.53125,-0.171875 0.53125,-0.578125 0,-0.515625 -0.578125,-0.65625 -0.921875,-0.65625 -0.578125,0 -0.921875,0.53125 -1.046875,0.75 -0.25,-0.65625 -0.78125,-0.75 -1.078125,-0.75 -1.03125,0 -1.609375,1.28125 -1.609375,1.53125 0,0.109375 0.109375,0.109375 0.125,0.109375 0.078125,0 0.109375,-0.03125 0.125,-0.109375 0.34375,-1.0625 1,-1.3125 1.34375,-1.3125 0.1875,0 0.53125,0.09375 0.53125,0.671875 0,0.3125 -0.171875,0.96875 -0.53125,2.375 -0.15625,0.609375 -0.515625,1.03125 -0.953125,1.03125 -0.0625,0 -0.28125,0 -0.5,-0.125 0.25,-0.0625 0.46875,-0.265625 0.46875,-0.546875 0,-0.265625 -0.21875,-0.34375 -0.359375,-0.34375 -0.3125,0 -0.546875,0.25 -0.546875,0.578125 0,0.453125 0.484375,0.65625 0.921875,0.65625 0.671875,0 1.03125,-0.703125 1.046875,-0.75 0.125,0.359375 0.484375,0.75 1.078125,0.75 1.03125,0 1.59375,-1.28125 1.59375,-1.53125 0,-0.109375 -0.078125,-0.109375 -0.109375,-0.109375 -0.09375,0 -0.109375,0.046875 -0.140625,0.109375 -0.328125,1.078125 -1,1.3125 -1.3125,1.3125 -0.390625,0 -0.546875,-0.3125 -0.546875,-0.65625 0,-0.21875 0.046875,-0.4375 0.15625,-0.875 z m 0,0"
           style="stroke:none;stroke-width:0"
           inkscape:connector-curvature="0" />
      </g>
      <g
         transform="matrix(0.35278205,0,0,0.35278205,-2.8410874,96.3552)"
         id="g132"
         style="fill:#000000;fill-opacity:1">
        <path
           id="path130"
           transform="translate(288.139,144.129)"
           d="m 4.078125,-2.296875 h 2.78125 C 7,-2.296875 7.1875,-2.296875 7.1875,-2.5 7.1875,-2.6875 7,-2.6875 6.859375,-2.6875 h -2.78125 v -2.796875 c 0,-0.140625 0,-0.328125 -0.203125,-0.328125 -0.203125,0 -0.203125,0.1875 -0.203125,0.328125 V -2.6875 h -2.78125 c -0.140625,0 -0.328125,0 -0.328125,0.1875 0,0.203125 0.1875,0.203125 0.328125,0.203125 h 2.78125 V 0.5 c 0,0.140625 0,0.328125 0.203125,0.328125 0.203125,0 0.203125,-0.1875 0.203125,-0.328125 z m 0,0"
           style="stroke:none;stroke-width:0"
           inkscape:connector-curvature="0" />
      </g>
      <path
         inkscape:connector-curvature="0"
         style="fill:#000000;fill-opacity:1;stroke:none;stroke-width:0"
         d="m 104.03238,145.86186 c 0.0165,-0.0496 0.0165,-0.0551 0.0165,-0.0827 0,-0.0606 -0.0496,-0.0937 -0.10473,-0.0937 -0.0331,0 -0.0882,0.0221 -0.12126,0.0717 -0.006,0.022 -0.0386,0.12677 -0.0496,0.19292 -0.0276,0.0882 -0.0496,0.18741 -0.0717,0.28112 l -0.15986,0.63391 c -0.011,0.0496 -0.16537,0.29765 -0.39688,0.29765 -0.17639,0 -0.21497,-0.15434 -0.21497,-0.28663 0,-0.15985 0.0606,-0.38034 0.17639,-0.68903 0.0551,-0.14331 0.0717,-0.1819 0.0717,-0.25356 0,-0.15434 -0.11024,-0.28663 -0.28663,-0.28663 -0.33625,0 -0.46303,0.51263 -0.46303,0.54019 0,0.0386 0.0331,0.0386 0.0386,0.0386 0.0386,0 0.0386,-0.011 0.0551,-0.0661 0.0992,-0.33073 0.23703,-0.43546 0.3583,-0.43546 0.0276,0 0.0882,0 0.0882,0.11025 0,0.0882 -0.0386,0.1819 -0.0606,0.24804 -0.14332,0.37483 -0.20395,0.57328 -0.20395,0.73864 0,0.31419 0.22049,0.41893 0.42995,0.41893 0.1378,0 0.25356,-0.0606 0.35277,-0.15986 -0.0441,0.1819 -0.0882,0.3583 -0.22599,0.54572 -0.0937,0.11575 -0.226,0.22048 -0.38585,0.22048 -0.0496,0 -0.20948,-0.011 -0.27011,-0.14883 0.0551,0 0.10474,0 0.14884,-0.0441 0.0386,-0.0276 0.0717,-0.0772 0.0717,-0.14332 0,-0.11024 -0.0937,-0.12127 -0.12678,-0.12127 -0.0827,0 -0.19845,0.0551 -0.19845,0.226 0,0.17639 0.15434,0.30868 0.37484,0.30868 0.35829,0 0.7221,-0.3197 0.82132,-0.71659 z m 0,0"
         id="path134" />
      <g
         transform="matrix(0.35278205,0,0,0.35278205,-4.9577784,96.3552)"
         id="g140"
         style="fill:#000000;fill-opacity:1">
        <path
           id="path138"
           transform="translate(315.796,144.129)"
           d="m 6.84375,-3.265625 c 0.15625,0 0.34375,0 0.34375,-0.1875 C 7.1875,-3.65625 7,-3.65625 6.859375,-3.65625 h -5.96875 c -0.140625,0 -0.328125,0 -0.328125,0.203125 0,0.1875 0.1875,0.1875 0.328125,0.1875 z m 0.015625,1.9375 c 0.140625,0 0.328125,0 0.328125,-0.203125 0,-0.1875 -0.1875,-0.1875 -0.34375,-0.1875 H 0.890625 c -0.140625,0 -0.328125,0 -0.328125,0.1875 0,0.203125 0.1875,0.203125 0.328125,0.203125 z m 0,0"
           style="stroke:none;stroke-width:0"
           inkscape:connector-curvature="0" />
      </g>
      <g
         transform="matrix(0.35278205,0,0,0.35278205,-7.0744695,96.3552)"
         id="g144"
         style="fill:#000000;fill-opacity:1">
        <path
           id="path142"
           transform="translate(333.50751,144.129)"
           d="m 4.46875,-2 c 0,-1.1875 -0.8125,-2.1875 -1.890625,-2.1875 -0.46875,0 -0.90625,0.15625 -1.265625,0.515625 V -5.625 c 0.203125,0.0625 0.53125,0.125 0.84375,0.125 1.234375,0 1.9375,-0.90625 1.9375,-1.03125 0,-0.0625 -0.03125,-0.109375 -0.109375,-0.109375 0,0 -0.03125,0 -0.078125,0.03125 C 3.703125,-6.515625 3.21875,-6.3125 2.546875,-6.3125 2.15625,-6.3125 1.6875,-6.390625 1.21875,-6.59375 1.140625,-6.625 1.125,-6.625 1.109375,-6.625 1,-6.625 1,-6.546875 1,-6.390625 V -3.4375 c 0,0.171875 0,0.25 0.140625,0.25 0.078125,0 0.09375,-0.015625 0.140625,-0.078125 C 1.390625,-3.421875 1.75,-3.96875 2.5625,-3.96875 c 0.515625,0 0.765625,0.453125 0.84375,0.640625 0.15625,0.375 0.1875,0.75 0.1875,1.25 0,0.359375 0,0.953125 -0.25,1.375 C 3.109375,-0.3125 2.734375,-0.0625 2.28125,-0.0625 c -0.71875,0 -1.296875,-0.53125 -1.46875,-1.109375 0.03125,0 0.0625,0.015625 0.171875,0.015625 0.328125,0 0.5,-0.25 0.5,-0.484375 0,-0.25 -0.171875,-0.5 -0.5,-0.5 C 0.84375,-2.140625 0.5,-2.0625 0.5,-1.609375 0.5,-0.75 1.1875,0.21875 2.296875,0.21875 3.453125,0.21875 4.46875,-0.734375 4.46875,-2 Z m 0,0"
           style="stroke:none;stroke-width:0"
           inkscape:connector-curvature="0" />
      </g>
      <g
         transform="matrix(0.35278205,0,0,0.35278205,-2.8410874,96.3552)"
         id="g148"
         style="fill:#000000;fill-opacity:1">
        <path
           id="path146"
           transform="translate(272.759,156.085)"
           d="m 2.890625,-3.515625 c 0.8125,-0.265625 1.390625,-0.953125 1.390625,-1.75 0,-0.8125 -0.875,-1.375 -1.828125,-1.375 -1,0 -1.765625,0.59375 -1.765625,1.359375 0,0.328125 0.21875,0.515625 0.515625,0.515625 0.296875,0 0.5,-0.21875 0.5,-0.515625 0,-0.484375 -0.46875,-0.484375 -0.609375,-0.484375 0.296875,-0.5 0.953125,-0.625 1.3125,-0.625 0.421875,0 0.96875,0.21875 0.96875,1.109375 0,0.125 -0.03125,0.703125 -0.28125,1.140625 C 2.796875,-3.65625 2.453125,-3.625 2.203125,-3.625 2.125,-3.609375 1.890625,-3.59375 1.8125,-3.59375 c -0.078125,0.015625 -0.140625,0.03125 -0.140625,0.125 0,0.109375 0.0625,0.109375 0.234375,0.109375 h 0.4375 c 0.8125,0 1.1875,0.671875 1.1875,1.65625 0,1.359375 -0.6875,1.640625 -1.125,1.640625 -0.4375,0 -1.1875,-0.171875 -1.53125,-0.75 0.34375,0.046875 0.65625,-0.171875 0.65625,-0.546875 0,-0.359375 -0.265625,-0.5625 -0.546875,-0.5625 -0.25,0 -0.5625,0.140625 -0.5625,0.578125 0,0.90625 0.921875,1.5625 2.015625,1.5625 1.21875,0 2.125,-0.90625 2.125,-1.921875 0,-0.8125 -0.640625,-1.59375 -1.671875,-1.8125 z m 0,0"
           style="stroke:none;stroke-width:0"
           inkscape:connector-curvature="0" />
      </g>
      <g
         transform="matrix(0.35278205,0,0,0.35278205,-2.8410874,96.3552)"
         id="g152"
         style="fill:#000000;fill-opacity:1">
        <path
           id="path150"
           transform="translate(277.74,156.085)"
           d="M 3.328125,-3.015625 C 3.390625,-3.265625 3.625,-4.1875 4.3125,-4.1875 c 0.046875,0 0.296875,0 0.5,0.125 C 4.53125,-4 4.34375,-3.765625 4.34375,-3.515625 c 0,0.15625 0.109375,0.34375 0.375,0.34375 0.21875,0 0.53125,-0.171875 0.53125,-0.578125 0,-0.515625 -0.578125,-0.65625 -0.921875,-0.65625 -0.578125,0 -0.921875,0.53125 -1.046875,0.75 -0.25,-0.65625 -0.78125,-0.75 -1.078125,-0.75 -1.03125,0 -1.609375,1.28125 -1.609375,1.53125 0,0.109375 0.109375,0.109375 0.125,0.109375 0.078125,0 0.109375,-0.03125 0.125,-0.109375 0.34375,-1.0625 1,-1.3125 1.34375,-1.3125 0.1875,0 0.53125,0.09375 0.53125,0.671875 0,0.3125 -0.171875,0.96875 -0.53125,2.375 -0.15625,0.609375 -0.515625,1.03125 -0.953125,1.03125 -0.0625,0 -0.28125,0 -0.5,-0.125 0.25,-0.0625 0.46875,-0.265625 0.46875,-0.546875 0,-0.265625 -0.21875,-0.34375 -0.359375,-0.34375 -0.3125,0 -0.546875,0.25 -0.546875,0.578125 0,0.453125 0.484375,0.65625 0.921875,0.65625 0.671875,0 1.03125,-0.703125 1.046875,-0.75 0.125,0.359375 0.484375,0.75 1.078125,0.75 1.03125,0 1.59375,-1.28125 1.59375,-1.53125 0,-0.109375 -0.078125,-0.109375 -0.109375,-0.109375 -0.09375,0 -0.109375,0.046875 -0.140625,0.109375 -0.328125,1.078125 -1,1.3125 -1.3125,1.3125 -0.390625,0 -0.546875,-0.3125 -0.546875,-0.65625 0,-0.21875 0.046875,-0.4375 0.15625,-0.875 z m 0,0"
           style="stroke:none;stroke-width:0"
           inkscape:connector-curvature="0" />
      </g>
      <g
         transform="matrix(0.35278205,0,0,0.35278205,-2.8410874,96.3552)"
         id="g156"
         style="fill:#000000;fill-opacity:1">
        <path
           id="path154"
           transform="translate(285.648,156.085)"
           d="m 6.5625,-2.296875 c 0.171875,0 0.359375,0 0.359375,-0.203125 0,-0.1875 -0.1875,-0.1875 -0.359375,-0.1875 H 1.171875 c -0.171875,0 -0.34375,0 -0.34375,0.1875 0,0.203125 0.171875,0.203125 0.34375,0.203125 z m 0,0"
           style="stroke:none;stroke-width:0"
           inkscape:connector-curvature="0" />
      </g>
      <g
         transform="matrix(0.35278205,0,0,0.35278205,-2.8410874,96.3552)"
         id="g160"
         style="fill:#000000;fill-opacity:1">
        <path
           id="path158"
           transform="translate(295.61,156.085)"
           d="m 1.265625,-0.765625 1.0625,-1.03125 c 1.546875,-1.375 2.140625,-1.90625 2.140625,-2.90625 0,-1.140625 -0.890625,-1.9375 -2.109375,-1.9375 -1.125,0 -1.859375,0.921875 -1.859375,1.8125 0,0.546875 0.5,0.546875 0.53125,0.546875 0.171875,0 0.515625,-0.109375 0.515625,-0.53125 0,-0.25 -0.1875,-0.515625 -0.53125,-0.515625 -0.078125,0 -0.09375,0 -0.125,0.015625 0.21875,-0.65625 0.765625,-1.015625 1.34375,-1.015625 0.90625,0 1.328125,0.8125 1.328125,1.625 C 3.5625,-3.90625 3.078125,-3.125 2.515625,-2.5 l -1.90625,2.125 C 0.5,-0.265625 0.5,-0.234375 0.5,0 H 4.203125 L 4.46875,-1.734375 H 4.234375 C 4.171875,-1.4375 4.109375,-1 4,-0.84375 3.9375,-0.765625 3.28125,-0.765625 3.0625,-0.765625 Z m 0,0"
           style="stroke:none;stroke-width:0"
           inkscape:connector-curvature="0" />
      </g>
      <g
         transform="matrix(0.35278205,0,0,0.35278205,-2.8410874,96.3552)"
         id="g164"
         style="fill:#000000;fill-opacity:1">
        <path
           id="path162"
           transform="translate(300.592,156.085)"
           d="m 4.84375,-3.796875 c 0.046875,-0.140625 0.046875,-0.15625 0.046875,-0.234375 0,-0.171875 -0.140625,-0.265625 -0.296875,-0.265625 -0.09375,0 -0.25,0.0625 -0.34375,0.203125 -0.015625,0.0625 -0.109375,0.359375 -0.140625,0.546875 -0.078125,0.25 -0.140625,0.53125 -0.203125,0.796875 l -0.453125,1.796875 c -0.03125,0.140625 -0.46875,0.84375 -1.125,0.84375 -0.5,0 -0.609375,-0.4375 -0.609375,-0.8125 C 1.71875,-1.375 1.890625,-2 2.21875,-2.875 2.375,-3.28125 2.421875,-3.390625 2.421875,-3.59375 c 0,-0.4375 -0.3125,-0.8125 -0.8125,-0.8125 -0.953125,0 -1.3125,1.453125 -1.3125,1.53125 0,0.109375 0.09375,0.109375 0.109375,0.109375 0.109375,0 0.109375,-0.03125 0.15625,-0.1875 0.28125,-0.9375 0.671875,-1.234375 1.015625,-1.234375 0.078125,0 0.25,0 0.25,0.3125 0,0.25 -0.109375,0.515625 -0.171875,0.703125 -0.40625,1.0625 -0.578125,1.625 -0.578125,2.09375 0,0.890625 0.625,1.1875 1.21875,1.1875 0.390625,0 0.71875,-0.171875 1,-0.453125 -0.125,0.515625 -0.25,1.015625 -0.640625,1.546875 -0.265625,0.328125 -0.640625,0.625 -1.09375,0.625 -0.140625,0 -0.59375,-0.03125 -0.765625,-0.421875 0.15625,0 0.296875,0 0.421875,-0.125 C 1.328125,1.203125 1.421875,1.0625 1.421875,0.875 1.421875,0.5625 1.15625,0.53125 1.0625,0.53125 0.828125,0.53125 0.5,0.6875 0.5,1.171875 c 0,0.5 0.4375,0.875 1.0625,0.875 1.015625,0 2.046875,-0.90625 2.328125,-2.03125 z m 0,0"
           style="stroke:none;stroke-width:0"
           inkscape:connector-curvature="0" />
      </g>
      <g
         transform="matrix(0.35278205,0,0,0.35278205,-4.9577784,96.3552)"
         id="g168"
         style="fill:#000000;fill-opacity:1">
        <path
           id="path166"
           transform="translate(315.796,156.085)"
           d="m 6.84375,-3.265625 c 0.15625,0 0.34375,0 0.34375,-0.1875 C 7.1875,-3.65625 7,-3.65625 6.859375,-3.65625 h -5.96875 c -0.140625,0 -0.328125,0 -0.328125,0.203125 0,0.1875 0.1875,0.1875 0.328125,0.1875 z m 0.015625,1.9375 c 0.140625,0 0.328125,0 0.328125,-0.203125 0,-0.1875 -0.1875,-0.1875 -0.34375,-0.1875 H 0.890625 c -0.140625,0 -0.328125,0 -0.328125,0.1875 0,0.203125 0.1875,0.203125 0.328125,0.203125 z m 0,0"
           style="stroke:none;stroke-width:0"
           inkscape:connector-curvature="0" />
      </g>
      <g
         transform="matrix(0.35278205,0,0,0.35278205,-7.0744695,96.3552)"
         id="g172"
         style="fill:#000000;fill-opacity:1">
        <path
           id="path170"
           transform="translate(333.50751,156.085)"
           d="m 2.9375,-1.640625 v 0.859375 c 0,0.359375 -0.03125,0.46875 -0.765625,0.46875 H 1.96875 V 0 C 2.375,-0.03125 2.890625,-0.03125 3.3125,-0.03125 c 0.421875,0 0.9375,0 1.359375,0.03125 v -0.3125 h -0.21875 c -0.734375,0 -0.75,-0.109375 -0.75,-0.46875 V -1.640625 H 4.6875 v -0.3125 H 3.703125 v -4.53125 c 0,-0.203125 0,-0.265625 -0.171875,-0.265625 -0.078125,0 -0.109375,0 -0.1875,0.125 l -3.0625,4.671875 v 0.3125 z m 0.046875,-0.3125 H 0.5625 l 2.421875,-3.71875 z m 0,0"
           style="stroke:none;stroke-width:0"
           inkscape:connector-curvature="0" />
      </g>
    </g>
    <g
       id="g280"
       ns1:jacobian_sqrt="0.352778"
       ns1:alignment="middle center"
       ns1:scale="1.0"
       ns1:preamble="C:\\Users\\Lenovo\\AppData\\Roaming\\inkscape\\extensions\\textext\\default_packages.tex"
       ns1:text="$$\n\\left[\n\\begin{array}{rr|r}\n  2 &amp; 1 &amp; 5 \\\\\n  3 &amp; -2 &amp; 4\n\\end{array}\\right]\n$$\n"
       ns1:pdfconverter="pdf2svg"
       ns1:texconverter="pdflatex"
       ns1:version="0.11.0"
       transform="matrix(0.352778,0,0,0.352778,-5.9901341,108.11496)">
      <g
         id="g278">
        <g
           id="g240"
           style="fill:#000000;fill-opacity:1">
          <path
             id="path238"
             transform="translate(274.075,136.159)"
             d="M 2.5,23.515625 H 5.109375 V 22.96875 h -2.0625 V 0.15625 h 2.0625 v -0.5625 H 2.5 Z m 0,0"
             style="stroke:none;stroke-width:0"
             inkscape:connector-curvature="0" />
        </g>
        <g
           id="g244"
           style="fill:#000000;fill-opacity:1">
          <path
             id="path242"
             transform="translate(284.315,144.13)"
             d="m 1.265625,-0.765625 1.0625,-1.03125 c 1.546875,-1.375 2.140625,-1.90625 2.140625,-2.90625 0,-1.140625 -0.890625,-1.9375 -2.109375,-1.9375 -1.125,0 -1.859375,0.921875 -1.859375,1.8125 0,0.546875 0.5,0.546875 0.53125,0.546875 0.171875,0 0.515625,-0.109375 0.515625,-0.53125 0,-0.25 -0.1875,-0.515625 -0.53125,-0.515625 -0.078125,0 -0.09375,0 -0.125,0.015625 0.21875,-0.65625 0.765625,-1.015625 1.34375,-1.015625 0.90625,0 1.328125,0.8125 1.328125,1.625 C 3.5625,-3.90625 3.078125,-3.125 2.515625,-2.5 l -1.90625,2.125 C 0.5,-0.265625 0.5,-0.234375 0.5,0 H 4.203125 L 4.46875,-1.734375 H 4.234375 C 4.171875,-1.4375 4.109375,-1 4,-0.84375 3.9375,-0.765625 3.28125,-0.765625 3.0625,-0.765625 Z m 0,0"
             style="stroke:none;stroke-width:0"
             inkscape:connector-curvature="0" />
        </g>
        <g
           id="g248"
           style="fill:#000000;fill-opacity:1">
          <path
             id="path246"
             transform="translate(307.0098,144.13)"
             d="m 2.9375,-6.375 c 0,-0.25 0,-0.265625 -0.234375,-0.265625 C 2.078125,-6 1.203125,-6 0.890625,-6 v 0.3125 c 0.203125,0 0.78125,0 1.296875,-0.265625 v 5.171875 c 0,0.359375 -0.03125,0.46875 -0.921875,0.46875 h -0.3125 V 0 c 0.34375,-0.03125 1.203125,-0.03125 1.609375,-0.03125 0.390625,0 1.265625,0 1.609375,0.03125 v -0.3125 h -0.3125 c -0.90625,0 -0.921875,-0.109375 -0.921875,-0.46875 z m 0,0"
             style="stroke:none;stroke-width:0"
             inkscape:connector-curvature="0" />
        </g>
        <path
           id="path250"
           transform="matrix(1,0,0,-1,316.97,147.716)"
           d="M -0.00125,0.00115625 V 11.954281"
           style="fill:none;stroke:#000000;stroke-width:0.398;stroke-linecap:butt;stroke-linejoin:miter;stroke-miterlimit:10;stroke-opacity:1"
           inkscape:connector-curvature="0" />
        <g
           id="g254"
           style="fill:#000000;fill-opacity:1">
          <path
             id="path252"
             transform="translate(321.952,144.13)"
             d="m 4.46875,-2 c 0,-1.1875 -0.8125,-2.1875 -1.890625,-2.1875 -0.46875,0 -0.90625,0.15625 -1.265625,0.515625 V -5.625 c 0.203125,0.0625 0.53125,0.125 0.84375,0.125 1.234375,0 1.9375,-0.90625 1.9375,-1.03125 0,-0.0625 -0.03125,-0.109375 -0.109375,-0.109375 0,0 -0.03125,0 -0.078125,0.03125 C 3.703125,-6.515625 3.21875,-6.3125 2.546875,-6.3125 2.15625,-6.3125 1.6875,-6.390625 1.21875,-6.59375 1.140625,-6.625 1.125,-6.625 1.109375,-6.625 1,-6.625 1,-6.546875 1,-6.390625 V -3.4375 c 0,0.171875 0,0.25 0.140625,0.25 0.078125,0 0.09375,-0.015625 0.140625,-0.078125 C 1.390625,-3.421875 1.75,-3.96875 2.5625,-3.96875 c 0.515625,0 0.765625,0.453125 0.84375,0.640625 0.15625,0.375 0.1875,0.75 0.1875,1.25 0,0.359375 0,0.953125 -0.25,1.375 C 3.109375,-0.3125 2.734375,-0.0625 2.28125,-0.0625 c -0.71875,0 -1.296875,-0.53125 -1.46875,-1.109375 0.03125,0 0.0625,0.015625 0.171875,0.015625 0.328125,0 0.5,-0.25 0.5,-0.484375 0,-0.25 -0.171875,-0.5 -0.5,-0.5 C 0.84375,-2.140625 0.5,-2.0625 0.5,-1.609375 0.5,-0.75 1.1875,0.21875 2.296875,0.21875 3.453125,0.21875 4.46875,-0.734375 4.46875,-2 Z m 0,0"
             style="stroke:none;stroke-width:0"
             inkscape:connector-curvature="0" />
        </g>
        <g
           id="g258"
           style="fill:#000000;fill-opacity:1">
          <path
             id="path256"
             transform="translate(284.315,156.085)"
             d="m 2.890625,-3.515625 c 0.8125,-0.265625 1.390625,-0.953125 1.390625,-1.75 0,-0.8125 -0.875,-1.375 -1.828125,-1.375 -1,0 -1.765625,0.59375 -1.765625,1.359375 0,0.328125 0.21875,0.515625 0.515625,0.515625 0.296875,0 0.5,-0.21875 0.5,-0.515625 0,-0.484375 -0.46875,-0.484375 -0.609375,-0.484375 0.296875,-0.5 0.953125,-0.625 1.3125,-0.625 0.421875,0 0.96875,0.21875 0.96875,1.109375 0,0.125 -0.03125,0.703125 -0.28125,1.140625 C 2.796875,-3.65625 2.453125,-3.625 2.203125,-3.625 2.125,-3.609375 1.890625,-3.59375 1.8125,-3.59375 c -0.078125,0.015625 -0.140625,0.03125 -0.140625,0.125 0,0.109375 0.0625,0.109375 0.234375,0.109375 h 0.4375 c 0.8125,0 1.1875,0.671875 1.1875,1.65625 0,1.359375 -0.6875,1.640625 -1.125,1.640625 -0.4375,0 -1.1875,-0.171875 -1.53125,-0.75 0.34375,0.046875 0.65625,-0.171875 0.65625,-0.546875 0,-0.359375 -0.265625,-0.5625 -0.546875,-0.5625 -0.25,0 -0.5625,0.140625 -0.5625,0.578125 0,0.90625 0.921875,1.5625 2.015625,1.5625 1.21875,0 2.125,-0.90625 2.125,-1.921875 0,-0.8125 -0.640625,-1.59375 -1.671875,-1.8125 z m 0,0"
             style="stroke:none;stroke-width:0"
             inkscape:connector-curvature="0" />
        </g>
        <g
           id="g262"
           style="fill:#000000;fill-opacity:1">
          <path
             id="path260"
             transform="translate(299.259,156.085)"
             d="m 6.5625,-2.296875 c 0.171875,0 0.359375,0 0.359375,-0.203125 0,-0.1875 -0.1875,-0.1875 -0.359375,-0.1875 H 1.171875 c -0.171875,0 -0.34375,0 -0.34375,0.1875 0,0.203125 0.171875,0.203125 0.34375,0.203125 z m 0,0"
             style="stroke:none;stroke-width:0"
             inkscape:connector-curvature="0" />
        </g>
        <g
           id="g266"
           style="fill:#000000;fill-opacity:1">
          <path
             id="path264"
             transform="translate(307.008,156.085)"
             d="m 1.265625,-0.765625 1.0625,-1.03125 c 1.546875,-1.375 2.140625,-1.90625 2.140625,-2.90625 0,-1.140625 -0.890625,-1.9375 -2.109375,-1.9375 -1.125,0 -1.859375,0.921875 -1.859375,1.8125 0,0.546875 0.5,0.546875 0.53125,0.546875 0.171875,0 0.515625,-0.109375 0.515625,-0.53125 0,-0.25 -0.1875,-0.515625 -0.53125,-0.515625 -0.078125,0 -0.09375,0 -0.125,0.015625 0.21875,-0.65625 0.765625,-1.015625 1.34375,-1.015625 0.90625,0 1.328125,0.8125 1.328125,1.625 C 3.5625,-3.90625 3.078125,-3.125 2.515625,-2.5 l -1.90625,2.125 C 0.5,-0.265625 0.5,-0.234375 0.5,0 H 4.203125 L 4.46875,-1.734375 H 4.234375 C 4.171875,-1.4375 4.109375,-1 4,-0.84375 3.9375,-0.765625 3.28125,-0.765625 3.0625,-0.765625 Z m 0,0"
             style="stroke:none;stroke-width:0"
             inkscape:connector-curvature="0" />
        </g>
        <path
           id="path268"
           transform="matrix(1,0,0,-1,316.97,159.671)"
           d="M -0.00125,-8.75e-4 V 11.956156"
           style="fill:none;stroke:#000000;stroke-width:0.398;stroke-linecap:butt;stroke-linejoin:miter;stroke-miterlimit:10;stroke-opacity:1"
           inkscape:connector-curvature="0" />
        <g
           id="g272"
           style="fill:#000000;fill-opacity:1">
          <path
             id="path270"
             transform="translate(321.952,156.085)"
             d="m 2.9375,-1.640625 v 0.859375 c 0,0.359375 -0.03125,0.46875 -0.765625,0.46875 H 1.96875 V 0 C 2.375,-0.03125 2.890625,-0.03125 3.3125,-0.03125 c 0.421875,0 0.9375,0 1.359375,0.03125 v -0.3125 h -0.21875 c -0.734375,0 -0.75,-0.109375 -0.75,-0.46875 V -1.640625 H 4.6875 v -0.3125 H 3.703125 v -4.53125 c 0,-0.203125 0,-0.265625 -0.171875,-0.265625 -0.078125,0 -0.109375,0 -0.1875,0.125 l -3.0625,4.671875 v 0.3125 z m 0.046875,-0.3125 H 0.5625 l 2.421875,-3.71875 z m 0,0"
             style="stroke:none;stroke-width:0"
             inkscape:connector-curvature="0" />
        </g>
        <g
           id="g276"
           style="fill:#000000;fill-opacity:1">
          <path
             id="path274"
             transform="translate(331.914,136.159)"
             d="M 2.21875,22.96875 H 0.140625 v 0.546875 h 2.625 V -0.40625 h -2.625 v 0.5625 H 2.21875 Z m 0,0"
             style="stroke:none;stroke-width:0"
             inkscape:connector-curvature="0" />
        </g>
      </g>
    </g>
    <g
       id="g546"
       style="fill:#000000;fill-opacity:1"
       transform="matrix(0.35277962,0,0,0.35277962,-66.764951,75.524419)">
      <path
         id="path544"
         transform="translate(274.075,136.159)"
         d="M 2.5,23.515625 H 5.109375 V 22.96875 h -2.0625 V 0.15625 h 2.0625 v -0.5625 H 2.5 Z m 0,0"
         style="stroke:none;stroke-width:0"
         inkscape:connector-curvature="0" />
    </g>
    <g
       id="g550"
       style="fill:#0072b2;fill-opacity:1"
       transform="matrix(0.35277962,0,0,0.35277962,-66.764951,75.524419)">
      <path
         id="path548"
         transform="translate(284.315,144.13)"
         d="m 2.890625,-3.515625 c 0.8125,-0.265625 1.390625,-0.953125 1.390625,-1.75 0,-0.8125 -0.875,-1.375 -1.828125,-1.375 -1,0 -1.765625,0.59375 -1.765625,1.359375 0,0.328125 0.21875,0.515625 0.515625,0.515625 0.296875,0 0.5,-0.21875 0.5,-0.515625 0,-0.484375 -0.46875,-0.484375 -0.609375,-0.484375 0.296875,-0.5 0.953125,-0.625 1.3125,-0.625 0.421875,0 0.96875,0.21875 0.96875,1.109375 0,0.125 -0.03125,0.703125 -0.28125,1.140625 C 2.796875,-3.65625 2.453125,-3.625 2.203125,-3.625 2.125,-3.609375 1.890625,-3.59375 1.8125,-3.59375 c -0.078125,0.015625 -0.140625,0.03125 -0.140625,0.125 0,0.109375 0.0625,0.109375 0.234375,0.109375 h 0.4375 c 0.8125,0 1.1875,0.671875 1.1875,1.65625 0,1.359375 -0.6875,1.640625 -1.125,1.640625 -0.4375,0 -1.1875,-0.171875 -1.53125,-0.75 0.34375,0.046875 0.65625,-0.171875 0.65625,-0.546875 0,-0.359375 -0.265625,-0.5625 -0.546875,-0.5625 -0.25,0 -0.5625,0.140625 -0.5625,0.578125 0,0.90625 0.921875,1.5625 2.015625,1.5625 1.21875,0 2.125,-0.90625 2.125,-1.921875 0,-0.8125 -0.640625,-1.59375 -1.671875,-1.8125 z m 0,0"
         style="stroke:none;stroke-width:0;fill:#0072b2;fill-opacity:1"
         inkscape:connector-curvature="0" />
    </g>
    <g
       id="g554"
       style="fill:#d55e00;fill-opacity:1"
       transform="matrix(0.35277962,0,0,0.35277962,-66.764951,75.524419)">
      <path
         id="path552"
         transform="translate(307.0098,144.13)"
         d="m 2.9375,-1.640625 v 0.859375 c 0,0.359375 -0.03125,0.46875 -0.765625,0.46875 H 1.96875 V 0 C 2.375,-0.03125 2.890625,-0.03125 3.3125,-0.03125 c 0.421875,0 0.9375,0 1.359375,0.03125 v -0.3125 h -0.21875 c -0.734375,0 -0.75,-0.109375 -0.75,-0.46875 V -1.640625 H 4.6875 v -0.3125 H 3.703125 v -4.53125 c 0,-0.203125 0,-0.265625 -0.171875,-0.265625 -0.078125,0 -0.109375,0 -0.1875,0.125 l -3.0625,4.671875 v 0.3125 z m 0.046875,-0.3125 H 0.5625 l 2.421875,-3.71875 z m 0,0"
         style="stroke:none;stroke-width:0;fill:#d55e00;fill-opacity:1"
         inkscape:connector-curvature="0" />
    </g>
    <path
       id="path556"
       d="m 46.642665,127.6352 v -4.21682"
       style="fill:none;fill-opacity:1;stroke:#000000;stroke-width:0.1404063;stroke-linecap:butt;stroke-linejoin:miter;stroke-miterlimit:10;stroke-opacity:1"
       inkscape:connector-curvature="0" />
    <g
       id="g560"
       style="fill:#009e73;fill-opacity:1"
       transform="matrix(0.35277962,0,0,0.35277962,-63.589949,75.524419)">
      <path
         id="path558"
         transform="translate(321.952,144.13)"
         d="m 2.890625,-3.515625 c 0.8125,-0.265625 1.390625,-0.953125 1.390625,-1.75 0,-0.8125 -0.875,-1.375 -1.828125,-1.375 -1,0 -1.765625,0.59375 -1.765625,1.359375 0,0.328125 0.21875,0.515625 0.515625,0.515625 0.296875,0 0.5,-0.21875 0.5,-0.515625 0,-0.484375 -0.46875,-0.484375 -0.609375,-0.484375 0.296875,-0.5 0.953125,-0.625 1.3125,-0.625 0.421875,0 0.96875,0.21875 0.96875,1.109375 0,0.125 -0.03125,0.703125 -0.28125,1.140625 C 2.796875,-3.65625 2.453125,-3.625 2.203125,-3.625 2.125,-3.609375 1.890625,-3.59375 1.8125,-3.59375 c -0.078125,0.015625 -0.140625,0.03125 -0.140625,0.125 0,0.109375 0.0625,0.109375 0.234375,0.109375 h 0.4375 c 0.8125,0 1.1875,0.671875 1.1875,1.65625 0,1.359375 -0.6875,1.640625 -1.125,1.640625 -0.4375,0 -1.1875,-0.171875 -1.53125,-0.75 0.34375,0.046875 0.65625,-0.171875 0.65625,-0.546875 0,-0.359375 -0.265625,-0.5625 -0.546875,-0.5625 -0.25,0 -0.5625,0.140625 -0.5625,0.578125 0,0.90625 0.921875,1.5625 2.015625,1.5625 1.21875,0 2.125,-0.90625 2.125,-1.921875 0,-0.8125 -0.640625,-1.59375 -1.671875,-1.8125 z m 0,0"
         style="stroke:none;stroke-width:0;fill:#009e73;fill-opacity:1"
         inkscape:connector-curvature="0" />
    </g>
    <g
       id="g564"
       style="fill:#0072b2;fill-opacity:1"
       transform="matrix(0.35277962,0,0,0.35277962,-66.764951,75.524419)">
      <path
         id="path562"
         transform="translate(284.315,156.085)"
         d="m 1.265625,-0.765625 1.0625,-1.03125 c 1.546875,-1.375 2.140625,-1.90625 2.140625,-2.90625 0,-1.140625 -0.890625,-1.9375 -2.109375,-1.9375 -1.125,0 -1.859375,0.921875 -1.859375,1.8125 0,0.546875 0.5,0.546875 0.53125,0.546875 0.171875,0 0.515625,-0.109375 0.515625,-0.53125 0,-0.25 -0.1875,-0.515625 -0.53125,-0.515625 -0.078125,0 -0.09375,0 -0.125,0.015625 0.21875,-0.65625 0.765625,-1.015625 1.34375,-1.015625 0.90625,0 1.328125,0.8125 1.328125,1.625 C 3.5625,-3.90625 3.078125,-3.125 2.515625,-2.5 l -1.90625,2.125 C 0.5,-0.265625 0.5,-0.234375 0.5,0 H 4.203125 L 4.46875,-1.734375 H 4.234375 C 4.171875,-1.4375 4.109375,-1 4,-0.84375 3.9375,-0.765625 3.28125,-0.765625 3.0625,-0.765625 Z m 0,0"
         style="stroke:none;stroke-width:0;fill:#0072b2;fill-opacity:1"
         inkscape:connector-curvature="0" />
    </g>
    <g
       id="g568"
       style="fill:#d55e00;fill-opacity:1"
       transform="matrix(0.35277962,0,0,0.35277962,-66.764951,75.524419)">
      <path
         id="path566"
         transform="translate(299.259,156.085)"
         d="m 6.5625,-2.296875 c 0.171875,0 0.359375,0 0.359375,-0.203125 0,-0.1875 -0.1875,-0.1875 -0.359375,-0.1875 H 1.171875 c -0.171875,0 -0.34375,0 -0.34375,0.1875 0,0.203125 0.171875,0.203125 0.34375,0.203125 z m 0,0"
         style="stroke:none;stroke-width:0;fill:#d55e00;fill-opacity:1"
         inkscape:connector-curvature="0" />
    </g>
    <g
       id="g572"
       style="fill:#d55e00;fill-opacity:1"
       transform="matrix(0.35277962,0,0,0.35277962,-66.764951,75.524419)">
      <path
         id="path570"
         transform="translate(307.008,156.085)"
         d="m 2.890625,-3.515625 c 0.8125,-0.265625 1.390625,-0.953125 1.390625,-1.75 0,-0.8125 -0.875,-1.375 -1.828125,-1.375 -1,0 -1.765625,0.59375 -1.765625,1.359375 0,0.328125 0.21875,0.515625 0.515625,0.515625 0.296875,0 0.5,-0.21875 0.5,-0.515625 0,-0.484375 -0.46875,-0.484375 -0.609375,-0.484375 0.296875,-0.5 0.953125,-0.625 1.3125,-0.625 0.421875,0 0.96875,0.21875 0.96875,1.109375 0,0.125 -0.03125,0.703125 -0.28125,1.140625 C 2.796875,-3.65625 2.453125,-3.625 2.203125,-3.625 2.125,-3.609375 1.890625,-3.59375 1.8125,-3.59375 c -0.078125,0.015625 -0.140625,0.03125 -0.140625,0.125 0,0.109375 0.0625,0.109375 0.234375,0.109375 h 0.4375 c 0.8125,0 1.1875,0.671875 1.1875,1.65625 0,1.359375 -0.6875,1.640625 -1.125,1.640625 -0.4375,0 -1.1875,-0.171875 -1.53125,-0.75 0.34375,0.046875 0.65625,-0.171875 0.65625,-0.546875 0,-0.359375 -0.265625,-0.5625 -0.546875,-0.5625 -0.25,0 -0.5625,0.140625 -0.5625,0.578125 0,0.90625 0.921875,1.5625 2.015625,1.5625 1.21875,0 2.125,-0.90625 2.125,-1.921875 0,-0.8125 -0.640625,-1.59375 -1.671875,-1.8125 z m 0,0"
         style="stroke:none;stroke-width:0;fill:#d55e00;fill-opacity:1"
         inkscape:connector-curvature="0" />
    </g>
    <path
       id="path574"
       d="m 46.642665,131.8534 v -4.2182"
       style="fill:none;fill-opacity:1;stroke:#000000;stroke-width:0.1404063;stroke-linecap:butt;stroke-linejoin:miter;stroke-miterlimit:10;stroke-opacity:1"
       inkscape:connector-curvature="0" />
    <g
       id="g578"
       style="fill:#009e73;fill-opacity:1"
       transform="matrix(0.35277962,0,0,0.35277962,-63.589949,75.524419)">
      <path
         id="path576"
         transform="translate(321.952,156.085)"
         d="m 1.265625,-0.765625 1.0625,-1.03125 c 1.546875,-1.375 2.140625,-1.90625 2.140625,-2.90625 0,-1.140625 -0.890625,-1.9375 -2.109375,-1.9375 -1.125,0 -1.859375,0.921875 -1.859375,1.8125 0,0.546875 0.5,0.546875 0.53125,0.546875 0.171875,0 0.515625,-0.109375 0.515625,-0.53125 0,-0.25 -0.1875,-0.515625 -0.53125,-0.515625 -0.078125,0 -0.09375,0 -0.125,0.015625 0.21875,-0.65625 0.765625,-1.015625 1.34375,-1.015625 0.90625,0 1.328125,0.8125 1.328125,1.625 C 3.5625,-3.90625 3.078125,-3.125 2.515625,-2.5 l -1.90625,2.125 C 0.5,-0.265625 0.5,-0.234375 0.5,0 H 4.203125 L 4.46875,-1.734375 H 4.234375 C 4.171875,-1.4375 4.109375,-1 4,-0.84375 3.9375,-0.765625 3.28125,-0.765625 3.0625,-0.765625 Z m 0,0"
         style="stroke:none;stroke-width:0;fill:#009e73;fill-opacity:1"
         inkscape:connector-curvature="0" />
    </g>
    <g
       id="g582"
       style="fill:#000000;fill-opacity:1"
       transform="matrix(0.35277962,0,0,0.35277962,-63.589949,75.524419)">
      <path
         id="path580"
         transform="translate(331.914,136.159)"
         d="M 2.21875,22.96875 H 0.140625 v 0.546875 h 2.625 V -0.40625 h -2.625 v 0.5625 H 2.21875 Z m 0,0"
         style="stroke:none;stroke-width:0"
         inkscape:connector-curvature="0" />
    </g>
    <path
       id="path1026"
       d="m 60.006158,125.16013 c 0.285396,-0.0933 0.488466,-0.33479 0.488466,-0.6147 0,-0.28539 -0.307349,-0.48297 -0.642141,-0.48297 -0.351256,0 -0.620187,0.20856 -0.620187,0.47749 0,0.11525 0.07684,0.18111 0.181117,0.18111 0.104279,0 0.175628,-0.0768 0.175628,-0.18111 0,-0.17014 -0.164652,-0.17014 -0.214047,-0.17014 0.104279,-0.17563 0.334791,-0.21954 0.461024,-0.21954 0.148186,0 0.34028,0.0768 0.34028,0.38968 0,0.0439 -0.01098,0.24697 -0.09879,0.40065 -0.104279,0.17014 -0.225024,0.18112 -0.312838,0.18112 -0.02744,0.005 -0.109768,0.011 -0.13721,0.011 -0.02744,0.005 -0.04939,0.011 -0.04939,0.0439 0,0.0384 0.02195,0.0384 0.08233,0.0384 h 0.153675 c 0.285395,0 0.417117,0.236 0.417117,0.58177 0,0.47749 -0.241489,0.57628 -0.395164,0.57628 -0.153675,0 -0.417117,-0.0604 -0.537862,-0.26345 0.120745,0.0165 0.230513,-0.0604 0.230513,-0.19209 0,-0.12623 -0.0933,-0.19758 -0.192094,-0.19758 -0.08781,0 -0.197582,0.0494 -0.197582,0.20307 0,0.31833 0.323815,0.54884 0.708002,0.54884 0.428094,0 0.74642,-0.31833 0.74642,-0.67507 0,-0.2854 -0.225024,-0.55982 -0.587257,-0.63666 z m 0,0"
       style="fill:#0072b2;fill-opacity:1;stroke:none;stroke-width:0"
       inkscape:connector-curvature="0" />
    <path
       id="path1028"
       d="m 61.909442,125.33576 c 0.02195,-0.0878 0.104279,-0.41163 0.345768,-0.41163 0.01646,0 0.104279,0 0.175628,0.0439 -0.09879,0.022 -0.164651,0.10428 -0.164651,0.19209 0,0.0549 0.03842,0.12075 0.131721,0.12075 0.07684,0 0.186605,-0.0604 0.186605,-0.20307 0,-0.18112 -0.20307,-0.23051 -0.323815,-0.23051 -0.20307,0 -0.323814,0.1866 -0.367721,0.26344 -0.08781,-0.23051 -0.27442,-0.26344 -0.378699,-0.26344 -0.362233,0 -0.565303,0.45004 -0.565303,0.53786 0,0.0384 0.03842,0.0384 0.04391,0.0384 0.02744,0 0.03842,-0.011 0.04391,-0.0384 0.120744,-0.37321 0.351256,-0.46103 0.472001,-0.46103 0.06586,0 0.186605,0.0329 0.186605,0.236 0,0.10977 -0.06037,0.34028 -0.186605,0.83424 -0.05488,0.21404 -0.181117,0.36223 -0.334792,0.36223 -0.02195,0 -0.09879,0 -0.175628,-0.0439 0.08781,-0.022 0.164652,-0.0933 0.164652,-0.19209 0,-0.0933 -0.07684,-0.12074 -0.126233,-0.12074 -0.109768,0 -0.192094,0.0878 -0.192094,0.20307 0,0.15916 0.17014,0.23051 0.323815,0.23051 0.236,0 0.362233,-0.24698 0.367722,-0.26344 0.04391,0.12623 0.170139,0.26344 0.378698,0.26344 0.362233,0 0.559815,-0.45005 0.559815,-0.53786 0,-0.0384 -0.02744,-0.0384 -0.03842,-0.0384 -0.03293,0 -0.03842,0.0165 -0.0494,0.0384 -0.115256,0.3787 -0.351257,0.46102 -0.461024,0.46102 -0.13721,0 -0.192094,-0.10977 -0.192094,-0.23051 0,-0.0768 0.01647,-0.15368 0.05488,-0.30735 z m 0,0"
       style="fill:#000000;fill-opacity:1;stroke:none;stroke-width:0"
       inkscape:connector-curvature="0" />
    <path
       id="path1030"
       d="m 64.950621,125.58823 h 0.976932 c 0.0494,0 0.115256,0 0.115256,-0.0713 0,-0.0659 -0.06586,-0.0659 -0.115256,-0.0659 h -0.976932 v -0.98242 c 0,-0.0494 0,-0.11526 -0.07135,-0.11526 -0.07135,0 -0.07135,0.0659 -0.07135,0.11526 v 0.98242 h -0.976932 c -0.0494,0 -0.115256,0 -0.115256,0.0659 0,0.0713 0.06586,0.0713 0.115256,0.0713 h 0.976932 v 0.98242 c 0,0.0494 0,0.11525 0.07135,0.11525 0.07135,0 0.07135,-0.0659 0.07135,-0.11525 z m 0,0"
       style="fill:#000000;fill-opacity:1;stroke:none;stroke-width:0"
       inkscape:connector-curvature="0" />
    <path
       id="path1032"
       d="m 68.048698,125.81874 v 0.30186 c 0,0.12623 -0.01098,0.16465 -0.268931,0.16465 h -0.07135 v 0.10977 c 0.142698,-0.011 0.323815,-0.011 0.472001,-0.011 0.148187,0 0.329303,0 0.47749,0.011 v -0.10977 h -0.07684 c -0.257954,0 -0.263442,-0.0384 -0.263442,-0.16465 v -0.30186 h 0.345771 v -0.10977 h -0.345768 v -1.59163 c 0,-0.0713 0,-0.0933 -0.06037,-0.0933 -0.02744,0 -0.03842,0 -0.06586,0.0439 l -1.075723,1.64102 v 0.10977 z m 0.01647,-0.10977 h -0.850699 l 0.850699,-1.30623 z m 0,0"
       style="fill:#d55e00;fill-opacity:1;stroke:none;stroke-width:0"
       inkscape:connector-curvature="0" />
    <path
       id="path1034"
       d="m 70.46873,125.06134 c 0.01646,-0.0494 0.01646,-0.0549 0.01646,-0.0823 0,-0.0604 -0.04939,-0.0933 -0.104279,-0.0933 -0.03293,0 -0.08781,0.022 -0.120745,0.0713 -0.0055,0.022 -0.03842,0.12624 -0.0494,0.1921 -0.02744,0.0878 -0.0494,0.1866 -0.07135,0.2799 l -0.159163,0.63117 c -0.01098,0.0494 -0.164652,0.29637 -0.395164,0.29637 -0.175628,0 -0.214047,-0.15367 -0.214047,-0.28539 0,-0.15917 0.06037,-0.3787 0.175628,-0.68605 0.05488,-0.1427 0.07135,-0.18112 0.07135,-0.25247 0,-0.15367 -0.109767,-0.28539 -0.285396,-0.28539 -0.334791,0 -0.461024,0.51042 -0.461024,0.53786 0,0.0384 0.03293,0.0384 0.03842,0.0384 0.03842,0 0.03842,-0.011 0.05488,-0.0659 0.09879,-0.32931 0.236,-0.43359 0.356745,-0.43359 0.02744,0 0.08781,0 0.08781,0.10977 0,0.0878 -0.03842,0.18112 -0.06037,0.24698 -0.142698,0.37321 -0.203071,0.57079 -0.203071,0.73544 0,0.31284 0.219536,0.41712 0.428094,0.41712 0.13721,0 0.252466,-0.0604 0.351257,-0.15916 -0.04391,0.18111 -0.08781,0.35674 -0.225024,0.54335 -0.0933,0.11525 -0.225024,0.21953 -0.384187,0.21953 -0.04939,0 -0.208558,-0.011 -0.26893,-0.14819 0.05488,0 0.104279,0 0.148186,-0.0439 0.03842,-0.0274 0.07135,-0.0768 0.07135,-0.1427 0,-0.10977 -0.0933,-0.12074 -0.126233,-0.12074 -0.08233,0 -0.197582,0.0549 -0.197582,0.22502 0,0.17563 0.153675,0.30735 0.37321,0.30735 0.356745,0 0.718979,-0.31833 0.817769,-0.71349 z m 0,0"
       style="fill:#000000;fill-opacity:1;stroke:none;stroke-width:0"
       inkscape:connector-curvature="0" />
    <path
       id="path1036"
       d="m 73.984456,125.24795 c 0.05488,0 0.120744,0 0.120744,-0.0659 0,-0.0714 -0.06586,-0.0714 -0.115256,-0.0714 h -2.096562 c -0.0494,0 -0.115256,0 -0.115256,0.0714 0,0.0659 0.06586,0.0659 0.115256,0.0659 z m 0.0055,0.68056 c 0.0494,0 0.115256,0 0.115256,-0.0714 0,-0.0659 -0.06586,-0.0659 -0.120744,-0.0659 h -2.091074 c -0.0494,0 -0.115256,0 -0.115256,0.0659 0,0.0714 0.06586,0.0714 0.115256,0.0714 z m 0,0"
       style="fill:#000000;fill-opacity:1;stroke:none;stroke-width:0"
       inkscape:connector-curvature="0" />
    <path
       id="path1038"
       d="m 76.290591,125.16013 c 0.285396,-0.0933 0.488466,-0.33479 0.488466,-0.6147 0,-0.28539 -0.307349,-0.48297 -0.642141,-0.48297 -0.351256,0 -0.620187,0.20856 -0.620187,0.47749 0,0.11525 0.07684,0.18111 0.181117,0.18111 0.104279,0 0.175628,-0.0768 0.175628,-0.18111 0,-0.17014 -0.164652,-0.17014 -0.214047,-0.17014 0.104279,-0.17563 0.334791,-0.21954 0.461024,-0.21954 0.148186,0 0.34028,0.0768 0.34028,0.38968 0,0.0439 -0.01098,0.24697 -0.09879,0.40065 -0.104279,0.17014 -0.225024,0.18112 -0.312838,0.18112 -0.02744,0.005 -0.109768,0.011 -0.13721,0.011 -0.02744,0.005 -0.04939,0.011 -0.04939,0.0439 0,0.0384 0.02195,0.0384 0.08233,0.0384 h 0.153675 c 0.285395,0 0.417117,0.236 0.417117,0.58177 0,0.47749 -0.241489,0.57628 -0.395164,0.57628 -0.153675,0 -0.417117,-0.0604 -0.537862,-0.26345 0.120745,0.0165 0.230513,-0.0604 0.230513,-0.19209 0,-0.12623 -0.0933,-0.19758 -0.192094,-0.19758 -0.08781,0 -0.197582,0.0494 -0.197582,0.20307 0,0.31833 0.323815,0.54884 0.708002,0.54884 0.428094,0 0.74642,-0.31833 0.74642,-0.67507 0,-0.2854 -0.225024,-0.55982 -0.587257,-0.63666 z m 0,0"
       style="fill:#009e73;fill-opacity:1;stroke:none;stroke-width:0"
       inkscape:connector-curvature="0" />
    <path
       id="path1040"
       d="m 59.435366,130.31694 0.37321,-0.36223 c 0.54335,-0.48298 0.751909,-0.66959 0.751909,-1.02084 0,-0.40066 -0.312838,-0.68056 -0.740932,-0.68056 -0.395164,0 -0.653118,0.32381 -0.653118,0.63665 0,0.19209 0.175629,0.19209 0.186605,0.19209 0.06037,0 0.181117,-0.0384 0.181117,-0.1866 0,-0.0878 -0.06586,-0.18112 -0.186605,-0.18112 -0.02744,0 -0.03293,0 -0.04391,0.005 0.07684,-0.23051 0.268931,-0.35675 0.472001,-0.35675 0.318326,0 0.466512,0.2854 0.466512,0.5708 0,0.2799 -0.170139,0.55432 -0.367721,0.77386 l -0.669583,0.74642 c -0.03842,0.0384 -0.03842,0.0494 -0.03842,0.13172 h 1.300747 l 0.0933,-0.60921 h -0.08233 c -0.02195,0.10428 -0.04391,0.25795 -0.08233,0.31284 -0.02195,0.0274 -0.252465,0.0274 -0.329303,0.0274 z m 0,0"
       style="fill:#0072b2;fill-opacity:1;stroke:none;stroke-width:0"
       inkscape:connector-curvature="0" />
    <path
       id="path1042"
       d="m 61.909442,129.52661 c 0.02195,-0.0878 0.104279,-0.41163 0.345768,-0.41163 0.01646,0 0.104279,0 0.175628,0.0439 -0.09879,0.022 -0.164651,0.10428 -0.164651,0.19209 0,0.0549 0.03842,0.12075 0.131721,0.12075 0.07684,0 0.186605,-0.0604 0.186605,-0.20307 0,-0.18112 -0.20307,-0.23051 -0.323815,-0.23051 -0.20307,0 -0.323814,0.1866 -0.367721,0.26344 -0.08781,-0.23051 -0.27442,-0.26344 -0.378699,-0.26344 -0.362233,0 -0.565303,0.45004 -0.565303,0.53786 0,0.0384 0.03842,0.0384 0.04391,0.0384 0.02744,0 0.03842,-0.011 0.04391,-0.0384 0.120744,-0.37321 0.351256,-0.46103 0.472001,-0.46103 0.06586,0 0.186605,0.0329 0.186605,0.236 0,0.10977 -0.06037,0.34028 -0.186605,0.83424 -0.05488,0.21404 -0.181117,0.36223 -0.334792,0.36223 -0.02195,0 -0.09879,0 -0.175628,-0.0439 0.08781,-0.022 0.164652,-0.0933 0.164652,-0.19209 0,-0.0933 -0.07684,-0.12074 -0.126233,-0.12074 -0.109768,0 -0.192094,0.0878 -0.192094,0.20307 0,0.15916 0.17014,0.23051 0.323815,0.23051 0.236,0 0.362233,-0.24698 0.367722,-0.26344 0.04391,0.12623 0.170139,0.26344 0.378698,0.26344 0.362233,0 0.559815,-0.45005 0.559815,-0.53786 0,-0.0384 -0.02744,-0.0384 -0.03842,-0.0384 -0.03293,0 -0.03842,0.0165 -0.0494,0.0384 -0.115256,0.3787 -0.351257,0.46102 -0.461024,0.46102 -0.13721,0 -0.192094,-0.10977 -0.192094,-0.23051 0,-0.0768 0.01647,-0.15368 0.05488,-0.30735 z m 0,0"
       style="fill:#000000;fill-opacity:1;stroke:none;stroke-width:0"
       inkscape:connector-curvature="0" />
    <path
       id="path1044"
       d="m 65.823274,129.77908 c 0.06037,0 0.126233,0 0.126233,-0.0713 0,-0.0659 -0.06586,-0.0659 -0.126233,-0.0659 h -1.893492 c -0.06037,0 -0.120745,0 -0.120745,0.0659 0,0.0713 0.06037,0.0713 0.120745,0.0713 z m 0,0"
       style="fill:#d55e00;fill-opacity:1;stroke:none;stroke-width:0"
       inkscape:connector-curvature="0" />
    <path
       id="path1046"
       d="m 68.033073,129.35098 c 0.285396,-0.0933 0.488466,-0.33479 0.488466,-0.6147 0,-0.28539 -0.307349,-0.48297 -0.642141,-0.48297 -0.351256,0 -0.620187,0.20856 -0.620187,0.47749 0,0.11525 0.07684,0.18111 0.181117,0.18111 0.104279,0 0.175628,-0.0768 0.175628,-0.18111 0,-0.17014 -0.164652,-0.17014 -0.214047,-0.17014 0.104279,-0.17563 0.334791,-0.21954 0.461024,-0.21954 0.148186,0 0.34028,0.0768 0.34028,0.38968 0,0.0439 -0.01098,0.24697 -0.09879,0.40065 -0.104279,0.17014 -0.225024,0.18112 -0.312838,0.18112 -0.02744,0.005 -0.109768,0.011 -0.13721,0.011 -0.02744,0.005 -0.04939,0.011 -0.04939,0.0439 0,0.0384 0.02195,0.0384 0.08233,0.0384 h 0.153675 c 0.285395,0 0.417117,0.236 0.417117,0.58177 0,0.47749 -0.241489,0.57628 -0.395164,0.57628 -0.153675,0 -0.417117,-0.0604 -0.537862,-0.26345 0.120745,0.0165 0.230513,-0.0604 0.230513,-0.19209 0,-0.12623 -0.0933,-0.19758 -0.192094,-0.19758 -0.08781,0 -0.197582,0.0494 -0.197582,0.20307 0,0.31833 0.323815,0.54884 0.708002,0.54884 0.428094,0 0.74642,-0.31833 0.74642,-0.67507 0,-0.2854 -0.225024,-0.55982 -0.587257,-0.63666 z m 0,0"
       style="fill:#d55e00;fill-opacity:1;stroke:none;stroke-width:0"
       inkscape:connector-curvature="0" />
    <path
       id="path1048"
       d="m 70.46873,129.25219 c 0.01646,-0.0494 0.01646,-0.0549 0.01646,-0.0823 0,-0.0604 -0.04939,-0.0933 -0.104279,-0.0933 -0.03293,0 -0.08781,0.022 -0.120745,0.0713 -0.0055,0.022 -0.03842,0.12624 -0.0494,0.1921 -0.02744,0.0878 -0.0494,0.1866 -0.07135,0.2799 l -0.159163,0.63117 c -0.01098,0.0494 -0.164652,0.29637 -0.395164,0.29637 -0.175628,0 -0.214047,-0.15367 -0.214047,-0.28539 0,-0.15917 0.06037,-0.3787 0.175628,-0.68605 0.05488,-0.1427 0.07135,-0.18112 0.07135,-0.25247 0,-0.15367 -0.109767,-0.28539 -0.285396,-0.28539 -0.334791,0 -0.461024,0.51042 -0.461024,0.53786 0,0.0384 0.03293,0.0384 0.03842,0.0384 0.03842,0 0.03842,-0.011 0.05488,-0.0659 0.09879,-0.32931 0.236,-0.43359 0.356745,-0.43359 0.02744,0 0.08781,0 0.08781,0.10977 0,0.0878 -0.03842,0.18112 -0.06037,0.24698 -0.142698,0.37321 -0.203071,0.57079 -0.203071,0.73544 0,0.31284 0.219536,0.41712 0.428094,0.41712 0.13721,0 0.252466,-0.0604 0.351257,-0.15916 -0.04391,0.18111 -0.08781,0.35674 -0.225024,0.54335 -0.0933,0.11525 -0.225024,0.21953 -0.384187,0.21953 -0.04939,0 -0.208558,-0.011 -0.26893,-0.14819 0.05488,0 0.104279,0 0.148186,-0.0439 0.03842,-0.0274 0.07135,-0.0768 0.07135,-0.1427 0,-0.10977 -0.0933,-0.12074 -0.126233,-0.12074 -0.08233,0 -0.197582,0.0549 -0.197582,0.22502 0,0.17563 0.153675,0.30735 0.37321,0.30735 0.356745,0 0.718979,-0.31833 0.817769,-0.71349 z m 0,0"
       style="fill:#000000;fill-opacity:1;stroke:none;stroke-width:0"
       inkscape:connector-curvature="0" />
    <path
       id="path1050"
       d="m 73.984456,129.4388 c 0.05488,0 0.120744,0 0.120744,-0.0659 0,-0.0713 -0.06586,-0.0713 -0.115256,-0.0713 h -2.096562 c -0.0494,0 -0.115256,0 -0.115256,0.0713 0,0.0659 0.06586,0.0659 0.115256,0.0659 z m 0.0055,0.68056 c 0.0494,0 0.115256,0 0.115256,-0.0713 0,-0.0659 -0.06586,-0.0659 -0.120744,-0.0659 h -2.091074 c -0.0494,0 -0.115256,0 -0.115256,0.0659 0,0.0713 0.06586,0.0713 0.115256,0.0713 z m 0,0"
       style="fill:#000000;fill-opacity:1;stroke:none;stroke-width:0"
       inkscape:connector-curvature="0" />
    <path
       id="path1052"
       d="m 75.719799,130.31694 0.37321,-0.36223 c 0.54335,-0.48298 0.751909,-0.66959 0.751909,-1.02084 0,-0.40066 -0.312838,-0.68056 -0.740932,-0.68056 -0.395164,0 -0.653118,0.32381 -0.653118,0.63665 0,0.19209 0.175629,0.19209 0.186605,0.19209 0.06037,0 0.181117,-0.0384 0.181117,-0.1866 0,-0.0878 -0.06586,-0.18112 -0.186605,-0.18112 -0.02744,0 -0.03293,0 -0.04391,0.005 0.07684,-0.23051 0.268931,-0.35675 0.472001,-0.35675 0.318326,0 0.466512,0.2854 0.466512,0.5708 0,0.2799 -0.170139,0.55432 -0.367721,0.77386 l -0.669583,0.74642 c -0.03842,0.0384 -0.03842,0.0494 -0.03842,0.13172 h 1.300747 l 0.0933,-0.60921 h -0.08233 c -0.02195,0.10428 -0.04391,0.25795 -0.08233,0.31284 -0.02195,0.0274 -0.252465,0.0274 -0.329303,0.0274 z m 0,0"
       style="fill:#009e73;fill-opacity:1;stroke:none;stroke-width:0"
       inkscape:connector-curvature="0" />
    <g
       id="g1231"
       transform="translate(0,15.345837)">
      <g
         id="g1197">
        <g
           transform="matrix(0.35277962,0,0,0.35277962,-66.764951,75.524419)"
           style="fill:#000000;fill-opacity:1"
           id="g1159">
          <path
             inkscape:connector-curvature="0"
             style="stroke:none;stroke-width:0"
             d="M 2.5,23.515625 H 5.109375 V 22.96875 h -2.0625 V 0.15625 h 2.0625 v -0.5625 H 2.5 Z m 0,0"
             transform="translate(274.075,136.159)"
             id="path1157" />
        </g>
        <g
           transform="matrix(0.35277962,0,0,0.35277962,-66.764951,75.524419)"
           style="fill:#000000;fill-opacity:1"
           id="g1163">
          <path
             inkscape:connector-curvature="0"
             style="stroke:none;stroke-width:0"
             d="m 2.890625,-3.515625 c 0.8125,-0.265625 1.390625,-0.953125 1.390625,-1.75 0,-0.8125 -0.875,-1.375 -1.828125,-1.375 -1,0 -1.765625,0.59375 -1.765625,1.359375 0,0.328125 0.21875,0.515625 0.515625,0.515625 0.296875,0 0.5,-0.21875 0.5,-0.515625 0,-0.484375 -0.46875,-0.484375 -0.609375,-0.484375 0.296875,-0.5 0.953125,-0.625 1.3125,-0.625 0.421875,0 0.96875,0.21875 0.96875,1.109375 0,0.125 -0.03125,0.703125 -0.28125,1.140625 C 2.796875,-3.65625 2.453125,-3.625 2.203125,-3.625 2.125,-3.609375 1.890625,-3.59375 1.8125,-3.59375 c -0.078125,0.015625 -0.140625,0.03125 -0.140625,0.125 0,0.109375 0.0625,0.109375 0.234375,0.109375 h 0.4375 c 0.8125,0 1.1875,0.671875 1.1875,1.65625 0,1.359375 -0.6875,1.640625 -1.125,1.640625 -0.4375,0 -1.1875,-0.171875 -1.53125,-0.75 0.34375,0.046875 0.65625,-0.171875 0.65625,-0.546875 0,-0.359375 -0.265625,-0.5625 -0.546875,-0.5625 -0.25,0 -0.5625,0.140625 -0.5625,0.578125 0,0.90625 0.921875,1.5625 2.015625,1.5625 1.21875,0 2.125,-0.90625 2.125,-1.921875 0,-0.8125 -0.640625,-1.59375 -1.671875,-1.8125 z m 0,0"
             transform="translate(284.315,144.13)"
             id="path1161" />
        </g>
        <g
           transform="matrix(0.35277962,0,0,0.35277962,-66.764951,75.524419)"
           style="fill:#000000;fill-opacity:1"
           id="g1167">
          <path
             inkscape:connector-curvature="0"
             style="stroke:none;stroke-width:0"
             d="m 2.9375,-1.640625 v 0.859375 c 0,0.359375 -0.03125,0.46875 -0.765625,0.46875 H 1.96875 V 0 C 2.375,-0.03125 2.890625,-0.03125 3.3125,-0.03125 c 0.421875,0 0.9375,0 1.359375,0.03125 v -0.3125 h -0.21875 c -0.734375,0 -0.75,-0.109375 -0.75,-0.46875 V -1.640625 H 4.6875 v -0.3125 H 3.703125 v -4.53125 c 0,-0.203125 0,-0.265625 -0.171875,-0.265625 -0.078125,0 -0.109375,0 -0.1875,0.125 l -3.0625,4.671875 v 0.3125 z m 0.046875,-0.3125 H 0.5625 l 2.421875,-3.71875 z m 0,0"
             transform="translate(307.0098,144.13)"
             id="path1165" />
        </g>
        <path
           inkscape:connector-curvature="0"
           style="fill:none;fill-opacity:1;stroke:#000000;stroke-width:0.1404063;stroke-linecap:butt;stroke-linejoin:miter;stroke-miterlimit:10;stroke-opacity:1"
           d="m 46.642665,127.6352 v -4.21682"
           id="path1169" />
        <g
           transform="matrix(0.35277962,0,0,0.35277962,-63.589949,75.524419)"
           style="fill:#000000;fill-opacity:1"
           id="g1173">
          <path
             inkscape:connector-curvature="0"
             style="stroke:none;stroke-width:0"
             d="m 2.890625,-3.515625 c 0.8125,-0.265625 1.390625,-0.953125 1.390625,-1.75 0,-0.8125 -0.875,-1.375 -1.828125,-1.375 -1,0 -1.765625,0.59375 -1.765625,1.359375 0,0.328125 0.21875,0.515625 0.515625,0.515625 0.296875,0 0.5,-0.21875 0.5,-0.515625 0,-0.484375 -0.46875,-0.484375 -0.609375,-0.484375 0.296875,-0.5 0.953125,-0.625 1.3125,-0.625 0.421875,0 0.96875,0.21875 0.96875,1.109375 0,0.125 -0.03125,0.703125 -0.28125,1.140625 C 2.796875,-3.65625 2.453125,-3.625 2.203125,-3.625 2.125,-3.609375 1.890625,-3.59375 1.8125,-3.59375 c -0.078125,0.015625 -0.140625,0.03125 -0.140625,0.125 0,0.109375 0.0625,0.109375 0.234375,0.109375 h 0.4375 c 0.8125,0 1.1875,0.671875 1.1875,1.65625 0,1.359375 -0.6875,1.640625 -1.125,1.640625 -0.4375,0 -1.1875,-0.171875 -1.53125,-0.75 0.34375,0.046875 0.65625,-0.171875 0.65625,-0.546875 0,-0.359375 -0.265625,-0.5625 -0.546875,-0.5625 -0.25,0 -0.5625,0.140625 -0.5625,0.578125 0,0.90625 0.921875,1.5625 2.015625,1.5625 1.21875,0 2.125,-0.90625 2.125,-1.921875 0,-0.8125 -0.640625,-1.59375 -1.671875,-1.8125 z m 0,0"
             transform="translate(321.952,144.13)"
             id="path1171" />
        </g>
        <g
           transform="matrix(0.35277962,0,0,0.35277962,-66.764951,75.524419)"
           style="fill:#000000;fill-opacity:1"
           id="g1177">
          <path
             inkscape:connector-curvature="0"
             style="stroke:none;stroke-width:0"
             d="m 1.265625,-0.765625 1.0625,-1.03125 c 1.546875,-1.375 2.140625,-1.90625 2.140625,-2.90625 0,-1.140625 -0.890625,-1.9375 -2.109375,-1.9375 -1.125,0 -1.859375,0.921875 -1.859375,1.8125 0,0.546875 0.5,0.546875 0.53125,0.546875 0.171875,0 0.515625,-0.109375 0.515625,-0.53125 0,-0.25 -0.1875,-0.515625 -0.53125,-0.515625 -0.078125,0 -0.09375,0 -0.125,0.015625 0.21875,-0.65625 0.765625,-1.015625 1.34375,-1.015625 0.90625,0 1.328125,0.8125 1.328125,1.625 C 3.5625,-3.90625 3.078125,-3.125 2.515625,-2.5 l -1.90625,2.125 C 0.5,-0.265625 0.5,-0.234375 0.5,0 H 4.203125 L 4.46875,-1.734375 H 4.234375 C 4.171875,-1.4375 4.109375,-1 4,-0.84375 3.9375,-0.765625 3.28125,-0.765625 3.0625,-0.765625 Z m 0,0"
             transform="translate(284.315,156.085)"
             id="path1175" />
        </g>
        <g
           transform="matrix(0.35277962,0,0,0.35277962,-66.764951,75.524419)"
           style="fill:#000000;fill-opacity:1"
           id="g1181">
          <path
             inkscape:connector-curvature="0"
             style="stroke:none;stroke-width:0"
             d="m 6.5625,-2.296875 c 0.171875,0 0.359375,0 0.359375,-0.203125 0,-0.1875 -0.1875,-0.1875 -0.359375,-0.1875 H 1.171875 c -0.171875,0 -0.34375,0 -0.34375,0.1875 0,0.203125 0.171875,0.203125 0.34375,0.203125 z m 0,0"
             transform="translate(299.259,156.085)"
             id="path1179" />
        </g>
        <g
           transform="matrix(0.35277962,0,0,0.35277962,-66.764951,75.524419)"
           style="fill:#000000;fill-opacity:1"
           id="g1185">
          <path
             inkscape:connector-curvature="0"
             style="stroke:none;stroke-width:0"
             d="m 2.890625,-3.515625 c 0.8125,-0.265625 1.390625,-0.953125 1.390625,-1.75 0,-0.8125 -0.875,-1.375 -1.828125,-1.375 -1,0 -1.765625,0.59375 -1.765625,1.359375 0,0.328125 0.21875,0.515625 0.515625,0.515625 0.296875,0 0.5,-0.21875 0.5,-0.515625 0,-0.484375 -0.46875,-0.484375 -0.609375,-0.484375 0.296875,-0.5 0.953125,-0.625 1.3125,-0.625 0.421875,0 0.96875,0.21875 0.96875,1.109375 0,0.125 -0.03125,0.703125 -0.28125,1.140625 C 2.796875,-3.65625 2.453125,-3.625 2.203125,-3.625 2.125,-3.609375 1.890625,-3.59375 1.8125,-3.59375 c -0.078125,0.015625 -0.140625,0.03125 -0.140625,0.125 0,0.109375 0.0625,0.109375 0.234375,0.109375 h 0.4375 c 0.8125,0 1.1875,0.671875 1.1875,1.65625 0,1.359375 -0.6875,1.640625 -1.125,1.640625 -0.4375,0 -1.1875,-0.171875 -1.53125,-0.75 0.34375,0.046875 0.65625,-0.171875 0.65625,-0.546875 0,-0.359375 -0.265625,-0.5625 -0.546875,-0.5625 -0.25,0 -0.5625,0.140625 -0.5625,0.578125 0,0.90625 0.921875,1.5625 2.015625,1.5625 1.21875,0 2.125,-0.90625 2.125,-1.921875 0,-0.8125 -0.640625,-1.59375 -1.671875,-1.8125 z m 0,0"
             transform="translate(307.008,156.085)"
             id="path1183" />
        </g>
        <path
           inkscape:connector-curvature="0"
           style="fill:none;fill-opacity:1;stroke:#000000;stroke-width:0.1404063;stroke-linecap:butt;stroke-linejoin:miter;stroke-miterlimit:10;stroke-opacity:1"
           d="m 46.642665,131.8534 v -4.2182"
           id="path1187" />
        <g
           transform="matrix(0.35277962,0,0,0.35277962,-63.589949,75.524419)"
           style="fill:#000000;fill-opacity:1"
           id="g1191">
          <path
             inkscape:connector-curvature="0"
             style="stroke:none;stroke-width:0"
             d="m 1.265625,-0.765625 1.0625,-1.03125 c 1.546875,-1.375 2.140625,-1.90625 2.140625,-2.90625 0,-1.140625 -0.890625,-1.9375 -2.109375,-1.9375 -1.125,0 -1.859375,0.921875 -1.859375,1.8125 0,0.546875 0.5,0.546875 0.53125,0.546875 0.171875,0 0.515625,-0.109375 0.515625,-0.53125 0,-0.25 -0.1875,-0.515625 -0.53125,-0.515625 -0.078125,0 -0.09375,0 -0.125,0.015625 0.21875,-0.65625 0.765625,-1.015625 1.34375,-1.015625 0.90625,0 1.328125,0.8125 1.328125,1.625 C 3.5625,-3.90625 3.078125,-3.125 2.515625,-2.5 l -1.90625,2.125 C 0.5,-0.265625 0.5,-0.234375 0.5,0 H 4.203125 L 4.46875,-1.734375 H 4.234375 C 4.171875,-1.4375 4.109375,-1 4,-0.84375 3.9375,-0.765625 3.28125,-0.765625 3.0625,-0.765625 Z m 0,0"
             transform="translate(321.952,156.085)"
             id="path1189" />
        </g>
        <g
           transform="matrix(0.35277962,0,0,0.35277962,-63.589949,75.524419)"
           style="fill:#000000;fill-opacity:1"
           id="g1195">
          <path
             inkscape:connector-curvature="0"
             style="stroke:none;stroke-width:0"
             d="M 2.21875,22.96875 H 0.140625 v 0.546875 h 2.625 V -0.40625 h -2.625 v 0.5625 H 2.21875 Z m 0,0"
             transform="translate(331.914,136.159)"
             id="path1193" />
        </g>
      </g>
      <g
         id="g1229">
        <g
           transform="translate(0,1.0583333)"
           id="g1213">
          <path
             id="path1199"
             d="m 60.006158,124.1018 c 0.285396,-0.0933 0.488466,-0.33479 0.488466,-0.6147 0,-0.28539 -0.307349,-0.48297 -0.642141,-0.48297 -0.351256,0 -0.620187,0.20856 -0.620187,0.47749 0,0.11525 0.07684,0.18111 0.181117,0.18111 0.104279,0 0.175628,-0.0768 0.175628,-0.18111 0,-0.17014 -0.164652,-0.17014 -0.214047,-0.17014 0.104279,-0.17563 0.334791,-0.21954 0.461024,-0.21954 0.148186,0 0.34028,0.0768 0.34028,0.38968 0,0.0439 -0.01098,0.24697 -0.09879,0.40065 -0.104279,0.17014 -0.225024,0.18112 -0.312838,0.18112 -0.02744,0.005 -0.109768,0.011 -0.13721,0.011 -0.02744,0.005 -0.04939,0.011 -0.04939,0.0439 0,0.0384 0.02195,0.0384 0.08233,0.0384 h 0.153675 c 0.285395,0 0.417117,0.236 0.417117,0.58177 0,0.47749 -0.241489,0.57628 -0.395164,0.57628 -0.153675,0 -0.417117,-0.0604 -0.537862,-0.26345 0.120745,0.0165 0.230513,-0.0604 0.230513,-0.19209 0,-0.12623 -0.0933,-0.19758 -0.192094,-0.19758 -0.08781,0 -0.197582,0.0494 -0.197582,0.20307 0,0.31833 0.323815,0.54884 0.708002,0.54884 0.428094,0 0.74642,-0.31833 0.74642,-0.67507 0,-0.2854 -0.225024,-0.55982 -0.587257,-0.63666 z m 0,0"
             style="fill:#000000;fill-opacity:1;stroke:none;stroke-width:0"
             inkscape:connector-curvature="0" />
          <path
             id="path1201"
             d="m 61.909442,124.27743 c 0.02195,-0.0878 0.104279,-0.41163 0.345768,-0.41163 0.01646,0 0.104279,0 0.175628,0.0439 -0.09879,0.022 -0.164651,0.10428 -0.164651,0.19209 0,0.0549 0.03842,0.12075 0.131721,0.12075 0.07684,0 0.186605,-0.0604 0.186605,-0.20307 0,-0.18112 -0.20307,-0.23051 -0.323815,-0.23051 -0.20307,0 -0.323814,0.1866 -0.367721,0.26344 -0.08781,-0.23051 -0.27442,-0.26344 -0.378699,-0.26344 -0.362233,0 -0.565303,0.45004 -0.565303,0.53786 0,0.0384 0.03842,0.0384 0.04391,0.0384 0.02744,0 0.03842,-0.011 0.04391,-0.0384 0.120744,-0.37321 0.351256,-0.46103 0.472001,-0.46103 0.06586,0 0.186605,0.0329 0.186605,0.236 0,0.10977 -0.06037,0.34028 -0.186605,0.83424 -0.05488,0.21404 -0.181117,0.36223 -0.334792,0.36223 -0.02195,0 -0.09879,0 -0.175628,-0.0439 0.08781,-0.022 0.164652,-0.0933 0.164652,-0.19209 0,-0.0933 -0.07684,-0.12074 -0.126233,-0.12074 -0.109768,0 -0.192094,0.0878 -0.192094,0.20307 0,0.15916 0.17014,0.23051 0.323815,0.23051 0.236,0 0.362233,-0.24698 0.367722,-0.26344 0.04391,0.12623 0.170139,0.26344 0.378698,0.26344 0.362233,0 0.559815,-0.45005 0.559815,-0.53786 0,-0.0384 -0.02744,-0.0384 -0.03842,-0.0384 -0.03293,0 -0.03842,0.0165 -0.0494,0.0384 -0.115256,0.3787 -0.351257,0.46102 -0.461024,0.46102 -0.13721,0 -0.192094,-0.10977 -0.192094,-0.23051 0,-0.0768 0.01647,-0.15368 0.05488,-0.30735 z m 0,0"
             style="fill:#000000;fill-opacity:1;stroke:none;stroke-width:0"
             inkscape:connector-curvature="0" />
          <path
             id="path1203"
             d="m 64.950621,124.5299 h 0.976932 c 0.0494,0 0.115256,0 0.115256,-0.0713 0,-0.0659 -0.06586,-0.0659 -0.115256,-0.0659 h -0.976932 v -0.98242 c 0,-0.0494 0,-0.11526 -0.07135,-0.11526 -0.07135,0 -0.07135,0.0659 -0.07135,0.11526 v 0.98242 h -0.976932 c -0.0494,0 -0.115256,0 -0.115256,0.0659 0,0.0713 0.06586,0.0713 0.115256,0.0713 h 0.976932 v 0.98242 c 0,0.0494 0,0.11525 0.07135,0.11525 0.07135,0 0.07135,-0.0659 0.07135,-0.11525 z m 0,0"
             style="fill:#000000;fill-opacity:1;stroke:none;stroke-width:0"
             inkscape:connector-curvature="0" />
          <path
             id="path1205"
             d="m 68.048698,124.76041 v 0.30186 c 0,0.12623 -0.01098,0.16465 -0.268931,0.16465 h -0.07135 v 0.10977 c 0.142698,-0.011 0.323815,-0.011 0.472001,-0.011 0.148187,0 0.329303,0 0.47749,0.011 v -0.10977 h -0.07684 c -0.257954,0 -0.263442,-0.0384 -0.263442,-0.16465 v -0.30186 h 0.345771 v -0.10977 h -0.345768 v -1.59163 c 0,-0.0713 0,-0.0933 -0.06037,-0.0933 -0.02744,0 -0.03842,0 -0.06586,0.0439 l -1.075723,1.64102 v 0.10977 z m 0.01647,-0.10977 h -0.850699 l 0.850699,-1.30623 z m 0,0"
             style="fill:#000000;fill-opacity:1;stroke:none;stroke-width:0"
             inkscape:connector-curvature="0" />
          <path
             id="path1207"
             d="m 70.46873,124.00301 c 0.01646,-0.0494 0.01646,-0.0549 0.01646,-0.0823 0,-0.0604 -0.04939,-0.0933 -0.104279,-0.0933 -0.03293,0 -0.08781,0.022 -0.120745,0.0713 -0.0055,0.022 -0.03842,0.12624 -0.0494,0.1921 -0.02744,0.0878 -0.0494,0.1866 -0.07135,0.2799 l -0.159163,0.63117 c -0.01098,0.0494 -0.164652,0.29637 -0.395164,0.29637 -0.175628,0 -0.214047,-0.15367 -0.214047,-0.28539 0,-0.15917 0.06037,-0.3787 0.175628,-0.68605 0.05488,-0.1427 0.07135,-0.18112 0.07135,-0.25247 0,-0.15367 -0.109767,-0.28539 -0.285396,-0.28539 -0.334791,0 -0.461024,0.51042 -0.461024,0.53786 0,0.0384 0.03293,0.0384 0.03842,0.0384 0.03842,0 0.03842,-0.011 0.05488,-0.0659 0.09879,-0.32931 0.236,-0.43359 0.356745,-0.43359 0.02744,0 0.08781,0 0.08781,0.10977 0,0.0878 -0.03842,0.18112 -0.06037,0.24698 -0.142698,0.37321 -0.203071,0.57079 -0.203071,0.73544 0,0.31284 0.219536,0.41712 0.428094,0.41712 0.13721,0 0.252466,-0.0604 0.351257,-0.15916 -0.04391,0.18111 -0.08781,0.35674 -0.225024,0.54335 -0.0933,0.11525 -0.225024,0.21953 -0.384187,0.21953 -0.04939,0 -0.208558,-0.011 -0.26893,-0.14819 0.05488,0 0.104279,0 0.148186,-0.0439 0.03842,-0.0274 0.07135,-0.0768 0.07135,-0.1427 0,-0.10977 -0.0933,-0.12074 -0.126233,-0.12074 -0.08233,0 -0.197582,0.0549 -0.197582,0.22502 0,0.17563 0.153675,0.30735 0.37321,0.30735 0.356745,0 0.718979,-0.31833 0.817769,-0.71349 z m 0,0"
             style="fill:#000000;fill-opacity:1;stroke:none;stroke-width:0"
             inkscape:connector-curvature="0" />
          <path
             id="path1209"
             d="m 73.984456,124.18962 c 0.05488,0 0.120744,0 0.120744,-0.0659 0,-0.0714 -0.06586,-0.0714 -0.115256,-0.0714 h -2.096562 c -0.0494,0 -0.115256,0 -0.115256,0.0714 0,0.0659 0.06586,0.0659 0.115256,0.0659 z m 0.0055,0.68056 c 0.0494,0 0.115256,0 0.115256,-0.0714 0,-0.0659 -0.06586,-0.0659 -0.120744,-0.0659 h -2.091074 c -0.0494,0 -0.115256,0 -0.115256,0.0659 0,0.0714 0.06586,0.0714 0.115256,0.0714 z m 0,0"
             style="fill:#000000;fill-opacity:1;stroke:none;stroke-width:0"
             inkscape:connector-curvature="0" />
          <path
             id="path1211"
             d="m 76.290591,124.1018 c 0.285396,-0.0933 0.488466,-0.33479 0.488466,-0.6147 0,-0.28539 -0.307349,-0.48297 -0.642141,-0.48297 -0.351256,0 -0.620187,0.20856 -0.620187,0.47749 0,0.11525 0.07684,0.18111 0.181117,0.18111 0.104279,0 0.175628,-0.0768 0.175628,-0.18111 0,-0.17014 -0.164652,-0.17014 -0.214047,-0.17014 0.104279,-0.17563 0.334791,-0.21954 0.461024,-0.21954 0.148186,0 0.34028,0.0768 0.34028,0.38968 0,0.0439 -0.01098,0.24697 -0.09879,0.40065 -0.104279,0.17014 -0.225024,0.18112 -0.312838,0.18112 -0.02744,0.005 -0.109768,0.011 -0.13721,0.011 -0.02744,0.005 -0.04939,0.011 -0.04939,0.0439 0,0.0384 0.02195,0.0384 0.08233,0.0384 h 0.153675 c 0.285395,0 0.417117,0.236 0.417117,0.58177 0,0.47749 -0.241489,0.57628 -0.395164,0.57628 -0.153675,0 -0.417117,-0.0604 -0.537862,-0.26345 0.120745,0.0165 0.230513,-0.0604 0.230513,-0.19209 0,-0.12623 -0.0933,-0.19758 -0.192094,-0.19758 -0.08781,0 -0.197582,0.0494 -0.197582,0.20307 0,0.31833 0.323815,0.54884 0.708002,0.54884 0.428094,0 0.74642,-0.31833 0.74642,-0.67507 0,-0.2854 -0.225024,-0.55982 -0.587257,-0.63666 z m 0,0"
             style="fill:#000000;fill-opacity:1;stroke:none;stroke-width:0"
             inkscape:connector-curvature="0" />
        </g>
        <path
           inkscape:connector-curvature="0"
           style="fill:#000000;fill-opacity:1;stroke:none;stroke-width:0"
           d="m 59.435366,130.31694 0.37321,-0.36223 c 0.54335,-0.48298 0.751909,-0.66959 0.751909,-1.02084 0,-0.40066 -0.312838,-0.68056 -0.740932,-0.68056 -0.395164,0 -0.653118,0.32381 -0.653118,0.63665 0,0.19209 0.175629,0.19209 0.186605,0.19209 0.06037,0 0.181117,-0.0384 0.181117,-0.1866 0,-0.0878 -0.06586,-0.18112 -0.186605,-0.18112 -0.02744,0 -0.03293,0 -0.04391,0.005 0.07684,-0.23051 0.268931,-0.35675 0.472001,-0.35675 0.318326,0 0.466512,0.2854 0.466512,0.5708 0,0.2799 -0.170139,0.55432 -0.367721,0.77386 l -0.669583,0.74642 c -0.03842,0.0384 -0.03842,0.0494 -0.03842,0.13172 h 1.300747 l 0.0933,-0.60921 h -0.08233 c -0.02195,0.10428 -0.04391,0.25795 -0.08233,0.31284 -0.02195,0.0274 -0.252465,0.0274 -0.329303,0.0274 z m 0,0"
           id="path1215" />
        <path
           inkscape:connector-curvature="0"
           style="fill:#000000;fill-opacity:1;stroke:none;stroke-width:0"
           d="m 61.909442,129.52661 c 0.02195,-0.0878 0.104279,-0.41163 0.345768,-0.41163 0.01646,0 0.104279,0 0.175628,0.0439 -0.09879,0.022 -0.164651,0.10428 -0.164651,0.19209 0,0.0549 0.03842,0.12075 0.131721,0.12075 0.07684,0 0.186605,-0.0604 0.186605,-0.20307 0,-0.18112 -0.20307,-0.23051 -0.323815,-0.23051 -0.20307,0 -0.323814,0.1866 -0.367721,0.26344 -0.08781,-0.23051 -0.27442,-0.26344 -0.378699,-0.26344 -0.362233,0 -0.565303,0.45004 -0.565303,0.53786 0,0.0384 0.03842,0.0384 0.04391,0.0384 0.02744,0 0.03842,-0.011 0.04391,-0.0384 0.120744,-0.37321 0.351256,-0.46103 0.472001,-0.46103 0.06586,0 0.186605,0.0329 0.186605,0.236 0,0.10977 -0.06037,0.34028 -0.186605,0.83424 -0.05488,0.21404 -0.181117,0.36223 -0.334792,0.36223 -0.02195,0 -0.09879,0 -0.175628,-0.0439 0.08781,-0.022 0.164652,-0.0933 0.164652,-0.19209 0,-0.0933 -0.07684,-0.12074 -0.126233,-0.12074 -0.109768,0 -0.192094,0.0878 -0.192094,0.20307 0,0.15916 0.17014,0.23051 0.323815,0.23051 0.236,0 0.362233,-0.24698 0.367722,-0.26344 0.04391,0.12623 0.170139,0.26344 0.378698,0.26344 0.362233,0 0.559815,-0.45005 0.559815,-0.53786 0,-0.0384 -0.02744,-0.0384 -0.03842,-0.0384 -0.03293,0 -0.03842,0.0165 -0.0494,0.0384 -0.115256,0.3787 -0.351257,0.46102 -0.461024,0.46102 -0.13721,0 -0.192094,-0.10977 -0.192094,-0.23051 0,-0.0768 0.01647,-0.15368 0.05488,-0.30735 z m 0,0"
           id="path1217" />
        <path
           inkscape:connector-curvature="0"
           style="fill:#000000;fill-opacity:1;stroke:none;stroke-width:0"
           d="m 65.823274,129.77908 c 0.06037,0 0.126233,0 0.126233,-0.0713 0,-0.0659 -0.06586,-0.0659 -0.126233,-0.0659 h -1.893492 c -0.06037,0 -0.120745,0 -0.120745,0.0659 0,0.0713 0.06037,0.0713 0.120745,0.0713 z m 0,0"
           id="path1219" />
        <path
           inkscape:connector-curvature="0"
           style="fill:#000000;fill-opacity:1;stroke:none;stroke-width:0"
           d="m 68.033073,129.35098 c 0.285396,-0.0933 0.488466,-0.33479 0.488466,-0.6147 0,-0.28539 -0.307349,-0.48297 -0.642141,-0.48297 -0.351256,0 -0.620187,0.20856 -0.620187,0.47749 0,0.11525 0.07684,0.18111 0.181117,0.18111 0.104279,0 0.175628,-0.0768 0.175628,-0.18111 0,-0.17014 -0.164652,-0.17014 -0.214047,-0.17014 0.104279,-0.17563 0.334791,-0.21954 0.461024,-0.21954 0.148186,0 0.34028,0.0768 0.34028,0.38968 0,0.0439 -0.01098,0.24697 -0.09879,0.40065 -0.104279,0.17014 -0.225024,0.18112 -0.312838,0.18112 -0.02744,0.005 -0.109768,0.011 -0.13721,0.011 -0.02744,0.005 -0.04939,0.011 -0.04939,0.0439 0,0.0384 0.02195,0.0384 0.08233,0.0384 h 0.153675 c 0.285395,0 0.417117,0.236 0.417117,0.58177 0,0.47749 -0.241489,0.57628 -0.395164,0.57628 -0.153675,0 -0.417117,-0.0604 -0.537862,-0.26345 0.120745,0.0165 0.230513,-0.0604 0.230513,-0.19209 0,-0.12623 -0.0933,-0.19758 -0.192094,-0.19758 -0.08781,0 -0.197582,0.0494 -0.197582,0.20307 0,0.31833 0.323815,0.54884 0.708002,0.54884 0.428094,0 0.74642,-0.31833 0.74642,-0.67507 0,-0.2854 -0.225024,-0.55982 -0.587257,-0.63666 z m 0,0"
           id="path1221" />
        <path
           inkscape:connector-curvature="0"
           style="fill:#000000;fill-opacity:1;stroke:none;stroke-width:0"
           d="m 70.46873,129.25219 c 0.01646,-0.0494 0.01646,-0.0549 0.01646,-0.0823 0,-0.0604 -0.04939,-0.0933 -0.104279,-0.0933 -0.03293,0 -0.08781,0.022 -0.120745,0.0713 -0.0055,0.022 -0.03842,0.12624 -0.0494,0.1921 -0.02744,0.0878 -0.0494,0.1866 -0.07135,0.2799 l -0.159163,0.63117 c -0.01098,0.0494 -0.164652,0.29637 -0.395164,0.29637 -0.175628,0 -0.214047,-0.15367 -0.214047,-0.28539 0,-0.15917 0.06037,-0.3787 0.175628,-0.68605 0.05488,-0.1427 0.07135,-0.18112 0.07135,-0.25247 0,-0.15367 -0.109767,-0.28539 -0.285396,-0.28539 -0.334791,0 -0.461024,0.51042 -0.461024,0.53786 0,0.0384 0.03293,0.0384 0.03842,0.0384 0.03842,0 0.03842,-0.011 0.05488,-0.0659 0.09879,-0.32931 0.236,-0.43359 0.356745,-0.43359 0.02744,0 0.08781,0 0.08781,0.10977 0,0.0878 -0.03842,0.18112 -0.06037,0.24698 -0.142698,0.37321 -0.203071,0.57079 -0.203071,0.73544 0,0.31284 0.219536,0.41712 0.428094,0.41712 0.13721,0 0.252466,-0.0604 0.351257,-0.15916 -0.04391,0.18111 -0.08781,0.35674 -0.225024,0.54335 -0.0933,0.11525 -0.225024,0.21953 -0.384187,0.21953 -0.04939,0 -0.208558,-0.011 -0.26893,-0.14819 0.05488,0 0.104279,0 0.148186,-0.0439 0.03842,-0.0274 0.07135,-0.0768 0.07135,-0.1427 0,-0.10977 -0.0933,-0.12074 -0.126233,-0.12074 -0.08233,0 -0.197582,0.0549 -0.197582,0.22502 0,0.17563 0.153675,0.30735 0.37321,0.30735 0.356745,0 0.718979,-0.31833 0.817769,-0.71349 z m 0,0"
           id="path1223" />
        <path
           inkscape:connector-curvature="0"
           style="fill:#000000;fill-opacity:1;stroke:none;stroke-width:0"
           d="m 73.984456,129.4388 c 0.05488,0 0.120744,0 0.120744,-0.0659 0,-0.0713 -0.06586,-0.0713 -0.115256,-0.0713 h -2.096562 c -0.0494,0 -0.115256,0 -0.115256,0.0713 0,0.0659 0.06586,0.0659 0.115256,0.0659 z m 0.0055,0.68056 c 0.0494,0 0.115256,0 0.115256,-0.0713 0,-0.0659 -0.06586,-0.0659 -0.120744,-0.0659 h -2.091074 c -0.0494,0 -0.115256,0 -0.115256,0.0659 0,0.0713 0.06586,0.0713 0.115256,0.0713 z m 0,0"
           id="path1225" />
        <path
           inkscape:connector-curvature="0"
           style="fill:#000000;fill-opacity:1;stroke:none;stroke-width:0"
           d="m 75.719799,130.31694 0.37321,-0.36223 c 0.54335,-0.48298 0.751909,-0.66959 0.751909,-1.02084 0,-0.40066 -0.312838,-0.68056 -0.740932,-0.68056 -0.395164,0 -0.653118,0.32381 -0.653118,0.63665 0,0.19209 0.175629,0.19209 0.186605,0.19209 0.06037,0 0.181117,-0.0384 0.181117,-0.1866 0,-0.0878 -0.06586,-0.18112 -0.186605,-0.18112 -0.02744,0 -0.03293,0 -0.04391,0.005 0.07684,-0.23051 0.268931,-0.35675 0.472001,-0.35675 0.318326,0 0.466512,0.2854 0.466512,0.5708 0,0.2799 -0.170139,0.55432 -0.367721,0.77386 l -0.669583,0.74642 c -0.03842,0.0384 -0.03842,0.0494 -0.03842,0.13172 h 1.300747 l 0.0933,-0.60921 h -0.08233 c -0.02195,0.10428 -0.04391,0.25795 -0.08233,0.31284 -0.02195,0.0274 -0.252465,0.0274 -0.329303,0.0274 z m 0,0"
           id="path1227" />
      </g>
    </g>
  </g>
</svg>
