<?xml version="1.0" encoding="UTF-8" standalone="no"?>
<!-- Created with Inkscape (http://www.inkscape.org/) -->

<svg
   xmlns:dc="http://purl.org/dc/elements/1.1/"
   xmlns:cc="http://creativecommons.org/ns#"
   xmlns:rdf="http://www.w3.org/1999/02/22-rdf-syntax-ns#"
   xmlns:svg="http://www.w3.org/2000/svg"
   xmlns="http://www.w3.org/2000/svg"
   xmlns:sodipodi="http://sodipodi.sourceforge.net/DTD/sodipodi-0.dtd"
   xmlns:inkscape="http://www.inkscape.org/namespaces/inkscape"
   id="svg8"
   version="1.1"
   viewBox="0 0 23.67313 8.4391499"
   height="8.4391499mm"
   width="23.67313mm"
   inkscape:version="0.92.4 (5da689c313, 2019-01-14)"
   sodipodi:docname="system_to_matrix_geogebra_1.svg">
  <defs
     id="defs2" />
  <sodipodi:namedview
     id="base"
     pagecolor="#ffffff"
     bordercolor="#666666"
     borderopacity="1.0"
     inkscape:pageopacity="0.0"
     inkscape:pageshadow="2"
     inkscape:zoom="9.7235769"
     inkscape:cx="44.736624"
     inkscape:cy="15.948"
     inkscape:document-units="mm"
     inkscape:current-layer="layer1"
     showgrid="false"
     inkscape:window-width="1366"
     inkscape:window-height="705"
     inkscape:window-x="-8"
     inkscape:window-y="-8"
     inkscape:window-maximized="1"
     fit-margin-top="0"
     fit-margin-left="0"
     fit-margin-right="0"
     fit-margin-bottom="0" />
  <metadata
     id="metadata5">
    <rdf:RDF>
      <cc:Work
         rdf:about="">
        <dc:format>image/svg+xml</dc:format>
        <dc:type
           rdf:resource="http://purl.org/dc/dcmitype/StillImage" />
        <dc:title></dc:title>
      </cc:Work>
    </rdf:RDF>
  </metadata>
  <g
     inkscape:label="Layer 1"
     inkscape:groupmode="layer"
     id="layer1"
     transform="translate(-30.805072,-123.41522)">
    <path
       id="path1026"
       d="m 34.534043,125.15694 c 0.285396,-0.0933 0.488466,-0.33479 0.488466,-0.6147 0,-0.28539 -0.307349,-0.48297 -0.642141,-0.48297 -0.351256,0 -0.620187,0.20856 -0.620187,0.47749 0,0.11525 0.07684,0.18111 0.181117,0.18111 0.104279,0 0.175628,-0.0768 0.175628,-0.18111 0,-0.17014 -0.164652,-0.17014 -0.214047,-0.17014 0.104279,-0.17563 0.334791,-0.21954 0.461024,-0.21954 0.148186,0 0.34028,0.0768 0.34028,0.38968 0,0.0439 -0.01098,0.24697 -0.09879,0.40065 -0.104279,0.17014 -0.225024,0.18112 -0.312838,0.18112 -0.02744,0.005 -0.109768,0.011 -0.13721,0.011 -0.02744,0.005 -0.04939,0.011 -0.04939,0.0439 0,0.0384 0.02195,0.0384 0.08233,0.0384 h 0.153675 c 0.285395,0 0.417117,0.236 0.417117,0.58177 0,0.47749 -0.241489,0.57628 -0.395164,0.57628 -0.153675,0 -0.417117,-0.0604 -0.537862,-0.26345 0.120745,0.0165 0.230513,-0.0604 0.230513,-0.19209 0,-0.12623 -0.0933,-0.19758 -0.192094,-0.19758 -0.08781,0 -0.197582,0.0494 -0.197582,0.20307 0,0.31833 0.323815,0.54884 0.708002,0.54884 0.428094,0 0.74642,-0.31833 0.74642,-0.67507 0,-0.2854 -0.225024,-0.55982 -0.587257,-0.63666 z m 0,0"
       style="fill:#0072b2;fill-opacity:1;stroke:none;stroke-width:0"
       inkscape:connector-curvature="0" />
    <path
       id="path1032"
       d="m 42.576583,125.81555 v 0.30186 c 0,0.12623 -0.01098,0.16465 -0.268931,0.16465 h -0.07135 v 0.10977 c 0.142698,-0.011 0.323815,-0.011 0.472001,-0.011 0.148187,0 0.329303,0 0.47749,0.011 v -0.10977 h -0.07684 c -0.257954,0 -0.263442,-0.0384 -0.263442,-0.16465 v -0.30186 h 0.345771 v -0.10977 h -0.345768 v -1.59163 c 0,-0.0713 0,-0.0933 -0.06037,-0.0933 -0.02744,0 -0.03842,0 -0.06586,0.0439 l -1.075723,1.64102 v 0.10977 z m 0.01647,-0.10977 h -0.850699 l 0.850699,-1.30623 z m 0,0"
       style="fill:#d55e00;fill-opacity:1;stroke:none;stroke-width:0"
       inkscape:connector-curvature="0" />
    <path
       id="path1038"
       d="m 50.818476,125.15694 c 0.285396,-0.0933 0.488466,-0.33479 0.488466,-0.6147 0,-0.28539 -0.307349,-0.48297 -0.642141,-0.48297 -0.351256,0 -0.620187,0.20856 -0.620187,0.47749 0,0.11525 0.07684,0.18111 0.181117,0.18111 0.104279,0 0.175628,-0.0768 0.175628,-0.18111 0,-0.17014 -0.164652,-0.17014 -0.214047,-0.17014 0.104279,-0.17563 0.334791,-0.21954 0.461024,-0.21954 0.148186,0 0.34028,0.0768 0.34028,0.38968 0,0.0439 -0.01098,0.24697 -0.09879,0.40065 -0.104279,0.17014 -0.225024,0.18112 -0.312838,0.18112 -0.02744,0.005 -0.109768,0.011 -0.13721,0.011 -0.02744,0.005 -0.04939,0.011 -0.04939,0.0439 0,0.0384 0.02195,0.0384 0.08233,0.0384 h 0.153675 c 0.285395,0 0.417117,0.236 0.417117,0.58177 0,0.47749 -0.241489,0.57628 -0.395164,0.57628 -0.153675,0 -0.417117,-0.0604 -0.537862,-0.26345 0.120745,0.0165 0.230513,-0.0604 0.230513,-0.19209 0,-0.12623 -0.0933,-0.19758 -0.192094,-0.19758 -0.08781,0 -0.197582,0.0494 -0.197582,0.20307 0,0.31833 0.323815,0.54884 0.708002,0.54884 0.428094,0 0.74642,-0.31833 0.74642,-0.67507 0,-0.2854 -0.225024,-0.55982 -0.587257,-0.63666 z m 0,0"
       style="fill:#009e73;fill-opacity:1;stroke:none;stroke-width:0"
       inkscape:connector-curvature="0" />
    <path
       id="path1040"
       d="m 33.963251,130.31375 0.37321,-0.36223 c 0.54335,-0.48298 0.751909,-0.66959 0.751909,-1.02084 0,-0.40066 -0.312838,-0.68056 -0.740932,-0.68056 -0.395164,0 -0.653118,0.32381 -0.653118,0.63665 0,0.19209 0.175629,0.19209 0.186605,0.19209 0.06037,0 0.181117,-0.0384 0.181117,-0.1866 0,-0.0878 -0.06586,-0.18112 -0.186605,-0.18112 -0.02744,0 -0.03293,0 -0.04391,0.005 0.07684,-0.23051 0.268931,-0.35675 0.472001,-0.35675 0.318326,0 0.466512,0.2854 0.466512,0.5708 0,0.2799 -0.170139,0.55432 -0.367721,0.77386 l -0.669583,0.74642 c -0.03842,0.0384 -0.03842,0.0494 -0.03842,0.13172 h 1.300747 l 0.0933,-0.60921 h -0.08233 c -0.02195,0.10428 -0.04391,0.25795 -0.08233,0.31284 -0.02195,0.0274 -0.252465,0.0274 -0.329303,0.0274 z m 0,0"
       style="fill:#0072b2;fill-opacity:1;stroke:none;stroke-width:0"
       inkscape:connector-curvature="0" />
    <path
       id="path1044"
       d="m 40.351159,129.77589 c 0.06037,0 0.126233,0 0.126233,-0.0713 0,-0.0659 -0.06586,-0.0659 -0.126233,-0.0659 h -1.893492 c -0.06037,0 -0.120745,0 -0.120745,0.0659 0,0.0713 0.06037,0.0713 0.120745,0.0713 z m 0,0"
       style="fill:#d55e00;fill-opacity:1;stroke:none;stroke-width:0"
       inkscape:connector-curvature="0" />
    <path
       id="path1046"
       d="m 42.560958,129.34779 c 0.285396,-0.0933 0.488466,-0.33479 0.488466,-0.6147 0,-0.28539 -0.307349,-0.48297 -0.642141,-0.48297 -0.351256,0 -0.620187,0.20856 -0.620187,0.47749 0,0.11525 0.07684,0.18111 0.181117,0.18111 0.104279,0 0.175628,-0.0768 0.175628,-0.18111 0,-0.17014 -0.164652,-0.17014 -0.214047,-0.17014 0.104279,-0.17563 0.334791,-0.21954 0.461024,-0.21954 0.148186,0 0.34028,0.0768 0.34028,0.38968 0,0.0439 -0.01098,0.24697 -0.09879,0.40065 -0.104279,0.17014 -0.225024,0.18112 -0.312838,0.18112 -0.02744,0.005 -0.109768,0.011 -0.13721,0.011 -0.02744,0.005 -0.04939,0.011 -0.04939,0.0439 0,0.0384 0.02195,0.0384 0.08233,0.0384 h 0.153675 c 0.285395,0 0.417117,0.236 0.417117,0.58177 0,0.47749 -0.241489,0.57628 -0.395164,0.57628 -0.153675,0 -0.417117,-0.0604 -0.537862,-0.26345 0.120745,0.0165 0.230513,-0.0604 0.230513,-0.19209 0,-0.12623 -0.0933,-0.19758 -0.192094,-0.19758 -0.08781,0 -0.197582,0.0494 -0.197582,0.20307 0,0.31833 0.323815,0.54884 0.708002,0.54884 0.428094,0 0.74642,-0.31833 0.74642,-0.67507 0,-0.2854 -0.225024,-0.55982 -0.587257,-0.63666 z m 0,0"
       style="fill:#d55e00;fill-opacity:1;stroke:none;stroke-width:0"
       inkscape:connector-curvature="0" />
    <path
       id="path1052"
       d="m 50.247684,130.31375 0.37321,-0.36223 c 0.54335,-0.48298 0.751909,-0.66959 0.751909,-1.02084 0,-0.40066 -0.312838,-0.68056 -0.740932,-0.68056 -0.395164,0 -0.653118,0.32381 -0.653118,0.63665 0,0.19209 0.175629,0.19209 0.186605,0.19209 0.06037,0 0.181117,-0.0384 0.181117,-0.1866 0,-0.0878 -0.06586,-0.18112 -0.186605,-0.18112 -0.02744,0 -0.03293,0 -0.04391,0.005 0.07684,-0.23051 0.268931,-0.35675 0.472001,-0.35675 0.318326,0 0.466512,0.2854 0.466512,0.5708 0,0.2799 -0.170139,0.55432 -0.367721,0.77386 l -0.669583,0.74642 c -0.03842,0.0384 -0.03842,0.0494 -0.03842,0.13172 h 1.300747 l 0.0933,-0.60921 h -0.08233 c -0.02195,0.10428 -0.04391,0.25795 -0.08233,0.31284 -0.02195,0.0274 -0.252465,0.0274 -0.329303,0.0274 z m 0,0"
       style="fill:#009e73;fill-opacity:1;stroke:none;stroke-width:0"
       inkscape:connector-curvature="0" />
  </g>
</svg>
