<?xml version="1.0" encoding="UTF-8" standalone="no"?>
<!-- Created with Inkscape (http://www.inkscape.org/) -->

<svg
   xmlns:dc="http://purl.org/dc/elements/1.1/"
   xmlns:cc="http://creativecommons.org/ns#"
   xmlns:rdf="http://www.w3.org/1999/02/22-rdf-syntax-ns#"
   xmlns:svg="http://www.w3.org/2000/svg"
   xmlns="http://www.w3.org/2000/svg"
   xmlns:sodipodi="http://sodipodi.sourceforge.net/DTD/sodipodi-0.dtd"
   xmlns:inkscape="http://www.inkscape.org/namespaces/inkscape"
   id="svg7907"
   version="1.1"
   inkscape:version="0.48.2 r9819"
   width="277.125"
   height="175.4375"
   xml:space="preserve"
   sodipodi:docname="T_3_4_key.pdf"><metadata
     id="metadata7913"><rdf:RDF><cc:Work
         rdf:about=""><dc:format>image/svg+xml</dc:format><dc:type
           rdf:resource="http://purl.org/dc/dcmitype/StillImage" /><dc:title></dc:title></cc:Work></rdf:RDF></metadata><defs
     id="defs7911"><clipPath
       clipPathUnits="userSpaceOnUse"
       id="clipPath7921"><path
         d="m 0,-0.1 612.1,0 0,792.1 L 0,792 0,-0.1 z"
         clip-rule="evenodd"
         id="path7923"
         inkscape:connector-curvature="0" /></clipPath><clipPath
       clipPathUnits="userSpaceOnUse"
       id="clipPath8001"><path
         d="m 112.6,639.7 32.9,0 0,15 -32.9,0 0,-15 z"
         clip-rule="evenodd"
         id="path8003"
         inkscape:connector-curvature="0" /></clipPath><clipPath
       clipPathUnits="userSpaceOnUse"
       id="clipPath8033"><path
         d="m 0,-0.1 612.1,0 0,792.1 L 0,792 0,-0.1 z"
         clip-rule="evenodd"
         id="path8035"
         inkscape:connector-curvature="0" /></clipPath><clipPath
       clipPathUnits="userSpaceOnUse"
       id="clipPath8047"><path
         d="m 360.8,639.5 41.2,0 0,15.5 -41.2,0 0,-15.5 z"
         clip-rule="evenodd"
         id="path8049"
         inkscape:connector-curvature="0" /></clipPath><clipPath
       clipPathUnits="userSpaceOnUse"
       id="clipPath8091"><path
         d="m 0,-0.1 612.1,0 0,792.1 L 0,792 0,-0.1 z"
         clip-rule="evenodd"
         id="path8093"
         inkscape:connector-curvature="0" /></clipPath><clipPath
       clipPathUnits="userSpaceOnUse"
       id="clipPath8105"><path
         d="m 112.6,617.4 24,0 0,15 -24,0 0,-15 z"
         clip-rule="evenodd"
         id="path8107"
         inkscape:connector-curvature="0" /></clipPath><clipPath
       clipPathUnits="userSpaceOnUse"
       id="clipPath8131"><path
         d="m 0,-0.1 612.1,0 0,792.1 L 0,792 0,-0.1 z"
         clip-rule="evenodd"
         id="path8133"
         inkscape:connector-curvature="0" /></clipPath><clipPath
       clipPathUnits="userSpaceOnUse"
       id="clipPath8145"><path
         d="m 360.8,617.2 32.1,0 0,15.4 -32.1,0 0,-15.4 z"
         clip-rule="evenodd"
         id="path8147"
         inkscape:connector-curvature="0" /></clipPath><clipPath
       clipPathUnits="userSpaceOnUse"
       id="clipPath8183"><path
         d="m 0,-0.1 612.1,0 0,792.1 L 0,792 0,-0.1 z"
         clip-rule="evenodd"
         id="path8185"
         inkscape:connector-curvature="0" /></clipPath><clipPath
       clipPathUnits="userSpaceOnUse"
       id="clipPath8263"><path
         d="m 77.2,464 38.9,0 0,13.7 -38.9,0 0,-13.7 z"
         clip-rule="evenodd"
         id="path8265"
         inkscape:connector-curvature="0" /></clipPath><clipPath
       clipPathUnits="userSpaceOnUse"
       id="clipPath8301"><path
         d="m 0,-0.1 612.1,0 0,792.1 L 0,792 0,-0.1 z"
         clip-rule="evenodd"
         id="path8303"
         inkscape:connector-curvature="0" /></clipPath><clipPath
       clipPathUnits="userSpaceOnUse"
       id="clipPath8329"><path
         d="m 275.2,418.9 40.4,0 0,31.1 -40.4,0 0,-31.1 z"
         clip-rule="evenodd"
         id="path8331"
         inkscape:connector-curvature="0" /></clipPath><clipPath
       clipPathUnits="userSpaceOnUse"
       id="clipPath8369"><path
         d="m 0,-0.1 612.1,0 0,792.1 L 0,792 0,-0.1 z"
         clip-rule="evenodd"
         id="path8371"
         inkscape:connector-curvature="0" /></clipPath><clipPath
       clipPathUnits="userSpaceOnUse"
       id="clipPath8389"><path
         d="m 102.8,405 38.8,0 0,13.8 -38.8,0 0,-13.8 z"
         clip-rule="evenodd"
         id="path8391"
         inkscape:connector-curvature="0" /></clipPath><clipPath
       clipPathUnits="userSpaceOnUse"
       id="clipPath8427"><path
         d="m 0,-0.1 612.1,0 0,792.1 L 0,792 0,-0.1 z"
         clip-rule="evenodd"
         id="path8429"
         inkscape:connector-curvature="0" /></clipPath><clipPath
       clipPathUnits="userSpaceOnUse"
       id="clipPath8461"><path
         d="m 112.6,349.2 63.3,0 0,13.8 -63.3,0 0,-13.8 z"
         clip-rule="evenodd"
         id="path8463"
         inkscape:connector-curvature="0" /></clipPath><clipPath
       clipPathUnits="userSpaceOnUse"
       id="clipPath8505"><path
         d="m 0,-0.1 612.1,0 0,792.1 L 0,792 0,-0.1 z"
         clip-rule="evenodd"
         id="path8507"
         inkscape:connector-curvature="0" /></clipPath><clipPath
       clipPathUnits="userSpaceOnUse"
       id="clipPath8563"><path
         d="m 162.1,88.6 107.9,0 0,100.7 -107.9,0 0,-100.7 z"
         clip-rule="evenodd"
         id="path8565"
         inkscape:connector-curvature="0" /></clipPath><clipPath
       clipPathUnits="userSpaceOnUse"
       id="clipPath8849"><path
         d="m 162.1,89.2 107.3,0 0,100.1 -107.3,0 0,-100.1 z"
         clip-rule="evenodd"
         id="path8851"
         inkscape:connector-curvature="0" /></clipPath><clipPath
       clipPathUnits="userSpaceOnUse"
       id="clipPath8881"><path
         d="m 0,-0.1 612.1,0 0,792.1 L 0,792 0,-0.1 z"
         clip-rule="evenodd"
         id="path8883"
         inkscape:connector-curvature="0" /></clipPath><clipPath
       clipPathUnits="userSpaceOnUse"
       id="clipPath8903"><path
         d="m 342.1,88.6 107.9,0 0,100.7 -107.9,0 0,-100.7 z"
         clip-rule="evenodd"
         id="path8905"
         inkscape:connector-curvature="0" /></clipPath><clipPath
       clipPathUnits="userSpaceOnUse"
       id="clipPath9239"><path
         d="m 342.1,89.2 107.3,0 0,100.1 -107.3,0 0,-100.1 z"
         clip-rule="evenodd"
         id="path9241"
         inkscape:connector-curvature="0" /></clipPath><clipPath
       clipPathUnits="userSpaceOnUse"
       id="clipPath9271"><path
         d="m 0,-0.1 612.1,0 0,792.1 L 0,792 0,-0.1 z"
         clip-rule="evenodd"
         id="path9273"
         inkscape:connector-curvature="0" /></clipPath><clipPath
       clipPathUnits="userSpaceOnUse"
       id="clipPath9291"><path
         d="m 359.7,223.2 216.1,0 0,139.7 -216.1,0 0,-139.7 z"
         clip-rule="evenodd"
         id="path9293"
         inkscape:connector-curvature="0" /></clipPath><clipPath
       clipPathUnits="userSpaceOnUse"
       id="clipPath9699"><path
         d="m 359.6,382.3 217.5,0 0,90.1 -217.5,0 0,-90.1 z"
         clip-rule="evenodd"
         id="path9701"
         inkscape:connector-curvature="0" /></clipPath><clipPath
       clipPathUnits="userSpaceOnUse"
       id="clipPath9925"><path
         d="m 371,393.7 206.1,0 0,78.7 -206.1,0 0,-78.7 z"
         clip-rule="evenodd"
         id="path9927"
         inkscape:connector-curvature="0" /></clipPath><clipPath
       clipPathUnits="userSpaceOnUse"
       id="clipPath9937"><path
         d="m 359.6,382.3 217.5,0 0,90.1 -217.5,0 0,-90.1 z"
         clip-rule="evenodd"
         id="path9939"
         inkscape:connector-curvature="0" /></clipPath><clipPath
       clipPathUnits="userSpaceOnUse"
       id="clipPath9963"><path
         d="m 371,393.7 206.1,0 0,78.7 -206.1,0 0,-78.7 z"
         clip-rule="evenodd"
         id="path9965"
         inkscape:connector-curvature="0" /></clipPath></defs><sodipodi:namedview
     pagecolor="#ffffff"
     bordercolor="#666666"
     borderopacity="1"
     objecttolerance="10"
     gridtolerance="10"
     guidetolerance="10"
     inkscape:pageopacity="0"
     inkscape:pageshadow="2"
     inkscape:window-width="1440"
     inkscape:window-height="850"
     id="namedview7909"
     showgrid="false"
     fit-margin-top="0"
     fit-margin-left="0"
     fit-margin-right="0"
     fit-margin-bottom="0"
     inkscape:zoom="2.5432669"
     inkscape:cx="138.5625"
     inkscape:cy="87.71875"
     inkscape:window-x="-8"
     inkscape:window-y="-8"
     inkscape:window-maximized="1"
     inkscape:current-layer="g7915" /><g
     id="g7915"
     inkscape:groupmode="layer"
     inkscape:label="T_3_4_key"
     transform="matrix(1.25,0,0,-1.25,-799.01109,551.14917)"><g
       id="g11159"
       style="stroke:#808080;stroke-opacity:0.50196081"><g
         transform="translate(282.40887,77.819334)"
         id="g9295"
         style="stroke:#808080;stroke-opacity:0.50196081"><path
           inkscape:connector-curvature="0"
           id="path9297"
           style="fill:none;stroke:#808080;stroke-width:0.40000001000000002;stroke-linecap:butt;stroke-linejoin:miter;stroke-miterlimit:10;stroke-opacity:0.50196081;stroke-dasharray:0.90000000000000002, 0.90000000000000002;stroke-dashoffset:0"
           d="m 377.8,362.9 0,-139.7" /></g><g
         transform="translate(282.40887,77.819334)"
         id="g9299"
         style="stroke:#808080;stroke-opacity:0.50196081"><path
           inkscape:connector-curvature="0"
           id="path9301"
           style="fill:none;stroke:#808080;stroke-width:0.40000001000000002;stroke-linecap:butt;stroke-linejoin:miter;stroke-miterlimit:10;stroke-opacity:0.50196081;stroke-dasharray:0.90000000000000002, 0.90000000000000002;stroke-dashoffset:0"
           d="m 413.6,362.9 0,-139.7" /></g><g
         transform="translate(282.40887,77.819334)"
         id="g9303"
         style="stroke:#808080;stroke-opacity:0.50196081"><path
           inkscape:connector-curvature="0"
           id="path9305"
           style="fill:none;stroke:#808080;stroke-width:0.40000001000000002;stroke-linecap:butt;stroke-linejoin:miter;stroke-miterlimit:10;stroke-opacity:0.50196081;stroke-dasharray:0.90000000000000002, 0.90000000000000002;stroke-dashoffset:0"
           d="m 431.7,362.9 0,-139.7" /></g><g
         transform="translate(282.40887,77.819334)"
         id="g9307"
         style="stroke:#808080;stroke-opacity:0.50196081"><path
           inkscape:connector-curvature="0"
           id="path9309"
           style="fill:none;stroke:#808080;stroke-width:0.40000001000000002;stroke-linecap:butt;stroke-linejoin:miter;stroke-miterlimit:10;stroke-opacity:0.50196081;stroke-dasharray:0.90000000000000002, 0.90000000000000002;stroke-dashoffset:0"
           d="m 449.8,362.9 0,-139.7" /></g><g
         transform="translate(282.40887,77.819334)"
         id="g9311"
         style="stroke:#808080;stroke-opacity:0.50196081"><path
           inkscape:connector-curvature="0"
           id="path9313"
           style="fill:none;stroke:#808080;stroke-width:0.40000001000000002;stroke-linecap:butt;stroke-linejoin:miter;stroke-miterlimit:10;stroke-opacity:0.50196081;stroke-dasharray:0.90000000000000002, 0.90000000000000002;stroke-dashoffset:0"
           d="m 467.9,362.9 0,-139.7" /></g><g
         transform="translate(282.40887,77.819334)"
         id="g9315"
         style="stroke:#808080;stroke-opacity:0.50196081"><path
           inkscape:connector-curvature="0"
           id="path9317"
           style="fill:none;stroke:#808080;stroke-width:0.40000001000000002;stroke-linecap:butt;stroke-linejoin:miter;stroke-miterlimit:10;stroke-opacity:0.50196081;stroke-dasharray:0.90000000000000002, 0.90000000000000002;stroke-dashoffset:0"
           d="m 485.6,362.9 0,-139.7" /></g><g
         transform="translate(282.40887,77.819334)"
         id="g9319"
         style="stroke:#808080;stroke-opacity:0.50196081"><path
           inkscape:connector-curvature="0"
           id="path9321"
           style="fill:none;stroke:#808080;stroke-width:0.40000001000000002;stroke-linecap:butt;stroke-linejoin:miter;stroke-miterlimit:10;stroke-opacity:0.50196081;stroke-dasharray:0.90000000000000002, 0.90000000000000002;stroke-dashoffset:0"
           d="m 503.7,362.9 0,-139.7" /></g><g
         transform="translate(282.40887,77.819334)"
         id="g9323"
         style="stroke:#808080;stroke-opacity:0.50196081"><path
           inkscape:connector-curvature="0"
           id="path9325"
           style="fill:none;stroke:#808080;stroke-width:0.40000001000000002;stroke-linecap:butt;stroke-linejoin:miter;stroke-miterlimit:10;stroke-opacity:0.50196081;stroke-dasharray:0.90000000000000002, 0.90000000000000002;stroke-dashoffset:0"
           d="m 521.8,362.9 0,-139.7" /></g><g
         transform="translate(282.40887,77.819334)"
         id="g9327"
         style="stroke:#808080;stroke-opacity:0.50196081"><path
           inkscape:connector-curvature="0"
           id="path9329"
           style="fill:none;stroke:#808080;stroke-width:0.40000001000000002;stroke-linecap:butt;stroke-linejoin:miter;stroke-miterlimit:10;stroke-opacity:0.50196081;stroke-dasharray:0.90000000000000002, 0.90000000000000002;stroke-dashoffset:0"
           d="m 539.9,362.9 0,-139.7" /></g><g
         transform="translate(282.40887,77.819334)"
         id="g9331"
         style="stroke:#808080;stroke-opacity:0.50196081"><path
           inkscape:connector-curvature="0"
           id="path9333"
           style="fill:none;stroke:#808080;stroke-width:0.40000001000000002;stroke-linecap:butt;stroke-linejoin:miter;stroke-miterlimit:10;stroke-opacity:0.50196081;stroke-dasharray:0.90000000000000002, 0.90000000000000002;stroke-dashoffset:0"
           d="m 557.6,362.9 0,-139.7" /></g></g><g
       id="g9339"
       transform="translate(282.40887,77.819334)"><path
         d="m 359.7,236 216,0"
         style="fill:none;stroke:#9999ff;stroke-width:0.40000001;stroke-linecap:butt;stroke-linejoin:miter;stroke-miterlimit:10;stroke-opacity:1;stroke-dasharray:none"
         id="path9341"
         inkscape:connector-curvature="0" /></g><g
       id="g9343"
       transform="translate(282.40887,77.819334)"
       style="stroke:#808080;stroke-opacity:0.50196081"><path
         d="m 359.7,248.8 216,0"
         style="fill:none;stroke:#808080;stroke-width:0.40000001000000002;stroke-linecap:butt;stroke-linejoin:miter;stroke-miterlimit:10;stroke-opacity:0.50196081;stroke-dasharray:0.90000000000000002, 0.90000000000000002;stroke-dashoffset:0"
         id="path9345"
         inkscape:connector-curvature="0" /></g><g
       id="g9347"
       transform="translate(282.40887,77.819334)"
       style="stroke:#808080;stroke-opacity:0.50196081"><path
         d="m 359.7,261.1 216,0"
         style="fill:none;stroke:#808080;stroke-width:0.40000001000000002;stroke-linecap:butt;stroke-linejoin:miter;stroke-miterlimit:10;stroke-opacity:0.50196081;stroke-dasharray:none"
         id="path9349"
         inkscape:connector-curvature="0" /></g><g
       id="g9351"
       transform="translate(282.40887,77.819334)"
       style="stroke:#808080;stroke-opacity:0.50196081"><path
         d="m 359.7,273.9 216,0"
         style="fill:none;stroke:#808080;stroke-width:0.40000001000000002;stroke-linecap:butt;stroke-linejoin:miter;stroke-miterlimit:10;stroke-opacity:0.50196081;stroke-dasharray:0.90000000000000002, 0.90000000000000002;stroke-dashoffset:0"
         id="path9353"
         inkscape:connector-curvature="0" /></g><g
       id="g9355"
       transform="translate(282.40887,77.819334)"
       style="stroke:#808080;stroke-opacity:0.50196081"><path
         d="m 359.7,286.7 216,0"
         style="fill:none;stroke:#808080;stroke-width:0.40000001000000002;stroke-linecap:butt;stroke-linejoin:miter;stroke-miterlimit:10;stroke-opacity:0.50196081;stroke-dasharray:none"
         id="path9357"
         inkscape:connector-curvature="0" /></g><g
       id="g9359"
       transform="translate(282.40887,77.819334)"
       style="stroke:#808080;stroke-opacity:0.50196081"><path
         d="m 359.7,299.4 216,0"
         style="fill:none;stroke:#808080;stroke-width:0.40000001000000002;stroke-linecap:butt;stroke-linejoin:miter;stroke-miterlimit:10;stroke-opacity:0.50196081;stroke-dasharray:0.90000000000000002, 0.90000000000000002;stroke-dashoffset:0"
         id="path9361"
         inkscape:connector-curvature="0" /></g><g
       id="g9363"
       transform="translate(282.40887,77.819334)"
       style="stroke:#808080;stroke-opacity:0.50196081"><path
         d="m 359.7,312.2 216,0"
         style="fill:none;stroke:#808080;stroke-width:0.40000001000000002;stroke-linecap:butt;stroke-linejoin:miter;stroke-miterlimit:10;stroke-opacity:0.50196081;stroke-dasharray:none"
         id="path9365"
         inkscape:connector-curvature="0" /></g><g
       id="g9367"
       transform="translate(282.40887,77.819334)"
       style="stroke:#808080;stroke-opacity:0.50196081"><path
         d="m 359.7,325 216,0"
         style="fill:none;stroke:#808080;stroke-width:0.40000001000000002;stroke-linecap:butt;stroke-linejoin:miter;stroke-miterlimit:10;stroke-opacity:0.50196081;stroke-dasharray:0.90000000000000002, 0.90000000000000002;stroke-dashoffset:0"
         id="path9369"
         inkscape:connector-curvature="0" /></g><g
       id="g9371"
       transform="translate(282.40887,77.819334)"
       style="stroke:#808080;stroke-opacity:0.50196081"><path
         d="m 359.7,337.3 216,0"
         style="fill:none;stroke:#808080;stroke-width:0.40000001000000002;stroke-linecap:butt;stroke-linejoin:miter;stroke-miterlimit:10;stroke-opacity:0.50196081;stroke-dasharray:none"
         id="path9373"
         inkscape:connector-curvature="0" /></g><g
       id="g9375"
       transform="translate(282.40887,77.819334)"
       style="stroke:#808080;stroke-opacity:0.50196081"><path
         d="m 359.7,350.1 216,0"
         style="fill:none;stroke:#808080;stroke-width:0.40000001000000002;stroke-linecap:butt;stroke-linejoin:miter;stroke-miterlimit:10;stroke-opacity:0.50196081;stroke-dasharray:0.90000000000000002, 0.90000000000000002;stroke-dashoffset:0"
         id="path9377"
         inkscape:connector-curvature="0" /></g><g
       id="g9379"
       transform="translate(282.40887,77.819334)"
       style="fill:#666666"><text
         transform="matrix(0.95632,0,0,-1,373.8,225.9)"
         id="text9381"
         style="fill:#666666"><tspan
           style="font-size:9.30000019000000040px;font-variant:normal;font-weight:normal;writing-mode:lr-tb;fill:#666666;fill-opacity:1;fill-rule:nonzero;stroke:none;font-family:Times New Roman;-inkscape-font-specification:TimesNewRomanPSMT"
           x="0 3.2456999"
           y="0"
           sodipodi:role="line"
           id="tspan9383">-5</tspan></text>
</g><g
       id="g9385"
       transform="translate(282.40887,77.819334)"
       style="fill:#666666"><text
         transform="matrix(0.95632,0,0,-1,411.4,225.9)"
         id="text9387"
         style="fill:#666666"><tspan
           style="font-size:9.30000019000000040px;font-variant:normal;font-weight:normal;writing-mode:lr-tb;fill:#666666;fill-opacity:1;fill-rule:nonzero;stroke:none;font-family:Times New Roman;-inkscape-font-specification:TimesNewRomanPSMT"
           x="0"
           y="0"
           id="tspan9389">5</tspan></text>
</g><g
       id="g9391"
       transform="translate(282.40887,77.819334)"
       style="fill:#666666"><text
         transform="matrix(0.95632,0,0,-1,426.8,225.9)"
         id="text9393"
         style="fill:#666666"><tspan
           style="font-size:9.30000019000000040px;font-variant:normal;font-weight:normal;writing-mode:lr-tb;fill:#666666;fill-opacity:1;fill-rule:nonzero;stroke:none;font-family:Times New Roman;-inkscape-font-specification:TimesNewRomanPSMT"
           x="0 5.1243"
           y="0"
           sodipodi:role="line"
           id="tspan9395">10</tspan></text>
</g><g
       id="g9397"
       transform="translate(282.40887,77.819334)"
       style="fill:#666666"><text
         transform="matrix(0.95632,0,0,-1,444.9,225.9)"
         id="text9399"
         style="fill:#666666"><tspan
           style="font-size:9.30000019000000040px;font-variant:normal;font-weight:normal;writing-mode:lr-tb;fill:#666666;fill-opacity:1;fill-rule:nonzero;stroke:none;font-family:Times New Roman;-inkscape-font-specification:TimesNewRomanPSMT"
           x="0 5.1243"
           y="0"
           sodipodi:role="line"
           id="tspan9401">15</tspan></text>
</g><g
       id="g9403"
       transform="translate(282.40887,77.819334)"
       style="fill:#666666"><text
         transform="matrix(0.95632,0,0,-1,463.1,225.9)"
         id="text9405"
         style="fill:#666666"><tspan
           style="font-size:9.30000019000000040px;font-variant:normal;font-weight:normal;writing-mode:lr-tb;fill:#666666;fill-opacity:1;fill-rule:nonzero;stroke:none;font-family:Times New Roman;-inkscape-font-specification:TimesNewRomanPSMT"
           x="0 5.0219998"
           y="0"
           sodipodi:role="line"
           id="tspan9407">20</tspan></text>
</g><g
       id="g9409"
       transform="translate(282.40887,77.819334)"
       style="fill:#666666"><text
         transform="matrix(0.95632,0,0,-1,480.7,225.9)"
         id="text9411"
         style="fill:#666666"><tspan
           style="font-size:9.30000019000000040px;font-variant:normal;font-weight:normal;writing-mode:lr-tb;fill:#666666;fill-opacity:1;fill-rule:nonzero;stroke:none;font-family:Times New Roman;-inkscape-font-specification:TimesNewRomanPSMT"
           x="0 5.1243"
           y="0"
           sodipodi:role="line"
           id="tspan9413">25</tspan></text>
</g><g
       id="g9415"
       transform="translate(282.40887,77.819334)"
       style="fill:#666666"><text
         transform="matrix(0.95632,0,0,-1,498.8,225.9)"
         id="text9417"
         style="fill:#666666"><tspan
           style="font-size:9.30000019000000040px;font-variant:normal;font-weight:normal;writing-mode:lr-tb;fill:#666666;fill-opacity:1;fill-rule:nonzero;stroke:none;font-family:Times New Roman;-inkscape-font-specification:TimesNewRomanPSMT"
           x="0 5.1243"
           y="0"
           sodipodi:role="line"
           id="tspan9419">30</tspan></text>
</g><g
       id="g9421"
       transform="translate(282.40887,77.819334)"
       style="fill:#666666"><text
         transform="matrix(0.95632,0,0,-1,516.9,225.9)"
         id="text9423"
         style="fill:#666666"><tspan
           style="font-size:9.30000019000000040px;font-variant:normal;font-weight:normal;writing-mode:lr-tb;fill:#666666;fill-opacity:1;fill-rule:nonzero;stroke:none;font-family:Times New Roman;-inkscape-font-specification:TimesNewRomanPSMT"
           x="0 5.1243"
           y="0"
           sodipodi:role="line"
           id="tspan9425">35</tspan></text>
</g><g
       id="g9427"
       transform="translate(282.40887,77.819334)"
       style="fill:#666666"><text
         transform="matrix(0.95632,0,0,-1,535,225.9)"
         id="text9429"
         style="fill:#666666"><tspan
           style="font-size:9.30000019000000040px;font-variant:normal;font-weight:normal;writing-mode:lr-tb;fill:#666666;fill-opacity:1;fill-rule:nonzero;stroke:none;font-family:Times New Roman;-inkscape-font-specification:TimesNewRomanPSMT"
           x="0 5.1243"
           y="0"
           sodipodi:role="line"
           id="tspan9431">40</tspan></text>
</g><g
       id="g9433"
       transform="translate(282.40887,77.819334)"
       style="fill:#666666"><text
         transform="matrix(0.95632,0,0,-1,552.7,225.9)"
         id="text9435"
         style="fill:#666666"><tspan
           style="font-size:9.30000019000000040px;font-variant:normal;font-weight:normal;writing-mode:lr-tb;fill:#666666;fill-opacity:1;fill-rule:nonzero;stroke:none;font-family:Times New Roman;-inkscape-font-specification:TimesNewRomanPSMT"
           x="0 5.1243"
           y="0"
           sodipodi:role="line"
           id="tspan9437">45</tspan></text>
</g><g
       id="g9439"
       transform="translate(282.40887,77.819334)"
       style="fill:#808080"><text
         transform="matrix(0.95632,0,0,-1,378.3,257.6)"
         id="text9441"
         style="fill:#808080"><tspan
           style="font-size:9.30000019000000040px;font-variant:normal;font-weight:normal;writing-mode:lr-tb;fill:#808080;fill-opacity:1;fill-rule:nonzero;stroke:none;font-family:Times New Roman;-inkscape-font-specification:TimesNewRomanPSMT"
           sodipodi:role="line"
           id="tspan9443"
           x="0"
           y="0">100</tspan></text>
</g><g
       id="g9445"
       transform="translate(282.40887,77.819334)"
       style="fill:#808080"><text
         transform="matrix(0.95632,0,0,-1,378.3,283.2)"
         id="text9447"
         style="fill:#808080"><tspan
           style="font-size:9.30000019000000040px;font-variant:normal;font-weight:normal;writing-mode:lr-tb;fill:#808080;fill-opacity:1;fill-rule:nonzero;stroke:none;font-family:Times New Roman;-inkscape-font-specification:TimesNewRomanPSMT"
           sodipodi:role="line"
           id="tspan9449"
           x="0"
           y="0">200</tspan></text>
</g><g
       id="g9451"
       transform="translate(282.40887,77.819334)"
       style="fill:#808080"><text
         transform="matrix(0.95632,0,0,-1,378.3,308.8)"
         id="text9453"
         style="fill:#808080"><tspan
           style="font-size:9.30000019000000040px;font-variant:normal;font-weight:normal;writing-mode:lr-tb;fill:#808080;fill-opacity:1;fill-rule:nonzero;stroke:none;font-family:Times New Roman;-inkscape-font-specification:TimesNewRomanPSMT"
           sodipodi:role="line"
           id="tspan9455"
           x="0"
           y="0">300</tspan></text>
</g><g
       id="g9457"
       transform="translate(282.40887,77.819334)"
       style="fill:#808080"><text
         transform="matrix(0.95632,0,0,-1,378.3,333.9)"
         id="text9459"
         style="fill:#808080"><tspan
           style="font-size:9.30000019000000040px;font-variant:normal;font-weight:normal;writing-mode:lr-tb;fill:#808080;fill-opacity:1;fill-rule:nonzero;stroke:none;font-family:Times New Roman;-inkscape-font-specification:TimesNewRomanPSMT"
           sodipodi:role="line"
           id="tspan9461"
           x="0"
           y="0">400</tspan></text>
</g><g
       id="g9463"
       transform="translate(282.40887,77.819334)"
       style="fill:#666666"><text
         transform="matrix(1,0,0,-0.96589427,530.6,240.5)"
         id="text9465"
         style="fill:#666666"><tspan
           style="font-size:7.35070085999999990px;font-variant:normal;font-weight:bold;writing-mode:lr-tb;fill:#666666;fill-opacity:1;fill-rule:nonzero;stroke:none;font-family:Times New Roman;-inkscape-font-specification:TimesNewRomanPS-BoldMT"
           x="0 5.2998552 8.9016991 12.400633 15.09834 18.200336 19.898348 26.594835 30.093769 32.695919 36.694698 40.193634"
           y="0"
           sodipodi:role="line"
           id="tspan9467">Hours Worked</tspan></text>
</g><g
       id="g9469"
       transform="translate(282.40887,77.819334)"
       style="fill:#666666"><text
         transform="matrix(1,0,0,-0.96589427,401.2,356.4)"
         id="text9471"
         style="fill:#666666"><tspan
           style="font-size:7.35070085999999990px;font-variant:normal;font-weight:bold;writing-mode:lr-tb;fill:#666666;fill-opacity:1;fill-rule:nonzero;stroke:none;font-family:Times New Roman;-inkscape-font-specification:TimesNewRomanPS-BoldMT"
           x="0 5.2998552 7.9975629 11.496496 14.598493 17.700487 19.50141 23.404633 27.006475 30.505409 32.306332 34.004341 37.606186 39.304199"
           y="0"
           sodipodi:role="line"
           id="tspan9473">Gross Pay in $</tspan></text>
</g><g
       id="g9475"
       transform="translate(282.40887,77.819334)"
       style="stroke:#9b9b9b;stroke-opacity:1"><path
         d="m 359.7,236 214.2,0"
         style="fill:none;stroke:#9b9b9b;stroke-width:0.89999998000000003;stroke-linecap:butt;stroke-linejoin:miter;stroke-miterlimit:10;stroke-opacity:1;stroke-dasharray:none"
         id="path9477"
         inkscape:connector-curvature="0" /></g><path
       d="m 855.40887,316.41933 2.2,-2.2 0,-0.4 -2.2,-2.2 0,4.8 z"
       style="fill:#0000ff;fill-opacity:1;fill-rule:evenodd;stroke:none"
       id="path9479"
       inkscape:connector-curvature="0" /><g
       id="g9481"
       transform="translate(282.40887,77.819334)"
       style="stroke:#9b9b9b;stroke-opacity:1;fill:#9b9b9b;fill-opacity:1"><path
         d="m 573,238.6 2.2,-2.2 0,-0.4 -2.2,-2.2 0,4.8 z"
         style="fill:#9b9b9b;stroke:#9b9b9b;stroke-width:0.40000001000000002;stroke-linecap:butt;stroke-linejoin:miter;stroke-miterlimit:10;stroke-opacity:1;stroke-dasharray:none;fill-opacity:1"
         id="path9483"
         inkscape:connector-curvature="0" /></g><g
       id="g9493"
       transform="translate(282.40887,77.819334)"><path
         d="m 431.7,233.8 0,5.3"
         style="fill:none;stroke:#0000ff;stroke-width:0.40000001;stroke-linecap:butt;stroke-linejoin:miter;stroke-miterlimit:10;stroke-opacity:1;stroke-dasharray:none"
         id="path9495"
         inkscape:connector-curvature="0" /></g><g
       id="g9525"
       transform="translate(282.40887,77.819334)"
       style="stroke:#9b9b9b;stroke-opacity:1"><path
         d="m 395.9,361.6 0,-138.4"
         style="fill:none;stroke:#9b9b9b;stroke-width:0.89999998000000003;stroke-linecap:butt;stroke-linejoin:miter;stroke-miterlimit:10;stroke-opacity:1;stroke-dasharray:none"
         id="path9527"
         inkscape:connector-curvature="0" /></g><path
       d="m 675.9332,438.47446 2.2,2.2 0.4,0 2.2,-2.2 -4.8,0 z"
       style="fill:#9b9b9b;fill-opacity:1;fill-rule:evenodd;stroke:#9b9b9b;stroke-opacity:1"
       id="path9529"
       inkscape:connector-curvature="0" /><g
       id="g9531"
       transform="translate(282.6332,77.774469)"
       style="fill:#9b9b9b;fill-opacity:1;stroke:#9b9b9b;stroke-opacity:1"><path
         d="m 393.3,360.7 2.2,2.2 0.4,0 2.2,-2.2 -4.8,0 z"
         style="fill:#9b9b9b;stroke:#9b9b9b;stroke-width:0.40000001000000002;stroke-linecap:butt;stroke-linejoin:miter;stroke-miterlimit:10;stroke-opacity:1;stroke-dasharray:none;fill-opacity:1"
         id="path9533"
         inkscape:connector-curvature="0" /></g><g
       id="g10382"><path
         inkscape:connector-curvature="0"
         id="path9539"
         style="fill:#0000ff;fill-opacity:1;fill-rule:evenodd;stroke:none"
         d="m 678.30887,316.91933 c 1.7,0 3.1,-1.4 3.1,-3.1 0,-1.7 -1.4,-3.1 -3.1,-3.1 -1.7,0 -3.1,1.4 -3.1,3.1 0,1.7 1.4,3.1 3.1,3.1" /></g><path
       d="m 714.10887,329.61933 c 1.7,0 3.1,-1.3 3.1,-3 0,-1.8 -1.4,-3.1 -3.1,-3.1 -1.7,0 -3.1,1.3 -3.1,3.1 0,1.7 1.4,3 3.1,3"
       style="fill:#0000ff;fill-opacity:1;fill-rule:evenodd;stroke:none"
       id="path9545"
       inkscape:connector-curvature="0" /><path
       d="m 750.30887,354.81933 c 1.7,0 3.1,-1.4 3.1,-3.1 0,-1.7 -1.4,-3.1 -3.1,-3.1 -1.7,0 -3.1,1.4 -3.1,3.1 0,1.7 1.4,3.1 3.1,3.1"
       style="fill:#0000ff;fill-opacity:1;fill-rule:evenodd;stroke:none"
       id="path9551"
       inkscape:connector-curvature="0" /><path
       d="m 786.10887,393.11933 c 1.7,0 3.1,-1.4 3.1,-3.1 0,-1.7 -1.4,-3.1 -3.1,-3.1 -1.7,0 -3.1,1.4 -3.1,3.1 0,1.7 1.4,3.1 3.1,3.1"
       style="fill:#0000ff;fill-opacity:1;fill-rule:evenodd;stroke:none"
       id="path9557"
       inkscape:connector-curvature="0" /><path
       d="m 822.30887,418.21933 c 1.7,0 3.1,-1.4 3.1,-3.1 0,-1.7 -1.4,-3.1 -3.1,-3.1 -1.7,0 -3.1,1.4 -3.1,3.1 0,1.7 1.4,3.1 3.1,3.1"
       style="fill:#0000ff;fill-opacity:1;fill-rule:evenodd;stroke:none"
       id="path9563"
       inkscape:connector-curvature="0" /><g
       id="g9609"
       transform="translate(282.40887,77.819334)"><text
         transform="matrix(1,0,0,-0.97089264,530.2,292.7)"
         id="text9611"><tspan
           style="font-size:12.77175236px;font-style:italic;font-variant:normal;font-weight:bold;writing-mode:lr-tb;fill:#000000;fill-opacity:1;fill-rule:nonzero;stroke:none;font-family:Times New Roman;-inkscape-font-specification:TimesNewRomanPS-BoldItalicMT"
           x="0 7.9057145 12.209795 19.208715 23.614969 30.217966 36.718788"
           y="0"
           sodipodi:role="line"
           id="tspan9613">P(h-10)</tspan></text>
</g><g
       id="g9615"
       transform="translate(282.40887,77.819334)"><path
         d="m 431.7,236 36.2,12.8 35.8,25.1 36.2,38.3 35.8,25.1"
         style="fill:none;stroke:#000000;stroke-width:1.29999995;stroke-linecap:butt;stroke-linejoin:miter;stroke-miterlimit:10;stroke-opacity:1;stroke-dasharray:1.8, 1.8;stroke-dashoffset:0"
         id="path9617"
         inkscape:connector-curvature="0" /></g><path
       d="m 711.40887,311.11933 5.3,0 0,5.3 -5.3,0 0,-5.3 z"
       style="fill:#000000;fill-opacity:1;fill-rule:evenodd;stroke:none"
       id="path9619"
       inkscape:connector-curvature="0" /><g
       id="g9621"
       transform="translate(282.40887,77.819334)"><path
         d="m 429,238.6 5.3,0 0,-5.3 -5.3,0 0,5.3 z"
         style="fill:none;stroke:#000000;stroke-width:0.40000001;stroke-linecap:butt;stroke-linejoin:miter;stroke-miterlimit:10;stroke-opacity:1;stroke-dasharray:none"
         id="path9623"
         inkscape:connector-curvature="0" /></g><path
       d="m 747.70887,323.91933 5.3,0 0,5.3 -5.3,0 0,-5.3 z"
       style="fill:#000000;fill-opacity:1;fill-rule:evenodd;stroke:none"
       id="path9625"
       inkscape:connector-curvature="0" /><g
       id="g9627"
       transform="translate(282.40887,77.819334)"><path
         d="m 465.3,251.4 5.2,0 0,-5.3 -5.2,0 0,5.3 z"
         style="fill:none;stroke:#000000;stroke-width:0.40000001;stroke-linecap:butt;stroke-linejoin:miter;stroke-miterlimit:10;stroke-opacity:1;stroke-dasharray:none"
         id="path9629"
         inkscape:connector-curvature="0" /></g><path
       d="m 783.40887,349.01933 5.3,0 0,5.3 -5.3,0 0,-5.3 z"
       style="fill:#000000;fill-opacity:1;fill-rule:evenodd;stroke:none"
       id="path9631"
       inkscape:connector-curvature="0" /><g
       id="g9633"
       transform="translate(282.40887,77.819334)"><path
         d="m 501,276.5 5.3,0 0,-5.3 -5.3,0 0,5.3 z"
         style="fill:none;stroke:#000000;stroke-width:0.40000001;stroke-linecap:butt;stroke-linejoin:miter;stroke-miterlimit:10;stroke-opacity:1;stroke-dasharray:none"
         id="path9635"
         inkscape:connector-curvature="0" /></g><path
       d="m 819.70887,387.41933 5.3,0 0,5.3 -5.3,0 0,-5.3 z"
       style="fill:#000000;fill-opacity:1;fill-rule:evenodd;stroke:none"
       id="path9637"
       inkscape:connector-curvature="0" /><g
       id="g9639"
       transform="translate(282.40887,77.819334)"><path
         d="m 537.3,314.9 5.2,0 0,-5.3 -5.2,0 0,5.3 z"
         style="fill:none;stroke:#000000;stroke-width:0.40000001;stroke-linecap:butt;stroke-linejoin:miter;stroke-miterlimit:10;stroke-opacity:1;stroke-dasharray:none"
         id="path9641"
         inkscape:connector-curvature="0" /></g><path
       d="m 855.40887,412.51933 5.3,0 0,5.3 -5.3,0 0,-5.3 z"
       style="fill:#000000;fill-opacity:1;fill-rule:evenodd;stroke:none"
       id="path9643"
       inkscape:connector-curvature="0" /><g
       id="g9645"
       transform="translate(282.40887,77.819334)"><path
         d="m 573,340 5.3,0 0,-5.3 -5.3,0 0,5.3 z"
         style="fill:none;stroke:#000000;stroke-width:0.40000001;stroke-linecap:butt;stroke-linejoin:miter;stroke-miterlimit:10;stroke-opacity:1;stroke-dasharray:none"
         id="path9647"
         inkscape:connector-curvature="0" /></g><g
       id="g9649"
       transform="translate(282.40887,77.819334)"><text
         transform="matrix(1,0,0,-0.96827917,420.7,313.9)"
         id="text9651"><tspan
           style="font-size:12.80622387px;font-style:italic;font-variant:normal;font-weight:bold;writing-mode:lr-tb;fill:#008000;fill-opacity:1;fill-rule:nonzero;stroke:none;font-family:Times New Roman;-inkscape-font-specification:TimesNewRomanPS-BoldItalicMT"
           x="0 7.7989902 12.204331 19.209335 26.611334 33.206539 39.801743"
           y="0"
           sodipodi:role="line"
           id="tspan9653">P(h+10)</tspan></text>
</g><g
       id="g9655"
       transform="translate(282.40887,77.819334)"><path
         d="m 359.7,236 36.2,12.8 35.8,25.1 36.2,38.3 35.8,25.1"
         style="fill:none;stroke:#008000;stroke-width:1.29999995;stroke-linecap:butt;stroke-linejoin:miter;stroke-miterlimit:10;stroke-opacity:1;stroke-dasharray:1.8, 1.8;stroke-dashoffset:0"
         id="path9657"
         inkscape:connector-curvature="0" /></g><g
       id="g9667"
       transform="translate(282.40887,77.819334)"><path
         d="m 393.3,246.1 2.6,5.3 2.7,-5.3 -5.3,0 z"
         style="fill:none;stroke:#000000;stroke-width:0.40000001;stroke-linecap:butt;stroke-linejoin:miter;stroke-miterlimit:10;stroke-opacity:1;stroke-dasharray:none"
         id="path9669"
         inkscape:connector-curvature="0" /></g><path
       d="m 639.40887,311.11933 2.7,5.3 2.7,-5.3 -5.4,0 z"
       style="fill:#008000;fill-opacity:1;fill-rule:evenodd;stroke:none"
       id="path9659"
       inkscape:connector-curvature="0" /><g
       id="g9661"
       transform="translate(282.40887,77.819334)"><path
         d="m 357,233.3 2.7,5.3 2.7,-5.3 -5.4,0 z"
         style="fill:none;stroke:#000000;stroke-width:0.40000001;stroke-linecap:butt;stroke-linejoin:miter;stroke-miterlimit:10;stroke-opacity:1;stroke-dasharray:none"
         id="path9663"
         inkscape:connector-curvature="0" /></g><path
       d="m 675.70887,323.91933 2.6,5.3 2.7,-5.3 -5.3,0 z"
       style="fill:#008000;fill-opacity:1;fill-rule:evenodd;stroke:none"
       id="path9665"
       inkscape:connector-curvature="0" /><path
       d="m 711.40887,349.01933 2.7,5.3 2.6,-5.3 -5.3,0 z"
       style="fill:#008000;fill-opacity:1;fill-rule:evenodd;stroke:none"
       id="path9671"
       inkscape:connector-curvature="0" /><g
       id="g9673"
       transform="translate(282.40887,77.819334)"><path
         d="m 429,271.2 2.7,5.3 2.6,-5.3 -5.3,0 z"
         style="fill:none;stroke:#000000;stroke-width:0.40000001;stroke-linecap:butt;stroke-linejoin:miter;stroke-miterlimit:10;stroke-opacity:1;stroke-dasharray:none"
         id="path9675"
         inkscape:connector-curvature="0" /></g><path
       d="m 747.70887,387.41933 2.6,5.3 2.7,-5.3 -5.3,0 z"
       style="fill:#008000;fill-opacity:1;fill-rule:evenodd;stroke:none"
       id="path9677"
       inkscape:connector-curvature="0" /><g
       id="g9679"
       transform="translate(282.40887,77.819334)"><path
         d="m 465.3,309.6 2.6,5.3 2.7,-5.3 -5.3,0 z"
         style="fill:none;stroke:#000000;stroke-width:0.40000001;stroke-linecap:butt;stroke-linejoin:miter;stroke-miterlimit:10;stroke-opacity:1;stroke-dasharray:none"
         id="path9681"
         inkscape:connector-curvature="0" /></g><path
       d="m 783.40887,412.51933 2.7,5.3 2.6,-5.3 -5.3,0 z"
       style="fill:#008000;fill-opacity:1;fill-rule:evenodd;stroke:none"
       id="path9683"
       inkscape:connector-curvature="0" /><g
       id="g9685"
       transform="translate(282.40887,77.819334)"><path
         d="m 501,334.7 2.7,5.3 2.6,-5.3 -5.3,0 z"
         style="fill:none;stroke:#000000;stroke-width:0.40000001;stroke-linecap:butt;stroke-linejoin:miter;stroke-miterlimit:10;stroke-opacity:1;stroke-dasharray:none"
         id="path9687"
         inkscape:connector-curvature="0" /></g><g
       id="g9689"
       transform="translate(269.06339,83.602377)"><text
         transform="matrix(1,0,0,-0.97615259,545.6,340.3)"
         id="text9691"><tspan
           style="font-size:12.70293236px;font-style:italic;font-variant:normal;font-weight:bold;writing-mode:lr-tb;fill:#0000ff;fill-opacity:1;fill-rule:nonzero;stroke:none;font-family:Times New Roman;-inkscape-font-specification:TimesNewRomanPS-BoldItalicMT"
           x="0 7.9012237 12.207518 19.206833"
           y="0"
           sodipodi:role="line"
           id="tspan9693">P(h)</tspan></text>
</g><path
       style="fill:none;stroke:#0000ff;stroke-width:2;stroke-linecap:butt;stroke-linejoin:miter;stroke-opacity:1;stroke-miterlimit:4;stroke-dasharray:none"
       d="m 229.09746,32.529616 -45.59706,31.139461 -44.76298,47.821313 -44.762975,31.69553 -45.319037,16.12579 0,0 0.278031,0"
       id="path10389"
       inkscape:connector-curvature="0"
       transform="matrix(0.8,0,0,-0.8,639.20887,440.91934)" /></g></svg>