<?xml version="1.0" encoding="UTF-8" standalone="no"?>
<!-- Generator: Adobe Illustrator 17.0.0, SVG Export Plug-In . SVG Version: 6.00 Build 0)  -->

<svg
   xmlns:dc="http://purl.org/dc/elements/1.1/"
   xmlns:cc="http://creativecommons.org/ns#"
   xmlns:rdf="http://www.w3.org/1999/02/22-rdf-syntax-ns#"
   xmlns:svg="http://www.w3.org/2000/svg"
   xmlns="http://www.w3.org/2000/svg"
   xmlns:sodipodi="http://sodipodi.sourceforge.net/DTD/sodipodi-0.dtd"
   xmlns:inkscape="http://www.inkscape.org/namespaces/inkscape"
   version="1.1"
   id="Layer_1"
   x="0px"
   y="0px"
   width="453.58392"
   height="179.26009"
   viewBox="0 0 453.58393 179.26008"
   enable-background="new 0 0 388.586 130.604"
   xml:space="preserve"
   inkscape:version="0.48.4 r9939"
   sodipodi:docname="Quadratic_Formula.svg"
   inkscape:export-filename="C:\Book Ideas\images\Quadratic_Formula.png"
   inkscape:export-xdpi="79.828148"
   inkscape:export-ydpi="79.828148"><metadata
   id="metadata9"><rdf:RDF><cc:Work
       rdf:about=""><dc:format>image/svg+xml</dc:format><dc:type
         rdf:resource="http://purl.org/dc/dcmitype/StillImage" /><dc:title></dc:title></cc:Work></rdf:RDF></metadata><defs
   id="defs7" /><sodipodi:namedview
   pagecolor="#ffffff"
   bordercolor="#666666"
   borderopacity="1"
   objecttolerance="10"
   gridtolerance="10"
   guidetolerance="10"
   inkscape:pageopacity="0"
   inkscape:pageshadow="2"
   inkscape:window-width="1920"
   inkscape:window-height="1017"
   id="namedview5"
   showgrid="false"
   fit-margin-top="5"
   fit-margin-left="5"
   fit-margin-right="5"
   fit-margin-bottom="5"
   inkscape:zoom="2.6047966"
   inkscape:cx="184.64041"
   inkscape:cy="52.408"
   inkscape:window-x="-8"
   inkscape:window-y="-8"
   inkscape:window-maximized="1"
   inkscape:current-layer="Layer_1" />
<path
   d="m 50.901713,131.65608 c 1.856,-2.695 3.8,-4.595 5.257,-4.595 1.193,0 1.767,1.635 2.828,4.816 l 0.795,2.43 c 3.667,-5.346 5.567,-7.246 7.511,-7.246 1.149,0 1.856,0.928 1.856,1.9 -0.044,1.06 -1.06,1.944 -1.723,1.944 -0.265,0 -0.442,-0.133 -0.663,-0.353 -0.265,-0.353 -0.618,-0.53 -1.016,-0.53 -0.618,0 -1.502,0.751 -2.651,2.209 -0.928,1.06 -1.9,2.253 -2.872,3.623 l 1.414,4.418 c 0.884,2.783 1.546,4.065 2.253,4.065 0.707,0 1.767,-0.884 3.181,-2.563 l 0.751,0.884 c -2.032,3.137 -4.065,4.771 -5.611,4.771 -1.105,0 -2.077,-1.281 -2.916,-4.065 l -1.369,-4.285 c -3.932,6.185 -5.965,8.35 -8.085,8.35 -1.104,0 -2.032,-0.884 -1.988,-2.121 0,-1.06 0.928,-2.076 1.767,-2.076 0.265,0 0.486,0.177 0.707,0.442 0.221,0.265 0.574,0.442 1.016,0.442 1.281,0 3.358,-2.562 6.097,-6.671 l -1.502,-4.595 c -0.619,-2.165 -1.016,-2.783 -1.458,-2.783 -0.442,0 -1.281,0.574 -2.828,2.518 l -0.751,-0.929 z m 30.172,1.06 v -2.209 h 21.073997 v 2.209 H 81.073713 z m 0,8.085 v -2.209 h 21.073997 v 2.209 H 81.073713 z m 35.561997,-23.727 v -2.253 h 18.512 v 2.253 h -18.512 z m 25.49101,-21.073999 c 3.446,-0.398 5.876,-1.502 6.583,-1.502 0.442,0 0.442,0.442 0.221,1.37 -1.502,6.052999 -2.695,11.221999 -3.932,16.876999 h 0.088 c 3.8,-4.639 7.555,-6.627 9.587,-6.627 1.944,0 3.137,1.944 3.137,4.86 0,4.86 -2.916,10.471 -6.804,13.078 -2.651,1.811 -5.037,2.43 -6.671,2.43 -1.414,0 -2.872,-0.795 -3.534,-1.9 -0.663,-1.06 -0.839,-2.651 -0.265,-5.522 1.237,-6.053 2.783,-12.724 4.241,-19.836999 0.398,-1.988 0.265,-2.121 -1.458,-2.121 l -1.281,-0.044 0.088,-1.062 z m 6.715,27.789999 c 2.607,-1.547 5.302,-6.671 5.302,-12.062 0,-2.253 -0.663,-3.181 -1.502,-3.181 -1.546,0 -5.213,2.828 -8.041,6.848 -0.265,0.795 -0.53,1.944 -0.795,3.446 -0.795,4.33 0.928,5.611 2.739,5.611 0.751,0 1.635,-0.265 2.297,-0.662 z m 34.193,-11.576 v 9.013 h -2.563 v -9.013 h -9.278 v -2.165 h 9.278 v -8.439 h 2.563 v 8.439 h 9.234 v 2.165 h -9.234 z m -11.84,13.74 v -2.209 h 21.074 v 2.209 h -21.074 z m 232.507,-39.762999 v -2.032 h -155.637 l -20.809,37.951999 -13.254,-25.580999 -7.953,4.417999 0.751,1.325 4.595,-2.562999 14.182,27.039999 h 0.928 l 22.13,-40.557999 h 155.067 z m -144.655,81.750999 c -0.574,1.856 -1.016,3.8 -1.546,5.788 h -16.524 v -1.016 c 2.474,-2.43 4.948,-4.948 7.157,-7.511 2.739,-3.269 5.523,-6.892 5.523,-10.692 0,-3.711 -1.944,-5.876 -5.213,-5.876 -3.004,0 -4.86,2.386 -6.008,4.109 l -0.972,-0.884 2.518,-3.579 c 1.325,-1.458 3.402,-2.607 5.965,-2.607 3.888,0 7.422,2.828 7.422,7.466 0,3.844 -1.767,6.45 -5.832,10.78 l -6.273,6.583 h 8.262 c 2.386,0 2.96,-0.177 4.286,-2.96 l 1.235,0.399 z m 22.31,1.723 c -2.386,2.96 -5.346,4.595 -6.45,4.595 -0.839,0 -1.414,-0.663 -0.795,-3.888 l 0.883,-4.197 h -0.088 c -1.723,2.43 -3.8,4.551 -5.699,6.097 -1.458,1.193 -2.916,1.988 -4.109,1.988 -1.148,0 -2.562,-1.458 -2.562,-4.992 0,-4.462 2.076,-9.278 5.301,-11.973 2.209,-1.855 5.434,-3.402 8.218,-3.402 0.928,0 1.811,0.133 2.739,0.309 0.618,0.133 1.193,0.265 1.679,0.265 l 0.133,0.177 c -0.707,2.739 -2.032,8.748 -3.049,14.359 -0.309,1.546 -0.176,1.9 0.089,1.9 0.353,0 1.9,-1.016 3.181,-2.298 l 0.529,1.06 z m -5.744,-6.892 c 0.486,-1.767 1.149,-4.948 1.458,-6.362 -0.619,-0.309 -1.811,-0.618 -2.96,-0.618 -1.149,0 -2.386,0.353 -3.137,0.928 -3.004,2.209 -4.771,7.422 -4.771,11.796 0,1.988 0.574,2.916 1.193,2.916 1.723,-10e-4 6.716,-5.612 8.217,-8.66 z m -19.269,-66.772999 c 3.446,-0.398 5.876,-1.502 6.583,-1.502 0.442,0 0.442,0.442 0.221,1.37 -1.502,6.052999 -2.695,11.221999 -3.932,16.876999 h 0.089 c 3.799,-4.639 7.555,-6.627 9.587,-6.627 1.944,0 3.137,1.944 3.137,4.86 0,4.86 -2.916,10.471 -6.804,13.078 -2.651,1.811 -5.036,2.43 -6.671,2.43 -1.414,0 -2.872,-0.795 -3.534,-1.9 -0.663,-1.06 -0.839,-2.651 -0.265,-5.522 1.237,-6.053 2.783,-12.724 4.241,-19.836999 0.398,-1.988 0.265,-2.121 -1.458,-2.121 l -1.281,-0.044 0.087,-1.062 z m 6.716,27.789999 c 2.606,-1.547 5.302,-6.671 5.302,-12.062 0,-2.253 -0.663,-3.181 -1.502,-3.181 -1.546,0 -5.213,2.828 -8.041,6.848 -0.265,0.795 -0.53,1.944 -0.796,3.446 -0.795,4.33 0.928,5.611 2.74,5.611 0.751,0 1.634,-0.265 2.297,-0.662 z m 23.546,-19.484 c -0.442,1.414 -0.751,2.695 -1.016,3.888 h -10.736 v -0.972 c 2.474,-1.988 7.555,-5.832 7.555,-9.410999 0,-2.209 -1.326,-3.225 -2.961,-3.225 -1.635,0 -2.871,1.237 -3.755,2.43 l -0.751,-0.795 1.414,-1.9 c 1.016,-1.281 2.607,-1.988 4.286,-1.988 2.474,0 4.86,1.679 4.86,4.727 0,2.121 -1.369,3.799999 -4.683,6.715999 l -2.298,2.032 v 0.133 h 4.02 c 1.723,0 2.209,-0.221 3.093,-1.988 l 0.972,0.353 z m 13.782,12.768 v -2.253 h 18.512 v 2.253 h -18.512 z m 46.696,1.016 v 3.181 c 0,2.96 0.177,3.181 3.756,3.49 v 1.193 h -11.31 v -1.193 c 3.843,-0.309 4.02,-0.574 4.02,-3.49 v -3.181 h -11.487 v -1.237 c 4.197,-6.274 8.703,-12.813 13.254,-18.820999 h 1.767 v 17.981999 h 4.241 v 2.076 h -4.241 z m -3.534,-15.11 h -0.088 c -2.828,3.932 -5.699,8.129 -8.616,13.033 h 8.704 v -13.033 z m 29.378,18.91 c -2.386,2.96 -5.346,4.595 -6.45,4.595 -0.839,0 -1.414,-0.663 -0.796,-3.888 l 0.884,-4.197 h -0.088 c -1.723,2.43 -3.8,4.551 -5.699,6.097 -1.458,1.193 -2.916,1.988 -4.109,1.988 -1.149,0 -2.563,-1.458 -2.563,-4.992 0,-4.462 2.077,-9.278 5.302,-11.973 2.209,-1.855 5.434,-3.402 8.218,-3.402 0.928,0 1.811,0.133 2.739,0.309 0.619,0.133 1.193,0.265 1.679,0.265 l 0.133,0.177 c -0.706,2.739 -2.032,8.748 -3.048,14.359 -0.309,1.546 -0.177,1.9 0.088,1.9 0.354,0 1.9,-1.016 3.181,-2.298 l 0.529,1.06 z m -5.743,-6.893 c 0.486,-1.767 1.149,-4.948 1.458,-6.362 -0.619,-0.309 -1.812,-0.618 -2.961,-0.618 -1.148,0 -2.386,0.353 -3.137,0.928 -3.004,2.209 -4.772,7.422 -4.772,11.796 0,1.988 0.574,2.916 1.193,2.916 1.724,0 6.716,-5.611 8.219,-8.66 z m 22.044,6.583 c -2.739,3.137 -6.23,4.904 -8.836,4.904 -2.828,0 -4.728,-2.253 -4.728,-6.495 0,-3.667 1.723,-7.997 4.551,-10.603 1.811,-1.59 4.904,-3.269 7.069,-3.269 1.9,0 3.314,1.104 3.358,2.209 0,0.663 -0.442,1.502 -1.458,2.032 -0.354,0.221 -0.663,0.133 -0.972,-0.265 -0.928,-1.281 -1.944,-1.9 -3.314,-1.9 -1.591,0 -2.828,1.325 -3.667,2.916 -1.104,1.988 -1.944,4.992 -1.944,7.997 0,3.137 1.237,4.771 3.137,4.771 2.253,0 4.948,-2.032 6.141,-3.269 l 0.663,0.972 z m 16.502,12.921 H 116.44871 v 2.182 h 289.28301 v -2.182 z"
   id="path3"
   inkscape:connector-curvature="0" />
<text
   xml:space="preserve"
   style="font-size:46.45601654px;font-style:normal;font-weight:normal;line-height:125%;letter-spacing:0px;word-spacing:0px;fill:#000000;fill-opacity:1;stroke:none;font-family:Times New Roman;-inkscape-font-specification:Times New Roman"
   x="4.0039063"
   y="37.218746"
   id="text2986"
   sodipodi:linespacing="125%"><tspan
     sodipodi:role="line"
     id="tspan2988"
     x="4.0039063"
     y="37.218746"
     style="font-size:40px;font-style:oblique;font-variant:normal;font-weight:normal;font-stretch:normal;font-family:Times New Roman;-inkscape-font-specification:Times New Roman"><tspan
   style="font-size:40px;font-style:normal"
   id="tspan3016">If </tspan><tspan
   style="font-size:40px;font-style:oblique;font-variant:normal;font-weight:normal;font-stretch:normal;letter-spacing:8.71050358px;font-family:Times New Roman;-inkscape-font-specification:Times New Roman"
   id="tspan2990"> a</tspan><tspan
   id="tspan3010"
   style="font-size:40px;font-style:oblique;font-variant:normal;font-weight:normal;font-stretch:normal;letter-spacing:5.80700207px;font-family:Times New Roman;-inkscape-font-specification:Times New Roman">x</tspan><tspan
   style="font-size:24px;font-style:normal;font-variant:normal;font-weight:normal;font-stretch:normal;letter-spacing:8.71050358px;baseline-shift:super;font-family:Times New Roman;-inkscape-font-specification:Times New Roman"
   id="tspan2996">2</tspan><tspan
   style="font-size:40px;font-style:oblique;font-variant:normal;font-weight:normal;font-stretch:normal;letter-spacing:8.71050358px;font-family:Times New Roman;-inkscape-font-specification:Times New Roman"
   id="tspan3002">+bx+c=<tspan
   style="font-size:40px;font-style:normal"
   id="tspan3018">0</tspan></tspan> , <tspan
   style="font-size:40px;font-style:normal"
   id="tspan3022">then</tspan></tspan></text>
</svg>