<?xml version="1.0" encoding="UTF-8" standalone="no"?>
<!-- Generator: Adobe Illustrator 14.0.0, SVG Export Plug-In . SVG Version: 6.00 Build 43363)  -->

<svg
   xmlns:dc="http://purl.org/dc/elements/1.1/"
   xmlns:cc="http://creativecommons.org/ns#"
   xmlns:rdf="http://www.w3.org/1999/02/22-rdf-syntax-ns#"
   xmlns:svg="http://www.w3.org/2000/svg"
   xmlns="http://www.w3.org/2000/svg"
   xmlns:xlink="http://www.w3.org/1999/xlink"
   xmlns:sodipodi="http://sodipodi.sourceforge.net/DTD/sodipodi-0.dtd"
   xmlns:inkscape="http://www.inkscape.org/namespaces/inkscape"
   version="1.1"
   id="Layer_1"
   x="0px"
   y="0px"
   width="236.334"
   height="200.091"
   viewBox="0 0 236.334 200.091"
   xml:space="preserve"
   sodipodi:docname="MercuryFoodChain.svg"
   inkscape:version="0.92.4 (5da689c313, 2019-01-14)"><metadata
   id="metadata438"><rdf:RDF><cc:Work
       rdf:about=""><dc:format>image/svg+xml</dc:format><dc:type
         rdf:resource="http://purl.org/dc/dcmitype/StillImage" /><dc:title></dc:title></cc:Work></rdf:RDF></metadata><defs
   id="defs436">
	
	
	

	<defs
   id="defs38">
		<rect
   height="261.021"
   width="225.95799"
   y="-0.333"
   x="-0.625"
   id="SVGID_2_" />
	</defs>
	<clipPath
   id="SVGID_3_">
		<use
   id="use40"
   overflow="visible"
   xlink:href="#SVGID_2_"
   style="overflow:visible"
   x="0"
   y="0"
   width="100%"
   height="100%" />
	</clipPath>
	

	
	
	
	
	
	
	
	
	
	
	
	
	
	
	
	
	
	
	
	
	
	
	
	
	
	
	

	
	
	
	
	

	
	
	
	
	

	
	
	
	
	

	
	
	
	
	

	
	
	
	
	

	
	
	
	
	

	
	
	
	
	

	
	
	
	
	

	
	
	
	
	

	
	
	
	
	

	
	
	

	
	
	

	
	
	

	
		
	

	
	

		
			
	</defs><sodipodi:namedview
   pagecolor="#ffffff"
   bordercolor="#666666"
   borderopacity="1"
   objecttolerance="10"
   gridtolerance="10"
   guidetolerance="10"
   inkscape:pageopacity="0"
   inkscape:pageshadow="2"
   inkscape:window-width="1920"
   inkscape:window-height="1017"
   id="namedview434"
   showgrid="false"
   fit-margin-top="5"
   fit-margin-left="5"
   fit-margin-right="5"
   fit-margin-bottom="5"
   inkscape:zoom="3.3091603"
   inkscape:cx="118.5"
   inkscape:cy="65.913577"
   inkscape:window-x="-8"
   inkscape:window-y="-8"
   inkscape:window-maximized="1"
   inkscape:current-layer="Layer_1" />
<path
   d="m 118.642,35.60842 c 0,0 18.816,3.012 34.558,0.331 l 3.846,4.999 -16.477,8.242 -20.295,-2.716 -3.934,-6.745 z"
   id="path2"
   inkscape:connector-curvature="0"
   style="fill:#dac2a4" />
<path
   d="m 120.842,37.50642 c 0,0 4.582,1.088 9.64,1.276 5.058,0.187 20.583,-1.578 20.583,-1.578 l 0.921,1.592 -1.043,0.347 -1.85,0.028 c 0,0 -15.721,1.966 -25.73,0.921 l -1.78,0.657 h -2.342 z"
   id="path4"
   inkscape:connector-curvature="0"
   style="fill:#c7b397" />
<path
   d="m 84.337,57.24942 c -0.169,-0.339 3.175,-3.211 3.428,-3.443 3.068,-2.82 6.399,-5.359 9.911,-7.601 3.504,-2.237 7.202,-4.174 11.051,-5.747 2.156,-0.88 2.12,-1.007 4.36,-1.646 2.341,-0.668 3.243,-2.514 5.554,-3.205 0.019,0.695 0.258,1.368 0.334,2.037 0.662,0.032 1.258,-0.033 1.866,-0.139 0.227,-0.039 0.373,2.846 0.382,3.042 0.871,0.044 1.747,-0.033 2.594,-0.066 0.041,0.764 -0.01,1.549 0.029,2.314 0.875,0.167 1.941,-0.114 2.876,-0.066 0.042,0.701 -0.003,1.422 0.023,2.126 1.046,0.05 2.094,0.039 3.138,0.082 1.831,0.076 11.812,-0.168 13.639,-0.27 0.075,-0.587 0.019,-1.239 0.049,-1.845 0.179,-0.342 2.531,-0.061 2.949,-0.215 -0.247,-0.439 -0.293,-0.971 -0.233,-1.47 0.015,-0.122 2.481,-0.111 2.688,-0.122 0.038,-0.61 0.139,-1.245 0.117,-1.845 10e-4,0.025 1.661,-0.013 1.85,-0.028 0.129,-0.631 0.089,-1.284 0.122,-1.939 0.634,0.002 1.271,-0.087 1.923,-0.122 0.111,-0.876 -0.124,-1.382 0.987,-1.276 0.699,0.066 1.259,1.051 1.831,1.398 3.598,2.179 4.233,2.151 8.495,3.815 5.701,2.227 11.155,5.033 16.827,7.333 1.071,0.435 2.148,0.856 3.232,1.261 18.146,6.792 18.518,22.523 33.977,22.523 13.744,0 5.224,14.576 5.224,14.576 l -53.708,4.131 -77.88,-18.325 c 0.001,0.002 -7.633,-15.266 -7.635,-15.268 z"
   id="path6"
   inkscape:connector-curvature="0"
   style="fill:#338c67" />
<path
   d="m 127.765,43.06242 c 0,0 4.841,0.44 10.367,0 0,0 -5.683,-1.058 -10.367,0 z"
   id="path8"
   inkscape:connector-curvature="0"
   style="fill:#c7b397" />
<linearGradient
   id="SVGID_1_"
   gradientUnits="userSpaceOnUse"
   x1="132.64059"
   y1="45.0205"
   x2="152.2341"
   y2="57.070301"
   gradientTransform="translate(6,3.1774203)">
	<stop
   offset="0"
   style="stop-color:#CCC398"
   id="stop10" />
	<stop
   offset="0.2913"
   style="stop-color:#B9C6BA"
   id="stop12" />
	<stop
   offset="0.6748"
   style="stop-color:#9CCAEC"
   id="stop14" />
</linearGradient>
<path
   d="m 136.119,43.72642 2.822,-0.202 c 0,0 -1.51,2.955 4.929,3.368 6.439,0.413 -1.524,2.102 9.436,2.288 10.959,0.187 4.266,2.435 1.945,4.214 -2.321,1.779 -1.383,2.81 3.019,3.184 4.402,0.375 -6.599,6.448 3.523,7.833 l 1.044,4.007 -5.792,1.985 c 0,0 -10.857,-7.455 -6.267,-10.077 4.589,-2.623 5.808,-2.154 1.686,-3.465 -4.122,-1.312 -2.192,-3.19 2.248,-5.059 4.44,-1.868 -1.592,-0.655 -6.088,-1.311 -4.496,-0.656 -0.844,-2.716 -7.119,-2.81 -6.276,-0.095 -4.402,-1.778 -5.386,-3.955 z"
   id="path17"
   inkscape:connector-curvature="0"
   style="fill:url(#SVGID_1_)" />
<path
   d="m 17.5,21.97642 c -0.328,-0.133 -0.162,-3.61 -0.146,-3.947 0.043,-0.954 0.266,-1.783 0.461,-2.699 0.327,-1.539 -0.926,-3.675 1.295,-4.25 -1.044,0.271 -0.928,-2.5899997 0.57,-2.0609997 -0.331,-0.375 -0.421,-0.978 -0.021,-1.342 0.061,-0.055 -0.252,-0.868 0.39,-1.274 0.439,-0.278 1.396,-0.5239999 1.453,0.244 -0.143,-1.0639999 1.516,-1.5799999 1.698,-0.5 0.124,-2.358 3.39,-0.5659999 2.929,0.791 0.543,-1.5969999 1.708,0.044 1.588,0.129 0.381,-0.268 0.795,-0.868 1.493,-0.693 0.252,0.063 0.238,0.5 0.41,0.562 0.301,0.107 0.701,-0.065 1.003,0.041 0.453,0.158 0.772,0.43 1.267,0.617 2.115,0.797 4.091,0.662 6.31,0.389 4.1,-0.504 7.145,-0.396 10.272,0 3.127,0.396 2.921,-1.004 7.421,-0.798 4.5,0.206 4.913,1.451 10.707,0.795 0,0 -3.701,1.139 -8.094,0.676 -6.406,-0.676 -6.776,1.9309997 -10.033,1.6199997 -5.173,-0.4939997 -7.173,1.3 -7.173,1.3 0,0 2.101,0.7 6.4,0.3 4.299,-0.4 6.2,-0.6 10.399,-0.1 4.199,0.5 6.201,0.8 8.5,0 0,0 -1.4,1.57 -8.601,0.935 -7.201,-0.635 -10.609,0.865 -13.655,0.965 -3.046,0.1 -7.945,-0.4 -7.945,-0.4 0,0 3.6,1.601 7.1,1.8 3.5,0.199 6.5,-1.107 9.1,-0.514 0,0 -3.2,0.414 -5.5,1.514 -2.3,1.1 -5.3,1.1 -7.2,0.8 0,0 7.6,2.635 15.1,0.967 7.5,-1.668 5.8,3.034 5.8,3.034 0,0 -15.386,1.199 -21.743,-0.701 -6.357,-1.9 -11.257,-1.6 -10.857,1.8 0.397,3.358 -10.425,0.083 -10.698,0 z"
   id="path19"
   inkscape:connector-curvature="0"
   style="fill:#c7b397" />
<path
   d="m 17.4,20.87742 c 0,0 -4.9,5 -12.4,9.4 v 28.7 l 21.8,-3.833 25.6,-1.567 10.4,0.534 2.4,-7.833 c 0,0 -29.7,-18.2 -37.1,-25.4 0,-10e-4 -5.4,1.799 -10.7,-10e-4 z"
   id="path21"
   inkscape:connector-curvature="0"
   style="fill:#777760" />
<path
   d="m 35.009,26.43442 c -2.937,-2.145 -5.394,-4.083 -6.909,-5.557 0,0 -5.4,1.8 -10.7,0 0,0 -2.677,2.728 -7.094,5.925 2.538,-0.997 6.164,-0.993 3.194,1.475 -7.1,5.9 -5.5,11 -1.9,5 3.6,-6 7.3,-7.7 6,0 -0.575,3.406 3.7,9.567 4.3,2.4 0.434,-5.182 0.666,-9.5 2.833,-7.9 2.167,1.6 0.967,3.5 3.267,5 2.3,1.5 2.4,-1.025 0,-3.663 -2.4,-2.638 -1.5,-4.037 2.5,-1.037 4,3 7.6,8.3 8.5,5.4 0.832,-2.68 -7.808,-7.237 -3.991,-7.043 z"
   id="path23"
   inkscape:connector-curvature="0"
   style="fill:#5b5b51" />
<path
   style="fill:#dac2a4"
   inkscape:connector-curvature="0"
   id="path25"
   d="m 49.146,28.76042 c 0,0 -1.351,-3.782 -0.226,-6.282 1.125,-2.5 -1.375,-4.125 3.875,-5.875 5.25,-1.75 0.75,-4.375 5.625,-6.25 4.875,-1.8749997 4.5,1.625 9.625,-0.125 0,0 -2.771,1.712 -6,1.125 -2.75,-0.5 -3,1.375 -3,1.375 0,0 3.875,1.125 7.375,0 3.5,-1.125 6.375,-4.1249997 14,-1.125 7.625,3 8.375,-0.375 15.375,1.75 0,0 -4.125,-0.5 -6.125,0.375 -2,0.875 -6.625,1.375 -9.625,-0.25 -3,-1.625 -8,0.125 -9.25,0.75 0,0 2.5,3 5.625,3 3.125,0 4.625,-2.625 8.625,-1.75 4,0.875 7.75,-0.125 7.75,-0.125 0,0 -2.375,1.375 -4.875,1.375 -2.5,0 -5.75,0.375 -7.125,1.25 -1.375,0.875 -5.625,2.625 -8.375,0.875 0,0 2.125,2.5 6.125,2.5 4,0 6.25,-2.625 11.25,-1.875 5,0.75 8.75,2.375 16.5,1 0,0 -7.125,2.125 -11.375,2.125 -4.25,0 -5.375,-1.375 -9,-0.375 0,0 0.75,1.625 7.875,2 0,0 -3.875,1.75 -9.5,0.125 -1.898,-0.548 -6.625,0 -8.625,0.75 -2,0.75 -5.75,0.25 -5.75,0.25 0,0 3.875,1.5 7.375,1.5 0,0 -6.5,1 -9,0 -2.5,-1 -6.593,-0.837 -5,2.125 0.927,1.723 -2,0.125 -2.5,-2.5 -0.5,-2.625 -2.793,0.706 -3.418,1.956 -0.625,1.25 -1.219,-1.126 -1.906,-1.813 -0.687,-0.687 -4.801,0.982 -4.801,2.107" /><path
   style="fill:#333333"
   inkscape:connector-curvature="0"
   id="path27"
   d="m 83.428,55.14442 c -2.108,-13.595 -2.315,-21.336 -2.315,-21.336 -4.429,0.705 -5.637,0.201 -5.637,0.201 -0.604,5.435 -0.503,11.775 -0.503,11.775 H 72.96 c 0,-2.818 -1.006,-5.737 -1.006,-5.737 -5.535,1.107 -5.77,0.604 -5.77,0.604 -0.905,-6.441 -2.92,-13.385 -2.92,-13.385 l -2.213,0.704 1.006,12.983 -2.416,0.101 c -1.71,-5.334 -1.609,-13.487 -1.609,-13.487 l -2.315,-0.402 -0.502,13.889 h -1.31 c -1.106,-8.555 -2.615,-12.983 -2.615,-12.983 l -2.417,0.302 c 0.219,9.74 -0.503,12.883 -0.503,12.883 l -3.623,0.403 c 0.704,5.435 -0.402,13.486 -0.402,13.486 h 39.083 z m -2.833,-15.416 c 0.167,2.833 0.666,4.5 0.666,4.5 l -1.333,0.25 c -0.5,-3.083 -0.5,-4.583 -0.5,-4.583 z m -2,-4.917 c 0,2.333 0.583,4.333 0.583,4.333 h -1.167 c -0.25,-1.583 -0.25,-4 -0.25,-4 z m -2.417,0.333 1,0.083 c -0.25,2.25 0,4.167 0,4.167 l -1.25,-0.333 c 0,-2.583 0.25,-3.917 0.25,-3.917 z" /><polygon
   style="fill:#ffffff"
   id="polygon29"
   points="58.039,37.926 50.567,44.092 53.797,44.721 47.771,50.934 55.917,44.191 52.88,43.514 "
   transform="translate(6,3.1774203)" />
<path
   d="m 86,52.17742 c -13.333,4.667 -30.667,0 -47.333,-2.667 -14.722,-2.355 -29.938,6.728 -33.292,8.88 v 13.187 c 10.237,0.983 134.882,12.693 125.292,-0.733 -10,-14 -31.334,-23.334 -44.667,-18.667 z"
   id="path33"
   inkscape:connector-curvature="0"
   style="fill:#66a98d" />
<path
   d="m 231.333,65.521145 c -0.215,-0.22989 -0.405,-0.50062 -0.583,-0.793747 -0.353,-0.581642 0.06,-1.123762 0.583,-1.530845 v -0.590206 c -2.063,0.358339 -2.503,1.333232 -3.516,2.000507 -1.192,0.785184 -3.117,0.95579 -4.217,-0.735122 -1.1,-1.690912 -2.763,-0.436067 -2.763,-0.436067 2.004,-0.389957 0.562,2.050568 -0.537,2.016316 -3.08,-0.09749 -6.967,-2.757367 -6.967,-2.757367 1.57,2.572269 -2.933,3.240202 -5.133,2.515619 -2.2,-0.724582 0,-1.932659 0,-1.932659 -2.383,0.362291 -4.033,3.215171 -6.879,3.215171 -2.846,0 -1.554,-2.85288 -0.088,-2.85288 1.466,0 2.567,1.207418 2.567,1.207418 0,0 0.55,-1.086873 -1.833,-1.811456 -2.383,-0.724583 -3.526,1.47749 -5.133,2.536039 -1.607,1.058549 -5.684,1.932659 -6.417,-0.482835 -0.733,-2.415495 2.383,-1.690913 2.383,-1.690913 -2.475,-1.630311 -3.85,0 -6.967,0.96633 -3.117,0.96633 -3.667,1.086874 -5.133,-0.482836 -1.466,-1.569709 -4.217,-1.932659 -4.217,-1.932659 1.191,0.785184 1.467,3.381166 -2.2,3.381166 -3.667,0 -3.483,-1.811457 -3.483,-1.811457 -0.55,1.086874 -1.833,1.93266 -5.316,1.93266 -3.483,0 -2.567,-2.294292 -1.1,-2.294292 1.467,0 1.65,1.086874 1.65,1.086874 0,0 1.1,-1.690254 -1.833,-2.294292 -2.933,-0.604039 -4.767,3.502369 -6.6,3.140077 -1.833,-0.362291 -1.283,-1.690912 -1.283,-1.690912 0,0 -2.383,1.690912 -5.683,1.690912 -3.3,0 -3.3,0 -4.4,-2.053203 -1.1,-2.053204 -4.033,-0.724583 -4.033,-0.724583 2.567,0 1.833,2.536039 -0.183,2.536039 -2.016,0 -2.75,-0.362291 -5.684,-3.018874 -2.934,-2.656584 -5.133,0 -5.133,0 5.235,-1.634263 5.316,2.656583 3.3,2.656583 -2.016,0 -2.566,-0.96633 -2.566,-0.96633 -2.383,1.56971 -4.95,1.811457 -7.15,1.086874 -2.2,-0.724583 -2.566,-1.569709 -2.566,-1.569709 0,0 0,1.449165 -2.383,1.449165 -2.383,0 -2.75,-1.328621 -5.867,-2.415495 -3.117,-1.086874 -4.95,0.482836 -4.95,0.482836 2.2,-0.482836 4.217,0.96567 3.117,2.415494 -1.1,1.449824 -3.85,0 -3.85,0 -0.55,1.690913 -5.317,1.690913 -6.05,0.121203 -0.733,-1.569709 2.383,-1.449165 2.383,-1.449165 0,0 -0.367,-1.207418 -2.75,-1.207418 -2.383,0 -2.934,2.053204 -5.5,1.811456 -2.566,-0.241747 -3.67,-1.932 -3.67,-1.932 0,0 -1.283,1.811456 -5.133,1.811456 -3.85,0 -5.505,-2.053203 -8.067,-2.053203 -2.562,0 -1.65,1.811456 -1.65,1.811456 0,0 0.367,-1.086874 2.2,-0.482835 1.833,0.604038 0,2.294292 -3.3,1.690912 -3.3,-0.60338 -2.017,-2.173748 -2.017,-2.173748 0,0 -2.75,2.053204 -4.767,2.053204 -2.017,0 -2.75,-1.207418 -2.75,-1.207418 0,0 0,1.328621 -2.383,1.328621 -2.383,0 -2.383,-1.207418 -3.85,-2.898331 -1.467,-1.690912 -4.4,0 -4.4,0 1.833,0 2.017,1.56971 -1.1,2.536039 -3.117,0.96633 -3.3,-0.966329 -3.3,-0.966329 -0.825,0.543437 -2.75,0 -5.5,-1.086874 -2.75,-1.086874 -2.75,0.724582 -2.75,0.724582 1.1,-1.086873 2.383,1.086874 0.917,1.449166 -1.466,0.362291 -3.667,0 -3.667,-1.449166 0,-1.449165 2.017,-1.690912 2.017,-1.690912 0,0 -3.758,-0.30169 -5.5,0.845786 -1.742,1.147475 -3.85,2.415494 -5.867,2.173747 -2.017,-0.241747 -2.383,-1.690253 -3.3,-2.89833 -0.917,-1.208077 -3.667,-0.96633 -3.667,-0.96633 1.65,2.173748 -1.833,3.502369 -4.216,3.502369 -2.383,0 -1.65,-1.570368 -1.65,-1.570368 0,0 -2.383,1.569709 -4.583,1.569709 -2.2,0 -2.75,-1.449165 -4.767,-3.622912 C 8.235,59.217936 6.367,59.832513 5.376,60.33511 v 0.366244 c 0.907,0.349775 1.769,2.053862 0.608,2.819285 -0.176,0.115933 -0.382,0.216057 -0.608,0.303007 V 195.091 H 231.334 V 65.521145 Z"
   id="path35"
   inkscape:connector-curvature="0"
   style="fill:#88cff5;stroke-width:0.8116104" />

<path
   style="fill:#ffffff"
   inkscape:connector-curvature="0"
   id="path49"
   d="m 116.647,125.81942 c 0,0 1.559,1.692 0,4.957 0,0 0.517,-2.106 -1.598,-4.221" /><path
   style="fill:#ffffff"
   inkscape:connector-curvature="0"
   id="path51"
   d="m 112.314,127.83142 c 0,0 1.559,1.692 0,4.957 0,0 0.517,-2.106 -1.598,-4.221" /><path
   style="fill:#ffffff"
   inkscape:connector-curvature="0"
   id="path53"
   d="m 108.223,129.81442 c 0,0 1.727,1.381 0.721,4.709 0,0 0.185,-2.076 -2.131,-3.777" /><path
   style="fill:#ffffff"
   inkscape:connector-curvature="0"
   id="path55"
   d="m 104.462,132.37042 c 0,0 1.751,1.07 1.214,4.251 0,0 -0.072,-1.933 -2.403,-3.228" /><path
   style="fill:#ffffff"
   inkscape:connector-curvature="0"
   id="path57"
   d="m 101.168,135.60042 c 0,0 1.772,0.694 1.796,3.687 0,0 -0.378,-1.754 -2.718,-2.56" /><path
   style="fill:#ffffff"
   inkscape:connector-curvature="0"
   id="path59"
   d="m 116.901,162.22442 c 0,0 1.426,-1.806 -0.375,-4.942 0,0 0.674,2.062 -1.273,4.329" /><path
   style="fill:#ffffff"
   inkscape:connector-curvature="0"
   id="path61"
   d="m 112.429,159.81042 c 0,0 1.426,-1.806 -0.376,-4.942 0,0 0.675,2.061 -1.273,4.329" /><path
   style="fill:#ffffff"
   inkscape:connector-curvature="0"
   id="path63"
   d="m 108.198,158.14342 c 0,0 1.617,-1.508 0.362,-4.75 0,0 0.341,2.057 -1.839,3.928" /><path
   style="fill:#ffffff"
   inkscape:connector-curvature="0"
   id="path65"
   d="m 104.574,156.39342 c 0,0 1.454,-1.447 0.192,-4.416 0,0 0.379,1.896 -1.587,3.698" /><path
   style="fill:#ffffff"
   inkscape:connector-curvature="0"
   id="path67"
   d="m 168.045,132.06942 c 0,0 0.821,0.893 0,2.613 0,0 0.272,-1.11 -0.843,-2.225" /><path
   style="fill:#ffffff"
   inkscape:connector-curvature="0"
   id="path69"
   d="m 165.761,133.13042 c 0,0 0.821,0.892 0,2.613 0,0 0.272,-1.11 -0.843,-2.226" /><path
   style="fill:#ffffff"
   inkscape:connector-curvature="0"
   id="path71"
   d="m 163.604,134.17542 c 0,0 0.91,0.728 0.38,2.482 0,0 0.098,-1.095 -1.123,-1.991" /><path
   style="fill:#ffffff"
   inkscape:connector-curvature="0"
   id="path73"
   d="m 161.621,135.52342 c 0,0 0.923,0.564 0.64,2.241 0,0 -0.038,-1.019 -1.267,-1.701" /><path
   style="fill:#ffffff"
   inkscape:connector-curvature="0"
   id="path75"
   d="m 159.885,137.22642 c 0,0 0.934,0.365 0.946,1.943 0,0 -0.199,-0.925 -1.433,-1.35" /><path
   style="fill:#ffffff"
   inkscape:connector-curvature="0"
   id="path77"
   d="m 168.179,151.26142 c 0,0 0.752,-0.952 -0.197,-2.605 0,0 0.354,1.087 -0.672,2.282" /><path
   style="fill:#ffffff"
   inkscape:connector-curvature="0"
   id="path79"
   d="m 165.821,149.98942 c 0,0 0.751,-0.952 -0.199,-2.605 0,0 0.356,1.086 -0.671,2.282" /><path
   style="fill:#ffffff"
   inkscape:connector-curvature="0"
   id="path81"
   d="m 163.591,149.11042 c 0,0 0.853,-0.795 0.19,-2.504 0,0 0.18,1.084 -0.969,2.07" /><path
   style="fill:#ffffff"
   inkscape:connector-curvature="0"
   id="path83"
   d="m 161.68,148.18742 c 0,0 0.767,-0.763 0.102,-2.328 0,0 0.2,1 -0.836,1.95" /><path
   style="fill:#ffffff"
   inkscape:connector-curvature="0"
   id="path85"
   d="m 194.678,136.36742 c 0,0 0.41,0.446 0,1.306 0,0 0.137,-0.555 -0.421,-1.111" /><path
   style="fill:#ffffff"
   inkscape:connector-curvature="0"
   id="path87"
   d="m 193.537,136.89842 c 0,0 0.41,0.445 0,1.306 0,0 0.136,-0.555 -0.421,-1.112" /><path
   style="fill:#ffffff"
   inkscape:connector-curvature="0"
   id="path89"
   d="m 192.459,137.42042 c 0,0 0.455,0.363 0.19,1.239 0,0 0.049,-0.547 -0.562,-0.994" /><path
   style="fill:#ffffff"
   inkscape:connector-curvature="0"
   id="path91"
   d="m 191.469,138.09342 c 0,0 0.461,0.282 0.32,1.119 0,0 -0.02,-0.509 -0.633,-0.85" /><path
   style="fill:#ffffff"
   inkscape:connector-curvature="0"
   id="path93"
   d="m 190.602,138.94442 c 0,0 0.467,0.183 0.473,0.971 0,0 -0.1,-0.462 -0.715,-0.674" /><path
   style="fill:#ffffff"
   inkscape:connector-curvature="0"
   id="path95"
   d="m 194.745,145.95442 c 0,0 0.375,-0.476 -0.099,-1.302 0,0 0.177,0.543 -0.336,1.14" /><path
   style="fill:#ffffff"
   inkscape:connector-curvature="0"
   id="path97"
   d="m 193.567,145.31942 c 0,0 0.375,-0.476 -0.1,-1.302 0,0 0.178,0.543 -0.335,1.141" /><path
   style="fill:#ffffff"
   inkscape:connector-curvature="0"
   id="path99"
   d="m 192.453,144.87942 c 0,0 0.426,-0.396 0.095,-1.25 0,0 0.09,0.541 -0.483,1.034" /><path
   style="fill:#ffffff"
   inkscape:connector-curvature="0"
   id="path101"
   d="m 191.498,144.41842 c 0,0 0.383,-0.381 0.051,-1.162 0,0 0.101,0.499 -0.417,0.974" />
<path
   d="m 114.653,165.37942 c 0,0 3.917,0.653 3.917,-0.87 0,-1.523 -2.61,-3.047 -6.746,-4.788 -4.136,-1.741 -15.235,-6.312 -20.676,-15.452 0,0 3.171,4.239 8.271,-6.094 4.006,-8.117 17.737,-11.861 19.587,-13.711 1.85,-1.85 -2.829,-3.481 -2.829,-3.481 l -16.281,-1.159 -13.75,15.25 -5.125,12.125 21.875,19.875 z"
   id="path105"
   inkscape:connector-curvature="0"
   style="fill:#d2d0de" />
<path
   d="m 83.968,179.18842 c 0,0 -2.83,6.649 -9.142,11.002 0,0 4.135,-5.224 1.306,-5.224 -2.829,0 -2.829,0 -2.829,0 0,0 3.918,-1.959 2.177,-2.829 -1.741,-0.87 -2.177,-0.218 -2.177,-0.218 0,0 3.041,-0.397 1.956,-3.463"
   id="path107"
   inkscape:connector-curvature="0"
   style="fill:#d2d0de" />
<path
   d="m 94.186,112.54942 c 0,0 -6.954,-7.673 -15.877,-10.937 0,0 6.941,5.727 -6.312,1.307 -3.265,-1.089 -4.135,0.217 -4.135,0.217 0,0 4.354,4.136 1.959,4.136 -2.395,0 -6.312,-0.87 -8.488,0 0,0 3.7,3.047 -1.088,3.047 -4.788,0 -4.135,0.87 -4.135,0.87 0,0 3.917,1.307 0.652,2.177 -3.265,0.87 -4.135,1.741 -4.135,1.741 0,0 2.258,1.267 0.79,2.025"
   id="path109"
   inkscape:connector-curvature="0"
   style="fill:#d2d0de" />
<path
   d="m 104.315,113.01142 c -2.077,-1.35 -4.333,-0.166 -3.333,1.667 1,1.833 3.917,3.249 4.833,2.333 0.916,-0.916 1.833,-1.834 -1.5,-4 z"
   id="path111"
   inkscape:connector-curvature="0"
   style="fill:#ffffff" />
<path
   d="m 34.564,138.82842 c 0,0 6.746,-13.276 14.581,-19.152 7.835,-5.876 22.853,-7.835 27.857,-8.487 5.004,-0.652 22.809,0.948 32.645,6.312 2.395,1.306 6.529,3.482 6.529,3.482 0,0 -12.405,8.27 -16.758,14.146 -4.353,5.876 -4.136,11.97 -8.271,9.141 0,0 6.094,9.141 9.576,12.623 3.482,3.482 8.923,8.052 13.929,8.487 0,0 -1.088,4.135 -4.353,6.094 -3.265,1.959 -20.021,11.969 -40.479,5.658 -20.458,-6.311 -31.775,-14.799 -36.346,-20.893 0,0 -3.264,3.265 -7.834,5.006 -4.57,1.741 -10.229,6.964 -10.229,6.964 0,0 -0.653,-3.916 3.264,-7.834 3.918,-3.918 7.836,-8.487 7.836,-13.711 0,-5.224 -0.219,-15.017 -6.312,-20.022 10e-4,-0.001 11.754,-0.219 14.365,12.186 z"
   id="path113"
   inkscape:connector-curvature="0"
   style="fill:#a6a0bc" />
<path
   d="m 75.915,169.94942 c 0,0 -6.311,6.312 -9.141,11.1 -2.83,4.788 -6.965,8.487 -12.623,8.923 0,0 6.746,-5.657 5.223,-8.487 -1.523,-2.83 -3.699,-0.653 -3.699,-0.653 0,0 4.57,-1.523 6.094,-4.353 1.524,-2.83 -2.395,-1.741 -2.395,-1.741 0,0 9.794,-3.482 2.177,-3.482 0,0 5.659,-0.651 8.053,-1.958"
   id="path115"
   inkscape:connector-curvature="0"
   style="fill:#d2d0de" />
<path
   d="m 100.648,113.01142 c -2.077,-1.35 -4.333,-0.166 -3.333,1.667 1,1.833 3.917,3.249 4.833,2.333 0.916,-0.916 1.833,-1.834 -1.5,-4 z"
   id="path117"
   inkscape:connector-curvature="0"
   style="fill:#ffffff" />
<circle
   cx="100.896"
   cy="115.44843"
   r="1.062"
   id="circle119" />
<path
   d="m 166.993,152.92442 c 0,0 2.065,0.345 2.065,-0.458 0,-0.804 -1.376,-1.606 -3.557,-2.524 -2.18,-0.918 -8.031,-3.327 -10.899,-8.146 0,0 1.672,2.235 4.359,-3.212 2.112,-4.279 9.352,-6.253 10.326,-7.229 0.975,-0.975 -1.491,-1.835 -1.491,-1.835 l -8.583,-0.611 -7.249,8.039 -2.702,6.393 11.532,10.478 z"
   id="path121"
   inkscape:connector-curvature="0"
   style="fill:#fbc366" />
<path
   d="m 150.816,160.20442 c 0,0 -1.491,3.505 -4.819,5.8 0,0 2.181,-2.754 0.688,-2.754 -1.491,0 -1.491,0 -1.491,0 0,0 2.065,-1.033 1.147,-1.491 -0.918,-0.459 -1.147,-0.115 -1.147,-0.115 0,0 1.604,-0.209 1.031,-1.825"
   id="path123"
   inkscape:connector-curvature="0"
   style="fill:#fbc366" />
<path
   d="m 156.203,125.07342 c 0,0 -3.666,-4.045 -8.37,-5.766 0,0 3.66,3.02 -3.327,0.689 -1.721,-0.574 -2.18,0.114 -2.18,0.114 0,0 2.295,2.18 1.033,2.18 -1.263,0 -3.328,-0.458 -4.476,0 0,0 1.951,1.606 -0.573,1.606 -2.524,0 -2.18,0.459 -2.18,0.459 0,0 2.065,0.688 0.344,1.147 -1.721,0.459 -2.18,0.918 -2.18,0.918 0,0 1.19,0.668 0.417,1.067"
   id="path125"
   inkscape:connector-curvature="0"
   style="fill:#fbc366" />
<path
   d="m 162.414,125.66242 c -1.37,-0.889 -2.856,-0.108 -2.198,1.1 0.659,1.209 2.583,2.143 3.187,1.539 0.604,-0.604 1.208,-1.209 -0.989,-2.639 z"
   id="path127"
   inkscape:connector-curvature="0"
   style="fill:#ffffff" />
<path
   d="m 124.772,138.92742 c 0,0 3.557,-6.999 7.687,-10.097 4.131,-3.098 12.048,-4.13 14.687,-4.474 2.638,-0.344 12.023,0.5 17.209,3.327 1.263,0.688 3.442,1.836 3.442,1.836 0,0 -6.54,4.359 -8.835,7.457 -2.294,3.098 -2.18,6.311 -4.359,4.818 0,0 3.212,4.819 5.048,6.655 1.836,1.836 4.704,4.244 7.343,4.474 0,0 -0.573,2.18 -2.294,3.213 -1.722,1.032 -10.555,6.31 -21.34,2.982 -10.785,-3.326 -16.751,-7.801 -19.161,-11.014 0,0 -1.721,1.721 -4.13,2.639 -2.409,0.918 -5.392,3.672 -5.392,3.672 0,0 -0.345,-2.064 1.72,-4.13 2.065,-2.065 4.132,-4.475 4.132,-7.229 0,-2.754 -0.116,-7.916 -3.328,-10.556 -10e-4,0.002 6.195,-0.112 7.571,6.427 z"
   id="path129"
   inkscape:connector-curvature="0"
   style="fill:#f99b00" />
<path
   d="m 146.571,155.33442 c 0,0 -3.326,3.327 -4.818,5.851 -1.492,2.524 -3.672,4.475 -6.654,4.704 0,0 3.556,-2.982 2.753,-4.474 -0.803,-1.492 -1.95,-0.345 -1.95,-0.345 0,0 2.409,-0.804 3.213,-2.295 0.803,-1.491 -1.263,-0.918 -1.263,-0.918 0,0 5.163,-1.836 1.147,-1.836 0,0 2.983,-0.343 4.245,-1.032"
   id="path131"
   inkscape:connector-curvature="0"
   style="fill:#fbc366" />
<path
   d="m 159.996,125.66242 c -1.37,-0.889 -2.857,-0.108 -2.198,1.1 0.66,1.209 2.583,2.143 3.188,1.539 0.603,-0.604 1.207,-1.209 -0.99,-2.639 z"
   id="path133"
   inkscape:connector-curvature="0"
   style="fill:#ffffff" />
<circle
   cx="160.159"
   cy="127.27042"
   r="0.70099998"
   id="circle135" />
<path
   d="m 194.152,146.78442 c 0,0 1.032,0.173 1.032,-0.229 0,-0.402 -0.688,-0.802 -1.777,-1.261 -1.088,-0.458 -4.011,-1.662 -5.443,-4.069 0,0 0.835,1.117 2.177,-1.604 1.056,-2.137 4.672,-3.123 5.158,-3.61 0.486,-0.486 -0.745,-0.916 -0.745,-0.916 l -4.287,-0.306 -3.621,4.016 -1.35,3.192 5.761,5.234 z"
   id="path137"
   inkscape:connector-curvature="0"
   style="fill:#746fc3" />
<path
   d="m 186.072,150.42142 c 0,0 -0.745,1.751 -2.407,2.897 0,0 1.089,-1.376 0.344,-1.376 -0.745,0 -0.745,0 -0.745,0 0,0 1.032,-0.516 0.573,-0.745 -0.458,-0.229 -0.573,-0.057 -0.573,-0.057 0,0 0.802,-0.104 0.516,-0.912"
   id="path139"
   inkscape:connector-curvature="0"
   style="fill:#746fc3" />
<path
   d="m 188.763,132.87342 c 0,0 -1.831,-2.021 -4.181,-2.88 0,0 1.828,1.509 -1.662,0.345 -0.859,-0.287 -1.089,0.057 -1.089,0.057 0,0 1.146,1.089 0.517,1.089 -0.631,0 -1.662,-0.229 -2.235,0 0,0 0.975,0.803 -0.287,0.803 -1.261,0 -1.089,0.229 -1.089,0.229 0,0 1.032,0.344 0.172,0.573 -0.859,0.229 -1.089,0.458 -1.089,0.458 0,0 0.595,0.334 0.209,0.533"
   id="path141"
   inkscape:connector-curvature="0"
   style="fill:#746fc3" />
<path
   d="m 192.238,132.82342 c -0.944,-0.613 -1.97,-0.076 -1.516,0.757 0.455,0.835 1.78,1.478 2.197,1.062 0.417,-0.417 0.835,-0.834 -0.681,-1.819 z"
   id="path143"
   inkscape:connector-curvature="0"
   style="fill:#ffffff" />
<path
   d="m 173.063,139.79342 c 0,0 1.776,-3.496 3.839,-5.043 2.063,-1.548 6.019,-2.063 7.336,-2.234 1.318,-0.172 6.006,0.249 8.597,1.661 0.63,0.345 1.719,0.918 1.719,0.918 0,0 -3.267,2.177 -4.413,3.725 -1.146,1.547 -1.089,3.151 -2.177,2.406 0,0 1.604,2.407 2.521,3.324 0.918,0.917 2.351,2.12 3.668,2.234 0,0 -0.286,1.089 -1.146,1.605 -0.86,0.516 -5.272,3.151 -10.659,1.489 -5.388,-1.661 -8.367,-3.896 -9.571,-5.501 0,0 -0.859,0.859 -2.062,1.318 -1.204,0.458 -2.693,1.834 -2.693,1.834 0,0 -0.172,-1.031 0.859,-2.063 1.031,-1.031 2.063,-2.234 2.063,-3.61 0,-1.376 -0.058,-3.954 -1.662,-5.272 -0.001,0 3.094,-0.056 3.781,3.209 z"
   id="path145"
   inkscape:connector-curvature="0"
   style="fill:#180f9b" />
<path
   d="m 183.952,147.98942 c 0,0 -1.662,1.662 -2.407,2.923 -0.745,1.261 -1.834,2.234 -3.323,2.35 0,0 1.775,-1.49 1.375,-2.234 -0.401,-0.746 -0.975,-0.173 -0.975,-0.173 0,0 1.203,-0.401 1.604,-1.146 0.401,-0.744 -0.63,-0.458 -0.63,-0.458 0,0 2.579,-0.917 0.573,-0.917 0,0 1.49,-0.171 2.12,-0.516"
   id="path147"
   inkscape:connector-curvature="0"
   style="fill:#746fc3" />
<path
   d="m 190.57,132.82342 c -0.943,-0.613 -1.969,-0.076 -1.516,0.757 0.455,0.835 1.781,1.478 2.199,1.062 0.416,-0.417 0.834,-0.834 -0.683,-1.819 z"
   id="path149"
   inkscape:connector-curvature="0"
   style="fill:#ffffff" />
<circle
   cx="190.683"
   cy="133.93141"
   r="0.48300001"
   id="circle151" />
<path
   style="fill:#0061a3"
   inkscape:connector-curvature="0"
   id="path153"
   d="m 206.89,134.35742 c -0.127,0.449 -0.675,1.098 -2.28,0.01 -1.604,-1.088 -0.809,-1.173 -1.958,-1.03 -1.149,0.142 -0.998,-1.125 -3.5,-1.342 0,0 1.062,-0.172 1.649,0.125 0.588,0.298 1.438,0.98 2.235,0.777 0.797,-0.203 1.207,0.241 1.531,0.243 0.325,0 2.623,0.157 2.323,1.217 z" /><path
   style="fill:#ffffff"
   inkscape:connector-curvature="0"
   id="path155"
   d="m 206.022,132.61342 c 0.851,0.289 0.033,1.597 -0.497,1.062 -0.53,-0.535 -0.361,-1.353 0.497,-1.062 z" /><path
   style="fill:#ffffff"
   inkscape:connector-curvature="0"
   id="path157"
   d="m 205.247,134.08442 c 0.655,0.128 0.517,0.739 0.271,0.983 -0.246,0.244 -1.027,0.117 -1.025,-0.415 0.002,-0.337 0.47,-0.624 0.754,-0.568 z" /><circle
   id="circle159"
   r="0.25"
   cy="133.38341"
   cx="205.955" /><circle
   id="circle161"
   r="0.25"
   cy="134.60141"
   cx="205.409" />
<path
   style="fill:#0061a3"
   inkscape:connector-curvature="0"
   id="path165"
   d="m 223.717,153.13742 c -0.05,0.464 -0.479,1.196 -2.246,0.395 -1.765,-0.801 -0.995,-1.019 -2.104,-0.684 -1.108,0.334 -1.173,-0.939 -3.676,-0.731 0,0 1.018,-0.35 1.646,-0.156 0.63,0.194 1.583,0.723 2.334,0.388 0.751,-0.334 1.23,0.034 1.55,-0.02 0.321,-0.053 2.612,-0.288 2.496,0.808 z" /><path
   style="fill:#ffffff"
   inkscape:connector-curvature="0"
   id="path167"
   d="m 222.566,151.56442 c 0.887,0.141 0.303,1.569 -0.31,1.131 -0.612,-0.437 -0.585,-1.272 0.31,-1.131 z" /><path
   style="fill:#ffffff"
   inkscape:connector-curvature="0"
   id="path169"
   d="m 222.052,153.14542 c 0.667,0.016 0.634,0.641 0.433,0.923 -0.201,0.282 -0.993,0.29 -1.08,-0.235 -0.056,-0.332 0.358,-0.695 0.647,-0.688 z" /><circle
   id="circle171"
   r="0.25"
   cy="152.33542"
   cx="222.63" /><circle
   id="circle173"
   r="0.25"
   cy="153.62842"
   cx="222.299" />
<path
   style="fill:#0061a3"
   inkscape:connector-curvature="0"
   id="path177"
   d="m 216.979,132.58642 c 0.203,0.358 0.27,1.106 -1.413,1.438 -1.682,0.33 -1.239,-0.222 -1.865,0.589 -0.626,0.811 -1.327,-0.073 -3.021,1.363 0,0 0.553,-0.774 1.105,-0.959 0.552,-0.184 1.51,-0.293 1.879,-0.92 0.368,-0.627 0.902,-0.608 1.104,-0.811 0.203,-0.203 1.731,-1.548 2.211,-0.7 z" /><path
   style="fill:#ffffff"
   inkscape:connector-curvature="0"
   id="path179"
   d="m 215.342,132.04542 c 0.711,-0.354 1.024,0.974 0.358,0.974 -0.665,0 -1.074,-0.615 -0.358,-0.974 z" /><path
   style="fill:#ffffff"
   inkscape:connector-curvature="0"
   id="path181"
   d="m 215.784,133.44842 c 0.488,-0.332 0.786,0.135 0.786,0.441 0,0.306 -0.565,0.718 -0.898,0.386 -0.211,-0.211 -0.099,-0.684 0.112,-0.827 z" /><circle
   id="circle183"
   r="0.221"
   cy="132.56743"
   cx="215.784" /><circle
   id="circle185"
   r="0.221"
   cy="133.66742"
   cx="216.21001" />
<path
   style="fill:#0061a3"
   inkscape:connector-curvature="0"
   id="path189"
   d="m 225.729,143.91042 c 0.02,0.462 -0.296,1.242 -2.144,0.712 -1.845,-0.53 -1.122,-0.854 -2.161,-0.366 -1.038,0.488 -1.285,-0.751 -3.709,-0.185 0,0 0.947,-0.489 1.592,-0.391 0.645,0.098 1.655,0.479 2.344,0.043 0.688,-0.438 1.212,-0.146 1.516,-0.244 0.307,-0.098 2.519,-0.66 2.562,0.431 z" /><path
   style="fill:#ffffff"
   inkscape:connector-curvature="0"
   id="path191"
   d="m 224.374,142.53542 c 0.891,0.01 0.524,1.494 -0.14,1.154 -0.663,-0.341 -0.756,-1.163 0.14,-1.154 z" /><path
   style="fill:#ffffff"
   inkscape:connector-curvature="0"
   id="path193"
   d="m 224.1,144.16042 c 0.656,-0.082 0.714,0.536 0.558,0.841 -0.156,0.306 -0.931,0.427 -1.093,-0.074 -0.104,-0.319 0.249,-0.732 0.535,-0.767 z" /><circle
   id="circle195"
   r="0.24699999"
   cy="143.28142"
   cx="224.549" /><circle
   id="circle197"
   r="0.24699999"
   cy="144.59642"
   cx="224.411" />
<path
   style="fill:#0061a3"
   inkscape:connector-curvature="0"
   id="path201"
   d="m 226.172,137.27942 c -0.048,0.383 -0.417,0.983 -1.869,0.289 -1.45,-0.693 -0.807,-0.859 -1.733,-0.601 -0.924,0.258 -0.957,-0.798 -3.037,-0.667 0,0 0.85,-0.272 1.369,-0.102 0.519,0.171 1.3,0.626 1.929,0.361 0.629,-0.267 1.02,0.047 1.284,0.009 0.268,-0.039 2.172,-0.197 2.057,0.711 z" /><path
   style="fill:#ffffff"
   inkscape:connector-curvature="0"
   id="path203"
   d="m 225.244,135.95542 c 0.734,0.131 0.226,1.306 -0.275,0.934 -0.5,-0.373 -0.464,-1.066 0.275,-0.934 z" /><path
   style="fill:#ffffff"
   inkscape:connector-curvature="0"
   id="path205"
   d="m 224.792,137.25842 c 0.553,0.024 0.515,0.542 0.344,0.771 -0.171,0.231 -0.828,0.223 -0.892,-0.212 -0.041,-0.277 0.308,-0.569 0.548,-0.559 z" /><circle
   id="circle207"
   r="0.206"
   cy="136.59541"
   cx="225.285" /><circle
   id="circle209"
   r="0.207"
   cy="137.66141"
   cx="224.989" />
<path
   style="fill:#0061a3"
   inkscape:connector-curvature="0"
   id="path213"
   d="m 208.567,141.21042 c -0.043,0.347 -0.376,0.89 -1.688,0.265 -1.311,-0.625 -0.731,-0.778 -1.568,-0.542 -0.835,0.235 -0.866,-0.72 -2.744,-0.599 0,0 0.767,-0.248 1.236,-0.094 0.469,0.154 1.177,0.564 1.744,0.323 0.568,-0.24 0.921,0.042 1.162,0.006 0.241,-0.035 1.961,-0.178 1.858,0.641 z" /><path
   style="fill:#ffffff"
   inkscape:connector-curvature="0"
   id="path215"
   d="m 207.728,140.01642 c 0.662,0.118 0.205,1.18 -0.249,0.844 -0.454,-0.336 -0.421,-0.962 0.249,-0.844 z" /><path
   style="fill:#ffffff"
   inkscape:connector-curvature="0"
   id="path217"
   d="m 207.32,141.19442 c 0.5,0.021 0.465,0.488 0.311,0.697 -0.155,0.208 -0.748,0.203 -0.806,-0.191 -0.036,-0.251 0.279,-0.516 0.495,-0.506 z" /><circle
   id="circle219"
   r="0.18700001"
   cy="140.59541"
   cx="207.765" /><circle
   id="circle221"
   r="0.18700001"
   cy="141.55942"
   cx="207.498" />
<path
   style="fill:#0061a3"
   inkscape:connector-curvature="0"
   id="path225"
   d="m 205.391,150.81142 c 0.025,0.466 -0.284,1.257 -2.154,0.746 -1.871,-0.511 -1.145,-0.849 -2.187,-0.341 -1.042,0.506 -1.308,-0.743 -3.747,-0.138 0,0 0.95,-0.507 1.602,-0.416 0.652,0.092 1.678,0.462 2.366,0.012 0.689,-0.45 1.22,-0.162 1.528,-0.267 0.307,-0.102 2.532,-0.697 2.592,0.404 z" /><path
   style="fill:#ffffff"
   inkscape:connector-curvature="0"
   id="path227"
   d="m 204.005,149.44042 c 0.898,-0.002 0.548,1.501 -0.126,1.166 -0.675,-0.334 -0.781,-1.163 0.126,-1.166 z" /><path
   style="fill:#ffffff"
   inkscape:connector-curvature="0"
   id="path229"
   d="m 203.748,151.08342 c 0.661,-0.09 0.728,0.532 0.574,0.842 -0.155,0.311 -0.935,0.443 -1.104,-0.061 -0.108,-0.319 0.243,-0.742 0.53,-0.781 z" /><circle
   id="circle231"
   r="0.25"
   cy="150.19142"
   cx="204.19" /><circle
   id="circle233"
   r="0.25"
   cy="151.52042"
   cx="204.06799" />
<path
   style="fill:#0061a3"
   inkscape:connector-curvature="0"
   id="path237"
   d="m 217.644,147.23242 c 0.041,0.395 -0.186,1.076 -1.792,0.725 -1.606,-0.352 -1.005,-0.669 -1.866,-0.195 -0.86,0.474 -1.139,-0.571 -3.178,0.045 0,0 0.783,-0.47 1.338,-0.42 0.556,0.048 1.439,0.318 2.004,-0.092 0.563,-0.411 1.024,-0.19 1.281,-0.291 0.257,-0.101 2.115,-0.701 2.213,0.228 z" /><path
   style="fill:#ffffff"
   inkscape:connector-curvature="0"
   id="path239"
   d="m 216.411,146.13142 c 0.761,-0.041 0.53,1.247 -0.056,0.993 -0.585,-0.254 -0.709,-0.951 0.056,-0.993 z" /><path
   style="fill:#ffffff"
   inkscape:connector-curvature="0"
   id="path241"
   d="m 216.265,147.53342 c 0.555,-0.105 0.639,0.418 0.521,0.688 -0.116,0.27 -0.771,0.416 -0.937,-0.003 -0.104,-0.266 0.174,-0.64 0.416,-0.685 z" /><circle
   id="circle243"
   r="0.212"
   cy="146.75941"
   cx="216.60201" /><circle
   id="circle245"
   r="0.212"
   cy="147.89041"
   cx="216.55499" />
<path
   style="fill:#0061a3"
   inkscape:connector-curvature="0"
   id="path249"
   d="m 204.151,143.82042 c -0.014,0.551 -0.448,1.448 -2.595,0.677 -2.148,-0.77 -1.264,-1.101 -2.533,-0.602 -1.269,0.498 -1.465,-0.989 -4.382,-0.506 0,0 1.161,-0.507 1.916,-0.339 0.757,0.165 1.925,0.695 2.776,0.231 0.848,-0.465 1.443,-0.078 1.815,-0.172 0.371,-0.091 3.034,-0.584 3.003,0.711 z" /><path
   style="fill:#ffffff"
   inkscape:connector-curvature="0"
   id="path251"
   d="m 202.651,142.08642 c 1.055,0.08 0.507,1.811 -0.255,1.356 -0.76,-0.454 -0.807,-1.436 0.255,-1.356 z" /><path
   style="fill:#ffffff"
   inkscape:connector-curvature="0"
   id="path253"
   d="m 202.199,143.99042 c 0.783,-0.046 0.805,0.689 0.595,1.039 -0.209,0.352 -1.135,0.436 -1.288,-0.172 -0.098,-0.385 0.352,-0.849 0.693,-0.867 z" /><circle
   id="circle255"
   r="0.294"
   cy="142.98442"
   cx="202.80099" /><circle
   id="circle257"
   r="0.294"
   cy="144.53241"
   cx="202.535" />
<path
   style="fill:#0061a3"
   inkscape:connector-curvature="0"
   id="path261"
   d="m 215.601,140.30842 c -0.098,0.332 -0.51,0.807 -1.689,-0.015 -1.179,-0.82 -0.587,-0.877 -1.441,-0.781 -0.854,0.094 -0.729,-0.843 -2.582,-1.028 0,0 0.789,-0.117 1.221,0.108 0.433,0.225 1.056,0.739 1.649,0.597 0.593,-0.145 0.891,0.189 1.133,0.193 0.24,0.006 1.941,0.144 1.709,0.926 z" /><path
   style="fill:#ffffff"
   inkscape:connector-curvature="0"
   id="path263"
   d="m 214.974,139.00642 c 0.628,0.223 0.011,1.185 -0.377,0.784 -0.388,-0.402 -0.256,-1.006 0.377,-0.784 z" /><path
   style="fill:#ffffff"
   inkscape:connector-curvature="0"
   id="path265"
   d="m 214.385,140.09142 c 0.484,0.1 0.377,0.551 0.192,0.729 -0.186,0.179 -0.762,0.079 -0.755,-0.316 0.004,-0.25 0.354,-0.459 0.563,-0.413 z" /><circle
   id="circle267"
   r="0.184"
   cy="139.57741"
   cx="214.91701" /><circle
   id="circle269"
   r="0.185"
   cy="140.47542"
   cx="214.50101" />




<text
   font-size="8"
   id="text301"
   style="font-size:8px;font-family:ArialMT"
   x="106.666"
   y="14.84442">Mercury</text>





<path
   d="m 164.84,104.07542 c -7.111,-1.805 -14.464,-3.671 -23.165,-5.462 -6.96,-1.433 -12.214,-2.808 -16.85,-4.021 -10.535,-2.756 -18.146,-4.748 -34.825,-4.748 -13.643,0 -21.401,-0.703 -25.31,-1.232 0.701,-1.451 1.606,-2.628 1.606,-2.628 -6.792,3.301 -20.659,5.744 -20.659,5.744 3.571,0.928 17.694,9.658 17.694,9.658 -0.507,-0.991 -0.536,-2.046 -0.409,-2.919 4.438,0.63 12.723,1.377 27.078,1.377 15.392,0 22.116,1.759 32.293,4.422 4.756,1.245 10.146,2.655 17.365,4.142 8.479,1.746 15.719,3.583 22.722,5.36 11.504,2.92 22.372,5.678 36.352,7.373 l 1.203,-9.928 c -13.345,-1.617 -23.91,-4.299 -35.095,-7.138 z"
   id="path343"
   inkscape:connector-curvature="0"
   style="opacity:0.7;fill:#3381b5;stroke:#66a0c8;stroke-width:0.5" />
<path
   d="m 98.74,97.71042 c 9.096,0.602 14.843,2.106 22.593,4.134 4.756,1.245 10.146,2.655 17.365,4.142 5.911,1.217 11.221,2.479 16.267,3.733"
   id="path345"
   inkscape:connector-curvature="0"
   style="fill:none" />
<text
   transform="rotate(5.1119487)"
   id="text367"
   x="107.01684"
   y="88.494987"
   style="font-size:11.99972916px;stroke-width:0.99997741"><tspan
     x="107.01684"
     y="88.494987"
     font-size="8"
     id="tspan347"
     style="font-size:7.99981928px;font-family:ArialMT;fill:#ffffff;stroke-width:0.99997741">F</tspan><tspan
     x="111.83373"
     y="88.468987"
     font-size="8"
     rotate="3.507"
     id="tspan349"
     style="font-size:7.99981928px;font-family:ArialMT;fill:#ffffff;stroke-width:0.99997741">O</tspan><tspan
     x="117.94959"
     y="88.848984"
     font-size="8"
     rotate="7.3270001"
     id="tspan351"
     style="font-size:7.99981928px;font-family:ArialMT;fill:#ffffff;stroke-width:0.99997741">O</tspan><tspan
     x="124.06545"
     y="89.657967"
     font-size="8"
     rotate="9.3299999"
     id="tspan353"
     style="font-size:7.99981928px;font-family:ArialMT;fill:#ffffff;stroke-width:0.99997741">D</tspan><tspan
     x="129.77432"
     y="90.602943"
     font-size="8"
     rotate="9.5310001"
     id="tspan355"
     style="font-size:7.99981928px;font-family:ArialMT;fill:#ffffff;stroke-width:0.99997741"> </tspan><tspan
     x="131.93729"
     y="90.97493"
     font-size="8"
     rotate="9.1400003"
     id="tspan357"
     style="font-size:7.99981928px;font-family:ArialMT;fill:#ffffff;stroke-width:0.99997741">C</tspan><tspan
     x="137.63315"
     y="91.894913"
     font-size="8"
     rotate="8.0489998"
     id="tspan359"
     style="font-size:7.99981928px;font-family:ArialMT;fill:#ffffff;stroke-width:0.99997741">H</tspan><tspan
     x="143.31903"
     y="92.696892"
     font-size="8"
     rotate="6.8629999"
     id="tspan361"
     style="font-size:7.99981928px;font-family:ArialMT;fill:#ffffff;stroke-width:0.99997741">A</tspan><tspan
     x="148.6049"
     y="93.321884"
     font-size="8"
     rotate="6.888"
     id="tspan363"
     style="font-size:7.99981928px;font-family:ArialMT;fill:#ffffff;stroke-width:0.99997741">I</tspan><tspan
     x="150.80986"
     y="93.577873"
     font-size="8"
     rotate="7.5440001"
     id="tspan365"
     style="font-size:7.99981928px;font-family:ArialMT;fill:#ffffff;stroke-width:0.99997741">N</tspan></text>

<path
   style="fill:none;stroke:#000000;stroke-dasharray:1, 2"
   inkscape:connector-curvature="0"
   id="path369"
   d="m 92.667,17.84442 c 0,0 50.995,0 81,0" /><path
   inkscape:connector-curvature="0"
   id="path371"
   d="m 176.029,16.81942 c -1.653,-0.5 -2.728,-0.959 -4.054,-1.492 v 5.044 c 0.475,-0.226 2.401,-0.993 4.054,-1.492 1.77,-0.535 3.374,-0.9 4.415,-1.031 -1.041,-0.129 -2.646,-0.495 -4.415,-1.029 z" /><path
   inkscape:connector-curvature="0"
   id="path373"
   d="m 192.32,82.43142 c -1.653,-0.5 -2.728,-0.959 -4.054,-1.492 v 5.044 c 0.475,-0.226 2.401,-0.993 4.054,-1.492 1.77,-0.535 3.374,-0.9 4.415,-1.031 -1.041,-0.129 -2.646,-0.494 -4.415,-1.029 z" />
<text
   font-size="8"
   id="text377"
   style="font-size:8px;font-family:ArialMT;fill:#ffffff"
   x="45.6675"
   y="59.331718">Coal plant</text>

<text
   style="font-size:8px;font-family:ArialMT;opacity:0.5;stroke:#ffffff;stroke-width:2"
   id="text379"
   font-size="8"
   transform="rotate(90)"
   x="34.977222"
   y="-214.4019">Methylmercury</text>
<text
   style="font-size:8px;font-family:ArialMT"
   id="text381"
   font-size="8"
   transform="rotate(90)"
   x="34.977222"
   y="-214.4019">Methylmercury</text>

<path
   style="fill:none;stroke:#000000;stroke-dasharray:1, 2"
   inkscape:connector-curvature="0"
   id="path385"
   d="m 173.667,17.84442 c 10.442,0 18.342,0 20.666,0 9,0 17,4.667 17,12.667 0,8 0,91.333 0,91.333" /><path
   inkscape:connector-curvature="0"
   id="path387"
   d="m 212.358,124.20542 c 0.5,-1.653 0.959,-2.728 1.492,-4.054 h -5.044 c 0.226,0.475 0.993,2.401 1.492,4.054 0.535,1.77 0.9,3.374 1.031,4.415 0.129,-1.041 0.495,-2.645 1.029,-4.415 z" />






<path
   d="m 51.707,120.27142 c 0,0 -3.332,2.272 -3.786,3.787 -0.454,1.515 0,3.029 2.575,2.271 2.575,-0.758 4.089,-1.817 4.089,-1.817 0,0 -4.847,2.271 -5.755,0.909 -0.908,-1.362 0.832,-3.105 2.877,-5.15 z"
   id="path403"
   inkscape:connector-curvature="0"
   style="fill:#ffffff" />
<path
   d="m 56.402,120.57442 c 0,0 -2.044,2.348 0,4.392 2.044,2.044 6.209,-1.061 6.209,-1.061 0,0 -2.467,1.817 -4.695,0.909 -2.228,-0.908 -1.968,-2.877 -1.514,-4.24 z"
   id="path405"
   inkscape:connector-curvature="0"
   style="fill:#ffffff" />
<path
   d="m 47.163,127.38942 c 0,0 -2.272,2.575 -0.909,3.938 1.363,1.363 3.938,0.909 6.209,-0.606 0,0 -2.817,1.212 -4.695,0.606 -1.878,-0.606 -0.908,-2.272 -0.605,-3.938 z"
   id="path407"
   inkscape:connector-curvature="0"
   style="fill:#ffffff" />
<path
   d="m 46.103,132.69042 c 0,0 -1.969,2.877 0,3.938 1.969,1.061 5.755,-1.363 5.755,-1.363 0,0 -2.121,1.212 -4.695,0.757 -2.574,-0.455 -1.06,-3.332 -1.06,-3.332 z"
   id="path409"
   inkscape:connector-curvature="0"
   style="fill:#ffffff" />
<path
   d="m 42.923,128.29842 c 0,0 -5.907,8.633 1.969,3.332 0,0 -6.058,4.089 -1.969,-3.332 z"
   id="path411"
   inkscape:connector-curvature="0"
   style="fill:#ffffff" />
<path
   d="m 76.5,114.55242 c 0,0 -5.75,0.75 -3.25,1.875 2.5,1.125 4.25,0.75 4.25,0.75 0,0 -1.65,0.051 -3.384,-0.754 -1.734,-0.805 -0.241,-1.121 2.384,-1.871 z"
   id="path413"
   inkscape:connector-curvature="0"
   style="fill:#ffffff" />
<path
   d="m 81.438,115.96942 c 0,0 -2.844,-0.212 -2.995,1.361 -0.151,1.573 5.173,1.331 5.173,1.331 0,0 -2.395,-0.101 -3.782,-0.635 -1.387,-0.534 -1.24,-1.693 1.604,-2.057 z"
   id="path415"
   inkscape:connector-curvature="0"
   style="fill:#ffffff" />





<text
   font-size="8"
   id="text427"
   style="font-size:8px;font-family:ArialMT;fill:#ffffff"
   x="9.3418007"
   y="42.844421">Volcano</text>

<text
   font-size="9"
   id="text429"
   style="font-size:9px;font-family:MyriadPro-Regular"
   x="126.1914"
   y="33.041721">Mine</text>

<path
   d="m 154.726,56.98742 c 0.779,0.442 2.361,0.106 2.159,1.491 -0.267,1.828 -3.345,2.533 -2.772,4.552 0.567,1.998 2.48,3.334 4.271,4.131 1.394,0.62 3.155,1.725 2.141,3.464 -0.683,1.171 -2.21,1.822 -2.642,3.145 -0.686,2.097 3.769,3.117 4.978,3.474 11.409,3.368 0.685,5.634 18.227,6.201 H 202.2 c 3.227,0 9.134,-0.214 9.134,7.399"
   id="path431"
   inkscape:connector-curvature="0"
   style="fill:none;stroke:#000000;stroke-dasharray:1, 2" />
</svg>