<?xml version="1.0" encoding="UTF-8" standalone="no"?>
<!-- Created with Inkscape (http://www.inkscape.org/) -->

<svg
   width="720"
   height="210"
   viewBox="0 0 190.5 55.562501"
   version="1.1"
   id="svg8"
   inkscape:version="1.2.2 (732a01da63, 2022-12-09)"
   sodipodi:docname="substitution_exponential.svg"
   xmlns:inkscape="http://www.inkscape.org/namespaces/inkscape"
   xmlns:sodipodi="http://sodipodi.sourceforge.net/DTD/sodipodi-0.dtd"
   xmlns="http://www.w3.org/2000/svg"
   xmlns:svg="http://www.w3.org/2000/svg"
   xmlns:rdf="http://www.w3.org/1999/02/22-rdf-syntax-ns#"
   xmlns:cc="http://creativecommons.org/ns#"
   xmlns:dc="http://purl.org/dc/elements/1.1/"
   xmlns:ns1="http://www.iki.fi/pav/software/textext/">
  <defs
     id="defs2">
    <marker
       inkscape:stockid="Arrow2Mend"
       orient="auto"
       refY="0"
       refX="0"
       id="marker5642"
       style="overflow:visible"
       inkscape:isstock="true">
      <path
         id="path5640"
         style="fill:#0000ff;fill-opacity:1;fill-rule:evenodd;stroke:#0000ff;stroke-width:0.625;stroke-linejoin:round;stroke-opacity:1"
         d="M 8.7185878,4.0337352 -2.2072895,0.01601326 8.7185884,-4.0017078 c -1.7454984,2.3720609 -1.7354408,5.6174519 -6e-7,8.035443 z"
         transform="scale(-0.6)"
         inkscape:connector-curvature="0" />
    </marker>
    <marker
       inkscape:stockid="Arrow2Mend"
       orient="auto"
       refY="0"
       refX="0"
       id="marker5572"
       style="overflow:visible"
       inkscape:isstock="true">
      <path
         id="path5570"
         style="fill:#ff0000;fill-opacity:1;fill-rule:evenodd;stroke:#ff0000;stroke-width:0.625;stroke-linejoin:round;stroke-opacity:1"
         d="M 8.7185878,4.0337352 -2.2072895,0.01601326 8.7185884,-4.0017078 c -1.7454984,2.3720609 -1.7354408,5.6174519 -6e-7,8.035443 z"
         transform="scale(-0.6)"
         inkscape:connector-curvature="0" />
    </marker>
    <marker
       inkscape:isstock="true"
       style="overflow:visible"
       id="marker5459"
       refX="0"
       refY="0"
       orient="auto"
       inkscape:stockid="Arrow2Mend">
      <path
         transform="scale(-0.6)"
         d="M 8.7185878,4.0337352 -2.2072895,0.01601326 8.7185884,-4.0017078 c -1.7454984,2.3720609 -1.7354408,5.6174519 -6e-7,8.035443 z"
         style="fill:#56b4e9;fill-opacity:1;fill-rule:evenodd;stroke:#56b4e9;stroke-width:0.625;stroke-linejoin:round;stroke-opacity:1"
         id="path5457"
         inkscape:connector-curvature="0" />
    </marker>
    <marker
       inkscape:isstock="true"
       style="overflow:visible"
       id="marker5203"
       refX="0"
       refY="0"
       orient="auto"
       inkscape:stockid="Arrow2Mend">
      <path
         transform="scale(-0.6)"
         d="M 8.7185878,4.0337352 -2.2072895,0.01601326 8.7185884,-4.0017078 c -1.7454984,2.3720609 -1.7354408,5.6174519 -6e-7,8.035443 z"
         style="fill:#d55e00;fill-opacity:1;fill-rule:evenodd;stroke:#d55e00;stroke-width:0.625;stroke-linejoin:round;stroke-opacity:1"
         id="path5201"
         inkscape:connector-curvature="0" />
    </marker>
    <marker
       inkscape:stockid="Arrow2Mend"
       orient="auto"
       refY="0"
       refX="0"
       id="marker4035"
       style="overflow:visible"
       inkscape:isstock="true"
       inkscape:collect="always">
      <path
         id="path4033"
         style="fill:#0000ff;fill-opacity:1;fill-rule:evenodd;stroke:#0000ff;stroke-width:0.625;stroke-linejoin:round;stroke-opacity:1"
         d="M 8.7185878,4.0337352 -2.2072895,0.01601326 8.7185884,-4.0017078 c -1.7454984,2.3720609 -1.7354408,5.6174519 -6e-7,8.035443 z"
         transform="scale(-0.6)"
         inkscape:connector-curvature="0" />
    </marker>
    <marker
       inkscape:isstock="true"
       style="overflow:visible"
       id="marker2781"
       refX="0"
       refY="0"
       orient="auto"
       inkscape:stockid="Arrow2Mend"
       inkscape:collect="always">
      <path
         transform="scale(-0.6)"
         d="M 8.7185878,4.0337352 -2.2072895,0.01601326 8.7185884,-4.0017078 c -1.7454984,2.3720609 -1.7354408,5.6174519 -6e-7,8.035443 z"
         style="fill:#d55e00;fill-opacity:1;fill-rule:evenodd;stroke:#d55e00;stroke-width:0.625;stroke-linejoin:round;stroke-opacity:1"
         id="path2779"
         inkscape:connector-curvature="0" />
    </marker>
    <marker
       inkscape:isstock="true"
       style="overflow:visible"
       id="marker2358"
       refX="0"
       refY="0"
       orient="auto"
       inkscape:stockid="Arrow2Mend"
       inkscape:collect="always">
      <path
         transform="scale(-0.6)"
         d="M 8.7185878,4.0337352 -2.2072895,0.01601326 8.7185884,-4.0017078 c -1.7454984,2.3720609 -1.7354408,5.6174519 -6e-7,8.035443 z"
         style="fill:#56b4e9;fill-opacity:1;fill-rule:evenodd;stroke:#56b4e9;stroke-width:0.625;stroke-linejoin:round;stroke-opacity:1"
         id="path2356"
         inkscape:connector-curvature="0" />
    </marker>
    <marker
       inkscape:stockid="Arrow2Mend"
       orient="auto"
       refY="0"
       refX="0"
       id="Arrow2Mend"
       style="overflow:visible"
       inkscape:isstock="true"
       inkscape:collect="always">
      <path
         id="path1257"
         style="fill:#ff0000;fill-opacity:1;fill-rule:evenodd;stroke:#ff0000;stroke-width:0.625;stroke-linejoin:round;stroke-opacity:1"
         d="M 8.7185878,4.0337352 -2.2072895,0.01601326 8.7185884,-4.0017078 c -1.7454984,2.3720609 -1.7354408,5.6174519 -6e-7,8.035443 z"
         transform="scale(-0.6)"
         inkscape:connector-curvature="0" />
    </marker>
  </defs>
  <sodipodi:namedview
     id="base"
     pagecolor="#ffffff"
     bordercolor="#666666"
     borderopacity="1.0"
     inkscape:pageopacity="0.0"
     inkscape:pageshadow="2"
     inkscape:zoom="1.8255485"
     inkscape:cx="293.61039"
     inkscape:cy="54.230277"
     inkscape:document-units="mm"
     inkscape:current-layer="g4925"
     showgrid="false"
     inkscape:window-width="1920"
     inkscape:window-height="986"
     inkscape:window-x="-11"
     inkscape:window-y="-11"
     inkscape:window-maximized="1"
     showguides="false"
     fit-margin-top="5"
     fit-margin-left="5"
     fit-margin-right="5"
     fit-margin-bottom="5"
     gridtolerance="10"
     objecttolerance="32"
     inkscape:showpageshadow="2"
     inkscape:pagecheckerboard="0"
     inkscape:deskcolor="#d1d1d1" />
  <metadata
     id="metadata5">
    <rdf:RDF>
      <cc:Work
         rdf:about="">
        <dc:format>image/svg+xml</dc:format>
        <dc:type
           rdf:resource="http://purl.org/dc/dcmitype/StillImage" />
      </cc:Work>
    </rdf:RDF>
  </metadata>
  <g
     inkscape:label="Layer 1"
     inkscape:groupmode="layer"
     id="layer1"
     transform="translate(-23.293829,-112.76497)">
    <g
       id="g927"
       ns1:jacobian_sqrt="0.924177"
       ns1:alignment="middle center"
       ns1:scale="2.61971523168"
       ns1:preamble="C:/Users/nmitche6/AppData/Roaming/inkscape/extensions/textext/default_packages.tex"
       ns1:text="$$(2, 4) \\, (6, 10) \\, f(x)=a \\, b^x \\, 4 = a \\, b^2 \\, 10 = a \\, b^6$$\n"
       ns1:pdfconverter="pdf2svg"
       ns1:texconverter="pdflatex"
       ns1:version="0.11.0"
       transform="matrix(0.924177,0,0,0.924177,-177.49341,15.787721)">
      <g
         id="g4925">
        <g
           transform="matrix(0.96131339,0,0,0.96131339,-4.1320394,4.1475062)"
           style="fill:#0000ff;fill-opacity:1"
           id="g854">
          <path
             style="fill:#0000ff;stroke:none;stroke-width:0"
             d="m 3.65625,-3.984375 h 0.859375 c 0.203125,0 0.296875,0 0.296875,-0.203125 0,-0.109375 -0.09375,-0.109375 -0.265625,-0.109375 H 3.71875 L 3.921875,-5.4375 c 0.046875,-0.203125 0.1875,-0.90625 0.25,-1.03125 0.078125,-0.1875 0.25,-0.34375 0.46875,-0.34375 0.03125,0 0.296875,0 0.484375,0.1875 -0.4375,0.03125 -0.546875,0.390625 -0.546875,0.53125 0,0.234375 0.1875,0.359375 0.375,0.359375 C 5.21875,-5.734375 5.5,-5.96875 5.5,-6.34375 c 0,-0.453125 -0.453125,-0.6875 -0.859375,-0.6875 -0.34375,0 -0.96875,0.1875 -1.265625,1.171875 -0.0625,0.203125 -0.09375,0.3125 -0.328125,1.5625 h -0.6875 c -0.203125,0 -0.3125,0 -0.3125,0.1875 0,0.125 0.09375,0.125 0.28125,0.125 h 0.65625 L 2.25,-0.046875 c -0.1875,0.96875 -0.359375,1.875 -0.875,1.875 -0.046875,0 -0.28125,0 -0.484375,-0.1875 C 1.359375,1.609375 1.453125,1.25 1.453125,1.109375 1.453125,0.875 1.265625,0.75 1.078125,0.75 0.8125,0.75 0.53125,0.984375 0.53125,1.359375 c 0,0.4375 0.4375,0.6875 0.84375,0.6875 0.546875,0 0.953125,-0.59375 1.125,-0.96875 0.328125,-0.625 0.546875,-1.828125 0.5625,-1.90625 z m 0,0"
             transform="translate(269.38,146.72)"
             id="path852"
             inkscape:connector-curvature="0" />
        </g>
        <g
           transform="matrix(0.96131339,0,0,0.96131339,-4.1320394,4.1475062)"
           style="fill:#0000ff;fill-opacity:1"
           id="g858">
          <path
             style="fill:#0000ff;stroke:none;stroke-width:0"
             d="m 3.296875,2.390625 c 0,-0.03125 0,-0.046875 -0.171875,-0.21875 C 1.890625,0.921875 1.5625,-0.96875 1.5625,-2.5 c 0,-1.734375 0.375,-3.46875 1.609375,-4.703125 0.125,-0.125 0.125,-0.140625 0.125,-0.171875 0,-0.078125 -0.03125,-0.109375 -0.09375,-0.109375 -0.109375,0 -1,0.6875 -1.59375,1.953125 -0.5,1.09375 -0.625,2.203125 -0.625,3.03125 0,0.78125 0.109375,1.984375 0.65625,3.125 C 2.25,1.84375 3.09375,2.5 3.203125,2.5 c 0.0625,0 0.09375,-0.03125 0.09375,-0.109375 z m 0,0"
             transform="translate(275.33,146.72)"
             id="path856"
             inkscape:connector-curvature="0" />
        </g>
        <g
           transform="matrix(0.96131339,0,0,0.96131339,-4.1320394,4.1475062)"
           style="fill:#0000ff;fill-opacity:1"
           id="g862">
          <path
             style="fill:#0000ff;stroke:none;stroke-width:0"
             d="M 3.328125,-3.015625 C 3.390625,-3.265625 3.625,-4.1875 4.3125,-4.1875 c 0.046875,0 0.296875,0 0.5,0.125 C 4.53125,-4 4.34375,-3.765625 4.34375,-3.515625 c 0,0.15625 0.109375,0.34375 0.375,0.34375 0.21875,0 0.53125,-0.171875 0.53125,-0.578125 0,-0.515625 -0.578125,-0.65625 -0.921875,-0.65625 -0.578125,0 -0.921875,0.53125 -1.046875,0.75 -0.25,-0.65625 -0.78125,-0.75 -1.078125,-0.75 -1.03125,0 -1.609375,1.28125 -1.609375,1.53125 0,0.109375 0.109375,0.109375 0.125,0.109375 0.078125,0 0.109375,-0.03125 0.125,-0.109375 0.34375,-1.0625 1,-1.3125 1.34375,-1.3125 0.1875,0 0.53125,0.09375 0.53125,0.671875 0,0.3125 -0.171875,0.96875 -0.53125,2.375 -0.15625,0.609375 -0.515625,1.03125 -0.953125,1.03125 -0.0625,0 -0.28125,0 -0.5,-0.125 0.25,-0.0625 0.46875,-0.265625 0.46875,-0.546875 0,-0.265625 -0.21875,-0.34375 -0.359375,-0.34375 -0.3125,0 -0.546875,0.25 -0.546875,0.578125 0,0.453125 0.484375,0.65625 0.921875,0.65625 0.671875,0 1.03125,-0.703125 1.046875,-0.75 0.125,0.359375 0.484375,0.75 1.078125,0.75 1.03125,0 1.59375,-1.28125 1.59375,-1.53125 0,-0.109375 -0.078125,-0.109375 -0.109375,-0.109375 -0.09375,0 -0.109375,0.046875 -0.140625,0.109375 -0.328125,1.078125 -1,1.3125 -1.3125,1.3125 -0.390625,0 -0.546875,-0.3125 -0.546875,-0.65625 0,-0.21875 0.046875,-0.4375 0.15625,-0.875 z m 0,0"
             transform="translate(279.204,146.72)"
             id="path860"
             inkscape:connector-curvature="0" />
        </g>
        <g
           transform="matrix(0.96131339,0,0,0.96131339,-4.1320394,4.1475062)"
           style="fill:#0000ff;fill-opacity:1"
           id="g866">
          <path
             style="fill:#0000ff;stroke:none;stroke-width:0"
             d="m 2.875,-2.5 c 0,-0.765625 -0.109375,-1.96875 -0.65625,-3.109375 -0.59375,-1.21875 -1.453125,-1.875 -1.546875,-1.875 -0.0625,0 -0.109375,0.046875 -0.109375,0.109375 0,0.03125 0,0.046875 0.1875,0.234375 0.984375,0.984375 1.546875,2.5625 1.546875,4.640625 0,1.71875 -0.359375,3.46875 -1.59375,4.71875 C 0.5625,2.34375 0.5625,2.359375 0.5625,2.390625 0.5625,2.453125 0.609375,2.5 0.671875,2.5 0.765625,2.5 1.671875,1.8125 2.25,0.546875 2.765625,-0.546875 2.875,-1.65625 2.875,-2.5 Z m 0,0"
             transform="translate(284.898,146.72)"
             id="path864"
             inkscape:connector-curvature="0" />
        </g>
        <g
           transform="matrix(0.96131339,0,0,0.96131339,-4.1320394,4.1475062)"
           style="fill:#000000;fill-opacity:1"
           id="g870">
          <path
             style="stroke:none;stroke-width:0"
             d="m 6.84375,-3.265625 c 0.15625,0 0.34375,0 0.34375,-0.1875 C 7.1875,-3.65625 7,-3.65625 6.859375,-3.65625 h -5.96875 c -0.140625,0 -0.328125,0 -0.328125,0.203125 0,0.1875 0.1875,0.1875 0.328125,0.1875 z m 0.015625,1.9375 c 0.140625,0 0.328125,0 0.328125,-0.203125 0,-0.1875 -0.1875,-0.1875 -0.34375,-0.1875 H 0.890625 c -0.140625,0 -0.328125,0 -0.328125,0.1875 0,0.203125 0.1875,0.203125 0.328125,0.203125 z m 0,0"
             transform="translate(291.54206,146.72)"
             id="path868"
             inkscape:connector-curvature="0" />
        </g>
        <g
           transform="matrix(0.96131339,0,0,0.96131339,-4.1320394,4.1475062)"
           style="fill:#000000;fill-opacity:1"
           id="g874">
          <path
             style="stroke:none;stroke-width:0"
             d="M 3.71875,-3.765625 C 3.53125,-4.140625 3.25,-4.40625 2.796875,-4.40625 c -1.15625,0 -2.390625,1.46875 -2.390625,2.921875 0,0.9375 0.546875,1.59375 1.3125,1.59375 0.203125,0 0.703125,-0.046875 1.296875,-0.75 0.078125,0.421875 0.4375,0.75 0.90625,0.75 0.359375,0 0.578125,-0.234375 0.75,-0.546875 0.15625,-0.359375 0.296875,-0.96875 0.296875,-0.984375 0,-0.109375 -0.09375,-0.109375 -0.125,-0.109375 -0.09375,0 -0.109375,0.046875 -0.140625,0.1875 -0.171875,0.640625 -0.34375,1.234375 -0.75,1.234375 -0.28125,0 -0.296875,-0.265625 -0.296875,-0.453125 0,-0.21875 0.015625,-0.3125 0.125,-0.75 C 3.890625,-1.71875 3.90625,-1.828125 4,-2.203125 L 4.359375,-3.59375 c 0.0625,-0.28125 0.0625,-0.296875 0.0625,-0.34375 0,-0.171875 -0.109375,-0.265625 -0.28125,-0.265625 -0.25,0 -0.390625,0.21875 -0.421875,0.4375 z M 3.078125,-1.1875 C 3.015625,-1 3.015625,-0.984375 2.875,-0.8125 2.4375,-0.265625 2.03125,-0.109375 1.75,-0.109375 c -0.5,0 -0.640625,-0.546875 -0.640625,-0.9375 0,-0.5 0.3125,-1.71875 0.546875,-2.1875 0.3125,-0.578125 0.75,-0.953125 1.15625,-0.953125 0.640625,0 0.78125,0.8125 0.78125,0.875 0,0.0625 -0.015625,0.125 -0.03125,0.171875 z m 0,0"
             transform="translate(302.056,146.72)"
             id="path872"
             inkscape:connector-curvature="0" />
        </g>
        <g
           transform="matrix(0.96131339,0,0,0.96131339,-4.1320394,4.1475062)"
           style="fill:#000000;fill-opacity:1"
           id="g878">
          <path
             style="stroke:none;stroke-width:0"
             d="m 2.375,-6.8125 c 0,0 0,-0.109375 -0.125,-0.109375 -0.21875,0 -0.953125,0.078125 -1.21875,0.109375 -0.078125,0 -0.1875,0.015625 -0.1875,0.1875 0,0.125 0.09375,0.125 0.25,0.125 0.46875,0 0.484375,0.0625 0.484375,0.171875 0,0.0625 -0.078125,0.40625 -0.125,0.609375 l -0.828125,3.25 c -0.109375,0.5 -0.15625,0.671875 -0.15625,1.015625 0,0.9375 0.53125,1.5625 1.265625,1.5625 1.171875,0 2.40625,-1.484375 2.40625,-2.921875 0,-0.90625 -0.53125,-1.59375 -1.328125,-1.59375 -0.453125,0 -0.875,0.296875 -1.171875,0.59375 z M 1.453125,-3.046875 C 1.5,-3.265625 1.5,-3.28125 1.59375,-3.390625 2.078125,-4.03125 2.53125,-4.1875 2.796875,-4.1875 c 0.359375,0 0.625,0.296875 0.625,0.9375 0,0.59375 -0.328125,1.734375 -0.515625,2.109375 -0.328125,0.671875 -0.78125,1.03125 -1.171875,1.03125 -0.34375,0 -0.671875,-0.265625 -0.671875,-1 0,-0.203125 0,-0.390625 0.15625,-1.015625 z m 0,0"
             transform="translate(308.98599,146.72)"
             id="path876"
             inkscape:connector-curvature="0" />
        </g>
        <g
           transform="matrix(0.96131339,0,0,0.96131339,-4.1320394,4.1475062)"
           style="fill:#ff0000;fill-opacity:1"
           id="g882">
          <path
             style="fill:#ff0000;stroke:none;stroke-width:0"
             d="M 1.734375,-0.734375 C 1.671875,-0.5 1.4375,-0.125 1.078125,-0.125 c -0.015625,0 -0.234375,0 -0.375,-0.09375 0.28125,-0.09375 0.3125,-0.34375 0.3125,-0.390625 0,-0.15625 -0.125,-0.25 -0.28125,-0.25 -0.203125,0 -0.40625,0.15625 -0.40625,0.421875 0,0.34375 0.390625,0.5 0.734375,0.5 0.328125,0 0.609375,-0.1875 0.78125,-0.484375 C 2.015625,-0.0625 2.390625,0.0625 2.671875,0.0625 c 0.8125,0 1.234375,-0.859375 1.234375,-1.0625 0,-0.09375 -0.09375,-0.09375 -0.109375,-0.09375 -0.109375,0 -0.109375,0.046875 -0.140625,0.125 -0.140625,0.484375 -0.5625,0.84375 -0.953125,0.84375 -0.28125,0 -0.421875,-0.1875 -0.421875,-0.453125 0,-0.1875 0.171875,-0.8125 0.359375,-1.59375 C 2.78125,-2.703125 3.09375,-2.875 3.328125,-2.875 c 0.015625,0 0.21875,0 0.375,0.09375 -0.21875,0.0625 -0.3125,0.265625 -0.3125,0.390625 0,0.140625 0.125,0.25 0.28125,0.25 0.15625,0 0.390625,-0.125 0.390625,-0.421875 0,-0.390625 -0.453125,-0.515625 -0.71875,-0.515625 -0.359375,0 -0.640625,0.234375 -0.78125,0.5 -0.125,-0.28125 -0.453125,-0.5 -0.84375,-0.5 C 0.9375,-3.078125 0.5,-2.21875 0.5,-2 c 0,0.078125 0.09375,0.078125 0.109375,0.078125 0.09375,0 0.09375,-0.015625 0.140625,-0.109375 C 0.921875,-2.578125 1.359375,-2.875 1.703125,-2.875 1.9375,-2.875 2.125,-2.75 2.125,-2.421875 2.125,-2.28125 2.03125,-1.9375 1.96875,-1.6875 Z m 0,0"
             transform="translate(313.258,142.606)"
             id="path880"
             inkscape:connector-curvature="0" />
        </g>
        <g
           transform="matrix(0.96131339,0,0,0.96131339,-38.876635,21.87893)"
           style="fill:#000000;fill-opacity:1"
           id="g890">
          <path
             style="stroke:none;stroke-width:0"
             d="m 6.84375,-3.265625 c 0.15625,0 0.34375,0 0.34375,-0.1875 C 7.1875,-3.65625 7,-3.65625 6.859375,-3.65625 h -5.96875 c -0.140625,0 -0.328125,0 -0.328125,0.203125 0,0.1875 0.1875,0.1875 0.328125,0.1875 z m 0.015625,1.9375 c 0.140625,0 0.328125,0 0.328125,-0.203125 0,-0.1875 -0.1875,-0.1875 -0.34375,-0.1875 H 0.890625 c -0.140625,0 -0.328125,0 -0.328125,0.1875 0,0.203125 0.1875,0.203125 0.328125,0.203125 z m 0,0"
             transform="translate(327.6849,146.72)"
             id="path888"
             inkscape:connector-curvature="0" />
        </g>
        <g
           transform="matrix(0.96131339,0,0,0.96131339,-38.876635,21.87893)"
           style="fill:#000000;fill-opacity:1"
           id="g894">
          <path
             style="stroke:none;stroke-width:0"
             d="M 3.71875,-3.765625 C 3.53125,-4.140625 3.25,-4.40625 2.796875,-4.40625 c -1.15625,0 -2.390625,1.46875 -2.390625,2.921875 0,0.9375 0.546875,1.59375 1.3125,1.59375 0.203125,0 0.703125,-0.046875 1.296875,-0.75 0.078125,0.421875 0.4375,0.75 0.90625,0.75 0.359375,0 0.578125,-0.234375 0.75,-0.546875 0.15625,-0.359375 0.296875,-0.96875 0.296875,-0.984375 0,-0.109375 -0.09375,-0.109375 -0.125,-0.109375 -0.09375,0 -0.109375,0.046875 -0.140625,0.1875 -0.171875,0.640625 -0.34375,1.234375 -0.75,1.234375 -0.28125,0 -0.296875,-0.265625 -0.296875,-0.453125 0,-0.21875 0.015625,-0.3125 0.125,-0.75 C 3.890625,-1.71875 3.90625,-1.828125 4,-2.203125 L 4.359375,-3.59375 c 0.0625,-0.28125 0.0625,-0.296875 0.0625,-0.34375 0,-0.171875 -0.109375,-0.265625 -0.28125,-0.265625 -0.25,0 -0.390625,0.21875 -0.421875,0.4375 z M 3.078125,-1.1875 C 3.015625,-1 3.015625,-0.984375 2.875,-0.8125 2.4375,-0.265625 2.03125,-0.109375 1.75,-0.109375 c -0.5,0 -0.640625,-0.546875 -0.640625,-0.9375 0,-0.5 0.3125,-1.71875 0.546875,-2.1875 0.3125,-0.578125 0.75,-0.953125 1.15625,-0.953125 0.640625,0 0.78125,0.8125 0.78125,0.875 0,0.0625 -0.015625,0.125 -0.03125,0.171875 z m 0,0"
             transform="translate(338.199,146.72)"
             id="path892"
             inkscape:connector-curvature="0" />
        </g>
        <g
           transform="matrix(0.96131339,0,0,0.96131339,-38.876635,21.87893)"
           style="fill:#000000;fill-opacity:1"
           id="g898">
          <path
             style="stroke:none;stroke-width:0"
             d="m 2.375,-6.8125 c 0,0 0,-0.109375 -0.125,-0.109375 -0.21875,0 -0.953125,0.078125 -1.21875,0.109375 -0.078125,0 -0.1875,0.015625 -0.1875,0.1875 0,0.125 0.09375,0.125 0.25,0.125 0.46875,0 0.484375,0.0625 0.484375,0.171875 0,0.0625 -0.078125,0.40625 -0.125,0.609375 l -0.828125,3.25 c -0.109375,0.5 -0.15625,0.671875 -0.15625,1.015625 0,0.9375 0.53125,1.5625 1.265625,1.5625 1.171875,0 2.40625,-1.484375 2.40625,-2.921875 0,-0.90625 -0.53125,-1.59375 -1.328125,-1.59375 -0.453125,0 -0.875,0.296875 -1.171875,0.59375 z M 1.453125,-3.046875 C 1.5,-3.265625 1.5,-3.28125 1.59375,-3.390625 2.078125,-4.03125 2.53125,-4.1875 2.796875,-4.1875 c 0.359375,0 0.625,0.296875 0.625,0.9375 0,0.59375 -0.328125,1.734375 -0.515625,2.109375 -0.328125,0.671875 -0.78125,1.03125 -1.171875,1.03125 -0.34375,0 -0.671875,-0.265625 -0.671875,-1 0,-0.203125 0,-0.390625 0.15625,-1.015625 z m 0,0"
             transform="translate(345.12899,146.72)"
             id="path896"
             inkscape:connector-curvature="0" />
        </g>
        <g
           style="fill:#0000ff"
           transform="matrix(0.58781379,0,0,0.58781379,119.25545,49.31204)"
           id="g1224">
          <g
             transform="translate(5.4883392,-41.162542)"
             style="fill:#0000ff;fill-opacity:1"
             id="g1168">
            <path
               style="fill:#0000ff;stroke:none;stroke-width:0"
               d="m 3.65625,-3.984375 h 0.859375 c 0.203125,0 0.296875,0 0.296875,-0.203125 0,-0.109375 -0.09375,-0.109375 -0.265625,-0.109375 H 3.71875 L 3.921875,-5.4375 c 0.046875,-0.203125 0.1875,-0.90625 0.25,-1.03125 0.078125,-0.1875 0.25,-0.34375 0.46875,-0.34375 0.03125,0 0.296875,0 0.484375,0.1875 -0.4375,0.03125 -0.546875,0.390625 -0.546875,0.53125 0,0.234375 0.1875,0.359375 0.375,0.359375 C 5.21875,-5.734375 5.5,-5.96875 5.5,-6.34375 c 0,-0.453125 -0.453125,-0.6875 -0.859375,-0.6875 -0.34375,0 -0.96875,0.1875 -1.265625,1.171875 -0.0625,0.203125 -0.09375,0.3125 -0.328125,1.5625 h -0.6875 c -0.203125,0 -0.3125,0 -0.3125,0.1875 0,0.125 0.09375,0.125 0.28125,0.125 h 0.65625 L 2.25,-0.046875 c -0.1875,0.96875 -0.359375,1.875 -0.875,1.875 -0.046875,0 -0.28125,0 -0.484375,-0.1875 C 1.359375,1.609375 1.453125,1.25 1.453125,1.109375 1.453125,0.875 1.265625,0.75 1.078125,0.75 0.8125,0.75 0.53125,0.984375 0.53125,1.359375 c 0,0.4375 0.4375,0.6875 0.84375,0.6875 0.546875,0 0.953125,-0.59375 1.125,-0.96875 0.328125,-0.625 0.546875,-1.828125 0.5625,-1.90625 z m 0,0"
               transform="translate(269.38,146.72)"
               id="path1166"
               inkscape:connector-curvature="0" />
          </g>
          <g
             transform="translate(5.4883392,-41.162542)"
             style="fill:#0000ff;fill-opacity:1"
             id="g1172">
            <path
               style="fill:#0000ff;stroke:none;stroke-width:0"
               d="m 3.296875,2.390625 c 0,-0.03125 0,-0.046875 -0.171875,-0.21875 C 1.890625,0.921875 1.5625,-0.96875 1.5625,-2.5 c 0,-1.734375 0.375,-3.46875 1.609375,-4.703125 0.125,-0.125 0.125,-0.140625 0.125,-0.171875 0,-0.078125 -0.03125,-0.109375 -0.09375,-0.109375 -0.109375,0 -1,0.6875 -1.59375,1.953125 -0.5,1.09375 -0.625,2.203125 -0.625,3.03125 0,0.78125 0.109375,1.984375 0.65625,3.125 C 2.25,1.84375 3.09375,2.5 3.203125,2.5 c 0.0625,0 0.09375,-0.03125 0.09375,-0.109375 z m 0,0"
               transform="translate(275.33,146.72)"
               id="path1170"
               inkscape:connector-curvature="0" />
          </g>
          <g
             transform="translate(5.4883392,-41.162542)"
             style="fill:#0000ff;fill-opacity:1"
             id="g1176">
            <path
               style="fill:#0000ff;stroke:none;stroke-width:0"
               d="M 3.328125,-3.015625 C 3.390625,-3.265625 3.625,-4.1875 4.3125,-4.1875 c 0.046875,0 0.296875,0 0.5,0.125 C 4.53125,-4 4.34375,-3.765625 4.34375,-3.515625 c 0,0.15625 0.109375,0.34375 0.375,0.34375 0.21875,0 0.53125,-0.171875 0.53125,-0.578125 0,-0.515625 -0.578125,-0.65625 -0.921875,-0.65625 -0.578125,0 -0.921875,0.53125 -1.046875,0.75 -0.25,-0.65625 -0.78125,-0.75 -1.078125,-0.75 -1.03125,0 -1.609375,1.28125 -1.609375,1.53125 0,0.109375 0.109375,0.109375 0.125,0.109375 0.078125,0 0.109375,-0.03125 0.125,-0.109375 0.34375,-1.0625 1,-1.3125 1.34375,-1.3125 0.1875,0 0.53125,0.09375 0.53125,0.671875 0,0.3125 -0.171875,0.96875 -0.53125,2.375 -0.15625,0.609375 -0.515625,1.03125 -0.953125,1.03125 -0.0625,0 -0.28125,0 -0.5,-0.125 0.25,-0.0625 0.46875,-0.265625 0.46875,-0.546875 0,-0.265625 -0.21875,-0.34375 -0.359375,-0.34375 -0.3125,0 -0.546875,0.25 -0.546875,0.578125 0,0.453125 0.484375,0.65625 0.921875,0.65625 0.671875,0 1.03125,-0.703125 1.046875,-0.75 0.125,0.359375 0.484375,0.75 1.078125,0.75 1.03125,0 1.59375,-1.28125 1.59375,-1.53125 0,-0.109375 -0.078125,-0.109375 -0.109375,-0.109375 -0.09375,0 -0.109375,0.046875 -0.140625,0.109375 -0.328125,1.078125 -1,1.3125 -1.3125,1.3125 -0.390625,0 -0.546875,-0.3125 -0.546875,-0.65625 0,-0.21875 0.046875,-0.4375 0.15625,-0.875 z m 0,0"
               transform="translate(279.204,146.72)"
               id="path1174"
               inkscape:connector-curvature="0" />
          </g>
          <g
             transform="translate(5.4883392,-41.162542)"
             style="fill:#0000ff;fill-opacity:1"
             id="g1180">
            <path
               style="fill:#0000ff;stroke:none;stroke-width:0"
               d="m 2.875,-2.5 c 0,-0.765625 -0.109375,-1.96875 -0.65625,-3.109375 -0.59375,-1.21875 -1.453125,-1.875 -1.546875,-1.875 -0.0625,0 -0.109375,0.046875 -0.109375,0.109375 0,0.03125 0,0.046875 0.1875,0.234375 0.984375,0.984375 1.546875,2.5625 1.546875,4.640625 0,1.71875 -0.359375,3.46875 -1.59375,4.71875 C 0.5625,2.34375 0.5625,2.359375 0.5625,2.390625 0.5625,2.453125 0.609375,2.5 0.671875,2.5 0.765625,2.5 1.671875,1.8125 2.25,0.546875 2.765625,-0.546875 2.875,-1.65625 2.875,-2.5 Z m 0,0"
               transform="translate(284.898,146.72)"
               id="path1178"
               inkscape:connector-curvature="0" />
          </g>
        </g>
        <g
           transform="matrix(0.58781379,0,0,0.58781379,100.31669,24.914069)"
           style="fill:#ff0000;fill-opacity:1"
           id="g1192">
          <path
             style="fill:#ff0000;stroke:none;stroke-width:0"
             d="M 3.328125,-3.015625 C 3.390625,-3.265625 3.625,-4.1875 4.3125,-4.1875 c 0.046875,0 0.296875,0 0.5,0.125 C 4.53125,-4 4.34375,-3.765625 4.34375,-3.515625 c 0,0.15625 0.109375,0.34375 0.375,0.34375 0.21875,0 0.53125,-0.171875 0.53125,-0.578125 0,-0.515625 -0.578125,-0.65625 -0.921875,-0.65625 -0.578125,0 -0.921875,0.53125 -1.046875,0.75 -0.25,-0.65625 -0.78125,-0.75 -1.078125,-0.75 -1.03125,0 -1.609375,1.28125 -1.609375,1.53125 0,0.109375 0.109375,0.109375 0.125,0.109375 0.078125,0 0.109375,-0.03125 0.125,-0.109375 0.34375,-1.0625 1,-1.3125 1.34375,-1.3125 0.1875,0 0.53125,0.09375 0.53125,0.671875 0,0.3125 -0.171875,0.96875 -0.53125,2.375 -0.15625,0.609375 -0.515625,1.03125 -0.953125,1.03125 -0.0625,0 -0.28125,0 -0.5,-0.125 0.25,-0.0625 0.46875,-0.265625 0.46875,-0.546875 0,-0.265625 -0.21875,-0.34375 -0.359375,-0.34375 -0.3125,0 -0.546875,0.25 -0.546875,0.578125 0,0.453125 0.484375,0.65625 0.921875,0.65625 0.671875,0 1.03125,-0.703125 1.046875,-0.75 0.125,0.359375 0.484375,0.75 1.078125,0.75 1.03125,0 1.59375,-1.28125 1.59375,-1.53125 0,-0.109375 -0.078125,-0.109375 -0.109375,-0.109375 -0.09375,0 -0.109375,0.046875 -0.140625,0.109375 -0.328125,1.078125 -1,1.3125 -1.3125,1.3125 -0.390625,0 -0.546875,-0.3125 -0.546875,-0.65625 0,-0.21875 0.046875,-0.4375 0.15625,-0.875 z m 0,0"
             transform="translate(279.204,146.72)"
             id="path1190"
             inkscape:connector-curvature="0" />
        </g>
        <path
           sodipodi:nodetypes="cc"
           inkscape:connector-curvature="0"
           id="path1226"
           d="m 266.62413,112.19263 4.20551,6.26185"
           style="fill:none;stroke:#ff0000;stroke-width:0.412823;stroke-linecap:round;stroke-linejoin:miter;stroke-miterlimit:4;stroke-dasharray:none;stroke-opacity:1;marker-end:url(#Arrow2Mend)" />
        <path
           style="fill:none;stroke:#0000ff;stroke-width:0.412823;stroke-linecap:round;stroke-linejoin:miter;stroke-miterlimit:4;stroke-dasharray:none;stroke-opacity:1;marker-end:url(#marker5642)"
           d="m 285.64079,113.58749 -2.93573,4.85481"
           id="path2354"
           inkscape:connector-curvature="0"
           sodipodi:nodetypes="cc" />
        <path
           sodipodi:nodetypes="cccc"
           inkscape:connector-curvature="0"
           id="path2771"
           d="m 271.48721,127.95459 -0.031,4.76437 h 28.11444 l -0.0444,3.85666"
           style="fill:none;stroke:#ff0000;stroke-width:0.412823;stroke-linecap:round;stroke-linejoin:miter;stroke-miterlimit:4;stroke-dasharray:none;stroke-opacity:1;marker-end:url(#marker5572)" />
        <path
           style="fill:none;stroke:#0000ff;stroke-width:0.412823;stroke-linecap:round;stroke-linejoin:miter;stroke-miterlimit:4;stroke-dasharray:none;stroke-opacity:1;marker-end:url(#marker4035)"
           d="m 281.3738,127.95459 0.031,2.64492 h -18.5483 l -0.0988,5.97611"
           id="path4031"
           inkscape:connector-curvature="0"
           sodipodi:nodetypes="cccc" />
        <g
           transform="matrix(0.96131339,0,0,0.96131339,6.5157246,21.826358)"
           style="fill:#000000;fill-opacity:1"
           id="g912">
          <path
             style="stroke:none;stroke-width:0"
             d="m 6.84375,-3.265625 c 0.15625,0 0.34375,0 0.34375,-0.1875 C 7.1875,-3.65625 7,-3.65625 6.859375,-3.65625 h -5.96875 c -0.140625,0 -0.328125,0 -0.328125,0.203125 0,0.1875 0.1875,0.1875 0.328125,0.1875 z m 0.015625,1.9375 c 0.140625,0 0.328125,0 0.328125,-0.203125 0,-0.1875 -0.1875,-0.1875 -0.34375,-0.1875 H 0.890625 c -0.140625,0 -0.328125,0 -0.328125,0.1875 0,0.203125 0.1875,0.203125 0.328125,0.203125 z m 0,0"
             transform="translate(368.2632,146.72)"
             id="path910"
             inkscape:connector-curvature="0" />
        </g>
        <g
           transform="matrix(0.96131339,0,0,0.96131339,6.5157246,21.826358)"
           style="fill:#000000;fill-opacity:1"
           id="g916">
          <path
             style="stroke:none;stroke-width:0"
             d="M 3.71875,-3.765625 C 3.53125,-4.140625 3.25,-4.40625 2.796875,-4.40625 c -1.15625,0 -2.390625,1.46875 -2.390625,2.921875 0,0.9375 0.546875,1.59375 1.3125,1.59375 0.203125,0 0.703125,-0.046875 1.296875,-0.75 0.078125,0.421875 0.4375,0.75 0.90625,0.75 0.359375,0 0.578125,-0.234375 0.75,-0.546875 0.15625,-0.359375 0.296875,-0.96875 0.296875,-0.984375 0,-0.109375 -0.09375,-0.109375 -0.125,-0.109375 -0.09375,0 -0.109375,0.046875 -0.140625,0.1875 -0.171875,0.640625 -0.34375,1.234375 -0.75,1.234375 -0.28125,0 -0.296875,-0.265625 -0.296875,-0.453125 0,-0.21875 0.015625,-0.3125 0.125,-0.75 C 3.890625,-1.71875 3.90625,-1.828125 4,-2.203125 L 4.359375,-3.59375 c 0.0625,-0.28125 0.0625,-0.296875 0.0625,-0.34375 0,-0.171875 -0.109375,-0.265625 -0.28125,-0.265625 -0.25,0 -0.390625,0.21875 -0.421875,0.4375 z M 3.078125,-1.1875 C 3.015625,-1 3.015625,-0.984375 2.875,-0.8125 2.4375,-0.265625 2.03125,-0.109375 1.75,-0.109375 c -0.5,0 -0.640625,-0.546875 -0.640625,-0.9375 0,-0.5 0.3125,-1.71875 0.546875,-2.1875 0.3125,-0.578125 0.75,-0.953125 1.15625,-0.953125 0.640625,0 0.78125,0.8125 0.78125,0.875 0,0.0625 -0.015625,0.125 -0.03125,0.171875 z m 0,0"
             transform="translate(378.777,146.72)"
             id="path914"
             inkscape:connector-curvature="0" />
        </g>
        <g
           transform="matrix(0.96131339,0,0,0.96131339,6.5157246,21.826358)"
           style="fill:#000000;fill-opacity:1"
           id="g920">
          <path
             style="stroke:none;stroke-width:0"
             d="m 2.375,-6.8125 c 0,0 0,-0.109375 -0.125,-0.109375 -0.21875,0 -0.953125,0.078125 -1.21875,0.109375 -0.078125,0 -0.1875,0.015625 -0.1875,0.1875 0,0.125 0.09375,0.125 0.25,0.125 0.46875,0 0.484375,0.0625 0.484375,0.171875 0,0.0625 -0.078125,0.40625 -0.125,0.609375 l -0.828125,3.25 c -0.109375,0.5 -0.15625,0.671875 -0.15625,1.015625 0,0.9375 0.53125,1.5625 1.265625,1.5625 1.171875,0 2.40625,-1.484375 2.40625,-2.921875 0,-0.90625 -0.53125,-1.59375 -1.328125,-1.59375 -0.453125,0 -0.875,0.296875 -1.171875,0.59375 z M 1.453125,-3.046875 C 1.5,-3.265625 1.5,-3.28125 1.59375,-3.390625 2.078125,-4.03125 2.53125,-4.1875 2.796875,-4.1875 c 0.359375,0 0.625,0.296875 0.625,0.9375 0,0.59375 -0.328125,1.734375 -0.515625,2.109375 -0.328125,0.671875 -0.78125,1.03125 -1.171875,1.03125 -0.34375,0 -0.671875,-0.265625 -0.671875,-1 0,-0.203125 0,-0.390625 0.15625,-1.015625 z m 0,0"
             transform="translate(385.70698,146.72)"
             id="path918"
             inkscape:connector-curvature="0" />
        </g>
        <g
           id="g5101"
           style="fill:#56b4e9;fill-opacity:1"
           transform="matrix(0.96131339,0,0,0.96131339,80.268785,4.0949325)">
          <path
             inkscape:connector-curvature="0"
             id="path5099"
             transform="translate(269.38,146.72)"
             d="m 3.65625,-3.984375 h 0.859375 c 0.203125,0 0.296875,0 0.296875,-0.203125 0,-0.109375 -0.09375,-0.109375 -0.265625,-0.109375 H 3.71875 L 3.921875,-5.4375 c 0.046875,-0.203125 0.1875,-0.90625 0.25,-1.03125 0.078125,-0.1875 0.25,-0.34375 0.46875,-0.34375 0.03125,0 0.296875,0 0.484375,0.1875 -0.4375,0.03125 -0.546875,0.390625 -0.546875,0.53125 0,0.234375 0.1875,0.359375 0.375,0.359375 C 5.21875,-5.734375 5.5,-5.96875 5.5,-6.34375 c 0,-0.453125 -0.453125,-0.6875 -0.859375,-0.6875 -0.34375,0 -0.96875,0.1875 -1.265625,1.171875 -0.0625,0.203125 -0.09375,0.3125 -0.328125,1.5625 h -0.6875 c -0.203125,0 -0.3125,0 -0.3125,0.1875 0,0.125 0.09375,0.125 0.28125,0.125 h 0.65625 L 2.25,-0.046875 c -0.1875,0.96875 -0.359375,1.875 -0.875,1.875 -0.046875,0 -0.28125,0 -0.484375,-0.1875 C 1.359375,1.609375 1.453125,1.25 1.453125,1.109375 1.453125,0.875 1.265625,0.75 1.078125,0.75 0.8125,0.75 0.53125,0.984375 0.53125,1.359375 c 0,0.4375 0.4375,0.6875 0.84375,0.6875 0.546875,0 0.953125,-0.59375 1.125,-0.96875 0.328125,-0.625 0.546875,-1.828125 0.5625,-1.90625 z m 0,0"
             style="fill:#56b4e9;fill-opacity:1;stroke:none;stroke-width:0" />
        </g>
        <g
           id="g5105"
           style="fill:#56b4e9;fill-opacity:1"
           transform="matrix(0.96131339,0,0,0.96131339,80.268785,4.0949325)">
          <path
             inkscape:connector-curvature="0"
             id="path5103"
             transform="translate(275.33,146.72)"
             d="m 3.296875,2.390625 c 0,-0.03125 0,-0.046875 -0.171875,-0.21875 C 1.890625,0.921875 1.5625,-0.96875 1.5625,-2.5 c 0,-1.734375 0.375,-3.46875 1.609375,-4.703125 0.125,-0.125 0.125,-0.140625 0.125,-0.171875 0,-0.078125 -0.03125,-0.109375 -0.09375,-0.109375 -0.109375,0 -1,0.6875 -1.59375,1.953125 -0.5,1.09375 -0.625,2.203125 -0.625,3.03125 0,0.78125 0.109375,1.984375 0.65625,3.125 C 2.25,1.84375 3.09375,2.5 3.203125,2.5 c 0.0625,0 0.09375,-0.03125 0.09375,-0.109375 z m 0,0"
             style="fill:#56b4e9;fill-opacity:1;stroke:none;stroke-width:0" />
        </g>
        <g
           id="g5109"
           style="fill:#56b4e9;fill-opacity:1"
           transform="matrix(0.96131339,0,0,0.96131339,80.268785,4.0949325)">
          <path
             inkscape:connector-curvature="0"
             id="path5107"
             transform="translate(279.204,146.72)"
             d="M 3.328125,-3.015625 C 3.390625,-3.265625 3.625,-4.1875 4.3125,-4.1875 c 0.046875,0 0.296875,0 0.5,0.125 C 4.53125,-4 4.34375,-3.765625 4.34375,-3.515625 c 0,0.15625 0.109375,0.34375 0.375,0.34375 0.21875,0 0.53125,-0.171875 0.53125,-0.578125 0,-0.515625 -0.578125,-0.65625 -0.921875,-0.65625 -0.578125,0 -0.921875,0.53125 -1.046875,0.75 -0.25,-0.65625 -0.78125,-0.75 -1.078125,-0.75 -1.03125,0 -1.609375,1.28125 -1.609375,1.53125 0,0.109375 0.109375,0.109375 0.125,0.109375 0.078125,0 0.109375,-0.03125 0.125,-0.109375 0.34375,-1.0625 1,-1.3125 1.34375,-1.3125 0.1875,0 0.53125,0.09375 0.53125,0.671875 0,0.3125 -0.171875,0.96875 -0.53125,2.375 -0.15625,0.609375 -0.515625,1.03125 -0.953125,1.03125 -0.0625,0 -0.28125,0 -0.5,-0.125 0.25,-0.0625 0.46875,-0.265625 0.46875,-0.546875 0,-0.265625 -0.21875,-0.34375 -0.359375,-0.34375 -0.3125,0 -0.546875,0.25 -0.546875,0.578125 0,0.453125 0.484375,0.65625 0.921875,0.65625 0.671875,0 1.03125,-0.703125 1.046875,-0.75 0.125,0.359375 0.484375,0.75 1.078125,0.75 1.03125,0 1.59375,-1.28125 1.59375,-1.53125 0,-0.109375 -0.078125,-0.109375 -0.109375,-0.109375 -0.09375,0 -0.109375,0.046875 -0.140625,0.109375 -0.328125,1.078125 -1,1.3125 -1.3125,1.3125 -0.390625,0 -0.546875,-0.3125 -0.546875,-0.65625 0,-0.21875 0.046875,-0.4375 0.15625,-0.875 z m 0,0"
             style="fill:#56b4e9;fill-opacity:1;stroke:none;stroke-width:0" />
        </g>
        <g
           id="g5113"
           style="fill:#56b4e9;fill-opacity:1"
           transform="matrix(0.96131339,0,0,0.96131339,80.268785,4.0949325)">
          <path
             inkscape:connector-curvature="0"
             id="path5111"
             transform="translate(284.898,146.72)"
             d="m 2.875,-2.5 c 0,-0.765625 -0.109375,-1.96875 -0.65625,-3.109375 -0.59375,-1.21875 -1.453125,-1.875 -1.546875,-1.875 -0.0625,0 -0.109375,0.046875 -0.109375,0.109375 0,0.03125 0,0.046875 0.1875,0.234375 0.984375,0.984375 1.546875,2.5625 1.546875,4.640625 0,1.71875 -0.359375,3.46875 -1.59375,4.71875 C 0.5625,2.34375 0.5625,2.359375 0.5625,2.390625 0.5625,2.453125 0.609375,2.5 0.671875,2.5 0.765625,2.5 1.671875,1.8125 2.25,0.546875 2.765625,-0.546875 2.875,-1.65625 2.875,-2.5 Z m 0,0"
             style="fill:#56b4e9;fill-opacity:1;stroke:none;stroke-width:0" />
        </g>
        <g
           id="g5117"
           style="fill:#000000;fill-opacity:1"
           transform="matrix(0.96131339,0,0,0.96131339,80.268785,4.0949325)">
          <path
             inkscape:connector-curvature="0"
             id="path5115"
             transform="translate(291.54206,146.72)"
             d="m 6.84375,-3.265625 c 0.15625,0 0.34375,0 0.34375,-0.1875 C 7.1875,-3.65625 7,-3.65625 6.859375,-3.65625 h -5.96875 c -0.140625,0 -0.328125,0 -0.328125,0.203125 0,0.1875 0.1875,0.1875 0.328125,0.1875 z m 0.015625,1.9375 c 0.140625,0 0.328125,0 0.328125,-0.203125 0,-0.1875 -0.1875,-0.1875 -0.34375,-0.1875 H 0.890625 c -0.140625,0 -0.328125,0 -0.328125,0.1875 0,0.203125 0.1875,0.203125 0.328125,0.203125 z m 0,0"
             style="stroke:none;stroke-width:0" />
        </g>
        <g
           id="g5121"
           style="fill:#000000;fill-opacity:1"
           transform="matrix(0.96131339,0,0,0.96131339,80.268785,4.0949325)">
          <path
             inkscape:connector-curvature="0"
             id="path5119"
             transform="translate(302.056,146.72)"
             d="M 3.71875,-3.765625 C 3.53125,-4.140625 3.25,-4.40625 2.796875,-4.40625 c -1.15625,0 -2.390625,1.46875 -2.390625,2.921875 0,0.9375 0.546875,1.59375 1.3125,1.59375 0.203125,0 0.703125,-0.046875 1.296875,-0.75 0.078125,0.421875 0.4375,0.75 0.90625,0.75 0.359375,0 0.578125,-0.234375 0.75,-0.546875 0.15625,-0.359375 0.296875,-0.96875 0.296875,-0.984375 0,-0.109375 -0.09375,-0.109375 -0.125,-0.109375 -0.09375,0 -0.109375,0.046875 -0.140625,0.1875 -0.171875,0.640625 -0.34375,1.234375 -0.75,1.234375 -0.28125,0 -0.296875,-0.265625 -0.296875,-0.453125 0,-0.21875 0.015625,-0.3125 0.125,-0.75 C 3.890625,-1.71875 3.90625,-1.828125 4,-2.203125 L 4.359375,-3.59375 c 0.0625,-0.28125 0.0625,-0.296875 0.0625,-0.34375 0,-0.171875 -0.109375,-0.265625 -0.28125,-0.265625 -0.25,0 -0.390625,0.21875 -0.421875,0.4375 z M 3.078125,-1.1875 C 3.015625,-1 3.015625,-0.984375 2.875,-0.8125 2.4375,-0.265625 2.03125,-0.109375 1.75,-0.109375 c -0.5,0 -0.640625,-0.546875 -0.640625,-0.9375 0,-0.5 0.3125,-1.71875 0.546875,-2.1875 0.3125,-0.578125 0.75,-0.953125 1.15625,-0.953125 0.640625,0 0.78125,0.8125 0.78125,0.875 0,0.0625 -0.015625,0.125 -0.03125,0.171875 z m 0,0"
             style="stroke:none;stroke-width:0" />
        </g>
        <g
           id="g5125"
           style="fill:#000000;fill-opacity:1"
           transform="matrix(0.96131339,0,0,0.96131339,80.268785,4.0949325)">
          <path
             inkscape:connector-curvature="0"
             id="path5123"
             transform="translate(308.98599,146.72)"
             d="m 2.375,-6.8125 c 0,0 0,-0.109375 -0.125,-0.109375 -0.21875,0 -0.953125,0.078125 -1.21875,0.109375 -0.078125,0 -0.1875,0.015625 -0.1875,0.1875 0,0.125 0.09375,0.125 0.25,0.125 0.46875,0 0.484375,0.0625 0.484375,0.171875 0,0.0625 -0.078125,0.40625 -0.125,0.609375 l -0.828125,3.25 c -0.109375,0.5 -0.15625,0.671875 -0.15625,1.015625 0,0.9375 0.53125,1.5625 1.265625,1.5625 1.171875,0 2.40625,-1.484375 2.40625,-2.921875 0,-0.90625 -0.53125,-1.59375 -1.328125,-1.59375 -0.453125,0 -0.875,0.296875 -1.171875,0.59375 z M 1.453125,-3.046875 C 1.5,-3.265625 1.5,-3.28125 1.59375,-3.390625 2.078125,-4.03125 2.53125,-4.1875 2.796875,-4.1875 c 0.359375,0 0.625,0.296875 0.625,0.9375 0,0.59375 -0.328125,1.734375 -0.515625,2.109375 -0.328125,0.671875 -0.78125,1.03125 -1.171875,1.03125 -0.34375,0 -0.671875,-0.265625 -0.671875,-1 0,-0.203125 0,-0.390625 0.15625,-1.015625 z m 0,0"
             style="stroke:none;stroke-width:0" />
        </g>
        <path
           style="fill:#d55e00;fill-opacity:1;stroke:none;stroke-width:0"
           d="m 383.07521,140.47802 c -0.0601,0.22531 -0.28539,0.58581 -0.63086,0.58581 -0.015,0 -0.2253,0 -0.36049,-0.0901 0.27036,-0.0901 0.30041,-0.33045 0.30041,-0.37551 0,-0.15021 -0.12012,-0.24034 -0.27037,-0.24034 -0.19527,0 -0.39054,0.15022 -0.39054,0.40557 0,0.33045 0.37552,0.48066 0.70597,0.48066 0.31543,0 0.58579,-0.18025 0.75103,-0.46565 0.16521,0.34547 0.52571,0.46565 0.79609,0.46565 0.78106,0 1.18662,-0.82614 1.18662,-1.0214 0,-0.0901 -0.0901,-0.0901 -0.10512,-0.0901 -0.10513,0 -0.10513,0.0451 -0.13519,0.12013 -0.13519,0.46564 -0.54074,0.81111 -0.91625,0.81111 -0.27038,0 -0.40555,-0.18025 -0.40555,-0.4356 0,-0.18025 0.16522,-0.78106 0.34546,-1.53209 0.13519,-0.5107 0.4356,-0.67592 0.6609,-0.67592 0.015,0 0.2103,0 0.3605,0.0901 -0.21029,0.0601 -0.30041,0.25534 -0.30041,0.3755 0,0.1352 0.12012,0.24034 0.27036,0.24034 0.15021,0 0.37553,-0.12012 0.37553,-0.40555 0,-0.37552 -0.4356,-0.49569 -0.69094,-0.49569 -0.34549,0 -0.61585,0.22532 -0.75104,0.48067 -0.12012,-0.27038 -0.4356,-0.48067 -0.8111,-0.48067 -0.75102,0 -1.1716,0.82614 -1.1716,1.03643 0,0.0751 0.0901,0.0751 0.10513,0.0751 0.0901,0 0.0901,-0.015 0.13518,-0.10512 0.16523,-0.52573 0.58579,-0.81111 0.91625,-0.81111 0.22532,0 0.40555,0.12012 0.40555,0.4356 0,0.13518 -0.0901,0.46563 -0.1502,0.70596 z m 0,0"
           id="path5127"
           inkscape:connector-curvature="0" />
        <g
           style="fill:#56b4e9;fill-opacity:1"
           id="g5179"
           transform="matrix(0.5878138,0,0,0.5878138,203.6563,49.259468)">
          <g
             id="g5165"
             style="fill:#56b4e9;fill-opacity:1"
             transform="translate(5.4883392,-41.162542)">
            <path
               inkscape:connector-curvature="0"
               id="path5163"
               transform="translate(269.38,146.72)"
               d="m 3.65625,-3.984375 h 0.859375 c 0.203125,0 0.296875,0 0.296875,-0.203125 0,-0.109375 -0.09375,-0.109375 -0.265625,-0.109375 H 3.71875 L 3.921875,-5.4375 c 0.046875,-0.203125 0.1875,-0.90625 0.25,-1.03125 0.078125,-0.1875 0.25,-0.34375 0.46875,-0.34375 0.03125,0 0.296875,0 0.484375,0.1875 -0.4375,0.03125 -0.546875,0.390625 -0.546875,0.53125 0,0.234375 0.1875,0.359375 0.375,0.359375 C 5.21875,-5.734375 5.5,-5.96875 5.5,-6.34375 c 0,-0.453125 -0.453125,-0.6875 -0.859375,-0.6875 -0.34375,0 -0.96875,0.1875 -1.265625,1.171875 -0.0625,0.203125 -0.09375,0.3125 -0.328125,1.5625 h -0.6875 c -0.203125,0 -0.3125,0 -0.3125,0.1875 0,0.125 0.09375,0.125 0.28125,0.125 h 0.65625 L 2.25,-0.046875 c -0.1875,0.96875 -0.359375,1.875 -0.875,1.875 -0.046875,0 -0.28125,0 -0.484375,-0.1875 C 1.359375,1.609375 1.453125,1.25 1.453125,1.109375 1.453125,0.875 1.265625,0.75 1.078125,0.75 0.8125,0.75 0.53125,0.984375 0.53125,1.359375 c 0,0.4375 0.4375,0.6875 0.84375,0.6875 0.546875,0 0.953125,-0.59375 1.125,-0.96875 0.328125,-0.625 0.546875,-1.828125 0.5625,-1.90625 z m 0,0"
               style="fill:#56b4e9;fill-opacity:1;stroke:none;stroke-width:0" />
          </g>
          <g
             id="g5169"
             style="fill:#56b4e9;fill-opacity:1"
             transform="translate(5.4883392,-41.162542)">
            <path
               inkscape:connector-curvature="0"
               id="path5167"
               transform="translate(275.33,146.72)"
               d="m 3.296875,2.390625 c 0,-0.03125 0,-0.046875 -0.171875,-0.21875 C 1.890625,0.921875 1.5625,-0.96875 1.5625,-2.5 c 0,-1.734375 0.375,-3.46875 1.609375,-4.703125 0.125,-0.125 0.125,-0.140625 0.125,-0.171875 0,-0.078125 -0.03125,-0.109375 -0.09375,-0.109375 -0.109375,0 -1,0.6875 -1.59375,1.953125 -0.5,1.09375 -0.625,2.203125 -0.625,3.03125 0,0.78125 0.109375,1.984375 0.65625,3.125 C 2.25,1.84375 3.09375,2.5 3.203125,2.5 c 0.0625,0 0.09375,-0.03125 0.09375,-0.109375 z m 0,0"
               style="fill:#56b4e9;fill-opacity:1;stroke:none;stroke-width:0" />
          </g>
          <g
             id="g5173"
             style="fill:#56b4e9;fill-opacity:1"
             transform="translate(5.4883392,-41.162542)">
            <path
               inkscape:connector-curvature="0"
               id="path5171"
               transform="translate(279.204,146.72)"
               d="M 3.328125,-3.015625 C 3.390625,-3.265625 3.625,-4.1875 4.3125,-4.1875 c 0.046875,0 0.296875,0 0.5,0.125 C 4.53125,-4 4.34375,-3.765625 4.34375,-3.515625 c 0,0.15625 0.109375,0.34375 0.375,0.34375 0.21875,0 0.53125,-0.171875 0.53125,-0.578125 0,-0.515625 -0.578125,-0.65625 -0.921875,-0.65625 -0.578125,0 -0.921875,0.53125 -1.046875,0.75 -0.25,-0.65625 -0.78125,-0.75 -1.078125,-0.75 -1.03125,0 -1.609375,1.28125 -1.609375,1.53125 0,0.109375 0.109375,0.109375 0.125,0.109375 0.078125,0 0.109375,-0.03125 0.125,-0.109375 0.34375,-1.0625 1,-1.3125 1.34375,-1.3125 0.1875,0 0.53125,0.09375 0.53125,0.671875 0,0.3125 -0.171875,0.96875 -0.53125,2.375 -0.15625,0.609375 -0.515625,1.03125 -0.953125,1.03125 -0.0625,0 -0.28125,0 -0.5,-0.125 0.25,-0.0625 0.46875,-0.265625 0.46875,-0.546875 0,-0.265625 -0.21875,-0.34375 -0.359375,-0.34375 -0.3125,0 -0.546875,0.25 -0.546875,0.578125 0,0.453125 0.484375,0.65625 0.921875,0.65625 0.671875,0 1.03125,-0.703125 1.046875,-0.75 0.125,0.359375 0.484375,0.75 1.078125,0.75 1.03125,0 1.59375,-1.28125 1.59375,-1.53125 0,-0.109375 -0.078125,-0.109375 -0.109375,-0.109375 -0.09375,0 -0.109375,0.046875 -0.140625,0.109375 -0.328125,1.078125 -1,1.3125 -1.3125,1.3125 -0.390625,0 -0.546875,-0.3125 -0.546875,-0.65625 0,-0.21875 0.046875,-0.4375 0.15625,-0.875 z m 0,0"
               style="fill:#56b4e9;fill-opacity:1;stroke:none;stroke-width:0" />
          </g>
          <g
             id="g5177"
             style="fill:#56b4e9;fill-opacity:1"
             transform="translate(5.4883392,-41.162542)">
            <path
               inkscape:connector-curvature="0"
               id="path5175"
               transform="translate(284.898,146.72)"
               d="m 2.875,-2.5 c 0,-0.765625 -0.109375,-1.96875 -0.65625,-3.109375 -0.59375,-1.21875 -1.453125,-1.875 -1.546875,-1.875 -0.0625,0 -0.109375,0.046875 -0.109375,0.109375 0,0.03125 0,0.046875 0.1875,0.234375 0.984375,0.984375 1.546875,2.5625 1.546875,4.640625 0,1.71875 -0.359375,3.46875 -1.59375,4.71875 C 0.5625,2.34375 0.5625,2.359375 0.5625,2.390625 0.5625,2.453125 0.609375,2.5 0.671875,2.5 0.765625,2.5 1.671875,1.8125 2.25,0.546875 2.765625,-0.546875 2.875,-1.65625 2.875,-2.5 Z m 0,0"
               style="fill:#56b4e9;fill-opacity:1;stroke:none;stroke-width:0" />
          </g>
        </g>
        <path
           style="fill:#d55e00;fill-opacity:1;stroke:none;stroke-width:0"
           d="m 350.79384,109.33291 c 0.0367,-0.14696 0.1745,-0.68885 0.57861,-0.68885 0.0276,0 0.17451,0 0.29393,0.0735 -0.16534,0.0368 -0.27555,0.1745 -0.27555,0.32145 0,0.0917 0.0643,0.20206 0.22042,0.20206 0.12859,0 0.31228,-0.101 0.31228,-0.33982 0,-0.3031 -0.33983,-0.38577 -0.54188,-0.38577 -0.33984,0 -0.5419,0.31229 -0.61537,0.44087 -0.14695,-0.38575 -0.45924,-0.44087 -0.63374,-0.44087 -0.60617,0 -0.94601,0.75314 -0.94601,0.9001 0,0.0644 0.0643,0.0644 0.0735,0.0644 0.046,0 0.0643,-0.0184 0.0734,-0.0644 0.20207,-0.62456 0.58782,-0.77151 0.78988,-0.77151 0.11025,0 0.31227,0.0551 0.31227,0.39494 0,0.1837 -0.101,0.56944 -0.31227,1.39606 -0.0917,0.3582 -0.30309,0.60618 -0.56026,0.60618 -0.0367,0 -0.16532,0 -0.2939,-0.0735 0.14695,-0.0367 0.27552,-0.15614 0.27552,-0.32147 0,-0.15613 -0.12857,-0.20206 -0.21124,-0.20206 -0.1837,0 -0.32146,0.14695 -0.32146,0.33983 0,0.26635 0.28473,0.38575 0.5419,0.38575 0.39493,0 0.60618,-0.4133 0.61536,-0.44085 0.0734,0.21123 0.28471,0.44085 0.63374,0.44085 0.60617,0 0.93682,-0.75314 0.93682,-0.90009 0,-0.0643 -0.046,-0.0643 -0.0643,-0.0643 -0.0551,0 -0.0643,0.0276 -0.0826,0.0643 -0.19288,0.63374 -0.58781,0.77151 -0.7715,0.77151 -0.22961,0 -0.32146,-0.18369 -0.32146,-0.38576 0,-0.12859 0.0276,-0.25716 0.0917,-0.51433 z m 0,0"
           id="path5181"
           inkscape:connector-curvature="0" />
        <path
           style="fill:none;stroke:#d55e00;stroke-width:0.412823;stroke-linecap:round;stroke-linejoin:miter;stroke-miterlimit:4;stroke-dasharray:none;stroke-opacity:1;marker-end:url(#marker5203)"
           d="m 351.02499,112.14005 2.88237,6.26185"
           id="path5185"
           inkscape:connector-curvature="0"
           sodipodi:nodetypes="cc" />
        <path
           sodipodi:nodetypes="cc"
           inkscape:connector-curvature="0"
           id="path5187"
           d="m 370.04165,113.53492 -2.93574,4.8548"
           style="fill:none;stroke:#56b4e9;stroke-width:0.412823;stroke-linecap:round;stroke-linejoin:miter;stroke-miterlimit:4;stroke-dasharray:none;stroke-opacity:1;marker-end:url(#marker2358)" />
        <path
           style="fill:none;stroke:#d55e00;stroke-width:0.412823;stroke-linecap:round;stroke-linejoin:miter;stroke-miterlimit:4;stroke-dasharray:none;stroke-opacity:1;marker-end:url(#marker2781)"
           d="m 355.88806,127.90202 -0.0309,4.76437 h 28.11443 l -0.0444,3.85667"
           id="path5189"
           inkscape:connector-curvature="0"
           sodipodi:nodetypes="cccc" />
        <path
           sodipodi:nodetypes="cccc"
           inkscape:connector-curvature="0"
           id="path5191"
           d="m 365.77466,127.90202 0.0309,2.64492 h -18.5483 l -0.0987,5.97612"
           style="fill:none;stroke:#56b4e9;stroke-width:0.412823;stroke-linecap:round;stroke-linejoin:miter;stroke-miterlimit:4;stroke-dasharray:none;stroke-opacity:1;marker-end:url(#marker5459)" />
        <path
           inkscape:connector-curvature="0"
           style="fill:#000000;fill-opacity:1;stroke:none;stroke-width:0"
           d="m 268.2247,128.21195 c 0,-0.03 0,-0.0451 -0.16522,-0.21028 -1.18657,-1.20159 -1.50199,-3.01901 -1.50199,-4.49096 0,-1.66721 0.36048,-3.33442 1.54705,-4.52099 0.12016,-0.12016 0.12016,-0.13518 0.12016,-0.16522 0,-0.0751 -0.03,-0.10514 -0.0901,-0.10514 -0.10514,0 -0.96127,0.66088 -1.53203,1.87749 -0.48064,1.05139 -0.6008,2.11781 -0.6008,2.91386 0,0.751 0.10514,1.90753 0.63084,3.00399 0.58578,1.17155 1.39685,1.80239 1.50199,1.80239 0.0601,0 0.0901,-0.03 0.0901,-0.10514 z m 0,0"
           id="path4894" />
        <path
           inkscape:connector-curvature="0"
           style="fill:#ff0000;fill-opacity:1;stroke:none;stroke-width:0"
           d="m 271.60366,119.78577 c 0,-0.24032 0,-0.25534 -0.22529,-0.25534 -0.6008,0.61582 -1.44192,0.61582 -1.74231,0.61582 v 0.3004 c 0.19525,0 0.75099,0 1.24665,-0.25534 v 4.97159 c 0,0.34546 -0.03,0.4506 -0.88618,0.4506 h -0.30039 v 0.3004 c 0.33043,-0.03 1.15653,-0.03 1.54705,-0.03 0.37549,0 1.21661,0 1.54705,0.03 v -0.3004 h -0.3004 c -0.87116,0 -0.88618,-0.10514 -0.88618,-0.4506 z m 0,0"
           id="path4896" />
        <path
           inkscape:connector-curvature="0"
           style="fill:#000000;fill-opacity:1;stroke:none;stroke-width:0"
           d="m 275.5209,125.89888 c 0,-0.6008 -0.24032,-1.00633 -0.61582,-1.00633 -0.34546,0 -0.51067,0.27035 -0.51067,0.51067 0,0.25534 0.16521,0.51068 0.51067,0.51068 0.1502,0 0.27036,-0.0601 0.36048,-0.13518 l 0.015,-0.015 c 0.015,0 0.015,0 0.015,0.13518 0,0.61582 -0.25534,1.20159 -0.6759,1.65219 -0.0601,0.0601 -0.0751,0.0751 -0.0751,0.10514 0,0.0751 0.0451,0.10514 0.0901,0.10514 0.12016,0 0.88618,-0.751 0.88618,-1.86247 z m 0,0"
           id="path4898" />
        <path
           inkscape:connector-curvature="0"
           style="fill:#0000ff;fill-opacity:1;stroke:none;stroke-width:0"
           d="m 280.19764,119.78577 c 0,-0.24032 0,-0.25534 -0.22529,-0.25534 -0.6008,0.61582 -1.44192,0.61582 -1.74231,0.61582 v 0.3004 c 0.19525,0 0.75099,0 1.24665,-0.25534 v 4.97159 c 0,0.34546 -0.03,0.4506 -0.88618,0.4506 h -0.30039 v 0.3004 c 0.33043,-0.03 1.15653,-0.03 1.54705,-0.03 0.37549,0 1.21661,0 1.54705,0.03 v -0.3004 h -0.3004 c -0.87116,0 -0.88618,-0.10514 -0.88618,-0.4506 z m 0,0"
           id="path4900" />
        <path
           inkscape:connector-curvature="0"
           style="fill:#0000ff;fill-opacity:1;stroke:none;stroke-width:0"
           d="m 283.37892,125.17792 1.02136,-0.99131 c 1.48697,-1.32175 2.05773,-1.83243 2.05773,-2.79371 0,-1.09645 -0.85614,-1.86247 -2.02769,-1.86247 -1.08144,0 -1.78737,0.88618 -1.78737,1.74231 0,0.5257 0.48063,0.5257 0.51067,0.5257 0.16522,0 0.49566,-0.10514 0.49566,-0.51068 0,-0.24031 -0.18024,-0.49565 -0.51068,-0.49565 -0.0751,0 -0.0901,0 -0.12015,0.015 0.21027,-0.63084 0.73597,-0.9763 1.29171,-0.9763 0.87115,0 1.27669,0.78104 1.27669,1.56207 0,0.76602 -0.46562,1.51702 -1.00633,2.11781 l -1.83243,2.04271 c -0.10514,0.10514 -0.10514,0.13518 -0.10514,0.36048 h 3.55972 l 0.25534,-1.66721 h -0.2253 c -0.0601,0.28538 -0.12016,0.70594 -0.2253,0.85613 -0.0601,0.0751 -0.69092,0.0751 -0.9012,0.0751 z m 0,0"
           id="path4902" />
        <path
           inkscape:connector-curvature="0"
           style="fill:#000000;fill-opacity:1;stroke:none;stroke-width:0"
           d="m 289.71438,123.51071 c 0,-0.73597 -0.10514,-1.89251 -0.63084,-2.98896 -0.57076,-1.17155 -1.39685,-1.80239 -1.48697,-1.80239 -0.0601,0 -0.10514,0.0451 -0.10514,0.10514 0,0.03 0,0.0451 0.18024,0.2253 0.94625,0.94625 1.48697,2.46326 1.48697,4.46091 0,1.65219 -0.34546,3.33443 -1.53203,4.53602 -0.13518,0.12016 -0.13518,0.13518 -0.13518,0.16522 0,0.0601 0.0451,0.10514 0.10514,0.10514 0.0901,0 0.96127,-0.66088 1.51701,-1.87749 0.49566,-1.0514 0.6008,-2.11781 0.6008,-2.92889 z m 0,0"
           id="path4904" />
        <path
           inkscape:connector-curvature="0"
           style="fill:#000000;fill-opacity:1;stroke:none;stroke-width:0"
           d="m 351.42849,128.21195 c 0,-0.03 0,-0.0451 -0.16522,-0.21028 -1.18657,-1.20159 -1.50199,-3.01901 -1.50199,-4.49096 0,-1.66721 0.36048,-3.33442 1.54705,-4.52099 0.12016,-0.12016 0.12016,-0.13518 0.12016,-0.16522 0,-0.0751 -0.03,-0.10514 -0.0901,-0.10514 -0.10514,0 -0.96127,0.66088 -1.53203,1.87749 -0.48064,1.05139 -0.6008,2.11781 -0.6008,2.91386 0,0.751 0.10514,1.90753 0.63084,3.00399 0.58578,1.17155 1.39685,1.80239 1.50199,1.80239 0.0601,0 0.0901,-0.03 0.0901,-0.10514 z m 0,0"
           id="path4908" />
        <path
           inkscape:connector-curvature="0"
           style="fill:#d55e00;fill-opacity:1;stroke:none;stroke-width:0"
           d="m 354.7624,122.53442 c 0.78103,-0.25534 1.33677,-0.91622 1.33677,-1.68223 0,-0.78104 -0.84112,-1.32176 -1.75733,-1.32176 -0.96128,0 -1.69725,0.57076 -1.69725,1.30674 0,0.31542 0.21028,0.49565 0.49565,0.49565 0.28538,0 0.48064,-0.21027 0.48064,-0.49565 0,-0.46562 -0.4506,-0.46562 -0.58578,-0.46562 0.28538,-0.48064 0.91622,-0.6008 1.26168,-0.6008 0.40554,0 0.93123,0.21028 0.93123,1.06642 0,0.12016 -0.03,0.67589 -0.27036,1.09645 -0.28537,0.46562 -0.61581,0.49566 -0.85613,0.49566 -0.0751,0.015 -0.3004,0.03 -0.3755,0.03 -0.0751,0.015 -0.13518,0.03 -0.13518,0.12016 0,0.10514 0.0601,0.10514 0.2253,0.10514 h 0.42056 c 0.78103,0 1.14151,0.64585 1.14151,1.59211 0,1.30673 -0.66087,1.57709 -1.08143,1.57709 -0.42056,0 -1.14152,-0.16522 -1.47195,-0.72096 0.33043,0.0451 0.63083,-0.16521 0.63083,-0.52569 0,-0.34546 -0.25534,-0.54072 -0.5257,-0.54072 -0.24031,0 -0.54071,0.13518 -0.54071,0.55574 0,0.87115 0.88617,1.50199 1.93757,1.50199 1.17155,0 2.04271,-0.87116 2.04271,-1.84745 0,-0.78104 -0.61582,-1.53203 -1.60713,-1.74231 z m 0,0"
           id="path4910" />
        <path
           inkscape:connector-curvature="0"
           style="fill:#000000;fill-opacity:1;stroke:none;stroke-width:0"
           d="m 358.72469,125.89888 c 0,-0.6008 -0.24032,-1.00633 -0.61582,-1.00633 -0.34546,0 -0.51067,0.27035 -0.51067,0.51067 0,0.25534 0.16521,0.51068 0.51067,0.51068 0.1502,0 0.27036,-0.0601 0.36048,-0.13518 l 0.015,-0.015 c 0.015,0 0.015,0 0.015,0.13518 0,0.61582 -0.25534,1.20159 -0.6759,1.65219 -0.0601,0.0601 -0.0751,0.0751 -0.0751,0.10514 0,0.0751 0.0451,0.10514 0.0901,0.10514 0.12016,0 0.88618,-0.751 0.88618,-1.86247 z m 0,0"
           id="path4912" />
        <path
           inkscape:connector-curvature="0"
           style="fill:#56b4e9;fill-opacity:1;stroke:none;stroke-width:0"
           d="m 361.79431,125.17792 1.02136,-0.99131 c 1.48697,-1.32175 2.05773,-1.83243 2.05773,-2.79371 0,-1.09645 -0.85614,-1.86247 -2.02769,-1.86247 -1.08144,0 -1.78737,0.88618 -1.78737,1.74231 0,0.5257 0.48063,0.5257 0.51067,0.5257 0.16522,0 0.49566,-0.10514 0.49566,-0.51068 0,-0.24031 -0.18024,-0.49565 -0.51068,-0.49565 -0.0751,0 -0.0901,0 -0.12015,0.015 0.21027,-0.63084 0.73597,-0.9763 1.29171,-0.9763 0.87115,0 1.27669,0.78104 1.27669,1.56207 0,0.76602 -0.46562,1.51702 -1.00633,2.11781 l -1.83243,2.04271 c -0.10514,0.10514 -0.10514,0.13518 -0.10514,0.36048 h 3.55972 l 0.25534,-1.66721 h -0.2253 c -0.0601,0.28538 -0.12016,0.70594 -0.2253,0.85613 -0.0601,0.0751 -0.69092,0.0751 -0.9012,0.0751 z m 0,0"
           id="path4914" />
        <path
           inkscape:connector-curvature="0"
           style="fill:#56b4e9;fill-opacity:1;stroke:none;stroke-width:0"
           d="m 369.93216,120.07115 c 0.0751,-0.10514 0.0751,-0.12016 0.0751,-0.33044 h -2.32809 c -1.15654,0 -1.18658,-0.12016 -1.21662,-0.3004 h -0.24031 l -0.31542,1.96761 h 0.24032 c 0.03,-0.1502 0.10514,-0.75099 0.24031,-0.87115 0.0601,-0.0601 0.81108,-0.0601 0.93124,-0.0601 h 1.98263 c -0.10514,0.1502 -0.85614,1.20159 -1.06642,1.51701 -0.87115,1.29171 -1.18657,2.62849 -1.18657,3.60478 0,0.0901 0,0.5257 0.4506,0.5257 0.43558,0 0.43558,-0.43558 0.43558,-0.5257 v -0.49566 c 0,-0.52569 0.03,-1.05139 0.10514,-1.56207 0.0451,-0.2253 0.16521,-1.05139 0.60079,-1.63717 z m 0,0"
           id="path4916" />
        <path
           inkscape:connector-curvature="0"
           style="fill:#000000;fill-opacity:1;stroke:none;stroke-width:0"
           d="m 372.91816,123.51071 c 0,-0.73597 -0.10514,-1.89251 -0.63084,-2.98896 -0.57076,-1.17155 -1.39685,-1.80239 -1.48697,-1.80239 -0.0601,0 -0.10514,0.0451 -0.10514,0.10514 0,0.03 0,0.0451 0.18024,0.2253 0.94625,0.94625 1.48697,2.46326 1.48697,4.46091 0,1.65219 -0.34546,3.33443 -1.53203,4.53602 -0.13518,0.12016 -0.13518,0.13518 -0.13518,0.16522 0,0.0601 0.0451,0.10514 0.10514,0.10514 0.0901,0 0.96127,-0.66088 1.51701,-1.87749 0.49566,-1.0514 0.6008,-2.11781 0.6008,-2.92889 z m 0,0"
           id="path4918" />
        <path
           id="path5081"
           d="m 383.73985,156.57642 c 0.53831,-0.17599 0.92134,-0.63149 0.92134,-1.15945 0,-0.53831 -0.57973,-0.91099 -1.21121,-0.91099 -0.66254,0 -1.16979,0.39338 -1.16979,0.90064 0,0.2174 0.14493,0.34162 0.34161,0.34162 0.1967,0 0.33128,-0.14493 0.33128,-0.34162 0,-0.32092 -0.31057,-0.32092 -0.40374,-0.32092 0.19669,-0.33127 0.63149,-0.41409 0.86959,-0.41409 0.27951,0 0.64183,0.14493 0.64183,0.73501 0,0.0828 -0.0207,0.46584 -0.18634,0.75571 -0.19669,0.32092 -0.42444,0.34162 -0.59007,0.34162 -0.0518,0.0103 -0.20705,0.0207 -0.25881,0.0207 -0.0518,0.0103 -0.0932,0.0207 -0.0932,0.0828 0,0.0725 0.0414,0.0725 0.15529,0.0725 h 0.28986 c 0.53831,0 0.78676,0.44514 0.78676,1.09733 0,0.90064 -0.45549,1.08698 -0.74535,1.08698 -0.28987,0 -0.78677,-0.11388 -1.01452,-0.49691 0.22775,0.0311 0.43479,-0.11387 0.43479,-0.36232 0,-0.2381 -0.17599,-0.37268 -0.36233,-0.37268 -0.16563,0 -0.37267,0.0932 -0.37267,0.38303 0,0.60043 0.61078,1.03522 1.33543,1.03522 0.80747,0 1.4079,-0.60043 1.4079,-1.27332 0,-0.53832 -0.42444,-1.05592 -1.10768,-1.20085 z m 0,0"
           style="fill:#d55e00;fill-opacity:1;stroke:none;stroke-width:0"
           inkscape:connector-curvature="0" />
        <g
           id="g5099"
           transform="translate(32.482117,-4.5168451)">
          <path
             inkscape:connector-curvature="0"
             style="fill:#56b4e9;fill-opacity:1;stroke:none;stroke-width:0"
             d="m 316.78698,166.65115 1.02136,-0.99131 c 1.48697,-1.32175 2.05773,-1.83243 2.05773,-2.79371 0,-1.09645 -0.85614,-1.86247 -2.02769,-1.86247 -1.08144,0 -1.78737,0.88618 -1.78737,1.74231 0,0.5257 0.48063,0.5257 0.51067,0.5257 0.16522,0 0.49566,-0.10514 0.49566,-0.51068 0,-0.24031 -0.18024,-0.49565 -0.51068,-0.49565 -0.0751,0 -0.0901,0 -0.12015,0.015 0.21027,-0.63084 0.73597,-0.9763 1.29171,-0.9763 0.87115,0 1.27669,0.78104 1.27669,1.56207 0,0.76602 -0.46562,1.51702 -1.00633,2.11781 l -1.83243,2.04271 c -0.10514,0.10514 -0.10514,0.13518 -0.10514,0.36048 h 3.55972 l 0.25534,-1.66721 h -0.2253 c -0.0601,0.28538 -0.12016,0.70594 -0.2253,0.85613 -0.0601,0.0751 -0.69092,0.0751 -0.9012,0.0751 z m 0,0"
             id="path5083" />
          <path
             inkscape:connector-curvature="0"
             style="fill:#56b4e9;fill-opacity:1;stroke:none;stroke-width:0"
             d="m 324.92483,161.54438 c 0.0751,-0.10514 0.0751,-0.12016 0.0751,-0.33044 h -2.32809 c -1.15654,0 -1.18658,-0.12016 -1.21662,-0.3004 h -0.24031 l -0.31542,1.96761 h 0.24032 c 0.03,-0.1502 0.10514,-0.75099 0.24031,-0.87115 0.0601,-0.0601 0.81108,-0.0601 0.93124,-0.0601 h 1.98263 c -0.10514,0.1502 -0.85614,1.20159 -1.06642,1.51701 -0.87115,1.29171 -1.18657,2.62849 -1.18657,3.60478 0,0.0901 0,0.5257 0.4506,0.5257 0.43558,0 0.43558,-0.43558 0.43558,-0.5257 v -0.49566 c 0,-0.52569 0.03,-1.05139 0.10514,-1.56207 0.0451,-0.2253 0.16521,-1.05139 0.60079,-1.63717 z m 0,0"
             id="path5085" />
        </g>
        <path
           id="path5087"
           d="m 299.37081,154.69969 c 0,-0.16737 0,-0.17782 -0.1569,-0.17782 -0.41846,0.4289 -1.00432,0.4289 -1.21353,0.4289 v 0.20925 c 0.13599,0 0.52307,0 0.86829,-0.17784 v 3.46273 c 0,0.24063 -0.0208,0.31386 -0.61722,0.31386 h -0.20921 v 0.20922 c 0.23014,-0.0208 0.8055,-0.0208 1.0775,-0.0208 0.26155,0 0.84738,0 1.07756,0.0208 v -0.20922 h -0.20925 c -0.60676,0 -0.61724,-0.0732 -0.61724,-0.31386 z m 0,0"
           style="fill:#ff0000;fill-opacity:1;stroke:none;stroke-width:0"
           inkscape:connector-curvature="0" />
        <g
           id="g5095"
           transform="translate(18.28514,-13.7698)">
          <path
             inkscape:connector-curvature="0"
             style="fill:#0000ff;fill-opacity:1;stroke:none;stroke-width:0"
             d="m 248.64085,170.5645 c 0,-0.24032 0,-0.25534 -0.22529,-0.25534 -0.6008,0.61582 -1.44192,0.61582 -1.74231,0.61582 v 0.3004 c 0.19525,0 0.75099,0 1.24665,-0.25534 v 4.97159 c 0,0.34546 -0.03,0.4506 -0.88618,0.4506 h -0.30039 v 0.3004 c 0.33043,-0.03 1.15653,-0.03 1.54705,-0.03 0.37549,0 1.21661,0 1.54705,0.03 v -0.3004 h -0.3004 c -0.87116,0 -0.88618,-0.10514 -0.88618,-0.4506 z m 0,0"
             id="path5089" />
          <path
             inkscape:connector-curvature="0"
             style="fill:#0000ff;fill-opacity:1;stroke:none;stroke-width:0"
             d="m 251.82213,175.95665 1.02136,-0.99131 c 1.48697,-1.32175 2.05773,-1.83243 2.05773,-2.79371 0,-1.09645 -0.85614,-1.86247 -2.02769,-1.86247 -1.08144,0 -1.78737,0.88618 -1.78737,1.74231 0,0.5257 0.48063,0.5257 0.51067,0.5257 0.16522,0 0.49566,-0.10514 0.49566,-0.51068 0,-0.24031 -0.18024,-0.49565 -0.51068,-0.49565 -0.0751,0 -0.0901,0 -0.12015,0.015 0.21027,-0.63084 0.73597,-0.9763 1.29171,-0.9763 0.87115,0 1.27669,0.78104 1.27669,1.56207 0,0.76602 -0.46562,1.51702 -1.00633,2.11781 l -1.83243,2.04271 c -0.10514,0.10514 -0.10514,0.13518 -0.10514,0.36048 h 3.55972 l 0.25534,-1.66721 h -0.2253 c -0.0601,0.28538 -0.12016,0.70594 -0.2253,0.85613 -0.0601,0.0751 -0.69092,0.0751 -0.9012,0.0751 z m 0,0"
             id="path5091" />
        </g>
      </g>
    </g>
  </g>
</svg>
